<?xml version="1.0" encoding="UTF-8" standalone="no"?>
<!-- Created with Inkscape (http://www.inkscape.org/) -->

<svg
   width="40.423996mm"
   height="56.424011mm"
   viewBox="0 0 40.423996 56.424011"
   version="1.1"
   id="svg1"
   xml:space="preserve"
   xmlns="http://www.w3.org/2000/svg"
   xmlns:svg="http://www.w3.org/2000/svg"><defs
     id="defs1"><rect
       x="208.77827"
       y="241.85934"
       width="88.951309"
       height="72.043205"
       id="rect2-6-7-6-1-3-1-1" /><rect
       x="208.77827"
       y="241.85934"
       width="88.951309"
       height="72.043205"
       id="rect2-1-0-5-1-0-3-7-2" /></defs><g
     id="layer1"
     transform="translate(-8.7861292,-170.08317)"><g
       id="g20"><path
         style="fill:#ffffff;fill-opacity:1;stroke:#ff0f0f;stroke-width:0.423998;stroke-opacity:1"
         id="rect1-8-5-5-8-7-1-7"
         width="40"
         height="56"
         x="40.845924"
         y="73.133659"
         transform="translate(-31.847796,97.16152)"
         d="m 46.845924,73.133659 h 28 a 6,6 45 0 1 6,6 v 44.000001 a 6,6 135 0 1 -6,6 h -28 a 6,6 45 0 1 -6,-6 V 79.133659 a 6,6 135 0 1 6,-6 z" /><text
         xml:space="preserve"
         transform="matrix(0.26458333,0,0,0.26458333,-42.562556,107.87331)"
         id="text2-5-5-3-0-1-0-5"
         style="font-style:normal;font-weight:normal;font-size:40px;line-height:1.25;font-family:sans-serif;white-space:pre;shape-inside:url(#rect2-6-7-6-1-3-1-1);display:inline;fill:#ff0f0f;fill-opacity:1;stroke:#ff0f0f;stroke-opacity:1"><tspan
           x="208.77734"
           y="278.77427"
           id="tspan2"><tspan
             style="font-weight:600;font-family:'New York Extra Large';-inkscape-font-specification:'New York Extra Large Semi-Bold'"
             id="tspan1">10</tspan></tspan></text><text
         xml:space="preserve"
         transform="matrix(-0.26458333,0,0,-0.26458333,100.55883,288.71705)"
         id="text2-7-4-1-5-7-5-5-4"
         style="font-style:normal;font-weight:normal;font-size:40px;line-height:1.25;font-family:sans-serif;white-space:pre;shape-inside:url(#rect2-1-0-5-1-0-3-7-2);display:inline;fill:#ff0f0f;fill-opacity:1;stroke:#ff0f0f;stroke-opacity:1"><tspan
           x="208.77734"
           y="278.77427"
           id="tspan4"><tspan
             style="font-weight:600;font-family:'New York Extra Large';-inkscape-font-specification:'New York Extra Large Semi-Bold'"
             id="tspan3">10</tspan></tspan></text><path
         d="m 29.034676,193.40112 c -0.0087,-0.009 -0.0462,-0.10907 -0.08381,-0.22343 -0.138578,-0.42212 -0.320375,-0.7834 -0.620044,-1.23226 -0.229486,-0.34372 -0.436885,-0.61304 -1.027922,-1.33482 -0.615727,-0.75192 -0.759327,-0.93929 -0.904123,-1.1796 -0.164505,-0.27305 -0.282369,-0.57887 -0.318065,-0.82531 -0.01573,-0.10846 -0.01346,-0.3874 0.0034,-0.48351 0.08468,-0.46834 0.451754,-0.87701 0.931222,-1.03664 0.1708,-0.0569 0.251441,-0.068 0.491227,-0.0676 0.199783,2.9e-4 0.219098,0.002 0.320949,0.0233 0.329042,0.07 0.594457,0.21633 0.821589,0.45317 0.139718,0.1457 0.236087,0.28815 0.341784,0.50519 l 0.06488,0.13323 0.06679,-0.13875 c 0.07591,-0.15778 0.144068,-0.2661 0.239273,-0.38043 0.272035,-0.32668 0.581787,-0.51424 0.958285,-0.58031 0.100789,-0.0176 0.349044,-0.0241 0.46684,-0.012 0.173181,0.0177 0.376333,0.0778 0.537545,0.15875 0.278278,0.13993 0.523041,0.40311 0.638561,0.68658 0.179155,0.43966 0.09659,0.98469 -0.241228,1.59253 -0.194971,0.3508 -0.372685,0.58904 -0.941662,1.26232 -0.507051,0.60001 -0.742547,0.9008 -0.9737,1.24374 -0.299574,0.44444 -0.496108,0.82715 -0.649487,1.26474 -0.03144,0.0897 -0.06027,0.16595 -0.06392,0.16937 -0.01728,0.0159 -0.04395,0.0168 -0.05889,0.002 z"
         style="fill:#ff0f0f;fill-opacity:1;stroke:#ff0f0f;stroke-width:0.0945282;stroke-opacity:1"
         id="path1-2-8-3-6-9-0-8-0-5" /><path
         d="m 29.034676,209.56692 c -0.0087,-0.009 -0.0462,-0.10907 -0.08381,-0.22343 -0.138578,-0.42212 -0.320375,-0.7834 -0.620044,-1.23226 -0.229486,-0.34372 -0.436885,-0.61304 -1.027922,-1.33482 -0.615727,-0.75192 -0.759327,-0.93929 -0.904123,-1.1796 -0.164505,-0.27305 -0.282369,-0.57887 -0.318065,-0.82531 -0.01573,-0.10846 -0.01346,-0.3874 0.0034,-0.48351 0.08468,-0.46834 0.451754,-0.87701 0.931222,-1.03664 0.1708,-0.0569 0.251441,-0.068 0.491227,-0.0676 0.199783,2.9e-4 0.219098,0.002 0.320949,0.0233 0.329042,0.07 0.594457,0.21633 0.821589,0.45317 0.139718,0.1457 0.236087,0.28815 0.341784,0.50519 l 0.06488,0.13323 0.06679,-0.13875 c 0.07591,-0.15778 0.144068,-0.2661 0.239273,-0.38043 0.272035,-0.32668 0.581787,-0.51424 0.958285,-0.58031 0.100789,-0.0176 0.349044,-0.0241 0.46684,-0.012 0.173181,0.0177 0.376333,0.0778 0.537545,0.15875 0.278278,0.13993 0.523041,0.40311 0.638561,0.68658 0.179155,0.43966 0.09659,0.98469 -0.241228,1.59253 -0.194971,0.3508 -0.372685,0.58904 -0.941662,1.26232 -0.507051,0.60001 -0.742547,0.9008 -0.9737,1.24374 -0.299574,0.44444 -0.496108,0.82715 -0.649487,1.26474 -0.03144,0.0897 -0.06027,0.16595 -0.06392,0.16937 -0.01728,0.0159 -0.04395,0.0168 -0.05889,0.002 z"
         style="fill:#ff0f0f;fill-opacity:1;stroke:#ff0f0f;stroke-width:0.0945282;stroke-opacity:1"
         id="path1-2-8-3-6-9-0-8-0-5-8" /><path
         d="m 20.794607,189.35775 c -0.0087,-0.009 -0.0462,-0.10908 -0.08381,-0.22343 -0.13858,-0.42213 -0.320376,-0.78342 -0.620045,-1.23226 -0.229485,-0.34374 -0.436885,-0.61305 -1.027921,-1.33484 -0.615728,-0.75192 -0.759327,-0.93928 -0.904125,-1.1796 -0.164504,-0.27303 -0.282369,-0.57886 -0.318065,-0.82528 -0.01572,-0.10846 -0.01346,-0.38742 0.0034,-0.48352 0.08468,-0.46835 0.451754,-0.87702 0.931222,-1.03665 0.170801,-0.0569 0.251442,-0.0679 0.491227,-0.0676 0.199783,3e-4 0.219099,0.002 0.320948,0.0233 0.329043,0.0699 0.594459,0.21631 0.821591,0.45317 0.139716,0.14569 0.236086,0.28814 0.341783,0.50518 l 0.06488,0.13323 0.06679,-0.13874 c 0.07591,-0.1578 0.144068,-0.26612 0.239274,-0.38044 0.272033,-0.32668 0.581786,-0.51424 0.958284,-0.5803 0.100789,-0.0176 0.349044,-0.0241 0.46684,-0.012 0.17318,0.0177 0.376332,0.0778 0.537544,0.15876 0.278279,0.13992 0.523042,0.4031 0.638562,0.68659 0.179156,0.43965 0.09659,0.98469 -0.241228,1.59251 -0.194971,0.35081 -0.372685,0.58904 -0.941661,1.26232 -0.507052,0.60002 -0.742547,0.90082 -0.973701,1.24376 -0.299573,0.44442 -0.496108,0.82714 -0.649486,1.26472 -0.03144,0.0898 -0.06027,0.16596 -0.06392,0.16937 -0.01728,0.0159 -0.04394,0.0168 -0.05889,0.002 z"
         style="fill:#ff0f0f;fill-opacity:1;stroke:#ff0f0f;stroke-width:0.0945282;stroke-opacity:1"
         id="path1-2-8-3-0-4-4-7" /><path
         d="m 20.794607,197.44452 c -0.0087,-0.009 -0.0462,-0.10908 -0.08381,-0.22343 -0.13858,-0.42212 -0.320376,-0.78341 -0.620045,-1.23226 -0.229485,-0.34373 -0.436885,-0.61305 -1.027921,-1.33483 -0.615728,-0.75192 -0.759327,-0.93928 -0.904125,-1.1796 -0.164504,-0.27304 -0.282369,-0.57887 -0.318065,-0.8253 -0.01572,-0.10846 -0.01346,-0.38741 0.0034,-0.48351 0.08468,-0.46835 0.451754,-0.87701 0.931222,-1.03665 0.170801,-0.0568 0.251442,-0.068 0.491227,-0.0676 0.199783,3e-4 0.219099,0.002 0.320948,0.0233 0.329043,0.07 0.594459,0.21631 0.821591,0.45317 0.139716,0.1457 0.236086,0.28814 0.341783,0.50518 l 0.06488,0.13323 0.06679,-0.13874 c 0.07591,-0.15778 0.144068,-0.26611 0.239274,-0.38044 0.272033,-0.32667 0.581786,-0.51424 0.958284,-0.5803 0.100789,-0.0176 0.349044,-0.0241 0.46684,-0.012 0.17318,0.0177 0.376332,0.0778 0.537544,0.15875 0.278279,0.13994 0.523042,0.40311 0.638562,0.68659 0.179156,0.43966 0.09659,0.98469 -0.241228,1.59253 -0.194971,0.35079 -0.372685,0.58903 -0.941661,1.26231 -0.507052,0.60002 -0.742547,0.90081 -0.973701,1.24375 -0.299573,0.44443 -0.496108,0.82715 -0.649486,1.26474 -0.03144,0.0897 -0.06027,0.16594 -0.06392,0.16936 -0.01728,0.0159 -0.04394,0.0168 -0.05889,0.002 z"
         style="fill:#ff0f0f;fill-opacity:1;stroke:#ff0f0f;stroke-width:0.0945282;stroke-opacity:1"
         id="path1-2-8-3-6-9-0-8-1" /><path
         d="m 20.794607,205.52615 c -0.0087,-0.009 -0.0462,-0.10909 -0.08381,-0.22342 -0.13858,-0.42213 -0.320376,-0.78342 -0.620045,-1.23228 -0.229485,-0.34371 -0.436885,-0.61304 -1.027921,-1.33482 -0.615728,-0.75192 -0.759327,-0.93929 -0.904125,-1.1796 -0.164504,-0.27304 -0.282369,-0.57887 -0.318065,-0.82531 -0.01572,-0.10846 -0.01346,-0.38741 0.0034,-0.4835 0.08468,-0.46835 0.451754,-0.87703 0.931222,-1.03665 0.170801,-0.0569 0.251442,-0.0679 0.491227,-0.0676 0.199783,2.9e-4 0.219099,0.002 0.320948,0.0233 0.329043,0.0699 0.594459,0.21632 0.821591,0.45316 0.139716,0.1457 0.236086,0.28816 0.341783,0.5052 l 0.06488,0.13323 0.06679,-0.13875 c 0.07591,-0.15779 0.144068,-0.26611 0.239274,-0.38043 0.272033,-0.32668 0.581786,-0.51425 0.958284,-0.5803 0.100789,-0.0177 0.349044,-0.0241 0.46684,-0.012 0.17318,0.0177 0.376332,0.0778 0.537544,0.15876 0.278279,0.13992 0.523042,0.40309 0.638562,0.68658 0.179156,0.43965 0.09659,0.9847 -0.241228,1.59252 -0.194971,0.35081 -0.372685,0.58904 -0.941661,1.26232 -0.507052,0.60001 -0.742547,0.90081 -0.973701,1.24374 -0.299573,0.44444 -0.496108,0.82716 -0.649486,1.26474 -0.03144,0.0897 -0.06027,0.16596 -0.06392,0.16938 -0.01728,0.0159 -0.04394,0.0166 -0.05889,0.002 z"
         style="fill:#ff0f0f;fill-opacity:1;stroke:#ff0f0f;stroke-width:0.0945282;stroke-opacity:1"
         id="path1-2-8-4-7-3-5-7-0" /><path
         d="m 21.003935,213.60772 c -0.0087,-0.009 -0.04621,-0.10908 -0.08381,-0.22342 -0.138579,-0.42213 -0.320375,-0.78342 -0.620044,-1.23226 -0.229486,-0.34373 -0.436885,-0.61305 -1.027922,-1.33483 -0.615727,-0.75192 -0.759326,-0.9393 -0.904124,-1.17961 -0.164504,-0.27304 -0.282369,-0.57887 -0.318065,-0.82529 -0.01571,-0.10846 -0.01346,-0.38742 0.0034,-0.48351 0.08468,-0.46836 0.451755,-0.87702 0.931223,-1.03666 0.1708,-0.0568 0.251441,-0.0679 0.491227,-0.0676 0.199782,3e-4 0.219098,0.002 0.320948,0.0233 0.329042,0.0699 0.594459,0.21631 0.82159,0.45317 0.139716,0.1457 0.236087,0.28815 0.341784,0.50518 l 0.06488,0.13323 0.06679,-0.13874 c 0.07591,-0.1578 0.144069,-0.2661 0.239275,-0.38044 0.272033,-0.32666 0.581785,-0.51424 0.958284,-0.5803 0.100789,-0.0177 0.349043,-0.0241 0.46684,-0.012 0.17318,0.0177 0.376332,0.0778 0.537544,0.15876 0.278278,0.13994 0.523042,0.4031 0.638561,0.68659 0.179156,0.43965 0.09659,0.98469 -0.241227,1.59252 -0.194971,0.3508 -0.372685,0.58903 -0.941661,1.26232 -0.507052,0.60001 -0.742547,0.90081 -0.973701,1.24375 -0.299574,0.44442 -0.496108,0.82714 -0.649486,1.26474 -0.03144,0.0897 -0.06027,0.16594 -0.06392,0.16936 -0.01728,0.0159 -0.04395,0.0166 -0.05889,0.002 z"
         style="fill:#ff0f0f;fill-opacity:1;stroke:#ff0f0f;stroke-width:0.0945282;stroke-opacity:1"
         id="path1-2-8-4-7-3-5-0-5-6" /><path
         d="m 36.937311,182.9877 c -0.0087,0.009 -0.0462,0.10908 -0.08381,0.22342 -0.138571,0.42214 -0.320375,0.78343 -0.620036,1.23226 -0.229494,0.34374 -0.436884,0.61305 -1.02793,1.33483 -0.61572,0.75193 -0.759318,0.93928 -0.904116,1.1796 -0.164503,0.27305 -0.282377,0.57887 -0.318064,0.8253 -0.01572,0.10846 -0.01346,0.38742 0.0034,0.48351 0.08468,0.46835 0.451755,0.87702 0.931213,1.03665 0.17081,0.0569 0.251442,0.068 0.491228,0.0677 0.199791,-3e-4 0.219107,-0.002 0.320956,-0.0233 0.329043,-0.0699 0.59445,-0.21632 0.821582,-0.45318 0.139717,-0.14569 0.236095,-0.28815 0.341793,-0.50516 l 0.06488,-0.13324 0.06679,0.13874 c 0.07591,0.15779 0.144069,0.26611 0.239266,0.38044 0.272042,0.32666 0.581794,0.51422 0.958293,0.58028 0.100789,0.0176 0.349043,0.0241 0.466839,0.012 0.17318,-0.0177 0.376333,-0.0778 0.537536,-0.15876 0.278287,-0.13992 0.523049,-0.40309 0.63857,-0.68659 0.179147,-0.43964 0.0966,-0.98469 -0.241237,-1.59251 -0.194962,-0.35081 -0.372685,-0.58905 -0.941652,-1.26234 -0.50706,-0.59999 -0.742547,-0.90079 -0.9737,-1.24372 -0.299574,-0.44443 -0.496108,-0.82715 -0.649487,-1.26474 -0.03144,-0.0897 -0.06027,-0.16595 -0.06392,-0.16936 -0.01728,-0.0159 -0.04395,-0.0168 -0.05889,-0.002 z"
         style="fill:#ff0f0f;fill-opacity:1;stroke:#ff0f0f;stroke-width:0.0945282;stroke-opacity:1"
         id="path1-2-8-3-0-7-7-9-0" /><path
         d="m 36.937311,191.06937 c -0.0087,0.009 -0.0462,0.10908 -0.08381,0.22343 -0.138571,0.42212 -0.320375,0.7834 -0.620036,1.23225 -0.229494,0.34374 -0.436884,0.61306 -1.02793,1.33484 -0.61572,0.75192 -0.759318,0.93928 -0.904116,1.17959 -0.164503,0.27305 -0.282377,0.57888 -0.318064,0.8253 -0.01572,0.10846 -0.01346,0.38741 0.0034,0.48352 0.08468,0.46835 0.451755,0.87701 0.931213,1.03665 0.17081,0.0569 0.251442,0.0679 0.491228,0.0676 0.199791,-2.9e-4 0.219107,-0.002 0.320956,-0.0233 0.329043,-0.07 0.59445,-0.21631 0.821582,-0.45317 0.139717,-0.1457 0.236095,-0.28814 0.341793,-0.50518 l 0.06488,-0.13323 0.06679,0.13875 c 0.07591,0.15779 0.144069,0.2661 0.239266,0.38043 0.272042,0.32667 0.581794,0.51425 0.958293,0.5803 0.100789,0.0176 0.349043,0.0241 0.466839,0.012 0.17318,-0.0177 0.376333,-0.0778 0.537536,-0.15875 0.278287,-0.13994 0.523049,-0.4031 0.63857,-0.68659 0.179147,-0.43965 0.0966,-0.98468 -0.241237,-1.59253 -0.194962,-0.35079 -0.372685,-0.58903 -0.941652,-1.26231 -0.50706,-0.60001 -0.742547,-0.90081 -0.9737,-1.24375 -0.299574,-0.44443 -0.496108,-0.82714 -0.649487,-1.26474 -0.03144,-0.0897 -0.06027,-0.16594 -0.06392,-0.16936 -0.01728,-0.0159 -0.04395,-0.0168 -0.05889,-0.002 z"
         style="fill:#ff0f0f;fill-opacity:1;stroke:#ff0f0f;stroke-width:0.0945282;stroke-opacity:1"
         id="path1-2-8-3-6-9-5-0-5-3" /><path
         d="m 36.937311,199.151 c -0.0087,0.009 -0.0462,0.10908 -0.08381,0.22342 -0.138571,0.42214 -0.320375,0.78342 -0.620036,1.23227 -0.229494,0.34372 -0.436884,0.61304 -1.02793,1.33483 -0.61572,0.75191 -0.759318,0.93927 -0.904116,1.17959 -0.164503,0.27305 -0.282377,0.57886 -0.318064,0.8253 -0.01572,0.10846 -0.01346,0.38741 0.0034,0.48351 0.08468,0.46834 0.451755,0.87702 0.931213,1.03665 0.17081,0.0569 0.251442,0.0679 0.491228,0.0676 0.199791,-2.9e-4 0.219107,-0.002 0.320956,-0.0233 0.329043,-0.0699 0.59445,-0.21632 0.821582,-0.45317 0.139717,-0.1457 0.236095,-0.28815 0.341793,-0.50518 l 0.06488,-0.13323 0.06679,0.13874 c 0.07591,0.15778 0.144069,0.26611 0.239266,0.38042 0.272042,0.32669 0.581794,0.51425 0.958293,0.5803 0.100789,0.0177 0.349043,0.0241 0.466839,0.012 0.17318,-0.0177 0.376333,-0.0778 0.537536,-0.15877 0.278287,-0.13991 0.523049,-0.40308 0.63857,-0.68658 0.179147,-0.43964 0.0966,-0.98469 -0.241237,-1.59252 -0.194962,-0.3508 -0.372685,-0.58904 -0.941652,-1.26232 -0.50706,-0.60001 -0.742547,-0.90079 -0.9737,-1.24372 -0.299574,-0.44444 -0.496108,-0.82717 -0.649487,-1.26475 -0.03144,-0.0897 -0.06027,-0.16595 -0.06392,-0.16937 -0.01728,-0.0159 -0.04395,-0.0166 -0.05889,-0.002 z"
         style="fill:#ff0f0f;fill-opacity:1;stroke:#ff0f0f;stroke-width:0.0945282;stroke-opacity:1"
         id="path1-2-8-4-7-3-0-0-3-3" /><path
         d="m 37.146637,207.23258 c -0.0087,0.009 -0.0462,0.10908 -0.08381,0.22342 -0.138571,0.42213 -0.320375,0.78342 -0.620036,1.23226 -0.229495,0.34374 -0.436885,0.61305 -1.02793,1.33483 -0.61572,0.75192 -0.759318,0.93928 -0.904116,1.1796 -0.164504,0.27305 -0.282378,0.57887 -0.318065,0.82529 -0.01572,0.10846 -0.01346,0.38742 0.0034,0.48352 0.08468,0.46834 0.451754,0.87702 0.931213,1.03666 0.17081,0.0569 0.251441,0.0679 0.491228,0.0676 0.199791,-3e-4 0.219106,-0.002 0.320956,-0.0233 0.329042,-0.0699 0.594449,-0.2163 0.821581,-0.45317 0.139717,-0.1457 0.236096,-0.28814 0.341793,-0.50517 l 0.06488,-0.13323 0.06679,0.13873 c 0.07591,0.1578 0.144068,0.26613 0.239264,0.38044 0.272043,0.32667 0.581796,0.51423 0.958294,0.5803 0.100789,0.0177 0.349044,0.0241 0.466839,0.012 0.173181,-0.0177 0.376333,-0.0778 0.537537,-0.15878 0.278287,-0.13992 0.523049,-0.40308 0.638569,-0.68657 0.179147,-0.43966 0.0966,-0.98469 -0.241236,-1.59253 -0.194962,-0.35079 -0.372685,-0.58903 -0.941652,-1.26232 -0.50706,-0.60001 -0.742547,-0.9008 -0.973701,-1.24373 -0.299574,-0.44443 -0.496108,-0.82715 -0.649486,-1.26475 -0.03144,-0.0897 -0.06027,-0.16593 -0.06392,-0.16936 -0.01728,-0.0159 -0.04394,-0.0166 -0.05889,-0.002 z"
         style="fill:#ff0f0f;fill-opacity:1;stroke:#ff0f0f;stroke-width:0.0945282;stroke-opacity:1"
         id="path1-2-8-4-7-3-0-0-6-2-5" /></g></g></svg>
