<?xml version="1.0" encoding="UTF-8" standalone="no"?>
<!-- Created with Inkscape (http://www.inkscape.org/) -->

<svg
   width="40.424mm"
   height="56.423996mm"
   viewBox="0 0 40.424 56.423996"
   version="1.1"
   id="svg1"
   xml:space="preserve"
   xmlns="http://www.w3.org/2000/svg"
   xmlns:svg="http://www.w3.org/2000/svg"><defs
     id="defs1"><rect
       x="208.77827"
       y="241.85934"
       width="88.951309"
       height="72.043205"
       id="rect2-0-7" /><rect
       x="208.77827"
       y="241.85934"
       width="88.951309"
       height="72.043205"
       id="rect2-1-4-9" /></defs><g
     id="layer1"
     transform="translate(-98.138636,-167.85842)"><g
       id="g3-1-0"
       transform="translate(88.819914,108.35757)"
       style="stroke:#000000;stroke-opacity:1"><path
         style="fill:#ffffff;fill-opacity:1;stroke:#ff0f0f;stroke-width:0.423998;stroke-opacity:1"
         id="rect1-7-1"
         width="40"
         height="56"
         x="40.845924"
         y="73.133659"
         transform="translate(-31.31521,-13.420804)"
         d="m 46.845924,73.133659 h 28 a 6,6 45 0 1 6,6 v 44.000001 a 6,6 135 0 1 -6,6 h -28 a 6,6 45 0 1 -6,-6 V 79.133659 a 6,6 135 0 1 6,-6 z" /><text
         xml:space="preserve"
         transform="matrix(0.26458333,0,0,0.26458333,-42.029977,-2.7090155)"
         id="text2-2-1"
         style="font-style:normal;font-weight:normal;font-size:40px;line-height:1.25;font-family:sans-serif;white-space:pre;shape-inside:url(#rect2-0-7);display:inline;fill:#ff0f0f;fill-opacity:1;stroke:#ff0f0f;stroke-opacity:1"><tspan
           x="208.77734"
           y="279.32749"
           id="tspan2"><tspan
             style="font-weight:bold;font-family:'Playfair Display';-inkscape-font-specification:'Playfair Display Bold'"
             id="tspan1">Q</tspan></tspan></text><text
         xml:space="preserve"
         transform="matrix(-0.26458333,0,0,-0.26458333,101.09141,178.13473)"
         id="text2-7-2-2"
         style="font-style:normal;font-weight:normal;font-size:40px;line-height:1.25;font-family:sans-serif;white-space:pre;shape-inside:url(#rect2-1-4-9);display:inline;fill:#ff0f0f;fill-opacity:1;stroke:#ff0f0f;stroke-opacity:1"><tspan
           x="208.77734"
           y="279.32749"
           id="tspan4"><tspan
             style="font-weight:bold;font-family:'Playfair Display';-inkscape-font-specification:'Playfair Display Bold'"
             id="tspan3">Q</tspan></tspan></text><path
         d="m 29.404694,103.21752 c -0.03871,-0.0388 -0.209574,-0.49439 -0.379688,-1.01258 -0.628035,-1.9131 -1.451899,-3.550439 -2.809965,-5.584609 -1.040033,-1.5578 -1.979946,-2.778369 -4.658483,-6.049476 -2.790392,-3.407703 -3.441206,-4.256832 -4.09739,-5.345947 -0.74556,-1.237448 -1.279711,-2.623458 -1.441452,-3.740276 -0.07119,-0.491537 -0.06095,-1.755761 0.0178,-2.191274 0.383622,-2.122554 2.047328,-3.974645 4.220219,-4.698084 0.774058,-0.257712 1.139514,-0.30802 2.226209,-0.30645 0.905415,0.0013 0.992943,0.0078 1.454527,0.10578 1.491203,0.31691 2.694018,0.980368 3.72335,2.053771 0.633194,0.66031 1.069967,1.305894 1.548954,2.289486 l 0.294046,0.60381 0.302585,-0.628773 c 0.344147,-0.715122 0.65289,-1.20603 1.084346,-1.724152 1.232874,-1.480482 2.636614,-2.330542 4.342893,-2.629902 0.456777,-0.08015 1.581849,-0.109156 2.115676,-0.05455 0.784845,0.08025 1.705526,0.352192 2.436092,0.719515 1.261153,0.634111 2.370416,1.826801 2.893953,3.111615 0.811892,1.992479 0.437728,4.462597 -1.093254,7.217314 -0.883567,1.589826 -1.688991,2.66954 -4.267541,5.720852 -2.297925,2.719247 -3.365135,4.082451 -4.412718,5.636621 -1.357629,2.01418 -2.24833,3.748649 -2.943426,5.731799 -0.142542,0.4067 -0.272904,0.75211 -0.289686,0.76761 -0.07829,0.0721 -0.199136,0.0758 -0.267045,0.008 z"
         style="fill:#ff0f0f;fill-opacity:1;stroke:#ff0f0f;stroke-width:0.428396;stroke-opacity:1"
         id="path1-2-1-5" /><path
         style="fill:#ffffff;fill-opacity:1;stroke:#ffffff;stroke-width:0.0995172;stroke-opacity:1"
         d="m 27.901578,91.65424 c -0.66532,-0.049 -1.2645,-0.20165 -1.76129,-0.4488 -0.30596,-0.15221 -0.38462,-0.23639 -0.34383,-0.36793 0.03,-0.0969 0.12975,-0.34062 0.28892,-0.70607 0.0782,-0.17972 0.13886,-0.33804 0.13464,-0.35182 -0.007,-0.0221 -0.21298,-0.50051 -0.24956,-0.57899 -0.0578,-0.12404 -0.14988,-0.33956 -0.14988,-0.35086 0,-0.008 -0.009,-0.0227 -0.0194,-0.0336 -0.0109,-0.0109 -0.12313,-0.14778 -0.24999,-0.30423 -0.12687,-0.15644 -0.31895,-0.39224 -0.42686,-0.52399 -0.10793,-0.13175 -0.20055,-0.24679 -0.2059,-0.25566 -0.011,-0.0183 -0.0556,-0.31476 -0.10918,-0.72496 -0.074,-0.56689 -0.26152,-2.04914 -0.33625,-2.65739 -0.0425,-0.34583 -0.082,-0.63814 -0.0878,-0.64958 -0.005,-0.0114 -0.0728,-0.0424 -0.14874,-0.0688 -0.23393,-0.0813 -0.36799,-0.19724 -0.46461,-0.40173 -0.15021,-0.31793 -0.0717,-0.69267 0.19626,-0.93681 0.11299,-0.10292 0.27183,-0.16392 0.46013,-0.17663 0.40257,-0.0272 0.69642,0.16391 0.83337,0.54194 0.0371,0.10249 0.0376,0.35989 0.001,0.46098 -0.0357,0.0983 -0.0794,0.1819 -0.14783,0.28288 -0.0318,0.0469 -0.0578,0.0896 -0.0578,0.0948 0,0.0109 0.0732,0.18208 0.13093,0.30649 0.14881,0.32062 0.2726,0.58264 0.38197,0.80845 0.0697,0.14409 0.1709,0.35295 0.22468,0.46411 0.0847,0.17523 0.43617,0.89742 0.56395,1.15906 l 0.0433,0.0887 0.009,-0.0661 c 0.004,-0.0365 0.0156,-0.2009 0.0243,-0.36558 0.009,-0.16469 0.0258,-0.46449 0.0378,-0.66623 0.012,-0.20173 0.0354,-0.6127 0.052,-0.91324 0.0165,-0.30054 0.037,-0.66772 0.0453,-0.81593 0.0352,-0.62489 0.0399,-0.73321 0.0333,-0.75847 -0.004,-0.0146 -0.0383,-0.0446 -0.0765,-0.0666 -0.1677,-0.0966 -0.28284,-0.21416 -0.36066,-0.36822 -0.0751,-0.14872 -0.0966,-0.25413 -0.0859,-0.4206 0.008,-0.11338 0.0169,-0.14895 0.0683,-0.25532 0.16569,-0.34232 0.55301,-0.53788 0.89329,-0.451 0.27176,0.0694 0.48526,0.26181 0.58527,0.52751 0.0339,0.0903 0.0373,0.11789 0.0329,0.27408 -0.005,0.17087 -0.007,0.17586 -0.0708,0.30719 -0.0497,0.10064 -0.0906,0.15787 -0.16643,0.23268 l -0.10053,0.0991 0.0346,0.10293 c 0.0451,0.13386 0.26595,0.77553 0.43996,1.27817 0.0755,0.2182 0.17339,0.50116 0.21742,0.62879 0.26368,0.76417 0.46905,1.34537 0.48615,1.37582 0.0118,0.0208 0.0145,0.021 0.0213,0.001 0.009,-0.0235 0.0655,-0.33725 0.18154,-0.99558 0.10424,-0.59115 0.10554,-0.59881 0.22536,-1.28753 0.0616,-0.35406 0.14547,-0.83626 0.18645,-1.07156 0.0409,-0.23528 0.0744,-0.43176 0.0744,-0.43659 0,-0.005 -0.0432,-0.0396 -0.096,-0.0773 -0.28941,-0.20651 -0.41424,-0.53006 -0.33006,-0.85545 0.12041,-0.4655 0.65622,-0.73035 1.07729,-0.53251 0.19599,0.092 0.32799,0.22317 0.42224,0.41932 0.048,0.1 0.0555,0.13089 0.0614,0.25449 0.004,0.0821 -10e-4,0.17562 -0.0116,0.22458 -0.0421,0.192 -0.15941,0.36173 -0.33857,0.48957 -0.0528,0.0377 -0.096,0.0732 -0.096,0.079 0,0.005 0.0232,0.14163 0.0514,0.30185 0.0283,0.16023 0.0826,0.47321 0.12073,0.69554 0.0381,0.22233 0.0855,0.49518 0.10522,0.60634 0.0197,0.11115 0.0633,0.36043 0.0969,0.55393 0.0336,0.19351 0.0774,0.44277 0.0973,0.55394 0.0199,0.11116 0.0704,0.39412 0.11217,0.62879 0.0856,0.48069 0.086,0.48226 0.10543,0.44754 0.0202,-0.0361 0.27888,-0.77189 0.62032,-1.76501 0.0439,-0.12763 0.13489,-0.39038 0.20222,-0.58388 0.0674,-0.19351 0.17177,-0.49789 0.23205,-0.67642 0.0603,-0.17854 0.11423,-0.33211 0.1199,-0.34128 0.005,-0.01 -0.0286,-0.0532 -0.0807,-0.10206 -0.27684,-0.25958 -0.34208,-0.68024 -0.15198,-0.97986 0.0987,-0.15551 0.26538,-0.29253 0.43375,-0.35651 0.17095,-0.065 0.40692,-0.0512 0.57595,0.0333 0.19347,0.0968 0.30566,0.21146 0.40946,0.41826 0.0553,0.11003 0.0556,0.11186 0.056,0.29989 l 4.2e-4,0.18919 -0.0712,0.14019 c -0.0917,0.18069 -0.19734,0.29207 -0.37261,0.39302 -0.0383,0.0221 -0.0728,0.0528 -0.0769,0.0684 -0.004,0.0157 0.005,0.25288 0.0206,0.52727 0.0154,0.27437 0.0382,0.68414 0.0508,0.91058 0.0726,1.30954 0.11427,2.02148 0.1217,2.08024 l 0.009,0.0666 0.14199,-0.29119 c 0.0781,-0.16015 0.15585,-0.32139 0.17277,-0.35831 0.017,-0.037 0.0859,-0.1784 0.15339,-0.31439 0.0675,-0.136 0.18721,-0.38202 0.26618,-0.54669 0.079,-0.16469 0.19046,-0.39711 0.24777,-0.51651 0.17467,-0.36399 0.36258,-0.77887 0.36258,-0.80055 0,-0.005 -0.026,-0.0479 -0.0578,-0.0948 -0.0683,-0.10075 -0.112,-0.18436 -0.14794,-0.28289 -0.0363,-0.0995 -0.0355,-0.35722 0.001,-0.46098 0.13419,-0.37638 0.43041,-0.56911 0.83295,-0.54193 0.32237,0.0218 0.54614,0.18279 0.67593,0.48638 0.0456,0.10673 0.0494,0.12762 0.0497,0.28 5e-4,0.19559 -0.0323,0.31061 -0.13063,0.45701 -0.0972,0.14468 -0.21672,0.22989 -0.4188,0.29845 -0.0676,0.023 -0.12761,0.0509 -0.1334,0.0624 -0.005,0.0113 -0.0553,0.38442 -0.11,0.82906 -0.0911,0.73989 -0.22662,1.81025 -0.3148,2.48522 -0.0566,0.43336 -0.0978,0.70137 -0.11041,0.71805 -0.0236,0.0313 -0.32047,0.39872 -0.5932,0.73416 -0.27901,0.34315 -0.31187,0.39188 -0.38879,0.57639 -0.0223,0.0535 -0.0497,0.11753 -0.0609,0.14223 -0.0585,0.12935 -0.24986,0.57235 -0.25647,0.59397 -0.004,0.0138 0.0563,0.1721 0.13463,0.35182 0.14689,0.33726 0.24344,0.57324 0.28551,0.6978 0.0306,0.0906 0.0111,0.14587 -0.0788,0.22278 -0.0831,0.0712 -0.44371,0.24773 -0.67909,0.33253 -0.34818,0.12544 -0.80252,0.22396 -1.14865,0.24907 -0.19695,0.0144 -3.29403,0.0328 -3.45891,0.0207 z m 3.23378,-0.43993 c 0.36816,-0.0137 0.5668,-0.0383 0.85336,-0.10554 0.14286,-0.0335 0.55514,-0.16158 0.57302,-0.17802 0.0282,-0.026 -0.69002,-0.22002 -1.13445,-0.30651 -0.69647,-0.13556 -1.10987,-0.17341 -1.89385,-0.17341 -0.82497,0 -1.30632,0.0482 -2.03608,0.20374 -0.47156,0.10053 -1.01814,0.25257 -0.99222,0.27599 0.0355,0.032 0.49234,0.16233 0.75268,0.21467 0.10401,0.0209 0.40697,0.0618 0.54644,0.0738 0.13865,0.0119 2.99513,0.008 3.3311,-0.004 z m -4.46891,-0.78037 c 0.55069,-0.15911 1.15366,-0.28384 1.72748,-0.3573 0.53569,-0.0687 1.74639,-0.0688 2.27666,-4.1e-4 0.60663,0.0783 1.36367,0.23887 1.82358,0.38682 0.10097,0.0324 0.18641,0.0544 0.18988,0.0489 0.0113,-0.0183 -0.18428,-0.45444 -0.22776,-0.50815 -0.057,-0.0705 -0.15668,-0.11792 -0.47507,-0.22618 -0.54725,-0.18607 -1.22619,-0.33349 -1.72916,-0.37542 -0.26105,-0.0218 -1.17619,-0.0218 -1.43724,0 -0.50297,0.042 -1.18192,0.18935 -1.72917,0.37542 -0.31839,0.10826 -0.41802,0.1557 -0.47506,0.22618 -0.0446,0.055 -0.23888,0.49016 -0.22727,0.50895 0.004,0.007 0.0454,-0.002 0.0926,-0.0188 0.0471,-0.0163 0.13293,-0.0434 0.19056,-0.0601 z m 0.26626,-1.03842 c 0.5104,-0.17189 0.76632,-0.24056 1.19343,-0.32021 0.34725,-0.0647 0.67631,-0.10282 1.06912,-0.12361 0.78064,-0.0413 1.71599,0.0703 2.47518,0.29534 0.0721,0.0213 0.16145,0.0477 0.19851,0.0583 0.037,0.0109 0.17516,0.058 0.30691,0.1051 0.13174,0.0471 0.26197,0.0866 0.28938,0.0877 l 0.0498,0.002 0.12722,-0.29195 c 0.14283,-0.32774 0.16093,-0.37319 0.15218,-0.38194 -0.003,-0.003 -0.0833,-0.0304 -0.17766,-0.06 -0.6897,-0.21636 -1.46926,-0.37903 -2.15518,-0.44973 -0.31395,-0.0323 -1.16343,-0.0454 -1.50692,-0.0232 -0.60056,0.0389 -1.14095,0.11755 -1.67447,0.24354 -0.42247,0.0998 -1.01055,0.27448 -1.01055,0.30021 0,0.008 0.0244,0.0693 0.0542,0.13648 0.0298,0.0672 0.0843,0.19294 0.12126,0.27939 0.0369,0.0865 0.0766,0.1791 0.0882,0.20585 0.0116,0.0268 0.0314,0.0486 0.044,0.0486 0.0125,0 0.17245,-0.0504 0.35537,-0.11201 z m -0.68475,-0.9965 c 1.6227,-0.54889 3.29941,-0.68437 4.98471,-0.40276 0.47828,0.08 0.988,0.20708 1.49969,0.37415 0.12493,0.0408 0.24346,0.0742 0.2634,0.0742 0.0269,0 0.0615,-0.03 0.13358,-0.11604 0.17289,-0.20616 0.53616,-0.66338 0.53575,-0.67431 -2.3e-4,-0.005 -0.0754,-0.0702 -0.16699,-0.14298 -0.14956,-0.11883 -0.17132,-0.1314 -0.21294,-0.12298 -0.10249,0.0207 -0.48936,0.0265 -0.61076,0.009 -0.33927,-0.0486 -0.7087,-0.17852 -0.98941,-0.34786 l -0.10162,-0.0614 -0.18283,0.0546 c -0.27402,0.0818 -0.39607,0.10151 -0.63198,0.10238 -0.40437,10e-4 -0.73799,-0.10097 -1.10966,-0.34074 l -0.12546,-0.081 -0.13099,0.0845 c -0.35243,0.22743 -0.71623,0.33816 -1.11162,0.33835 -0.24479,1e-4 -0.35938,-0.0188 -0.62786,-0.10358 l -0.1731,-0.0546 -0.0674,0.0399 c -0.31158,0.18481 -0.69026,0.32057 -1.03003,0.36928 -0.12149,0.0174 -0.5082,0.0116 -0.61101,-0.009 -0.0419,-0.009 -0.0623,0.003 -0.20192,0.11548 -0.0854,0.0687 -0.15751,0.1363 -0.16018,0.15022 -0.007,0.032 0.60893,0.8056 0.64052,0.8056 0.005,0 0.0897,-0.0272 0.18808,-0.0605 z m -0.80018,-1.31642 c 0.0775,-0.0582 0.1632,-0.11199 0.19065,-0.11959 0.0334,-0.01 0.10739,-0.007 0.224,0.008 0.19593,0.0244 0.33005,0.0274 0.36024,0.009 0.0281,-0.0178 0.0247,-0.0262 -0.18033,-0.44727 -0.0991,-0.20366 -0.21246,-0.43767 -0.25177,-0.52001 -0.0393,-0.0824 -0.18548,-0.38215 -0.32483,-0.66622 -0.13935,-0.28408 -0.32315,-0.65967 -0.40845,-0.83464 -0.13938,-0.28594 -0.18825,-0.3692 -0.17138,-0.29195 0.003,0.0144 0.0367,0.28558 0.0744,0.60259 0.0378,0.31703 0.11879,0.9786 0.18002,1.47018 0.0612,0.49158 0.11132,0.90109 0.11132,0.91002 0,0.0234 0.0335,0.003 0.19611,-0.11915 z m 8.39505,-0.14263 c 0.0963,-0.75232 0.2171,-1.72256 0.27115,-2.17831 0.0337,-0.28408 0.0639,-0.5283 0.067,-0.5427 0.0169,-0.0772 -0.032,0.005 -0.17138,0.29192 -0.0853,0.17499 -0.26912,0.55058 -0.4085,0.83466 -0.13938,0.28408 -0.28234,0.57714 -0.3177,0.65124 -0.0354,0.0741 -0.15567,0.32322 -0.26738,0.55357 -0.11628,0.23979 -0.1975,0.42444 -0.18998,0.43196 0.008,0.008 0.12734,0.005 0.28032,-0.005 0.14697,-0.0109 0.29231,-0.0142 0.32298,-0.009 0.037,0.007 0.10728,0.0506 0.20885,0.12963 0.0842,0.0655 0.15735,0.11411 0.16257,0.10793 0.005,-0.007 0.0242,-0.12575 0.0421,-0.26572 z m -6.86545,-0.14422 c 0.0842,-0.0422 0.21008,-0.11469 0.27962,-0.16094 0.15758,-0.10478 0.1877,-0.10598 0.45744,-0.0176 0.10706,0.035 0.24406,0.0732 0.30448,0.0848 0.12375,0.0237 0.27191,0.0279 0.27191,0.008 0,-0.008 -0.14231,-0.42673 -0.31623,-0.93195 -0.17392,-0.50523 -0.34507,-1.00282 -0.38033,-1.10574 -0.10206,-0.29806 -0.38587,-1.09596 -0.4712,-1.32496 -0.0789,-0.21176 -0.10347,-0.2679 -0.10434,-0.23825 -10e-4,0.0549 -0.16866,2.98429 -0.1874,3.2849 -0.0245,0.39221 -0.0271,0.47907 -0.0149,0.47907 0.004,0 0.0767,-0.0346 0.16094,-0.0768 z m 5.28082,0.0159 c 0,-0.0335 -0.01,-0.22045 -0.0224,-0.41545 -0.0123,-0.19499 -0.046,-0.77897 -0.0751,-1.29771 -0.0778,-1.39133 -0.11337,-1.98986 -0.1187,-1.99519 -0.01,-0.01 -0.35597,0.94648 -0.58511,1.61341 -0.13657,0.3975 -0.23698,0.68935 -0.45498,1.32237 -0.12427,0.36089 -0.22595,0.66237 -0.22595,0.66996 0,0.0209 0.14761,0.0165 0.27617,-0.008 0.0628,-0.012 0.19979,-0.05 0.30449,-0.0844 0.25851,-0.0851 0.29938,-0.0846 0.43218,0.004 0.10053,0.0674 0.43475,0.25076 0.45808,0.25128 0.007,1e-4 0.0112,-0.0272 0.0112,-0.0607 z m -3.24876,-0.24997 c 0.11009,-0.0603 0.26215,-0.1604 0.30691,-0.20212 0.0705,-0.0657 0.1639,-0.11578 0.21592,-0.11572 0.0597,6e-5 0.10771,0.0259 0.24464,0.13185 0.152,0.1176 0.40838,0.26922 0.42578,0.25181 0.004,-0.004 -0.0335,-0.25224 -0.0838,-0.55123 -0.0975,-0.57939 -0.0961,-0.57136 -0.30284,-1.74881 -0.18708,-1.06506 -0.20348,-1.15776 -0.23067,-1.30249 -0.0132,-0.07 -0.0278,-0.15251 -0.0324,-0.18339 -0.004,-0.0309 -0.0129,-0.0561 -0.0183,-0.0561 -0.005,0 -0.0186,0.0488 -0.0293,0.10858 -0.0109,0.0597 -0.029,0.15907 -0.0407,0.22082 -0.021,0.11121 -0.082,0.45774 -0.20073,1.13781 -0.0337,0.19351 -0.0875,0.50004 -0.11946,0.6812 -0.0319,0.18114 -0.0826,0.47084 -0.11248,0.64376 -0.0564,0.32581 -0.1664,0.94112 -0.18161,1.01578 -0.008,0.0392 -0.005,0.0418 0.0266,0.0321 0.0194,-0.005 0.079,-0.0345 0.13251,-0.0638 z m -4.34429,-3.33565 c 0.0702,-0.0294 0.13151,-0.0876 0.1721,-0.16363 0.0454,-0.0851 0.045,-0.25971 -5e-4,-0.3462 -0.065,-0.1228 -0.17621,-0.18529 -0.32977,-0.18529 -0.17381,0 -0.28489,0.0584 -0.35182,0.18486 -0.0462,0.0874 -0.0465,0.26112 -4.5e-4,0.34805 0.0545,0.10292 0.12971,0.15695 0.26627,0.1913 0.0481,0.0121 0.18469,-0.004 0.24439,-0.0291 z m 10.07563,0 c 0.0702,-0.0294 0.13152,-0.0876 0.17209,-0.16363 0.0456,-0.0853 0.0451,-0.25969 -0.001,-0.34663 -0.0666,-0.12575 -0.18484,-0.18801 -0.35472,-0.18672 -0.14912,0.001 -0.26289,0.0663 -0.32687,0.18715 -0.046,0.0869 -0.0461,0.2609 -2.3e-4,0.34762 0.0545,0.10292 0.12973,0.15695 0.26627,0.1913 0.0481,0.0121 0.18471,-0.004 0.24439,-0.0291 z m -7.74983,-0.9107 c 0.1266,-0.0452 0.23864,-0.18284 0.26059,-0.32009 0.012,-0.0746 -0.0235,-0.19677 -0.0779,-0.26861 -0.10739,-0.14187 -0.28811,-0.19127 -0.44192,-0.12085 -0.18958,0.0868 -0.27646,0.26773 -0.22225,0.46287 0.0179,0.0646 0.11918,0.18411 0.18475,0.21802 0.1013,0.0523 0.20282,0.0622 0.29668,0.0287 z m 5.35016,-0.0145 c 0.089,-0.0414 0.19482,-0.15507 0.21625,-0.23222 0.009,-0.0298 0.0151,-0.0856 0.0151,-0.12411 2.1e-4,-0.18723 -0.17762,-0.37057 -0.3603,-0.37144 -0.21866,-0.001 -0.39261,0.16772 -0.39315,0.38142 -4.2e-4,0.17214 0.11056,0.31317 0.28942,0.36778 0.071,0.0218 0.15704,0.0137 0.23263,-0.0214 z m -2.66544,-0.47161 c 0.14665,-0.0668 0.23229,-0.1973 0.23172,-0.35301 -5e-4,-0.14793 -0.0769,-0.26885 -0.21597,-0.34204 -0.0838,-0.0441 -0.23235,-0.0442 -0.31517,-6e-5 -0.0777,0.0413 -0.16462,0.13204 -0.19391,0.20234 -0.0573,0.13765 -0.008,0.33494 0.10858,0.43073 0.10641,0.0877 0.27034,0.11418 0.38472,0.062 z"
         id="path15" /></g></g></svg>
