<?xml version="1.0" encoding="UTF-8" standalone="no"?>
<!-- Created with Inkscape (http://www.inkscape.org/) -->

<svg
   width="40.423996mm"
   height="56.424004mm"
   viewBox="0 0 40.423996 56.424004"
   version="1.1"
   id="svg1"
   xml:space="preserve"
   xmlns="http://www.w3.org/2000/svg"
   xmlns:svg="http://www.w3.org/2000/svg"><defs
     id="defs1"><rect
       x="208.77827"
       y="241.85934"
       width="88.951309"
       height="72.043205"
       id="rect2-6-7-6" /><rect
       x="208.77827"
       y="241.85934"
       width="88.951309"
       height="72.043205"
       id="rect2-1-0-5-1" /></defs><g
     id="layer1"
     transform="translate(-9.608145,-108.88377)"><g
       id="g9"
       transform="translate(-44.423632,49.998657)"
       style="stroke:#000000;stroke-opacity:1"><path
         style="fill:#ffffff;fill-opacity:1;stroke:#ff0f0f;stroke-width:0.423998;stroke-opacity:1"
         id="rect1-8-5-5"
         width="40"
         height="56"
         x="40.845924"
         y="73.133659"
         transform="translate(13.397851,-14.036546)"
         d="m 46.845924,73.133659 h 28 a 6,6 45 0 1 6,6 v 44.000001 a 6,6 135 0 1 -6,6 h -28 a 6,6 45 0 1 -6,-6 V 79.133659 a 6,6 135 0 1 6,-6 z" /><text
         xml:space="preserve"
         transform="matrix(0.26458333,0,0,0.26458333,2.683084,-3.3247578)"
         id="text2-5-5-3"
         style="font-style:normal;font-weight:normal;font-size:40px;line-height:1.25;font-family:sans-serif;white-space:pre;shape-inside:url(#rect2-6-7-6);display:inline;fill:#ff0f0f;fill-opacity:1;stroke:#ff0f0f;stroke-opacity:1"><tspan
           x="208.77734"
           y="278.77427"
           id="tspan2"><tspan
             style="font-weight:600;font-family:'New York Extra Large';-inkscape-font-specification:'New York Extra Large Semi-Bold'"
             id="tspan1">6</tspan></tspan></text><text
         xml:space="preserve"
         transform="matrix(-0.26458333,0,0,-0.26458333,145.80447,177.51899)"
         id="text2-7-4-1-5"
         style="font-style:normal;font-weight:normal;font-size:40px;line-height:1.25;font-family:sans-serif;white-space:pre;shape-inside:url(#rect2-1-0-5-1);display:inline;fill:#ff0f0f;fill-opacity:1;stroke:#ff0f0f;stroke-opacity:1"><tspan
           x="208.77734"
           y="278.77427"
           id="tspan4"><tspan
             style="font-weight:600;font-family:'New York Extra Large';-inkscape-font-specification:'New York Extra Large Semi-Bold'"
             id="tspan3">6</tspan></tspan></text><path
         d="m 24.453277,129.16241 c -0.01195,-0.012 -0.06471,-0.15263 -0.117231,-0.31262 -0.193908,-0.59067 -0.448279,-1.0962 -0.867587,-1.72424 -0.321113,-0.48097 -0.611316,-0.85781 -1.438323,-1.86776 -0.861544,-1.05212 -1.062484,-1.31429 -1.265084,-1.65055 -0.230194,-0.38206 -0.395115,-0.80998 -0.445053,-1.1548 -0.02198,-0.15176 -0.01882,-0.54209 0.0055,-0.67655 0.118444,-0.65534 0.63212,-1.22717 1.303008,-1.45053 0.238993,-0.0796 0.351828,-0.0951 0.687349,-0.0946 0.279551,4.1e-4 0.306575,0.002 0.449091,0.0327 0.460414,0.0978 0.831788,0.30268 1.149598,0.6341 0.195501,0.20386 0.330356,0.40319 0.478245,0.70686 l 0.09079,0.18643 0.09342,-0.19413 c 0.106257,-0.22079 0.201582,-0.37236 0.334796,-0.53233 0.380655,-0.45709 0.814064,-0.71954 1.340884,-0.81197 0.141031,-0.0247 0.488401,-0.0337 0.653222,-0.0169 0.242324,0.0248 0.526588,0.10874 0.752152,0.22215 0.389386,0.19578 0.731875,0.56402 0.893518,0.9607 0.250675,0.61517 0.13515,1.37782 -0.337546,2.22833 -0.272803,0.49086 -0.521482,0.82421 -1.317617,1.7663 -0.709493,0.83956 -1.038998,1.26045 -1.362442,1.7403 -0.419174,0.62187 -0.694182,1.15739 -0.908794,1.76968 -0.04401,0.12556 -0.08426,0.23221 -0.08944,0.23699 -0.02417,0.0223 -0.06149,0.0234 -0.08245,0.002 z"
         style="fill:#ff0f0f;fill-opacity:1;stroke:#ff0f0f;stroke-width:0.132268;stroke-opacity:1"
         id="path1-2-8-3-0"
         transform="translate(44.423632,-49.998657)" /><path
         d="m 24.453277,142.57627 c -0.01195,-0.012 -0.06471,-0.15263 -0.117231,-0.31262 -0.193908,-0.59067 -0.448279,-1.09619 -0.867587,-1.72424 -0.321113,-0.48096 -0.611316,-0.85781 -1.438323,-1.86776 -0.861544,-1.05212 -1.062484,-1.31429 -1.265084,-1.65054 -0.230194,-0.38207 -0.395115,-0.80999 -0.445053,-1.15481 -0.02198,-0.15176 -0.01882,-0.54208 0.0055,-0.67655 0.118444,-0.65533 0.63212,-1.22716 1.303008,-1.45052 0.238993,-0.0796 0.351828,-0.0951 0.687349,-0.0946 0.279551,4.1e-4 0.306575,0.002 0.449091,0.0326 0.460414,0.0979 0.831788,0.30269 1.149598,0.6341 0.195501,0.20387 0.330356,0.40319 0.478245,0.70688 l 0.09079,0.18642 0.09342,-0.19414 c 0.106257,-0.22078 0.201582,-0.37235 0.334796,-0.53232 0.380655,-0.4571 0.814064,-0.71955 1.340884,-0.81198 0.141031,-0.0247 0.488401,-0.0337 0.653222,-0.0168 0.242324,0.0248 0.526588,0.10873 0.752152,0.22214 0.389386,0.19579 0.731875,0.56403 0.893518,0.9607 0.250675,0.61518 0.13515,1.37782 -0.337546,2.22834 -0.272803,0.49085 -0.521482,0.82421 -1.317617,1.76629 -0.709493,0.83956 -1.038998,1.26045 -1.362442,1.7403 -0.419174,0.62187 -0.694182,1.15739 -0.908794,1.76968 -0.04401,0.12556 -0.08426,0.23221 -0.08944,0.23699 -0.02417,0.0223 -0.06149,0.0234 -0.08245,0.002 z"
         style="fill:#ff0f0f;fill-opacity:1;stroke:#ff0f0f;stroke-width:0.132268;stroke-opacity:1"
         id="path1-2-8-3-6-9"
         transform="translate(44.423632,-49.998657)" /><path
         d="m 24.453277,155.99009 c -0.01195,-0.012 -0.06471,-0.15263 -0.117231,-0.31262 -0.193908,-0.59067 -0.448279,-1.0962 -0.867587,-1.72424 -0.321113,-0.48096 -0.611316,-0.85781 -1.438323,-1.86776 -0.861544,-1.05212 -1.062484,-1.31429 -1.265084,-1.65055 -0.230194,-0.38206 -0.395115,-0.80998 -0.445053,-1.1548 -0.02198,-0.15176 -0.01882,-0.54209 0.0055,-0.67655 0.118444,-0.65533 0.63212,-1.22717 1.303008,-1.45053 0.238993,-0.0796 0.351828,-0.0951 0.687349,-0.0946 0.279551,4.1e-4 0.306575,0.003 0.449091,0.0327 0.460414,0.0978 0.831788,0.30268 1.149598,0.6341 0.195501,0.20387 0.330356,0.40319 0.478245,0.70687 l 0.09079,0.18642 0.09342,-0.19413 c 0.106257,-0.22079 0.201582,-0.37236 0.334796,-0.53232 0.380655,-0.4571 0.814064,-0.71955 1.340884,-0.81198 0.141031,-0.0248 0.488401,-0.0337 0.653222,-0.0169 0.242324,0.0248 0.526588,0.10874 0.752152,0.22215 0.389386,0.19578 0.731875,0.56402 0.893518,0.9607 0.250675,0.61517 0.13515,1.37782 -0.337546,2.22833 -0.272803,0.49086 -0.521482,0.82421 -1.317617,1.7663 -0.709493,0.83956 -1.038998,1.26045 -1.362442,1.7403 -0.419174,0.62187 -0.694182,1.15739 -0.908794,1.76968 -0.04401,0.12556 -0.08426,0.23221 -0.08944,0.23699 -0.02417,0.0223 -0.06149,0.0234 -0.08245,0.002 z"
         style="fill:#ff0f0f;fill-opacity:1;stroke:#ff0f0f;stroke-width:0.132268;stroke-opacity:1"
         id="path1-2-8-4-7-3"
         transform="translate(44.423632,-49.998657)" /><path
         d="m 79.003654,70.319453 c -0.01195,0.012 -0.06471,0.15263 -0.117231,0.31262 -0.193908,0.59067 -0.448279,1.0962 -0.867587,1.72424 -0.321113,0.48097 -0.611316,0.85781 -1.438323,1.86776 -0.861544,1.05212 -1.062484,1.31429 -1.265084,1.65055 -0.230194,0.38206 -0.395115,0.80998 -0.445053,1.1548 -0.02198,0.15176 -0.01882,0.54209 0.0055,0.67655 0.118444,0.65534 0.63212,1.22717 1.303008,1.45053 0.238993,0.0796 0.351828,0.0951 0.687349,0.0946 0.279551,-4.1e-4 0.306575,-0.002 0.449091,-0.0327 0.460414,-0.0978 0.831788,-0.30268 1.149598,-0.6341 0.195501,-0.20386 0.330356,-0.40319 0.478245,-0.70686 l 0.09079,-0.18643 0.09342,0.19413 c 0.106257,0.22079 0.201582,0.37236 0.334796,0.53233 0.380655,0.45709 0.814064,0.71954 1.340884,0.81197 0.141031,0.0247 0.488401,0.0337 0.653222,0.0169 0.242324,-0.0248 0.526588,-0.10874 0.752152,-0.22215 0.389386,-0.19578 0.731875,-0.56402 0.893518,-0.9607 0.250675,-0.61517 0.13515,-1.37782 -0.337546,-2.22833 -0.272803,-0.49086 -0.521482,-0.82421 -1.317617,-1.7663 -0.709493,-0.83956 -1.038998,-1.26045 -1.362442,-1.7403 -0.419174,-0.62187 -0.694182,-1.15739 -0.908794,-1.76968 -0.04401,-0.12556 -0.08426,-0.23221 -0.08944,-0.23699 -0.02417,-0.0223 -0.06149,-0.0234 -0.08245,-0.002 z"
         style="fill:#ff0f0f;fill-opacity:1;stroke:#ff0f0f;stroke-width:0.132268;stroke-opacity:1"
         id="path1-2-8-3-0-7" /><path
         d="m 79.003654,83.733246 c -0.01195,0.012 -0.06471,0.15263 -0.117231,0.31262 -0.193908,0.59067 -0.448279,1.09619 -0.867587,1.72424 -0.321113,0.48096 -0.611316,0.85781 -1.438323,1.86776 -0.861544,1.05212 -1.062484,1.31429 -1.265084,1.65054 -0.230194,0.38207 -0.395115,0.80999 -0.445053,1.15481 -0.02198,0.15176 -0.01882,0.54208 0.0055,0.67655 0.118444,0.65533 0.63212,1.22716 1.303008,1.45052 0.238993,0.0796 0.351828,0.0951 0.687349,0.0946 0.279551,-4.1e-4 0.306575,-0.002 0.449091,-0.0326 0.460414,-0.0979 0.831788,-0.30269 1.149598,-0.6341 0.195501,-0.20387 0.330356,-0.40319 0.478245,-0.70688 l 0.09079,-0.18642 0.09342,0.19414 c 0.106257,0.22078 0.201582,0.37235 0.334796,0.53232 0.380655,0.4571 0.814064,0.71955 1.340884,0.81198 0.141031,0.0247 0.488401,0.0337 0.653222,0.0168 0.242324,-0.0248 0.526588,-0.10873 0.752152,-0.22214 0.389386,-0.19579 0.731875,-0.56403 0.893518,-0.9607 0.250675,-0.61518 0.13515,-1.37782 -0.337546,-2.22834 -0.272803,-0.49085 -0.521482,-0.82421 -1.317617,-1.76629 -0.709493,-0.83956 -1.038998,-1.26045 -1.362442,-1.7403 -0.419174,-0.62187 -0.694182,-1.15739 -0.908794,-1.76968 -0.04401,-0.12556 -0.08426,-0.23221 -0.08944,-0.23699 -0.02417,-0.0223 -0.06149,-0.0234 -0.08245,-0.002 z"
         style="fill:#ff0f0f;fill-opacity:1;stroke:#ff0f0f;stroke-width:0.132268;stroke-opacity:1"
         id="path1-2-8-3-6-9-5" /><path
         d="m 79.003654,97.147104 c -0.01195,0.012 -0.06471,0.15263 -0.117231,0.31262 -0.193908,0.59067 -0.448279,1.0962 -0.867587,1.72424 -0.321113,0.48096 -0.611316,0.857806 -1.438323,1.867756 -0.861544,1.05212 -1.062484,1.31429 -1.265084,1.65055 -0.230194,0.38206 -0.395115,0.80998 -0.445053,1.1548 -0.02198,0.15176 -0.01882,0.54209 0.0055,0.67655 0.118444,0.65533 0.63212,1.22717 1.303008,1.45053 0.238993,0.0796 0.351828,0.0951 0.687349,0.0946 0.279551,-4.1e-4 0.306575,-0.003 0.449091,-0.0327 0.460414,-0.0978 0.831788,-0.30268 1.149598,-0.6341 0.195501,-0.20387 0.330356,-0.40319 0.478245,-0.70687 l 0.09079,-0.18642 0.09342,0.19413 c 0.106257,0.22079 0.201582,0.37236 0.334796,0.53232 0.380655,0.4571 0.814064,0.71955 1.340884,0.81198 0.141031,0.0248 0.488401,0.0337 0.653222,0.0169 0.242324,-0.0248 0.526588,-0.10874 0.752152,-0.22215 0.389386,-0.19578 0.731875,-0.56402 0.893518,-0.9607 0.250675,-0.61517 0.13515,-1.37782 -0.337546,-2.22833 -0.272803,-0.49086 -0.521482,-0.82421 -1.317617,-1.7663 -0.709493,-0.83956 -1.038998,-1.260446 -1.362442,-1.740296 -0.419174,-0.62187 -0.694182,-1.15739 -0.908794,-1.76968 -0.04401,-0.12556 -0.08426,-0.23221 -0.08944,-0.23699 -0.02417,-0.0223 -0.06149,-0.0234 -0.08245,-0.002 z"
         style="fill:#ff0f0f;fill-opacity:1;stroke:#ff0f0f;stroke-width:0.132268;stroke-opacity:1"
         id="path1-2-8-4-7-3-0" /></g></g></svg>
