<?xml version="1.0" encoding="UTF-8" standalone="no"?>
<!-- Created with Inkscape (http://www.inkscape.org/) -->

<svg
   width="40.423996mm"
   height="56.423981mm"
   viewBox="0 0 40.423996 56.423981"
   version="1.1"
   id="svg1"
   xml:space="preserve"
   xmlns="http://www.w3.org/2000/svg"
   xmlns:svg="http://www.w3.org/2000/svg"><defs
     id="defs1"><rect
       x="261.47491"
       y="920.81134"
       width="129.12341"
       height="76.667023"
       id="rect17" /></defs><g
     id="layer1"
     transform="translate(-9.0791456,-230.27122)"><g
       id="g1"><path
         style="fill:#ff0f0f;fill-opacity:1;stroke:#ff0f0f;stroke-width:0.423998;stroke-opacity:1"
         id="rect1-7-12"
         width="40"
         height="56"
         x="40.845924"
         y="73.133659"
         transform="translate(-31.55478,157.34955)"
         d="m 46.845924,73.133659 h 28 a 6,6 45 0 1 6,6 v 44.000001 a 6,6 135 0 1 -6,6 h -28 a 6,6 45 0 1 -6,-6 V 79.133659 a 6,6 135 0 1 6,-6 z" /><path
         d="m 29.147267,274.97815 c -0.0442,-0.0442 -0.2393,-0.56446 -0.43354,-1.15614 -0.71711,-2.18439 -1.65782,-4.05394 -3.2085,-6.37655 -1.18754,-1.7787 -2.26076,-3.17236 -5.31919,-6.90733 -3.18615,-3.89095 -3.92927,-4.86049 -4.67852,-6.10405 -0.8513,-1.41293 -1.46121,-2.99548 -1.64589,-4.27067 -0.0813,-0.56124 -0.0696,-2.00474 0.0203,-2.50202 0.43803,-2.42355 2.3377,-4.53827 4.81877,-5.3643 0.88384,-0.29426 1.30113,-0.3517 2.54195,-0.34991 1.03383,0.001 1.13377,0.009 1.66082,0.12077 1.7027,0.36185 3.07611,1.1194 4.25143,2.34501 0.723,0.75395 1.22172,1.49108 1.76864,2.61416 l 0.33575,0.68943 0.3455,-0.71794 c 0.39296,-0.81653 0.74549,-1.37705 1.23814,-1.96865 1.40773,-1.69042 3.01056,-2.66103 4.95884,-3.00284 0.52156,-0.0915 1.8062,-0.12463 2.41574,-0.0623 0.89616,0.0916 1.94742,0.40214 2.7816,0.82155 1.44002,0.72403 2.70661,2.08586 3.3044,3.55287 0.92704,2.27502 0.49981,5.09542 -1.24831,8.24078 -1.00888,1.81527 -1.92854,3.0481 -4.8728,6.53211 -2.62384,3.10485 -3.84241,4.66137 -5.03857,6.43594 -1.55018,2.29979 -2.56721,4.28024 -3.36089,6.54461 -0.16276,0.46436 -0.31161,0.85876 -0.33077,0.87644 -0.0894,0.0825 -0.22738,0.0866 -0.30492,0.009 z"
         style="fill:#ffffff;fill-opacity:1;stroke:#ffffff;stroke-width:0.489151;stroke-opacity:0.980736"
         id="path1-2-3" /><text
         xml:space="preserve"
         transform="matrix(0.26458333,0,0,0.26458333,-44.544999,3.0998903)"
         id="text17"
         style="font-style:normal;font-weight:normal;font-size:53.3333px;line-height:1.25;font-family:sans-serif;white-space:pre;shape-inside:url(#rect17);display:inline;fill:#ff0f0f;fill-opacity:1;stroke:none"><tspan
           x="261.47461"
           y="970.03038"
           id="tspan2"><tspan
             style="font-weight:600;font-family:'New York Extra Large';-inkscape-font-specification:'New York Extra Large Semi-Bold'"
             id="tspan1">A</tspan></tspan></text></g></g></svg>
