<?xml version="1.0" encoding="UTF-8" standalone="no"?>
<!-- Created with Inkscape (http://www.inkscape.org/) -->

<svg
   width="40.423985mm"
   height="56.424004mm"
   viewBox="0 0 40.423985 56.424004"
   version="1.1"
   id="svg1"
   xml:space="preserve"
   xmlns="http://www.w3.org/2000/svg"
   xmlns:svg="http://www.w3.org/2000/svg"><defs
     id="defs1"><rect
       x="208.77827"
       y="241.85934"
       width="88.951309"
       height="72.043205"
       id="rect2-6-7" /><rect
       x="208.77827"
       y="241.85934"
       width="88.951309"
       height="72.043205"
       id="rect2-1-0-5" /></defs><g
     id="layer1"
     transform="translate(-142.47106,-46.768859)"><g
       id="g6"
       style="stroke:#000000;stroke-opacity:1"><path
         style="fill:#ffffff;fill-opacity:1;stroke:#ff0f0f;stroke-width:0.423998;stroke-opacity:1"
         id="rect1-8-5"
         width="40"
         height="56"
         x="40.845924"
         y="73.133659"
         transform="translate(101.83712,-26.1528)"
         d="m 46.845924,73.133659 h 28 a 6,6 45 0 1 6,6 v 44.000001 a 6,6 135 0 1 -6,6 h -28 a 6,6 45 0 1 -6,-6 V 79.133659 a 6,6 135 0 1 6,-6 z" /><text
         xml:space="preserve"
         transform="matrix(0.26458333,0,0,0.26458333,91.122352,-15.44101)"
         id="text2-5-5"
         style="font-style:normal;font-weight:normal;font-size:40px;line-height:1.25;font-family:sans-serif;white-space:pre;shape-inside:url(#rect2-6-7);display:inline;fill:#ff0f0f;fill-opacity:1;stroke:#ff0f0f;stroke-opacity:1"><tspan
           x="208.77734"
           y="278.77427"
           id="tspan2"><tspan
             style="font-weight:600;font-family:'New York Extra Large';-inkscape-font-specification:'New York Extra Large Semi-Bold'"
             id="tspan1">5</tspan></tspan></text><text
         xml:space="preserve"
         transform="matrix(-0.26458333,0,0,-0.26458333,234.24374,165.40272)"
         id="text2-7-4-1"
         style="font-style:normal;font-weight:normal;font-size:40px;line-height:1.25;font-family:sans-serif;white-space:pre;shape-inside:url(#rect2-1-0-5);display:inline;fill:#ff0f0f;fill-opacity:1;stroke:#ff0f0f;stroke-opacity:1"><tspan
           x="208.77734"
           y="278.77427"
           id="tspan4"><tspan
             style="font-weight:600;font-family:'New York Extra Large';-inkscape-font-specification:'New York Extra Large Semi-Bold'"
             id="tspan3">5</tspan></tspan></text><path
         d="m 154.92547,71.161948 c -0.0146,-0.01461 -0.079,-0.186409 -0.14317,-0.381805 -0.23682,-0.721371 -0.54748,-1.33877 -1.05957,-2.105786 -0.39217,-0.587397 -0.7466,-1.047636 -1.75661,-2.281072 -1.05219,-1.284941 -1.29759,-1.605122 -1.54503,-2.015795 -0.28113,-0.466605 -0.48255,-0.989225 -0.54354,-1.410344 -0.0268,-0.185343 -0.023,-0.662045 0.007,-0.826262 0.14465,-0.800351 0.77199,-1.498718 1.59134,-1.771505 0.29188,-0.09718 0.42969,-0.116146 0.83945,-0.115553 0.34142,4.96e-4 0.37442,0.0029 0.54847,0.03989 0.5623,0.119497 1.01585,0.369668 1.40398,0.774415 0.23877,0.248983 0.40347,0.492414 0.58409,0.863295 l 0.11087,0.227679 0.1141,-0.237091 c 0.12977,-0.269651 0.24619,-0.454757 0.40888,-0.650125 0.46489,-0.558246 0.99421,-0.878777 1.63761,-0.991656 0.17223,-0.03022 0.59647,-0.04116 0.79777,-0.02058 0.29594,0.03026 0.6431,0.132801 0.91858,0.271308 0.47555,0.239103 0.89383,0.688831 1.09124,1.173293 0.30615,0.751305 0.16506,1.68271 -0.41224,2.721431 -0.33317,0.599474 -0.63687,1.006602 -1.60918,2.157158 -0.8665,1.025344 -1.26891,1.539366 -1.66393,2.125401 -0.51193,0.759481 -0.84779,1.413503 -1.1099,2.161286 -0.0537,0.15335 -0.10291,0.283596 -0.10924,0.289436 -0.0295,0.02724 -0.0751,0.02859 -0.10069,0.003 z"
         style="fill:#ff0f0f;fill-opacity:1;stroke:#ff0f0f;stroke-width:0.161537;stroke-opacity:1"
         id="path1-2-8-3-6-6-0" /><path
         d="m 162.63538,81.486449 c -0.0146,-0.01461 -0.079,-0.186409 -0.14317,-0.381805 -0.23682,-0.721371 -0.54748,-1.33877 -1.05957,-2.105786 -0.39217,-0.587397 -0.7466,-1.047636 -1.75661,-2.281072 -1.05219,-1.284941 -1.29759,-1.605122 -1.54503,-2.015795 -0.28113,-0.466605 -0.48255,-0.989225 -0.54354,-1.410344 -0.0268,-0.185343 -0.023,-0.662045 0.007,-0.826262 0.14465,-0.800351 0.77199,-1.498718 1.59134,-1.771505 0.29188,-0.09718 0.42969,-0.116146 0.83945,-0.115553 0.34142,4.96e-4 0.37442,0.0029 0.54847,0.03989 0.5623,0.119497 1.01585,0.369668 1.40398,0.774415 0.23877,0.248983 0.40347,0.492414 0.58409,0.863295 l 0.11087,0.227679 0.1141,-0.237091 c 0.12977,-0.269651 0.24619,-0.454757 0.40888,-0.650125 0.46489,-0.558246 0.99421,-0.878777 1.63761,-0.991656 0.17223,-0.03022 0.59647,-0.04116 0.79777,-0.02058 0.29594,0.03026 0.6431,0.132801 0.91858,0.271308 0.47555,0.239103 0.89383,0.688831 1.09124,1.173293 0.30615,0.751305 0.16506,1.68271 -0.41224,2.721431 -0.33317,0.599474 -0.63687,1.006602 -1.60918,2.157158 -0.8665,1.025344 -1.26891,1.539366 -1.66393,2.125401 -0.51193,0.759481 -0.84779,1.413503 -1.1099,2.161286 -0.0537,0.15335 -0.10291,0.283596 -0.10924,0.289436 -0.0295,0.02724 -0.0751,0.02859 -0.10069,0.003 z"
         style="fill:#ff0f0f;fill-opacity:1;stroke:#ff0f0f;stroke-width:0.161537;stroke-opacity:1"
         id="path1-2-8-3-6-6-0-8" /><path
         d="m 154.92547,78.799792 c -0.0146,0.01462 -0.079,0.186408 -0.14317,0.381805 -0.23682,0.72137 -0.54748,1.338767 -1.05957,2.105788 -0.39217,0.5874 -0.7466,1.047636 -1.75661,2.28107 -1.05219,1.284942 -1.29759,1.605124 -1.54503,2.015799 -0.28113,0.4666 -0.48255,0.989218 -0.54354,1.410337 -0.0268,0.185348 -0.023,0.662044 0.007,0.826263 0.14465,0.800355 0.77199,1.498722 1.59134,1.77151 0.29188,0.09718 0.42969,0.116141 0.83945,0.11555 0.34142,-4.96e-4 0.37442,-0.0037 0.54847,-0.03993 0.5623,-0.119497 1.01585,-0.369665 1.40398,-0.774417 0.23877,-0.248987 0.40347,-0.492416 0.58409,-0.86329 l 0.11087,-0.227681 0.1141,0.237092 c 0.12977,0.269656 0.24619,0.454761 0.40888,0.65012 0.46489,0.558248 0.99421,0.878776 1.63761,0.991656 0.17223,0.03028 0.59647,0.04115 0.79777,0.02062 0.29594,-0.03028 0.6431,-0.132799 0.91858,-0.271306 0.47555,-0.239098 0.89383,-0.688825 1.09124,-1.173292 0.30615,-0.751301 0.16506,-1.682711 -0.41224,-2.721432 -0.33317,-0.599473 -0.63687,-1.006597 -1.60918,-2.157157 -0.8665,-1.025344 -1.26891,-1.539366 -1.66393,-2.125398 -0.51193,-0.759485 -0.84779,-1.413505 -1.1099,-2.161291 -0.0537,-0.153346 -0.10291,-0.283595 -0.10924,-0.289435 -0.0295,-0.02728 -0.0751,-0.02859 -0.10069,-0.0028 z"
         style="fill:#ff0f0f;fill-opacity:1;stroke:#ff0f0f;stroke-width:0.161537;stroke-opacity:1"
         id="path1-2-8-4-7-4-44" /><path
         d="m 170.34528,71.161948 c -0.0146,-0.01461 -0.079,-0.186409 -0.14317,-0.381805 -0.23682,-0.721371 -0.54748,-1.33877 -1.05957,-2.105786 -0.39217,-0.587397 -0.7466,-1.047636 -1.75661,-2.281072 -1.05219,-1.284941 -1.29759,-1.605122 -1.54503,-2.015795 -0.28114,-0.466605 -0.48255,-0.989225 -0.54354,-1.410344 -0.0268,-0.185343 -0.023,-0.662045 0.007,-0.826262 0.14465,-0.800351 0.77199,-1.498718 1.59134,-1.771505 0.29188,-0.09718 0.42969,-0.116146 0.83945,-0.115553 0.34142,4.96e-4 0.37442,0.0029 0.54847,0.03989 0.5623,0.119497 1.01585,0.369668 1.40398,0.774415 0.23877,0.248983 0.40347,0.492414 0.58409,0.863295 l 0.11087,0.227679 0.1141,-0.237091 c 0.12977,-0.269651 0.24619,-0.454757 0.40888,-0.650125 0.46489,-0.558246 0.99421,-0.878777 1.63761,-0.991656 0.17223,-0.03022 0.59647,-0.04116 0.79776,-0.02058 0.29595,0.03026 0.64312,0.132801 0.9186,0.271308 0.47555,0.239103 0.89383,0.688831 1.09124,1.173293 0.30615,0.751305 0.16506,1.68271 -0.41224,2.721431 -0.33317,0.599474 -0.63687,1.006602 -1.60919,2.157158 -0.8665,1.025344 -1.26891,1.539366 -1.66393,2.125401 -0.51193,0.759481 -0.84779,1.413503 -1.1099,2.161286 -0.0537,0.15335 -0.10291,0.283596 -0.10924,0.289436 -0.0295,0.02724 -0.0751,0.02859 -0.10069,0.003 z"
         style="fill:#ff0f0f;fill-opacity:1;stroke:#ff0f0f;stroke-width:0.161537;stroke-opacity:1"
         id="path1-2-8-3-6-6-2-5" /><path
         d="m 170.34528,78.799792 c -0.0146,0.01462 -0.079,0.186408 -0.14317,0.381805 -0.23682,0.72137 -0.54748,1.338767 -1.05957,2.105788 -0.39217,0.5874 -0.7466,1.047636 -1.75661,2.28107 -1.05219,1.284942 -1.29759,1.605124 -1.54503,2.015799 -0.28114,0.4666 -0.48255,0.989218 -0.54354,1.410337 -0.0268,0.185348 -0.023,0.662044 0.007,0.826263 0.14465,0.800355 0.77199,1.498722 1.59134,1.77151 0.29188,0.09718 0.42969,0.116141 0.83945,0.11555 0.34142,-4.96e-4 0.37442,-0.0037 0.54847,-0.03993 0.5623,-0.119497 1.01585,-0.369665 1.40398,-0.774417 0.23877,-0.248987 0.40347,-0.492416 0.58409,-0.86329 l 0.11087,-0.227681 0.1141,0.237092 c 0.12977,0.269656 0.24619,0.454761 0.40888,0.65012 0.46489,0.558248 0.99421,0.878776 1.63761,0.991656 0.17223,0.03028 0.59647,0.04115 0.79776,0.02062 0.29595,-0.03028 0.64312,-0.132799 0.9186,-0.271306 0.47555,-0.239098 0.89383,-0.688825 1.09124,-1.173292 0.30615,-0.751301 0.16506,-1.682711 -0.41224,-2.721432 -0.33317,-0.599473 -0.63687,-1.006597 -1.60919,-2.157157 -0.8665,-1.025344 -1.26891,-1.539366 -1.66393,-2.125398 -0.51193,-0.759485 -0.84779,-1.413505 -1.1099,-2.161291 -0.0537,-0.153346 -0.10291,-0.283595 -0.10924,-0.289435 -0.0295,-0.02728 -0.0751,-0.02859 -0.10069,-0.0028 z"
         style="fill:#ff0f0f;fill-opacity:1;stroke:#ff0f0f;stroke-width:0.161537;stroke-opacity:1"
         id="path1-2-8-4-7-4-4-9" /></g></g></svg>
