<?xml version="1.0" encoding="UTF-8" standalone="no"?>
<!-- Created with Inkscape (http://www.inkscape.org/) -->

<svg
   width="40.423992mm"
   height="56.424004mm"
   viewBox="0 0 40.423992 56.424004"
   version="1.1"
   id="svg1"
   xml:space="preserve"
   xmlns="http://www.w3.org/2000/svg"
   xmlns:svg="http://www.w3.org/2000/svg"><defs
     id="defs1"><rect
       x="208.77827"
       y="241.85934"
       width="88.951309"
       height="72.043205"
       id="rect2-6-7-6-1" /><rect
       x="208.77827"
       y="241.85934"
       width="88.951309"
       height="72.043205"
       id="rect2-1-0-5-1-0" /></defs><g
     id="layer1"
     transform="translate(-54.350633,-109.73367)"><g
       id="g10"
       transform="translate(-44.423632,49.998657)"
       style="stroke:#000000;stroke-opacity:1"><path
         style="fill:#ffffff;fill-opacity:1;stroke:#ff0f0f;stroke-width:0.423998;stroke-opacity:1"
         id="rect1-8-5-5-8"
         width="40"
         height="56"
         x="40.845924"
         y="73.133659"
         transform="translate(58.140337,-13.186651)"
         d="m 46.845924,73.133659 h 28 a 6,6 45 0 1 6,6 v 44.000001 a 6,6 135 0 1 -6,6 h -28 a 6,6 45 0 1 -6,-6 V 79.133659 a 6,6 135 0 1 6,-6 z" /><text
         xml:space="preserve"
         transform="matrix(0.26458333,0,0,0.26458333,47.42557,-2.4748627)"
         id="text2-5-5-3-0"
         style="font-style:normal;font-weight:normal;font-size:40px;line-height:1.25;font-family:sans-serif;white-space:pre;shape-inside:url(#rect2-6-7-6-1);display:inline;fill:#ff0f0f;fill-opacity:1;stroke:#ff0f0f;stroke-opacity:1"><tspan
           x="208.77734"
           y="278.77427"
           id="tspan2"><tspan
             style="font-weight:600;font-family:'New York Extra Large';-inkscape-font-specification:'New York Extra Large Semi-Bold'"
             id="tspan1">7</tspan></tspan></text><text
         xml:space="preserve"
         transform="matrix(-0.26458333,0,0,-0.26458333,190.54696,178.36889)"
         id="text2-7-4-1-5-7"
         style="font-style:normal;font-weight:normal;font-size:40px;line-height:1.25;font-family:sans-serif;white-space:pre;shape-inside:url(#rect2-1-0-5-1-0);display:inline;fill:#ff0f0f;fill-opacity:1;stroke:#ff0f0f;stroke-opacity:1"><tspan
           x="208.77734"
           y="278.77427"
           id="tspan4"><tspan
             style="font-weight:600;font-family:'New York Extra Large';-inkscape-font-specification:'New York Extra Large Semi-Bold'"
             id="tspan3">7</tspan></tspan></text><path
         d="m 73.959511,136.89974 c -0.01128,-0.0113 -0.06109,-0.14409 -0.110665,-0.29511 -0.183046,-0.55759 -0.423169,-1.0348 -0.81899,-1.62766 -0.303127,-0.45403 -0.577075,-0.80977 -1.357759,-1.76315 -0.813286,-0.99318 -1.002971,-1.24067 -1.194223,-1.55809 -0.2173,-0.36066 -0.372983,-0.76461 -0.420124,-1.09012 -0.02075,-0.14326 -0.01777,-0.51172 0.0052,-0.63865 0.11181,-0.61864 0.596713,-1.15844 1.230023,-1.36928 0.225606,-0.0752 0.332121,-0.0898 0.648848,-0.0893 0.263893,3.9e-4 0.289403,0.002 0.423936,0.0309 0.434625,0.0923 0.785197,0.28573 1.085206,0.59858 0.18455,0.19245 0.311852,0.38061 0.451457,0.66727 l 0.08571,0.17599 0.08819,-0.18326 c 0.100305,-0.20842 0.190291,-0.3515 0.316043,-0.50251 0.359333,-0.43149 0.768466,-0.67924 1.265777,-0.76649 0.133131,-0.0233 0.461044,-0.0318 0.616633,-0.016 0.228751,0.0234 0.497092,0.10265 0.710022,0.2097 0.367575,0.18482 0.69088,0.53243 0.843469,0.90689 0.236634,0.58071 0.12758,1.30065 -0.318639,2.10352 -0.257522,0.46336 -0.492272,0.77804 -1.243813,1.66736 -0.669752,0.79253 -0.980801,1.18985 -1.286128,1.64282 -0.395695,0.58704 -0.655299,1.09256 -0.85789,1.67056 -0.04154,0.11852 -0.07954,0.2192 -0.08443,0.22371 -0.02282,0.0211 -0.05804,0.0221 -0.07783,0.002 z"
         style="fill:#ff0f0f;fill-opacity:1;stroke:#ff0f0f;stroke-width:0.124859;stroke-opacity:1"
         id="path1-2-8-3-0-3-6"
         transform="translate(44.423632,-49.998657)" /><path
         d="m 68.430468,146.40394 c -0.01128,-0.0113 -0.06109,-0.14408 -0.110665,-0.2951 -0.183046,-0.55759 -0.423169,-1.03479 -0.81899,-1.62766 -0.303127,-0.45402 -0.577075,-0.80977 -1.357759,-1.76315 -0.813286,-0.99318 -1.002971,-1.24067 -1.194223,-1.55808 -0.2173,-0.36067 -0.372983,-0.76462 -0.420124,-1.09013 -0.02075,-0.14326 -0.01777,-0.51172 0.0052,-0.63865 0.11181,-0.61863 0.596713,-1.15843 1.230023,-1.36928 0.225606,-0.0751 0.332121,-0.0898 0.648848,-0.0893 0.263893,3.9e-4 0.289403,0.002 0.423936,0.0308 0.434625,0.0924 0.785197,0.28573 1.085206,0.59858 0.18455,0.19245 0.311852,0.38061 0.451457,0.66728 l 0.08571,0.17598 0.08819,-0.18326 c 0.100305,-0.20842 0.190291,-0.3515 0.316043,-0.50251 0.359333,-0.43149 0.768466,-0.67924 1.265777,-0.76649 0.133131,-0.0233 0.461044,-0.0318 0.616633,-0.0159 0.228751,0.0234 0.497092,0.10264 0.710022,0.20969 0.367575,0.18483 0.69088,0.53244 0.843469,0.90689 0.236634,0.58072 0.12758,1.30065 -0.318639,2.10353 -0.257522,0.46335 -0.492272,0.77804 -1.243813,1.66735 -0.669752,0.79253 -0.980801,1.18985 -1.286128,1.64282 -0.395695,0.58704 -0.655299,1.09256 -0.85789,1.67056 -0.04154,0.11852 -0.07954,0.2192 -0.08443,0.22371 -0.02282,0.0211 -0.05804,0.0221 -0.07783,0.002 z"
         style="fill:#ff0f0f;fill-opacity:1;stroke:#ff0f0f;stroke-width:0.124859;stroke-opacity:1"
         id="path1-2-8-3-6-9-7"
         transform="translate(44.423632,-49.998657)" /><path
         d="m 68.430468,158.00808 c -0.01128,-0.0113 -0.06109,-0.14408 -0.110665,-0.29511 -0.183046,-0.55759 -0.423169,-1.0348 -0.81899,-1.62766 -0.303127,-0.45402 -0.577075,-0.80976 -1.357759,-1.76314 -0.813286,-0.99319 -1.002971,-1.24068 -1.194223,-1.5581 -0.2173,-0.36066 -0.372983,-0.76461 -0.420124,-1.09012 -0.02075,-0.14326 -0.01777,-0.51172 0.0052,-0.63865 0.11181,-0.61863 0.596713,-1.15843 1.230023,-1.36928 0.225606,-0.0752 0.332121,-0.0898 0.648848,-0.0893 0.263893,3.8e-4 0.289403,0.003 0.423936,0.0309 0.434625,0.0923 0.785197,0.28573 1.085206,0.59859 0.18455,0.19245 0.311852,0.3806 0.451457,0.66727 l 0.08571,0.17598 0.08819,-0.18326 c 0.100305,-0.20842 0.190291,-0.3515 0.316043,-0.5025 0.359333,-0.4315 0.768466,-0.67925 1.265777,-0.7665 0.133131,-0.0234 0.461044,-0.0318 0.616633,-0.016 0.228751,0.0234 0.497092,0.10265 0.710022,0.20971 0.367575,0.18481 0.69088,0.53242 0.843469,0.90688 0.236634,0.58072 0.12758,1.30065 -0.318639,2.10352 -0.257522,0.46336 -0.492272,0.77804 -1.243813,1.66736 -0.669752,0.79254 -0.980801,1.18985 -1.286128,1.64282 -0.395695,0.58704 -0.655299,1.09256 -0.85789,1.67056 -0.04154,0.11852 -0.07954,0.2192 -0.08443,0.22371 -0.02282,0.0211 -0.05804,0.0221 -0.07783,0.002 z"
         style="fill:#ff0f0f;fill-opacity:1;stroke:#ff0f0f;stroke-width:0.124859;stroke-opacity:1"
         id="path1-2-8-4-7-3-7"
         transform="translate(44.423632,-49.998657)" /><path
         d="m 68.430468,127.39141 c -0.01128,-0.0113 -0.06109,-0.14409 -0.110665,-0.29511 -0.183046,-0.55759 -0.423169,-1.0348 -0.81899,-1.62766 -0.303127,-0.45403 -0.577075,-0.80977 -1.357759,-1.76315 -0.813286,-0.99318 -1.002971,-1.24067 -1.194223,-1.55809 -0.2173,-0.36066 -0.372983,-0.76461 -0.420124,-1.09012 -0.02075,-0.14326 -0.01777,-0.51172 0.0052,-0.63865 0.11181,-0.61864 0.596713,-1.15844 1.230023,-1.36928 0.225606,-0.0752 0.332121,-0.0898 0.648848,-0.0893 0.263893,3.9e-4 0.289403,0.002 0.423936,0.0309 0.434625,0.0923 0.785197,0.28573 1.085206,0.59858 0.18455,0.19245 0.311852,0.38061 0.451457,0.66727 l 0.08571,0.17599 0.08819,-0.18326 c 0.100305,-0.20842 0.190291,-0.3515 0.316043,-0.50251 0.359333,-0.43149 0.768466,-0.67924 1.265777,-0.76649 0.133131,-0.0233 0.461044,-0.0318 0.616633,-0.016 0.228751,0.0234 0.497092,0.10265 0.710022,0.2097 0.367575,0.18482 0.69088,0.53243 0.843469,0.90689 0.236634,0.58071 0.12758,1.30065 -0.318639,2.10352 -0.257522,0.46336 -0.492272,0.77804 -1.243813,1.66736 -0.669752,0.79253 -0.980801,1.18985 -1.286128,1.64282 -0.395695,0.58704 -0.655299,1.09256 -0.85789,1.67056 -0.04154,0.11852 -0.07954,0.2192 -0.08443,0.22371 -0.02282,0.0211 -0.05804,0.0221 -0.07783,0.002 z"
         style="fill:#ff0f0f;fill-opacity:1;stroke:#ff0f0f;stroke-width:0.124859;stroke-opacity:1"
         id="path1-2-8-3-0-3"
         transform="translate(44.423632,-49.998657)" /><path
         d="m 79.488564,127.39141 c -0.01128,-0.0113 -0.06109,-0.14409 -0.110665,-0.29511 -0.183046,-0.55759 -0.423169,-1.0348 -0.818991,-1.62766 -0.303126,-0.45403 -0.577074,-0.80977 -1.357758,-1.76315 -0.813286,-0.99318 -1.002971,-1.24067 -1.194223,-1.55809 -0.2173,-0.36066 -0.372983,-0.76461 -0.420124,-1.09012 -0.02075,-0.14326 -0.01777,-0.51172 0.0052,-0.63865 0.11181,-0.61864 0.596713,-1.15844 1.230023,-1.36928 0.225606,-0.0752 0.332121,-0.0898 0.648848,-0.0893 0.263893,3.9e-4 0.289403,0.002 0.423936,0.0309 0.434625,0.0923 0.785197,0.28573 1.085206,0.59858 0.18455,0.19245 0.311852,0.38061 0.451457,0.66727 l 0.0857,0.17599 0.08819,-0.18326 c 0.100305,-0.20842 0.19029,-0.3515 0.316043,-0.50251 0.359333,-0.43149 0.768466,-0.67924 1.265777,-0.76649 0.133131,-0.0233 0.461044,-0.0318 0.616633,-0.016 0.228751,0.0234 0.497092,0.10265 0.710022,0.2097 0.367575,0.18482 0.69088,0.53243 0.843469,0.90689 0.236634,0.58071 0.12758,1.30065 -0.318639,2.10352 -0.257523,0.46336 -0.492272,0.77804 -1.243813,1.66736 -0.669753,0.79253 -0.980801,1.18985 -1.286128,1.64282 -0.395695,0.58704 -0.655299,1.09256 -0.85789,1.67056 -0.04154,0.11852 -0.07954,0.2192 -0.08443,0.22371 -0.02282,0.0211 -0.05805,0.0221 -0.07783,0.002 z"
         style="fill:#ff0f0f;fill-opacity:1;stroke:#ff0f0f;stroke-width:0.124859;stroke-opacity:1"
         id="path1-2-8-3-0-7-3"
         transform="translate(44.423632,-49.998657)" /><path
         d="m 79.488564,146.40394 c -0.01128,-0.0113 -0.06109,-0.14408 -0.110665,-0.2951 -0.183046,-0.55759 -0.423169,-1.03479 -0.818991,-1.62766 -0.303126,-0.45402 -0.577074,-0.80977 -1.357758,-1.76315 -0.813286,-0.99318 -1.002971,-1.24067 -1.194223,-1.55808 -0.2173,-0.36067 -0.372983,-0.76462 -0.420124,-1.09013 -0.02075,-0.14326 -0.01777,-0.51172 0.0052,-0.63865 0.11181,-0.61863 0.596713,-1.15843 1.230023,-1.36928 0.225606,-0.0751 0.332121,-0.0898 0.648848,-0.0893 0.263893,3.9e-4 0.289403,0.002 0.423936,0.0308 0.434625,0.0924 0.785197,0.28573 1.085206,0.59858 0.18455,0.19245 0.311852,0.38061 0.451457,0.66728 l 0.0857,0.17598 0.08819,-0.18326 c 0.100305,-0.20842 0.19029,-0.3515 0.316043,-0.50251 0.359333,-0.43149 0.768466,-0.67924 1.265777,-0.76649 0.133131,-0.0233 0.461044,-0.0318 0.616633,-0.0159 0.228751,0.0234 0.497092,0.10264 0.710022,0.20969 0.367575,0.18483 0.69088,0.53244 0.843469,0.90689 0.236634,0.58072 0.12758,1.30065 -0.318639,2.10353 -0.257523,0.46335 -0.492272,0.77804 -1.243813,1.66735 -0.669753,0.79253 -0.980801,1.18985 -1.286128,1.64282 -0.395695,0.58704 -0.655299,1.09256 -0.85789,1.67056 -0.04154,0.11852 -0.07954,0.2192 -0.08443,0.22371 -0.02282,0.0211 -0.05805,0.0221 -0.07783,0.002 z"
         style="fill:#ff0f0f;fill-opacity:1;stroke:#ff0f0f;stroke-width:0.124859;stroke-opacity:1"
         id="path1-2-8-3-6-9-5-2"
         transform="translate(44.423632,-49.998657)" /><path
         d="m 79.488564,158.00808 c -0.01128,-0.0113 -0.06109,-0.14408 -0.110665,-0.29511 -0.183046,-0.55759 -0.423169,-1.0348 -0.818991,-1.62766 -0.303126,-0.45402 -0.577074,-0.80976 -1.357758,-1.76314 -0.813286,-0.99319 -1.002971,-1.24068 -1.194223,-1.5581 -0.2173,-0.36066 -0.372983,-0.76461 -0.420124,-1.09012 -0.02075,-0.14326 -0.01777,-0.51172 0.0052,-0.63865 0.11181,-0.61863 0.596713,-1.15843 1.230023,-1.36928 0.225606,-0.0752 0.332121,-0.0898 0.648848,-0.0893 0.263893,3.8e-4 0.289403,0.003 0.423936,0.0309 0.434625,0.0923 0.785197,0.28573 1.085206,0.59859 0.18455,0.19245 0.311852,0.3806 0.451457,0.66727 l 0.0857,0.17598 0.08819,-0.18326 c 0.100305,-0.20842 0.19029,-0.3515 0.316043,-0.5025 0.359333,-0.4315 0.768466,-0.67925 1.265777,-0.7665 0.133131,-0.0234 0.461044,-0.0318 0.616633,-0.016 0.228751,0.0234 0.497092,0.10265 0.710022,0.20971 0.367575,0.18481 0.69088,0.53242 0.843469,0.90688 0.236634,0.58072 0.12758,1.30065 -0.318639,2.10352 -0.257523,0.46336 -0.492272,0.77804 -1.243813,1.66736 -0.669753,0.79254 -0.980801,1.18985 -1.286128,1.64282 -0.395695,0.58704 -0.655299,1.09256 -0.85789,1.67056 -0.04154,0.11852 -0.07954,0.2192 -0.08443,0.22371 -0.02282,0.0211 -0.05805,0.0221 -0.07783,0.002 z"
         style="fill:#ff0f0f;fill-opacity:1;stroke:#ff0f0f;stroke-width:0.124859;stroke-opacity:1"
         id="path1-2-8-4-7-3-0-5"
         transform="translate(44.423632,-49.998657)" /></g></g></svg>
