<?xml version="1.0" encoding="UTF-8" standalone="no"?>
<!-- Created with Inkscape (http://www.inkscape.org/) -->

<svg
   width="58.509342mm"
   height="32.851566mm"
   viewBox="0 0 58.509342 32.851566"
   version="1.1"
   id="svg1"
   xmlns="http://www.w3.org/2000/svg"
   xmlns:svg="http://www.w3.org/2000/svg">
  <defs
     id="defs1">
    <rect
       x="396.02982"
       y="408.64224"
       width="128.64664"
       height="58.017105"
       id="rect5-9-2-1" />
    <rect
       x="72.311172"
       y="265.70154"
       width="413.68719"
       height="238.79504"
       id="rect3-0-5-30-5" />
  </defs>
  <g
     id="layer1"
     transform="translate(-16.221915,-249.58537)">
    <g
       id="g4-9-5"
       transform="translate(1.227124,145.49934)">
      <rect
         style="fill:#ededed;fill-opacity:1;stroke-width:0.297422;stroke-opacity:0.980736"
         id="rect6-7-0"
         width="58.509342"
         height="32.851559"
         x="14.994791"
         y="104.08602" />
      <g
         id="g2-9-0"
         transform="matrix(2.013127,0,0,2.013127,-15.199618,-56.835086)">
        <path
           style="-inkscape-font-specification:'Playfair Display Ultra-Bold';fill:#ff0f0f;stroke-width:0.264583"
           d="m 18.906109,87.241596 q 0.656166,0 1.016,0.137584 0.359833,0.127 0.613833,0.275166 0.127,0.07408 0.201083,0.116417 0.08467,0.03175 0.15875,0.03175 0.105834,0 0.148167,-0.116417 0.05292,-0.116416 0.08467,-0.34925 h 0.243416 q -0.01058,0.211667 -0.03175,0.497417 -0.01058,0.28575 -0.02117,0.762 0,0.465667 0,1.23825 h -0.243417 q -0.04233,-0.5715 -0.264583,-1.100667 -0.22225,-0.529166 -0.613834,-0.878416 -0.381,-0.34925 -0.941916,-0.34925 -0.486834,0 -0.804334,0.275166 -0.3175,0.264584 -0.3175,0.762 0,0.402167 0.201084,0.6985 0.201083,0.28575 0.60325,0.582084 0.41275,0.296333 1.037166,0.73025 0.497417,0.328083 0.889,0.656166 0.391584,0.328084 0.624417,0.740834 0.243417,0.412749 0.243417,0.994833 0,0.6985 -0.381,1.164166 -0.381,0.455084 -1.005417,0.687917 -0.624417,0.22225 -1.36525,0.22225 -0.687917,0 -1.100667,-0.127 -0.402166,-0.127 -0.687916,-0.264583 -0.232834,-0.148167 -0.359834,-0.148167 -0.105833,0 -0.15875,0.116417 -0.04233,0.116416 -0.07408,0.34925 h -0.243417 q 0.02117,-0.264584 0.02117,-0.613834 0.01058,-0.359833 0.01058,-0.92075 0.01058,-0.560916 0.01058,-1.428749 h 0.243416 q 0.04233,0.719666 0.232834,1.344083 0.201083,0.624416 0.60325,1.016 0.41275,0.381 1.090083,0.381 0.381,0 0.66675,-0.127 0.28575,-0.127 0.455083,-0.370417 0.169334,-0.254 0.169334,-0.613833 0,-0.4445 -0.201084,-0.772584 -0.201083,-0.328083 -0.550333,-0.613833 -0.34925,-0.296333 -0.814917,-0.592666 -0.497416,-0.328084 -0.931333,-0.66675 -0.433917,-0.338667 -0.6985,-0.751417 -0.254,-0.423333 -0.254,-1.016 0,-0.677333 0.34925,-1.11125 0.34925,-0.433917 0.92075,-0.635 0.582083,-0.211667 1.227667,-0.211667 z m 7.101414,0.137584 v 0.211666 q -0.359834,0.01058 -0.550334,0.08467 -0.179916,0.0635 -0.243416,0.254 -0.0635,0.179917 -0.0635,0.5715 v 5.418666 q 0,0.306917 0.04233,0.465667 0.05292,0.148167 0.179917,0.201083 0.127,0.04233 0.381,0.04233 h 0.433916 q 0.3175,0 0.635,-0.1905 0.3175,-0.1905 0.592667,-0.529167 0.275167,-0.34925 0.47625,-0.79375 0.201083,-0.455083 0.28575,-0.973667 h 0.243416 q -0.03175,0.370417 -0.03175,0.9525 0,0.264584 0.01058,0.762 0.01058,0.486834 0.0635,1.016 -0.53975,-0.02117 -1.217083,-0.02117 -0.677334,-0.01058 -1.2065,-0.01058 -0.275167,0 -0.6985,0 -0.423334,0 -0.92075,0.01058 -0.497417,0 -1.005417,0.01058 -0.508,0 -0.9525,0.01058 v -0.211666 q 0.328083,-0.02117 0.486833,-0.08467 0.169334,-0.0635 0.22225,-0.254 0.0635,-0.1905 0.0635,-0.5715 v -5.249333 q 0,-0.391583 -0.0635,-0.5715 -0.05292,-0.1905 -0.22225,-0.254 -0.15875,-0.07408 -0.486833,-0.08467 V 87.37918 q 0.28575,0.01058 0.762,0.02117 0.47625,0.01058 1.016,0.01058 0.497417,0 0.973667,-0.01058 0.47625,-0.01058 0.79375,-0.02117 z m 9.099544,0 v 0.211666 q -0.232833,0.105834 -0.508,0.423334 -0.275167,0.306916 -0.497417,0.941916 l -2.148416,5.926667 q -0.105834,-0.01058 -0.232834,-0.01058 -0.116416,-0.01058 -0.232833,-0.01058 -0.116417,0 -0.243416,0.01058 -0.116417,0 -0.22225,0.01058 l -2.7305,-6.614583 q -0.148167,-0.381 -0.328084,-0.518584 -0.169333,-0.148166 -0.3175,-0.15875 V 87.37918 q 0.34925,0.01058 0.814917,0.02117 0.47625,0.01058 0.9525,0.01058 0.518583,0 0.963083,-0.01058 0.455084,-0.01058 0.73025,-0.02117 v 0.211666 q -0.338666,0.01058 -0.529166,0.07408 -0.179917,0.0635 -0.211667,0.254 -0.02117,0.179916 0.127,0.560916 l 1.915583,4.79425 -0.232833,0.296333 1.3335,-3.661833 q 0.306916,-0.85725 0.3175,-1.354666 0.01058,-0.508 -0.22225,-0.73025 Q 33.3714,87.60143 32.948067,87.590846 V 87.37918 q 0.381,0.01058 0.687917,0.02117 0.3175,0.01058 0.66675,0.01058 0.22225,0 0.433916,-0.01058 0.211667,-0.01058 0.370417,-0.02117 z m 0.211669,0 q 0.28575,0.01058 0.762,0.02117 0.47625,0.01058 0.9525,0.01058 0.518584,0 0.994834,-0.01058 0.486833,-0.01058 0.687916,-0.01058 1.037167,0 1.703917,0.211667 0.677333,0.211666 1.016,0.624416 0.338667,0.402167 0.338667,1.005417 0,0.381 -0.15875,0.751417 -0.148167,0.359833 -0.518584,0.66675 -0.359833,0.306916 -1.005416,0.486833 -0.635,0.179917 -1.608667,0.179917 h -1.016 V 91.10452 h 0.910167 q 0.582083,0 0.878416,-0.232833 0.306917,-0.243417 0.41275,-0.635 0.116417,-0.402167 0.116417,-0.889 0,-0.836084 -0.264583,-1.291167 -0.264584,-0.465667 -0.899584,-0.465667 -0.391583,0 -0.508,0.179917 -0.105833,0.179917 -0.105833,0.73025 v 5.249333 q 0,0.381 0.05292,0.5715 0.0635,0.1905 0.22225,0.254 0.169333,0.0635 0.497416,0.08467 v 0.211666 q -0.296333,-0.02117 -0.762,-0.02117 -0.455083,-0.01058 -0.92075,-0.01058 -0.53975,0 -1.016,0.01058 -0.47625,0 -0.762,0.02117 v -0.211666 q 0.328084,-0.02117 0.486834,-0.08467 0.169333,-0.0635 0.22225,-0.254 0.0635,-0.1905 0.0635,-0.5715 V 88.50102 q 0,-0.391583 -0.0635,-0.5715 -0.05292,-0.1905 -0.22225,-0.254 -0.15875,-0.07408 -0.486834,-0.08467 z m 2.106084,3.757083 q 0.41275,0.01058 0.751416,0.04233 0.338667,0.03175 0.60325,0.0635 0.275167,0.02117 0.47625,0.03175 1.04775,0.0635 1.55575,0.402167 0.518584,0.328083 0.656167,0.98425 l 0.22225,1.100666 q 0.09525,0.402167 0.201083,0.5715 0.105834,0.15875 0.296334,0.148167 0.116416,0 0.201083,-0.04233 0.08467,-0.05292 0.169333,-0.148167 l 0.148167,0.137583 q -0.306917,0.328084 -0.66675,0.455084 -0.359833,0.137583 -0.836083,0.137583 -0.624417,0 -1.026584,-0.243417 -0.391583,-0.243416 -0.497416,-0.899583 L 39.499153,92.819013 Q 39.435653,92.385096 39.32982,92.04643 39.23457,91.707763 39.065236,91.517263 38.895903,91.31618 38.588986,91.31618 h -1.143 z"
           id="text2-2-3-4-6-1-7-5"
           aria-label="SLVR" />
        <text
           xml:space="preserve"
           transform="matrix(0.26458333,0,0,0.26458333,-92.267011,-31.110533)"
           id="text5-6-1-9"
           style="font-style:normal;font-weight:normal;font-size:40px;line-height:1.25;font-family:sans-serif;white-space:pre;shape-inside:url(#rect5-9-2-1);display:inline;fill:#000000;fill-opacity:1;stroke:none"
           x="47.285255"
           y="0"><tspan
             x="409.62645"
             y="445.13579"
             id="tspan2"><tspan
               style="font-weight:600;font-size:29.3333px;font-family:'Playfair Display';-inkscape-font-specification:'Playfair Display Semi-Bold';text-align:center;text-anchor:middle"
               id="tspan1">PRBLM</tspan></tspan></text>
      </g>
      <text
         xml:space="preserve"
         transform="matrix(0.26458333,0,0,0.26458333,-1.528797,26.946884)"
         id="text3-6-0-9-4"
         style="font-style:normal;font-weight:normal;font-size:16px;line-height:1.25;font-family:sans-serif;white-space:pre;shape-inside:url(#rect3-0-5-30-5);display:inline;fill:#000000;fill-opacity:1;stroke:none"><tspan
           x="72.310547"
           y="280.68842"
           id="tspan4"><tspan
             style="font-family:'Playfair Display';-inkscape-font-specification:'Playfair Display'"
             id="tspan3">Light Background (a)</tspan></tspan></text>
    </g>
  </g>
</svg>
