<?xml version="1.0" encoding="UTF-8" standalone="no"?>
<!-- Created with Inkscape (http://www.inkscape.org/) -->

<svg
   width="40.423996mm"
   height="56.424011mm"
   viewBox="0 0 40.423996 56.424011"
   version="1.1"
   id="svg1"
   xml:space="preserve"
   xmlns="http://www.w3.org/2000/svg"
   xmlns:svg="http://www.w3.org/2000/svg"><defs
     id="defs1"><rect
       x="208.77827"
       y="241.85934"
       width="88.951309"
       height="72.043205"
       id="rect2-6-7-6-1-3-1-1" /><rect
       x="208.77827"
       y="241.85934"
       width="88.951309"
       height="72.043205"
       id="rect2-1-0-5-1-0-3-7-2" /></defs><g
     id="layer1"
     transform="translate(-8.7861292,-170.08317)"><g
       id="g20"><path
         style="fill:#ffffff;fill-opacity:1;stroke:#ff0f0f;stroke-width:0.423998;stroke-opacity:1"
         id="rect1-8-5-5-8-7-1-7"
         width="40"
         height="56"
         x="40.845924"
         y="73.133659"
         transform="translate(-31.847796,97.16152)"
         d="m 46.845924,73.133659 h 28 a 6,6 45 0 1 6,6 v 44.000001 a 6,6 135 0 1 -6,6 h -28 a 6,6 45 0 1 -6,-6 V 79.133659 a 6,6 135 0 1 6,-6 z" /><text
         xml:space="preserve"
         transform="matrix(0.26458333,0,0,0.26458333,-42.562556,107.87331)"
         id="text2-5-5-3-0-1-0-5"
         style="font-style:normal;font-weight:normal;font-size:40px;line-height:1.25;font-family:sans-serif;white-space:pre;shape-inside:url(#rect2-6-7-6-1-3-1-1);display:inline;fill:#ff0f0f;fill-opacity:1;stroke:#ff0f0f;stroke-opacity:1"><tspan
           x="208.77734"
           y="278.77427"
           id="tspan2"><tspan
             style="font-weight:600;font-family:'New York Extra Large';-inkscape-font-specification:'New York Extra Large Semi-Bold'"
             id="tspan1">10</tspan></tspan></text><text
         xml:space="preserve"
         transform="matrix(-0.26458333,0,0,-0.26458333,100.55883,288.71705)"
         id="text2-7-4-1-5-7-5-5-4"
         style="font-style:normal;font-weight:normal;font-size:40px;line-height:1.25;font-family:sans-serif;white-space:pre;shape-inside:url(#rect2-1-0-5-1-0-3-7-2);display:inline;fill:#ff0f0f;fill-opacity:1;stroke:#ff0f0f;stroke-opacity:1"><tspan
           x="208.77734"
           y="278.77427"
           id="tspan4"><tspan
             style="font-weight:600;font-family:'New York Extra Large';-inkscape-font-specification:'New York Extra Large Semi-Bold'"
             id="tspan3">10</tspan></tspan></text><path
         d="m 23.188443,188.45043 c -0.488995,-0.86525 -1.130639,-1.83777 -1.893147,-2.86935 -0.169851,-0.22979 -0.547966,-0.72857 -0.670932,-0.88505 l -0.04907,-0.0624 0.139944,-0.18873 c 0.926649,-1.24974 1.77845,-2.49777 2.400789,-3.51762 0.07499,-0.12292 0.139616,-0.21978 0.143554,-0.21523 0.0039,0.004 0.09509,0.15586 0.202578,0.33624 0.687686,1.15415 1.511776,2.35789 2.332493,3.40707 0.120288,0.15378 0.137906,0.18093 0.126359,0.19474 -0.67272,0.80423 -1.324204,1.71137 -1.95101,2.71661 -0.179145,0.28729 -0.445841,0.7327 -0.592193,0.98902 -0.06119,0.10714 -0.114113,0.19817 -0.117683,0.20237 -0.0039,0.004 -0.03584,-0.0443 -0.07162,-0.10759 z"
         style="fill:#ff0f0f;fill-opacity:1;stroke:none;stroke-width:0.116213;stroke-opacity:1"
         id="path1-9-9-7-0-3-9" /><path
         d="m 23.188443,197.55708 c -0.488995,-0.86524 -1.130639,-1.83776 -1.893147,-2.86935 -0.169851,-0.22979 -0.547966,-0.72855 -0.670932,-0.88502 l -0.04907,-0.0624 0.139944,-0.18871 c 0.926649,-1.24974 1.77845,-2.49777 2.400789,-3.51763 0.07499,-0.12292 0.139616,-0.21976 0.143554,-0.21523 0.0039,0.004 0.09509,0.15586 0.202578,0.33624 0.687686,1.15415 1.511776,2.3579 2.332493,3.40708 0.120288,0.15377 0.137906,0.18092 0.126359,0.19473 -0.67272,0.80425 -1.324204,1.71138 -1.95101,2.71661 -0.179145,0.28729 -0.445841,0.73271 -0.592193,0.98903 -0.06119,0.10713 -0.114113,0.19815 -0.117683,0.20237 -0.0039,0.004 -0.03584,-0.0443 -0.07162,-0.10758 z"
         style="fill:#ff0f0f;fill-opacity:1;stroke:none;stroke-width:0.116213;stroke-opacity:1"
         id="path1-9-9-7-5-6-1-9" /><path
         d="m 23.188443,206.66378 c -0.488995,-0.86523 -1.130639,-1.83775 -1.893147,-2.86933 -0.169851,-0.22978 -0.547966,-0.72858 -0.670932,-0.88505 l -0.04907,-0.0624 0.139944,-0.18872 c 0.926649,-1.24972 1.77845,-2.49777 2.400789,-3.51762 0.07499,-0.12293 0.139616,-0.21977 0.143554,-0.21522 0.0039,0.004 0.09509,0.15586 0.202578,0.33623 0.687686,1.15415 1.511776,2.35788 2.332493,3.40707 0.120288,0.15377 0.137906,0.18092 0.126359,0.19474 -0.67272,0.80424 -1.324204,1.7114 -1.95101,2.71661 -0.179145,0.28728 -0.445841,0.73272 -0.592193,0.98901 -0.06119,0.10715 -0.114113,0.19819 -0.117683,0.2024 -0.0039,0.004 -0.03584,-0.0442 -0.07162,-0.10759 z"
         style="fill:#ff0f0f;fill-opacity:1;stroke:none;stroke-width:0.116213;stroke-opacity:1"
         id="path1-9-9-7-5-9-0-1-7" /><path
         d="m 23.188443,215.77049 c -0.488995,-0.86524 -1.130639,-1.83777 -1.893147,-2.86936 -0.169851,-0.22977 -0.547966,-0.72855 -0.670932,-0.88502 l -0.04907,-0.0624 0.139944,-0.18872 c 0.926649,-1.24974 1.77845,-2.49777 2.400789,-3.51761 0.07499,-0.12292 0.139616,-0.21978 0.143554,-0.21523 0.0039,0.004 0.09509,0.15584 0.202578,0.33623 0.687686,1.15414 1.511776,2.35789 2.332493,3.40706 0.120288,0.15378 0.137906,0.18093 0.126359,0.19473 -0.67272,0.80426 -1.324204,1.7114 -1.95101,2.71662 -0.179145,0.28729 -0.445841,0.73271 -0.592193,0.98902 -0.06119,0.10714 -0.114113,0.19817 -0.117683,0.20238 -0.0039,0.004 -0.03584,-0.0443 -0.07162,-0.10758 z"
         style="fill:#ff0f0f;fill-opacity:1;stroke:none;stroke-width:0.116213;stroke-opacity:1"
         id="path1-9-9-7-5-9-0-1-5-8" /><path
         d="m 34.685395,188.45043 c -0.488989,-0.86525 -1.130639,-1.83776 -1.893141,-2.86935 -0.169849,-0.22979 -0.547964,-0.72857 -0.670931,-0.88505 l -0.04907,-0.0624 0.139937,-0.18873 c 0.926672,-1.24974 1.778457,-2.49777 2.400796,-3.51762 0.07497,-0.12292 0.139608,-0.21978 0.143545,-0.21523 0.0039,0.004 0.0951,0.15586 0.20258,0.33624 0.687692,1.15415 1.511785,2.35789 2.332492,3.40707 0.120289,0.15378 0.137907,0.18093 0.126367,0.19474 -0.672719,0.80425 -1.324212,1.71137 -1.951011,2.71661 -0.179136,0.28729 -0.44584,0.7327 -0.592201,0.98902 -0.06119,0.10714 -0.114104,0.19817 -0.117673,0.20237 -0.0032,0.004 -0.03584,-0.0443 -0.07162,-0.10759 z"
         style="fill:#ff0f0f;fill-opacity:1;stroke:none;stroke-width:0.116213;stroke-opacity:1"
         id="path1-9-9-7-0-8-5-0" /><path
         d="m 34.685395,197.55708 c -0.488989,-0.86523 -1.130639,-1.83776 -1.893141,-2.86935 -0.169849,-0.22979 -0.547964,-0.72855 -0.670931,-0.88501 l -0.04907,-0.0624 0.139937,-0.18872 c 0.926672,-1.24973 1.778457,-2.49776 2.400796,-3.51761 0.07497,-0.12292 0.139608,-0.21977 0.143545,-0.21522 0.0039,0.004 0.0951,0.15584 0.20258,0.33622 0.687692,1.15414 1.511785,2.3579 2.332492,3.40707 0.120289,0.15377 0.137907,0.18093 0.126367,0.19473 -0.672719,0.80426 -1.324212,1.71139 -1.951011,2.71662 -0.179136,0.2873 -0.44584,0.73271 -0.592201,0.98902 -0.06119,0.10713 -0.114104,0.19817 -0.117673,0.20238 -0.0032,0.004 -0.03584,-0.0442 -0.07162,-0.10758 z"
         style="fill:#ff0f0f;fill-opacity:1;stroke:none;stroke-width:0.116213;stroke-opacity:1"
         id="path1-9-9-7-5-6-6-0-3" /><path
         d="m 34.685395,206.66381 c -0.488989,-0.86526 -1.130639,-1.83777 -1.893141,-2.86935 -0.169849,-0.22979 -0.547964,-0.72858 -0.670931,-0.88505 l -0.04907,-0.0624 0.139937,-0.18873 c 0.926672,-1.24972 1.778457,-2.49776 2.400796,-3.51761 0.07497,-0.12293 0.139608,-0.21978 0.143545,-0.21523 0.0039,0.004 0.0951,0.15586 0.20258,0.33623 0.687692,1.15415 1.511785,2.35789 2.332492,3.40707 0.120289,0.15378 0.137907,0.18094 0.126367,0.19474 -0.672719,0.80424 -1.324212,1.7114 -1.951011,2.71663 -0.179136,0.28726 -0.44584,0.7327 -0.592201,0.98899 -0.06119,0.10715 -0.114104,0.19819 -0.117673,0.2024 -0.0032,0.004 -0.03584,-0.0442 -0.07162,-0.10759 z"
         style="fill:#ff0f0f;fill-opacity:1;stroke:none;stroke-width:0.116213;stroke-opacity:1"
         id="path1-9-9-7-5-9-0-7-8-9" /><path
         d="m 34.685395,215.7705 c -0.488989,-0.86525 -1.130639,-1.83776 -1.893141,-2.86937 -0.169849,-0.22977 -0.547964,-0.72855 -0.670931,-0.88501 l -0.04907,-0.0624 0.139937,-0.18873 c 0.926672,-1.24974 1.778457,-2.49777 2.400796,-3.51761 0.07497,-0.12292 0.139608,-0.21978 0.143545,-0.21523 0.0039,0.004 0.0951,0.15584 0.20258,0.33623 0.687692,1.15414 1.511785,2.35789 2.332492,3.40707 0.120289,0.15378 0.137907,0.18092 0.126367,0.19472 -0.672719,0.80426 -1.324212,1.7114 -1.951011,2.71663 -0.179136,0.28728 -0.44584,0.7327 -0.592201,0.98901 -0.06119,0.10714 -0.114104,0.19817 -0.117673,0.20238 -0.0032,0.004 -0.03584,-0.0443 -0.07162,-0.10758 z"
         style="fill:#ff0f0f;fill-opacity:1;stroke:none;stroke-width:0.116213;stroke-opacity:1"
         id="path1-9-9-7-5-9-0-7-8-2-6" /><path
         d="m 28.936914,193.00378 c -0.488988,-0.86525 -1.13064,-1.83775 -1.89314,-2.86936 -0.169849,-0.22978 -0.547964,-0.72856 -0.670931,-0.88503 l -0.04907,-0.0624 0.139937,-0.18874 c 0.926672,-1.24973 1.778457,-2.49776 2.400796,-3.51761 0.07498,-0.12292 0.139607,-0.21977 0.143545,-0.21523 0.0039,0.004 0.0951,0.15586 0.202579,0.33624 0.687693,1.15415 1.511785,2.3579 2.332493,3.40707 0.120289,0.15378 0.137907,0.18093 0.126366,0.19474 -0.672718,0.80425 -1.324211,1.71137 -1.95101,2.71661 -0.179136,0.28729 -0.44584,0.7327 -0.592201,0.98902 -0.06119,0.10714 -0.114104,0.19817 -0.117673,0.20237 -0.0032,0.004 -0.03584,-0.0443 -0.07162,-0.10759 z"
         style="fill:#ff0f0f;fill-opacity:1;stroke:none;stroke-width:0.116213;stroke-opacity:1"
         id="path1-9-9-7-0-8-5-0-1" /><path
         d="m 28.936914,211.21716 c -0.488988,-0.86525 -1.13064,-1.83776 -1.89314,-2.86935 -0.169849,-0.22979 -0.547964,-0.72857 -0.670931,-0.88505 l -0.04907,-0.0624 0.139937,-0.18873 c 0.926672,-1.24974 1.778457,-2.49777 2.400796,-3.51762 0.07498,-0.12292 0.139607,-0.21978 0.143545,-0.21523 0.0039,0.004 0.0951,0.15586 0.202579,0.33624 0.687693,1.15415 1.511785,2.3579 2.332493,3.40707 0.120289,0.15378 0.137907,0.18093 0.126366,0.19474 -0.672718,0.80425 -1.324211,1.71137 -1.95101,2.71661 -0.179136,0.28729 -0.44584,0.7327 -0.592201,0.98902 -0.06119,0.10714 -0.114104,0.19817 -0.117673,0.20237 -0.0032,0.004 -0.03584,-0.0443 -0.07162,-0.10759 z"
         style="fill:#ff0f0f;fill-opacity:1;stroke:none;stroke-width:0.116213;stroke-opacity:1"
         id="path1-9-9-7-0-8-5-0-5" /></g></g></svg>
