<?xml version="1.0" encoding="UTF-8" standalone="no"?>
<!-- Created with Inkscape (http://www.inkscape.org/) -->

<svg
   width="40.423996mm"
   height="56.424004mm"
   viewBox="0 0 40.423996 56.424004"
   version="1.1"
   id="svg1"
   xml:space="preserve"
   xmlns="http://www.w3.org/2000/svg"
   xmlns:svg="http://www.w3.org/2000/svg"><defs
     id="defs1"><rect
       x="208.77827"
       y="241.85934"
       width="88.951309"
       height="72.043205"
       id="rect2-6-7-6" /><rect
       x="208.77827"
       y="241.85934"
       width="88.951309"
       height="72.043205"
       id="rect2-1-0-5-1" /></defs><g
     id="layer1"
     transform="translate(-9.608145,-108.88377)"><g
       id="g9"
       transform="translate(-44.423632,49.998657)"
       style="stroke:#000000;stroke-opacity:1"><path
         style="fill:#ffffff;fill-opacity:1;stroke:#ff0f0f;stroke-width:0.423998;stroke-opacity:1"
         id="rect1-8-5-5"
         width="40"
         height="56"
         x="40.845924"
         y="73.133659"
         transform="translate(13.397851,-14.036546)"
         d="m 46.845924,73.133659 h 28 a 6,6 45 0 1 6,6 v 44.000001 a 6,6 135 0 1 -6,6 h -28 a 6,6 45 0 1 -6,-6 V 79.133659 a 6,6 135 0 1 6,-6 z" /><text
         xml:space="preserve"
         transform="matrix(0.26458333,0,0,0.26458333,2.683084,-3.3247578)"
         id="text2-5-5-3"
         style="font-style:normal;font-weight:normal;font-size:40px;line-height:1.25;font-family:sans-serif;white-space:pre;shape-inside:url(#rect2-6-7-6);display:inline;fill:#ff0f0f;fill-opacity:1;stroke:#ff0f0f;stroke-opacity:1"><tspan
           x="208.77734"
           y="278.77427"
           id="tspan2"><tspan
             style="font-weight:600;font-family:'New York Extra Large';-inkscape-font-specification:'New York Extra Large Semi-Bold'"
             id="tspan1">6</tspan></tspan></text><text
         xml:space="preserve"
         transform="matrix(-0.26458333,0,0,-0.26458333,145.80447,177.51899)"
         id="text2-7-4-1-5"
         style="font-style:normal;font-weight:normal;font-size:40px;line-height:1.25;font-family:sans-serif;white-space:pre;shape-inside:url(#rect2-1-0-5-1);display:inline;fill:#ff0f0f;fill-opacity:1;stroke:#ff0f0f;stroke-opacity:1"><tspan
           x="208.77734"
           y="278.77427"
           id="tspan4"><tspan
             style="font-weight:600;font-family:'New York Extra Large';-inkscape-font-specification:'New York Extra Large Semi-Bold'"
             id="tspan3">6</tspan></tspan></text><path
         d="m 68.064282,78.833445 c -0.752151,-1.330889 -1.739114,-2.826782 -2.911977,-4.413537 -0.261258,-0.353449 -0.842858,-1.120653 -1.032003,-1.361334 l -0.07555,-0.09613 0.215241,-0.290284 c 1.425366,-1.922302 2.735568,-3.841996 3.692832,-5.410692 0.11538,-0.189076 0.21474,-0.338049 0.2208,-0.331053 0.006,0.007 0.146278,0.239729 0.3116,0.517184 1.057785,1.775268 2.325379,3.626831 3.587782,5.240655 0.185019,0.236521 0.21212,0.278289 0.194356,0.299523 -1.034751,1.237081 -2.036847,2.63241 -3.000984,4.178616 -0.275547,0.441898 -0.685777,1.127025 -0.910892,1.52127 -0.09406,0.164739 -0.175519,0.304828 -0.181015,0.311308 -0.0055,0.0065 -0.05508,-0.06801 -0.110195,-0.165526 z"
         style="fill:#ff0f0f;fill-opacity:1;stroke:none;stroke-width:0.178756;stroke-opacity:1"
         id="path1-9-9-7-0" /><path
         d="m 68.064282,92.965785 c -0.752151,-1.330889 -1.739114,-2.826782 -2.911977,-4.413537 -0.261258,-0.353449 -0.842858,-1.120653 -1.032003,-1.361334 l -0.07555,-0.09613 0.215241,-0.290284 c 1.425366,-1.922302 2.735568,-3.841996 3.692832,-5.410692 0.11538,-0.189076 0.21474,-0.338049 0.2208,-0.331053 0.006,0.007 0.146278,0.239729 0.3116,0.517184 1.057785,1.775268 2.325379,3.626831 3.587782,5.240655 0.185019,0.236521 0.21212,0.278289 0.194356,0.299523 -1.034751,1.237081 -2.036847,2.63241 -3.000984,4.178616 -0.275547,0.441898 -0.685777,1.127025 -0.910892,1.52127 -0.09406,0.164739 -0.175519,0.304828 -0.181015,0.311308 -0.0055,0.0065 -0.05508,-0.06801 -0.110195,-0.165526 z"
         style="fill:#ff0f0f;fill-opacity:1;stroke:none;stroke-width:0.178756;stroke-opacity:1"
         id="path1-9-9-7-5-6" /><path
         d="m 68.064282,107.09812 c -0.752151,-1.33088 -1.739114,-2.82678 -2.911977,-4.41353 -0.261258,-0.35345 -0.842858,-1.12066 -1.032003,-1.36134 l -0.07555,-0.0961 0.215241,-0.29028 c 1.425366,-1.922302 2.735568,-3.841996 3.692832,-5.410692 0.11538,-0.189076 0.21474,-0.338049 0.2208,-0.331053 0.006,0.007 0.146278,0.239729 0.3116,0.517184 1.057785,1.775268 2.325379,3.626831 3.587782,5.240651 0.185019,0.23652 0.21212,0.27829 0.194356,0.29953 -1.034751,1.23708 -2.036847,2.63241 -3.000984,4.17861 -0.275547,0.4419 -0.685777,1.12703 -0.910892,1.52127 -0.09406,0.16474 -0.175519,0.30483 -0.181015,0.31131 -0.0055,0.007 -0.05508,-0.068 -0.110195,-0.16553 z"
         style="fill:#ff0f0f;fill-opacity:1;stroke:none;stroke-width:0.178756;stroke-opacity:1"
         id="path1-9-9-7-5-9-0" /><path
         d="M 80.235096,78.833447 C 79.482945,77.502558 78.495982,76.006665 77.323119,74.41991 77.061861,74.066461 76.480261,73.299257 76.291116,73.058576 l -0.07555,-0.09613 0.215241,-0.290284 c 1.425366,-1.922302 2.735568,-3.841996 3.692832,-5.410692 0.11538,-0.189076 0.21474,-0.338049 0.2208,-0.331053 0.006,0.007 0.146278,0.239729 0.3116,0.517184 1.057785,1.775268 2.325379,3.626831 3.587782,5.240655 0.185019,0.236521 0.21212,0.278289 0.194356,0.299523 -1.034751,1.237081 -2.036847,2.63241 -3.000984,4.178616 -0.275547,0.441898 -0.685777,1.127025 -0.910892,1.52127 -0.09406,0.164739 -0.175519,0.304828 -0.181015,0.311308 -0.0055,0.0065 -0.05508,-0.06801 -0.110195,-0.165526 z"
         style="fill:#ff0f0f;fill-opacity:1;stroke:none;stroke-width:0.178756;stroke-opacity:1"
         id="path1-9-9-7-0-8" /><path
         d="M 80.235096,92.965787 C 79.482945,91.634898 78.495982,90.139005 77.323119,88.55225 77.061861,88.198801 76.480261,87.431597 76.291116,87.190916 l -0.07555,-0.09613 0.215241,-0.290284 c 1.425366,-1.922302 2.735568,-3.841996 3.692832,-5.410692 0.11538,-0.189076 0.21474,-0.338049 0.2208,-0.331053 0.006,0.007 0.146278,0.239729 0.3116,0.517184 1.057785,1.775268 2.325379,3.626831 3.587782,5.240655 0.185019,0.236521 0.21212,0.278289 0.194356,0.299523 -1.034751,1.237081 -2.036847,2.63241 -3.000984,4.178616 -0.275547,0.441898 -0.685777,1.127025 -0.910892,1.52127 -0.09406,0.164739 -0.175519,0.304828 -0.181015,0.311308 -0.0055,0.0065 -0.05508,-0.06801 -0.110195,-0.165526 z"
         style="fill:#ff0f0f;fill-opacity:1;stroke:none;stroke-width:0.178756;stroke-opacity:1"
         id="path1-9-9-7-5-6-6" /><path
         d="m 80.235096,107.09813 c -0.752151,-1.33089 -1.739114,-2.82678 -2.911977,-4.41354 -0.261258,-0.35345 -0.842858,-1.12065 -1.032003,-1.36133 l -0.07555,-0.0961 0.215241,-0.29029 c 1.425366,-1.9223 2.735568,-3.841994 3.692832,-5.41069 0.11538,-0.189076 0.21474,-0.338049 0.2208,-0.331053 0.006,0.007 0.146278,0.239729 0.3116,0.517184 1.057785,1.775268 2.325379,3.626831 3.587782,5.240659 0.185019,0.23652 0.21212,0.27829 0.194356,0.29952 -1.034751,1.23708 -2.036847,2.63241 -3.000984,4.17862 -0.275547,0.44189 -0.685777,1.12702 -0.910892,1.52127 -0.09406,0.16473 -0.175519,0.30482 -0.181015,0.3113 -0.0055,0.007 -0.05508,-0.068 -0.110195,-0.16552 z"
         style="fill:#ff0f0f;fill-opacity:1;stroke:none;stroke-width:0.178756;stroke-opacity:1"
         id="path1-9-9-7-5-9-0-7" /></g></g></svg>
