<?xml version="1.0" encoding="UTF-8" standalone="no"?>
<!-- Created with Inkscape (http://www.inkscape.org/) -->

<svg
   width="40.423996mm"
   height="56.423996mm"
   viewBox="0 0 40.423996 56.423996"
   version="1.1"
   id="svg1"
   xml:space="preserve"
   xmlns="http://www.w3.org/2000/svg"
   xmlns:svg="http://www.w3.org/2000/svg"><defs
     id="defs1"><rect
       x="208.77827"
       y="241.85934"
       width="88.951309"
       height="72.043205"
       id="rect2-2" /><rect
       x="208.77827"
       y="241.85934"
       width="88.951309"
       height="72.043205"
       id="rect2-1-9" /></defs><g
     id="layer1"
     transform="translate(-53.380021,-47.09439)"><g
       id="g8"><path
         style="fill:#ffffff;fill-opacity:1;stroke:#000000;stroke-width:0.423998;stroke-opacity:1"
         id="rect1-4"
         width="40"
         height="56"
         x="40.845924"
         y="73.133659"
         transform="rotate(180,67.218973,88.220023)"
         d="m 46.845924,73.133659 h 28 a 6,6 45 0 1 6,6 v 44.000001 a 6,6 135 0 1 -6,6 h -28 a 6,6 45 0 1 -6,-6 V 79.133659 a 6,6 135 0 1 6,-6 z" /><text
         xml:space="preserve"
         transform="matrix(-0.26458333,0,0,-0.26458333,145.15271,165.72826)"
         id="text2-8"
         style="font-style:normal;font-weight:normal;font-size:40px;line-height:1.25;font-family:sans-serif;white-space:pre;shape-inside:url(#rect2-2);display:inline;fill:#000000;fill-opacity:1;stroke:none"><tspan
           x="208.77734"
           y="278.77427"
           id="tspan2"><tspan
             style="font-weight:600;font-family:'New York Extra Large';-inkscape-font-specification:'New York Extra Large Semi-Bold'"
             id="tspan1">3</tspan></tspan></text><text
         xml:space="preserve"
         transform="matrix(0.26458333,0,0,0.26458333,2.031326,-15.115488)"
         id="text2-7-5"
         style="font-style:normal;font-weight:normal;font-size:40px;line-height:1.25;font-family:sans-serif;white-space:pre;shape-inside:url(#rect2-1-9);display:inline;fill:#000000;fill-opacity:1;stroke:none"><tspan
           x="208.77734"
           y="278.77427"
           id="tspan4"><tspan
             style="font-weight:600;font-family:'New York Extra Large';-inkscape-font-specification:'New York Extra Large Semi-Bold'"
             id="tspan3">3</tspan></tspan></text><path
         d="m 72.076543,79.792704 c 1.71e-4,-0.0067 0.06535,-0.102834 0.144749,-0.214698 0.313142,-0.441177 0.450695,-0.685239 0.616058,-1.093062 0.09836,-0.242595 0.292452,-0.814875 0.388844,-1.146523 l 0.06633,-0.228203 -0.21268,0.110625 c -0.581443,0.302436 -1.130596,0.443464 -1.726871,0.443464 -0.78368,0 -1.466597,-0.260568 -1.952237,-0.744881 -0.313942,-0.313085 -0.498811,-0.65679 -0.595996,-1.108054 -0.04871,-0.226184 -0.0495,-0.681086 -0.0014,-0.934625 0.09765,-0.517058 0.305538,-1.00781 0.647604,-1.528763 0.31823,-0.484647 0.526531,-0.72789 1.193445,-1.393651 1.182811,-1.180782 1.857995,-2.003382 2.785994,-3.394299 0.125983,-0.18883 0.235354,-0.339429 0.243052,-0.334676 0.0077,0.0048 0.100379,0.152437 0.205953,0.32819 0.784428,1.30576 1.715846,2.427558 2.911509,3.50661 0.640796,0.578299 1.206459,1.412423 1.447758,2.134855 0.260187,0.778978 0.234544,1.479256 -0.07669,2.094348 -0.115383,0.228042 -0.231541,0.387261 -0.420565,0.57649 -0.482696,0.483228 -1.136191,0.738433 -1.890851,0.738433 -0.541169,0 -1.076848,-0.134398 -1.617979,-0.405947 -0.11995,-0.06019 -0.152341,-0.07124 -0.152341,-0.05181 0,0.04467 0.14704,0.611558 0.216987,0.836619 0.212568,0.683925 0.403723,1.038631 0.805732,1.495104 0.08845,0.100435 0.186884,0.214822 0.218729,0.254177 l 0.05791,0.07162 h -1.651602 c -0.90838,0 -1.65143,-0.0048 -1.651223,-0.01133 z"
         style="fill:#000000;stroke-width:0.170842"
         id="path1-90-57-8"
         transform="translate(0,-12.170833)" /><path
         d="m 72.076543,93.02222 c 1.71e-4,-0.0067 0.06535,-0.102834 0.144749,-0.214698 0.313142,-0.441177 0.450695,-0.685239 0.616058,-1.093062 0.09836,-0.242595 0.292452,-0.814875 0.388844,-1.146523 l 0.06633,-0.228203 -0.21268,0.110625 c -0.581443,0.302436 -1.130596,0.443464 -1.726871,0.443464 -0.78368,0 -1.466597,-0.260568 -1.952237,-0.744881 -0.313942,-0.313085 -0.498811,-0.65679 -0.595996,-1.108054 -0.04871,-0.226184 -0.0495,-0.681086 -0.0014,-0.934625 0.09765,-0.517058 0.305538,-1.00781 0.647604,-1.528763 0.31823,-0.484647 0.526531,-0.72789 1.193445,-1.393651 1.182811,-1.180782 1.857995,-2.003382 2.785994,-3.394299 0.125983,-0.18883 0.235354,-0.339429 0.243052,-0.334676 0.0077,0.0048 0.100379,0.152437 0.205953,0.32819 0.784428,1.30576 1.715846,2.427558 2.911509,3.50661 0.640796,0.578299 1.206459,1.412423 1.447758,2.134855 0.260187,0.778978 0.234544,1.479256 -0.07669,2.094348 -0.115383,0.228042 -0.231541,0.387261 -0.420565,0.57649 -0.482696,0.483228 -1.136191,0.738433 -1.890851,0.738433 -0.541169,0 -1.076848,-0.134398 -1.617979,-0.405947 -0.11995,-0.06019 -0.152341,-0.07124 -0.152341,-0.05181 0,0.04467 0.14704,0.611558 0.216987,0.836619 0.212568,0.683925 0.403723,1.038631 0.805732,1.495104 0.08845,0.100435 0.186884,0.214822 0.218729,0.254177 l 0.05791,0.07162 h -1.651602 c -0.90838,0 -1.65143,-0.0048 -1.651223,-0.01133 z"
         style="fill:#000000;stroke-width:0.170842"
         id="path1-90-57-8-6"
         transform="translate(0,-12.170833)" /><path
         d="m 72.076543,95.161702 c 1.71e-4,0.0067 0.06535,0.102834 0.144749,0.214698 0.313142,0.441177 0.450695,0.685239 0.616058,1.093062 0.09836,0.242595 0.292452,0.814875 0.388844,1.146523 l 0.06633,0.228203 -0.21268,-0.110625 c -0.581443,-0.302436 -1.130596,-0.443464 -1.726871,-0.443464 -0.78368,0 -1.466597,0.260568 -1.952237,0.744881 -0.313942,0.313085 -0.498811,0.65679 -0.595996,1.108054 -0.04871,0.226184 -0.0495,0.681087 -0.0014,0.934626 0.09765,0.51706 0.305538,1.00782 0.647604,1.52878 0.31823,0.48465 0.526531,0.72789 1.193445,1.39366 1.182811,1.18079 1.857995,2.00339 2.785994,3.3943 0.125983,0.18883 0.235354,0.33943 0.243052,0.33468 0.0077,-0.005 0.100379,-0.15244 0.205953,-0.32819 0.784428,-1.30576 1.715846,-2.42756 2.911509,-3.50661 0.640796,-0.57831 1.206459,-1.41245 1.447758,-2.13488 0.260187,-0.778979 0.234544,-1.479263 -0.07669,-2.094355 -0.115383,-0.228042 -0.231541,-0.387261 -0.420565,-0.57649 -0.482696,-0.483228 -1.136191,-0.738433 -1.890851,-0.738433 -0.541169,0 -1.076848,0.134398 -1.617979,0.405947 -0.11995,0.06019 -0.152341,0.07124 -0.152341,0.05181 0,-0.04467 0.14704,-0.611558 0.216987,-0.836619 0.212568,-0.683925 0.403723,-1.038631 0.805732,-1.495104 0.08845,-0.100435 0.186884,-0.214822 0.218729,-0.254177 l 0.05791,-0.07162 h -1.651602 c -0.90838,0 -1.65143,0.0048 -1.651223,0.01133 z"
         style="fill:#000000;stroke-width:0.170842"
         id="path1-90-57-2-4"
         transform="translate(0,-12.170833)" /></g></g></svg>
