<?xml version="1.0" encoding="UTF-8" standalone="no"?>
<!-- Created with Inkscape (http://www.inkscape.org/) -->

<svg
   width="40.423996mm"
   height="56.423996mm"
   viewBox="0 0 40.423996 56.423996"
   version="1.1"
   id="svg1"
   xml:space="preserve"
   xmlns="http://www.w3.org/2000/svg"
   xmlns:svg="http://www.w3.org/2000/svg"><defs
     id="defs1"><rect
       x="208.77827"
       y="241.85934"
       width="88.951309"
       height="72.043205"
       id="rect2" /><rect
       x="208.77827"
       y="241.85934"
       width="88.951309"
       height="72.043205"
       id="rect2-1" /></defs><g
     id="layer1"
     transform="translate(-9.3187153,-47.330023)"><g
       id="g4"><path
         style="fill:#ffffff;fill-opacity:1;stroke:#ff0f0f;stroke-width:0.423998;stroke-opacity:1"
         id="rect1"
         width="40"
         height="56"
         x="40.845924"
         y="73.133659"
         transform="translate(-31.31521,-25.591637)"
         d="m 46.845924,73.133659 h 28 a 6,6 45 0 1 6,6 v 44.000001 a 6,6 135 0 1 -6,6 h -28 a 6,6 45 0 1 -6,-6 V 79.133659 a 6,6 135 0 1 6,-6 z" /><path
         d="m 29.426026,72.228429 c -0.836895,-1.480837 -1.935058,-3.14527 -3.240065,-4.910802 -0.290693,-0.393272 -0.937822,-1.246916 -1.148277,-1.514714 l -0.08406,-0.10696 0.239492,-0.32299 c 1.585959,-2.138885 3.04378,-4.274868 4.108897,-6.020306 0.12838,-0.210379 0.238935,-0.376137 0.245677,-0.368352 0.0067,0.0078 0.162759,0.266739 0.346708,0.575454 1.176964,1.975285 2.587375,4.03546 3.992011,5.831111 0.205865,0.263169 0.23602,0.309643 0.216254,0.33327 -1.151335,1.376461 -2.266335,2.928999 -3.3391,4.649413 -0.306592,0.491686 -0.763042,1.254006 -1.013521,1.69267 -0.104659,0.183299 -0.195294,0.339172 -0.201409,0.346382 -0.0061,0.0072 -0.06129,-0.07567 -0.122611,-0.184176 z"
         style="fill:#ff0f0f;fill-opacity:1;stroke-width:0.198896"
         id="path1-9-9" /><text
         xml:space="preserve"
         transform="matrix(0.26458333,0,0,0.26458333,-42.029977,-14.879849)"
         id="text2"
         style="font-style:normal;font-weight:normal;font-size:40px;line-height:1.25;font-family:sans-serif;white-space:pre;shape-inside:url(#rect2);display:inline;fill:#ff0f0f;fill-opacity:1;stroke:#ff0f0f;stroke-opacity:1"><tspan
           x="208.77734"
           y="278.77427"
           id="tspan6"><tspan
             style="font-weight:600;font-family:'New York Extra Large';-inkscape-font-specification:'New York Extra Large Semi-Bold'"
             id="tspan5">2</tspan></tspan></text><text
         xml:space="preserve"
         transform="matrix(-0.26458333,0,0,-0.26458333,101.09141,165.9639)"
         id="text2-7"
         style="font-style:normal;font-weight:normal;font-size:40px;line-height:1.25;font-family:sans-serif;white-space:pre;shape-inside:url(#rect2-1);display:inline;fill:#ff0f0f;fill-opacity:1;stroke:#ff0f0f;stroke-opacity:1"><tspan
           x="208.77734"
           y="278.77427"
           id="tspan8"><tspan
             style="font-weight:600;font-family:'New York Extra Large';-inkscape-font-specification:'New York Extra Large Semi-Bold'"
             id="tspan7">2</tspan></tspan></text><path
         d="m 29.426026,91.915392 c -0.836895,-1.480837 -1.935058,-3.14527 -3.240065,-4.910802 -0.290693,-0.393272 -0.937822,-1.246916 -1.148277,-1.514714 l -0.08406,-0.10696 0.239492,-0.32299 c 1.585959,-2.138885 3.04378,-4.274868 4.108897,-6.020306 0.12838,-0.210379 0.238935,-0.376137 0.245677,-0.368352 0.0067,0.0078 0.162759,0.266739 0.346708,0.575454 1.176964,1.975285 2.587375,4.03546 3.992011,5.831111 0.205865,0.263169 0.23602,0.309643 0.216254,0.33327 -1.151335,1.376461 -2.266335,2.928999 -3.3391,4.649413 -0.306592,0.491686 -0.763042,1.254006 -1.013521,1.69267 -0.104659,0.183299 -0.195294,0.339172 -0.201409,0.346382 -0.0061,0.0072 -0.06129,-0.07567 -0.122611,-0.184176 z"
         style="fill:#ff0f0f;fill-opacity:1;stroke-width:0.198896"
         id="path1-9-9-5" /></g></g></svg>
