<?xml version="1.0" encoding="UTF-8" standalone="no"?>
<!-- Created with Inkscape (http://www.inkscape.org/) -->

<svg
   width="40.423996mm"
   height="56.424011mm"
   viewBox="0 0 40.423996 56.424011"
   version="1.1"
   id="svg1"
   xml:space="preserve"
   xmlns="http://www.w3.org/2000/svg"
   xmlns:svg="http://www.w3.org/2000/svg"><defs
     id="defs1"><rect
       x="208.77827"
       y="241.85934"
       width="88.951309"
       height="72.043205"
       id="rect2-6-7-6-1-3-1-1" /><rect
       x="208.77827"
       y="241.85934"
       width="88.951309"
       height="72.043205"
       id="rect2-1-0-5-1-0-3-7-2" /></defs><g
     id="layer1"
     transform="translate(-8.7861292,-170.08317)"><g
       id="g4"><path
         style="fill:#ffffff;fill-opacity:1;stroke:#000000;stroke-width:0.423998;stroke-opacity:1"
         id="rect1-8-5-5-8-7-1-7"
         width="40"
         height="56"
         x="40.845924"
         y="73.133659"
         transform="translate(-31.847796,97.16152)"
         d="m 46.845924,73.133659 h 28 a 6,6 45 0 1 6,6 v 44.000001 a 6,6 135 0 1 -6,6 h -28 a 6,6 45 0 1 -6,-6 V 79.133659 a 6,6 135 0 1 6,-6 z" /><text
         xml:space="preserve"
         transform="matrix(0.26458333,0,0,0.26458333,-42.562556,107.87331)"
         id="text2-5-5-3-0-1-0-5"
         style="font-style:normal;font-weight:normal;font-size:40px;line-height:1.25;font-family:sans-serif;white-space:pre;shape-inside:url(#rect2-6-7-6-1-3-1-1);display:inline;fill:#000000;fill-opacity:1;stroke:none"><tspan
           x="208.77734"
           y="278.77427"
           id="tspan2"><tspan
             style="font-weight:600;font-family:'New York Extra Large';-inkscape-font-specification:'New York Extra Large Semi-Bold'"
             id="tspan1">10</tspan></tspan></text><text
         xml:space="preserve"
         transform="matrix(-0.26458333,0,0,-0.26458333,100.55883,288.71705)"
         id="text2-7-4-1-5-7-5-5-4"
         style="font-style:normal;font-weight:normal;font-size:40px;line-height:1.25;font-family:sans-serif;white-space:pre;shape-inside:url(#rect2-1-0-5-1-0-3-7-2);display:inline;fill:#000000;fill-opacity:1;stroke:none"><tspan
           x="208.77734"
           y="278.77427"
           id="tspan4"><tspan
             style="font-weight:600;font-family:'New York Extra Large';-inkscape-font-specification:'New York Extra Large Semi-Bold'"
             id="tspan3">10</tspan></tspan></text><path
         d="m 28.085974,193.47222 c 1.06e-4,-0.004 0.03934,-0.0619 0.08712,-0.12921 0.188474,-0.26553 0.271262,-0.41242 0.370787,-0.65787 0.05922,-0.14601 0.176014,-0.49045 0.234031,-0.69006 l 0.03995,-0.13734 -0.128002,0.0665 c -0.34995,0.18202 -0.68046,0.26689 -1.039333,0.26689 -0.471668,0 -0.882688,-0.15682 -1.174981,-0.44831 -0.188949,-0.18844 -0.300214,-0.39529 -0.358706,-0.6669 -0.0293,-0.13612 -0.02983,-0.40991 -8.27e-4,-0.5625 0.05878,-0.3112 0.183898,-0.60657 0.389769,-0.9201 0.191536,-0.2917 0.316897,-0.4381 0.71829,-0.8388 0.711885,-0.71065 1.118258,-1.20574 1.67678,-2.04288 0.07585,-0.11365 0.14165,-0.20429 0.146288,-0.20144 0.0044,0.004 0.06037,0.0918 0.123953,0.19753 0.472117,0.78588 1.032698,1.46105 1.752327,2.11049 0.385667,0.34806 0.726113,0.85008 0.871345,1.28489 0.156601,0.46882 0.141166,0.8903 -0.04611,1.2605 -0.06943,0.13726 -0.139353,0.23308 -0.253126,0.34697 -0.290516,0.29084 -0.68383,0.44444 -1.138031,0.44444 -0.325706,0 -0.648112,-0.0809 -0.973792,-0.24433 -0.07216,-0.0362 -0.09169,-0.0429 -0.09169,-0.0311 0,0.0268 0.0885,0.36807 0.130598,0.50353 0.12794,0.41162 0.242988,0.62511 0.484938,0.89984 0.05324,0.0605 0.112479,0.1293 0.131644,0.15298 l 0.03485,0.043 h -0.994032 c -0.546721,0 -0.993935,-0.004 -0.993812,-0.007 z"
         style="fill:#000000;stroke-width:0.102823"
         id="path1-90-57-8-7-01-0-5-0" /><path
         d="m 28.085974,203.28373 c 1.06e-4,0.004 0.03934,0.0619 0.08712,0.12921 0.188474,0.26553 0.271262,0.41242 0.370787,0.65787 0.05922,0.14601 0.176014,0.49045 0.234031,0.69006 l 0.03995,0.13734 -0.128002,-0.0665 c -0.34995,-0.18202 -0.68046,-0.26689 -1.039333,-0.26689 -0.471668,0 -0.882688,0.15682 -1.174981,0.44831 -0.188949,0.18844 -0.300214,0.39529 -0.358706,0.6669 -0.0293,0.13612 -0.02983,0.40991 -8.27e-4,0.5625 0.05878,0.3112 0.183898,0.60657 0.389769,0.9201 0.191536,0.29169 0.316897,0.43809 0.71829,0.83879 0.711885,0.71065 1.118258,1.20574 1.67678,2.04288 0.07585,0.11365 0.14165,0.20429 0.146288,0.20144 0.0044,-0.004 0.06037,-0.0918 0.123953,-0.19753 0.472117,-0.78588 1.032698,-1.46105 1.752327,-2.11049 0.385667,-0.34806 0.726113,-0.85008 0.871345,-1.28489 0.156601,-0.46881 0.141166,-0.8903 -0.04611,-1.2605 -0.06943,-0.13726 -0.139353,-0.23308 -0.253126,-0.34697 -0.290516,-0.29084 -0.68383,-0.44443 -1.138031,-0.44443 -0.325706,0 -0.648112,0.0809 -0.973792,0.24432 -0.07216,0.0362 -0.09169,0.0429 -0.09169,0.0311 0,-0.0268 0.0885,-0.36807 0.130598,-0.50354 0.12794,-0.41162 0.242988,-0.62511 0.484938,-0.89984 0.05324,-0.0605 0.112479,-0.1293 0.131644,-0.15298 l 0.03485,-0.043 h -0.994032 c -0.546721,0 -0.993935,0.004 -0.993812,0.007 z"
         style="fill:#000000;stroke-width:0.102823"
         id="path1-90-57-8-7-01-0-5-0-0" /><path
         d="m 36.674464,190.70863 c 1.06e-4,0.004 0.03934,0.0619 0.08712,0.12922 0.188473,0.26553 0.271262,0.41241 0.370787,0.65788 0.05922,0.146 0.176013,0.49043 0.23403,0.69005 l 0.03995,0.13734 -0.128001,-0.0666 c -0.34995,-0.18203 -0.680461,-0.2669 -1.039333,-0.2669 -0.471668,0 -0.882688,0.15682 -1.174982,0.44831 -0.188949,0.18843 -0.300213,0.39529 -0.358705,0.6669 -0.0293,0.13612 -0.02983,0.40991 -8.27e-4,0.5625 0.05878,0.3112 0.183898,0.60658 0.389768,0.92011 0.191536,0.29171 0.316898,0.4381 0.718291,0.8388 0.711884,0.71067 1.118258,1.20576 1.67678,2.0429 0.07585,0.11364 0.14165,0.20429 0.146287,0.20143 0.0044,-0.004 0.06037,-0.0917 0.123954,-0.19753 0.472117,-0.78588 1.032698,-1.46105 1.752326,-2.11049 0.385668,-0.34806 0.726114,-0.85009 0.871345,-1.28491 0.156601,-0.46882 0.141166,-0.8903 -0.04611,-1.2605 -0.06943,-0.13725 -0.139354,-0.23308 -0.253126,-0.34697 -0.290516,-0.29083 -0.683831,-0.44443 -1.138031,-0.44443 -0.325706,0 -0.648113,0.081 -0.973792,0.24432 -0.07216,0.0362 -0.09169,0.0429 -0.09169,0.0312 0,-0.0269 0.0885,-0.36807 0.130597,-0.50353 0.12794,-0.41162 0.242989,-0.62511 0.484938,-0.89984 0.05324,-0.0605 0.112479,-0.12929 0.131645,-0.15298 l 0.03485,-0.043 h -0.994031 c -0.546722,0 -0.993935,0.004 -0.993812,0.007 z"
         style="fill:#000000;stroke-width:0.102823"
         id="path1-90-57-2-4-9-3-2-5-5" /><path
         d="m 36.729744,182.32526 c 1.06e-4,0.004 0.03934,0.0619 0.08712,0.12921 0.188465,0.26554 0.271253,0.41242 0.370779,0.65788 0.05922,0.14601 0.176022,0.49044 0.23403,0.69005 l 0.03995,0.13734 -0.128002,-0.0666 c -0.349949,-0.18203 -0.680469,-0.26691 -1.039342,-0.26691 -0.471668,0 -0.882688,0.15682 -1.174972,0.44832 -0.188949,0.18844 -0.300214,0.3953 -0.358706,0.6669 -0.0293,0.13613 -0.02983,0.40992 -8.27e-4,0.56251 0.05878,0.31121 0.183889,0.60658 0.389769,0.92012 0.191527,0.29169 0.316897,0.43809 0.71829,0.83879 0.711885,0.71068 1.11825,1.20577 1.67678,2.04291 0.07585,0.11365 0.14165,0.20429 0.146279,0.20143 0.0044,-0.004 0.06046,-0.0918 0.123954,-0.19752 0.472117,-0.7859 1.032706,-1.46106 1.752326,-2.1105 0.385668,-0.34807 0.726122,-0.8501 0.871354,-1.28492 0.156592,-0.46883 0.141157,-0.89031 -0.0462,-1.26051 -0.06943,-0.13725 -0.139353,-0.23308 -0.253117,-0.34697 -0.290516,-0.29083 -0.683831,-0.44443 -1.138031,-0.44443 -0.325706,0 -0.648113,0.081 -0.973801,0.24432 -0.07216,0.0362 -0.09168,0.0429 -0.09168,0.0311 0,-0.0269 0.0885,-0.36806 0.130598,-0.50352 0.127931,-0.41161 0.242979,-0.62511 0.484938,-0.89984 0.05324,-0.0605 0.112478,-0.12929 0.131644,-0.15298 l 0.03485,-0.043 h -0.99404 c -0.546713,0 -0.993926,0.004 -0.993803,0.007 z"
         style="fill:#000000;stroke-width:0.102823"
         id="path1-90-57-2-4-9-3-9-3-9-7" /><path
         d="m 36.674464,199.09202 c 1.06e-4,0.004 0.03934,0.0619 0.08712,0.1292 0.188473,0.26554 0.271262,0.41242 0.370787,0.65788 0.05922,0.14601 0.176013,0.49044 0.23403,0.69006 l 0.03995,0.13733 -0.128001,-0.0665 c -0.34995,-0.18203 -0.680461,-0.26691 -1.039333,-0.26691 -0.471668,0 -0.882688,0.15682 -1.174982,0.44832 -0.188949,0.18843 -0.300213,0.39529 -0.358705,0.66689 -0.0293,0.13613 -0.02983,0.40993 -8.27e-4,0.5625 0.05878,0.31121 0.183898,0.60657 0.389768,0.92011 0.191536,0.29169 0.316898,0.4381 0.718291,0.83879 0.711884,0.71067 1.118258,1.20576 1.67678,2.0429 0.07585,0.11364 0.14165,0.20428 0.146287,0.20143 0.0044,-0.004 0.06037,-0.0918 0.123954,-0.19753 0.472117,-0.78588 1.032698,-1.46106 1.752326,-2.1105 0.385668,-0.34805 0.726114,-0.85007 0.871345,-1.28488 0.156601,-0.46883 0.141166,-0.89031 -0.04611,-1.26051 -0.06943,-0.13725 -0.139354,-0.23308 -0.253126,-0.34695 -0.290516,-0.29084 -0.683831,-0.44444 -1.138031,-0.44444 -0.325706,0 -0.648113,0.0809 -0.973792,0.24431 -0.07216,0.0363 -0.09169,0.0429 -0.09169,0.0311 0,-0.0268 0.0885,-0.36806 0.130597,-0.50352 0.12794,-0.41162 0.242989,-0.62511 0.484938,-0.89985 0.05324,-0.0605 0.112479,-0.12928 0.131645,-0.15298 l 0.03485,-0.043 h -0.994031 c -0.546722,0 -0.993935,0.004 -0.993812,0.007 z"
         style="fill:#000000;stroke-width:0.102823"
         id="path1-90-57-8-6-1-0-5-4-4" /><path
         d="m 36.674464,207.47544 c 1.06e-4,0.004 0.03934,0.0619 0.08712,0.12921 0.188473,0.26553 0.271262,0.41242 0.370787,0.65787 0.05922,0.14601 0.176013,0.49045 0.23403,0.69006 l 0.03995,0.13734 -0.128001,-0.0665 c -0.34995,-0.18202 -0.680461,-0.2669 -1.039333,-0.2669 -0.471668,0 -0.882688,0.15683 -1.174982,0.44832 -0.188949,0.18844 -0.300213,0.39529 -0.358705,0.6669 -0.0293,0.13612 -0.02983,0.40991 -8.27e-4,0.5625 0.05878,0.3112 0.183898,0.60657 0.389768,0.9201 0.191536,0.2917 0.316898,0.4381 0.718291,0.8388 0.711884,0.71065 1.118258,1.20574 1.67678,2.04288 0.07585,0.11365 0.14165,0.20429 0.146287,0.20144 0.0044,-0.004 0.06037,-0.0918 0.123954,-0.19753 0.472117,-0.78588 1.032698,-1.46105 1.752326,-2.11049 0.385668,-0.34806 0.726114,-0.85008 0.871345,-1.2849 0.156601,-0.46881 0.141166,-0.89029 -0.04611,-1.26049 -0.06943,-0.13726 -0.139354,-0.23308 -0.253126,-0.34697 -0.290516,-0.29084 -0.683831,-0.44444 -1.138031,-0.44444 -0.325706,0 -0.648113,0.0809 -0.973792,0.24433 -0.07216,0.0362 -0.09169,0.0429 -0.09169,0.0311 0,-0.0268 0.0885,-0.36807 0.130597,-0.50353 0.12794,-0.41162 0.242989,-0.62511 0.484938,-0.89984 0.05324,-0.0605 0.112479,-0.1293 0.131645,-0.15298 l 0.03485,-0.043 h -0.994031 c -0.546722,0 -0.993935,0.004 -0.993812,0.007 z"
         style="fill:#000000;stroke-width:0.102823"
         id="path1-90-57-8-7-01-0-6-9" /><path
         d="m 19.442229,197.66395 c 1.06e-4,-0.004 0.03934,-0.0619 0.08712,-0.1292 0.188473,-0.26554 0.271262,-0.41242 0.370787,-0.65788 0.05922,-0.14601 0.176013,-0.49044 0.23403,-0.69006 l 0.03995,-0.13733 -0.128001,0.0665 c -0.34995,0.18203 -0.680461,0.26691 -1.039333,0.26691 -0.471668,0 -0.882688,-0.15682 -1.174982,-0.44832 -0.188949,-0.18843 -0.300213,-0.39529 -0.358705,-0.66689 -0.0293,-0.13613 -0.02983,-0.40993 -8.27e-4,-0.5625 0.05878,-0.31121 0.183898,-0.60657 0.389768,-0.92011 0.191536,-0.29169 0.316898,-0.4381 0.718291,-0.83879 0.711884,-0.71067 1.118258,-1.20576 1.67678,-2.0429 0.07585,-0.11364 0.14165,-0.20428 0.146287,-0.20143 0.0044,0.004 0.06037,0.0918 0.123954,0.19753 0.472117,0.78588 1.032698,1.46106 1.752326,2.1105 0.385668,0.34805 0.726114,0.85007 0.871345,1.28488 0.156601,0.46883 0.141166,0.89031 -0.04611,1.26051 -0.06943,0.13725 -0.139354,0.23308 -0.253126,0.34695 -0.290516,0.29084 -0.683831,0.44444 -1.138031,0.44444 -0.325706,0 -0.648113,-0.0809 -0.973792,-0.24431 -0.07216,-0.0363 -0.09169,-0.0429 -0.09169,-0.0311 0,0.0268 0.0885,0.36806 0.130597,0.50352 0.12794,0.41162 0.242989,0.62511 0.484938,0.89985 0.05324,0.0605 0.112479,0.12928 0.131645,0.15298 l 0.03485,0.043 h -0.994031 c -0.546722,0 -0.993935,-0.004 -0.993812,-0.007 z"
         style="fill:#000000;stroke-width:0.102823"
         id="path1-90-57-8-6-1-0-5-4" /><path
         d="m 19.442229,206.04734 c 1.06e-4,-0.004 0.03934,-0.0619 0.08712,-0.12922 0.188473,-0.26553 0.271262,-0.41241 0.370787,-0.65788 0.05922,-0.146 0.176013,-0.49043 0.23403,-0.69005 l 0.03995,-0.13734 -0.128001,0.0666 c -0.34995,0.18203 -0.680461,0.2669 -1.039333,0.2669 -0.471668,0 -0.882688,-0.15682 -1.174982,-0.44831 -0.188949,-0.18843 -0.300213,-0.39529 -0.358705,-0.6669 -0.0293,-0.13612 -0.02983,-0.40991 -8.27e-4,-0.5625 0.05878,-0.3112 0.183898,-0.60658 0.389768,-0.92011 0.191536,-0.29171 0.316898,-0.4381 0.718291,-0.8388 0.711884,-0.71067 1.118258,-1.20576 1.67678,-2.0429 0.07585,-0.11364 0.14165,-0.20429 0.146287,-0.20143 0.0044,0.004 0.06037,0.0917 0.123954,0.19753 0.472117,0.78588 1.032698,1.46105 1.752326,2.11049 0.385668,0.34806 0.726114,0.85009 0.871345,1.28491 0.156601,0.46882 0.141166,0.8903 -0.04611,1.2605 -0.06943,0.13725 -0.139354,0.23308 -0.253126,0.34697 -0.290516,0.29083 -0.683831,0.44443 -1.138031,0.44443 -0.325706,0 -0.648113,-0.081 -0.973792,-0.24432 -0.07216,-0.0362 -0.09169,-0.0429 -0.09169,-0.0312 0,0.0269 0.0885,0.36807 0.130597,0.50353 0.12794,0.41162 0.242989,0.62511 0.484938,0.89984 0.05324,0.0605 0.112479,0.12929 0.131645,0.15298 l 0.03485,0.043 h -0.994031 c -0.546722,0 -0.993935,-0.004 -0.993812,-0.007 z"
         style="fill:#000000;stroke-width:0.102823"
         id="path1-90-57-2-4-9-3-2-5" /><path
         d="m 19.497509,214.43071 c 1.06e-4,-0.004 0.03934,-0.0619 0.08712,-0.12921 0.188465,-0.26554 0.271253,-0.41242 0.370779,-0.65788 0.05922,-0.14601 0.176022,-0.49044 0.23403,-0.69005 l 0.03995,-0.13734 -0.128002,0.0666 c -0.349949,0.18203 -0.680469,0.26691 -1.039342,0.26691 -0.471668,0 -0.882688,-0.15682 -1.174972,-0.44832 -0.188949,-0.18844 -0.300214,-0.3953 -0.358706,-0.6669 -0.0293,-0.13613 -0.02983,-0.40992 -8.27e-4,-0.56251 0.05878,-0.31121 0.183889,-0.60658 0.389769,-0.92012 0.191527,-0.29169 0.316897,-0.43809 0.71829,-0.83879 0.711885,-0.71068 1.11825,-1.20577 1.67678,-2.04291 0.07585,-0.11365 0.14165,-0.20429 0.146279,-0.20143 0.0044,0.004 0.06046,0.0918 0.123954,0.19752 0.472117,0.7859 1.032706,1.46106 1.752326,2.1105 0.385668,0.34807 0.726122,0.8501 0.871354,1.28492 0.156592,0.46883 0.141157,0.89031 -0.0462,1.26051 -0.06943,0.13725 -0.139353,0.23308 -0.253117,0.34697 -0.290516,0.29083 -0.683831,0.44443 -1.138031,0.44443 -0.325706,0 -0.648113,-0.081 -0.973801,-0.24432 -0.07216,-0.0362 -0.09168,-0.0429 -0.09168,-0.0311 0,0.0269 0.0885,0.36806 0.130598,0.50352 0.127931,0.41161 0.242979,0.62511 0.484938,0.89984 0.05324,0.0605 0.112478,0.12929 0.131644,0.15298 l 0.03485,0.043 h -0.99404 c -0.546713,0 -0.993926,-0.004 -0.993803,-0.007 z"
         style="fill:#000000;stroke-width:0.102823"
         id="path1-90-57-2-4-9-3-9-3-9" /><path
         d="m 19.442229,189.28053 c 1.06e-4,-0.004 0.03934,-0.0619 0.08712,-0.12921 0.188473,-0.26553 0.271262,-0.41242 0.370787,-0.65787 0.05922,-0.14601 0.176013,-0.49045 0.23403,-0.69006 l 0.03995,-0.13734 -0.128001,0.0665 c -0.34995,0.18202 -0.680461,0.2669 -1.039333,0.2669 -0.471668,0 -0.882688,-0.15683 -1.174982,-0.44832 -0.188949,-0.18844 -0.300213,-0.39529 -0.358705,-0.6669 -0.0293,-0.13612 -0.02983,-0.40991 -8.27e-4,-0.5625 0.05878,-0.3112 0.183898,-0.60657 0.389768,-0.9201 0.191536,-0.2917 0.316898,-0.4381 0.718291,-0.8388 0.711884,-0.71065 1.118258,-1.20574 1.67678,-2.04288 0.07585,-0.11365 0.14165,-0.20429 0.146287,-0.20144 0.0044,0.004 0.06037,0.0918 0.123954,0.19753 0.472117,0.78588 1.032698,1.46105 1.752326,2.11049 0.385668,0.34806 0.726114,0.85008 0.871345,1.2849 0.156601,0.46881 0.141166,0.89029 -0.04611,1.26049 -0.06943,0.13726 -0.139354,0.23308 -0.253126,0.34697 -0.290516,0.29084 -0.683831,0.44444 -1.138031,0.44444 -0.325706,0 -0.648113,-0.0809 -0.973792,-0.24433 -0.07216,-0.0362 -0.09169,-0.0429 -0.09169,-0.0311 0,0.0268 0.0885,0.36807 0.130597,0.50353 0.12794,0.41162 0.242989,0.62511 0.484938,0.89984 0.05324,0.0605 0.112479,0.1293 0.131645,0.15298 l 0.03485,0.043 h -0.994031 c -0.546722,0 -0.993935,-0.004 -0.993812,-0.007 z"
         style="fill:#000000;stroke-width:0.102823"
         id="path1-90-57-8-7-01-0-6" /></g></g></svg>
