<?xml version="1.0" encoding="UTF-8" standalone="no"?>
<!-- Created with Inkscape (http://www.inkscape.org/) -->

<svg
   width="40.423996mm"
   height="56.423981mm"
   viewBox="0 0 40.423996 56.423981"
   version="1.1"
   id="svg1"
   xml:space="preserve"
   xmlns="http://www.w3.org/2000/svg"
   xmlns:svg="http://www.w3.org/2000/svg"><defs
     id="defs1"><rect
       x="261.47491"
       y="920.81134"
       width="129.12341"
       height="76.667023"
       id="rect17" /></defs><g
     id="layer1"
     transform="translate(-9.0791456,-230.27122)"><g
       id="g1"><path
         style="fill:#000000;fill-opacity:1;stroke:#000000;stroke-width:0.423998;stroke-opacity:1"
         id="rect1-7-12"
         width="40"
         height="56"
         x="40.845924"
         y="73.133659"
         transform="translate(-31.55478,157.34955)"
         d="m 46.845924,73.133659 h 28 a 6,6 45 0 1 6,6 v 44.000001 a 6,6 135 0 1 -6,6 h -28 a 6,6 45 0 1 -6,-6 V 79.133659 a 6,6 135 0 1 6,-6 z" /><path
         d="m 23.88877,279.08091 c 6.11e-4,-0.0222 0.23295,-0.36656 0.516001,-0.76535 1.11629,-1.57269 1.606642,-2.44274 2.196125,-3.89655 0.350632,-0.86479 1.042534,-2.90485 1.386156,-4.08714 l 0.236448,-0.81349 -0.758163,0.39436 c -2.072729,1.07814 -4.030351,1.58086 -6.155957,1.58086 -2.793664,0 -5.22813,-0.92889 -6.95934,-2.65536 -1.119142,-1.11609 -1.778161,-2.34132 -2.12461,-3.95 -0.173647,-0.8063 -0.176437,-2.42792 -0.005,-3.33176 0.348092,-1.84319 1.089185,-3.59263 2.30858,-5.4497 1.13443,-1.72768 1.87698,-2.5948 4.254398,-4.96812 4.216487,-4.20924 6.623387,-7.14166 9.931521,-12.10002 0.449103,-0.67313 0.838991,-1.20999 0.866432,-1.19304 0.02752,0.017 0.357829,0.54342 0.734184,1.16992 2.796328,4.65481 6.11665,8.6538 10.378955,12.50039 2.284313,2.06153 4.30079,5.035 5.160972,7.61033 0.927515,2.77691 0.836104,5.27327 -0.273376,7.46595 -0.411316,0.81291 -0.825396,1.38051 -1.499231,2.05508 -1.720715,1.7226 -4.050298,2.63237 -6.740511,2.63237 -1.929161,0 -3.838749,-0.47911 -5.767773,-1.44714 -0.427602,-0.21458 -0.543068,-0.25385 -0.543068,-0.18464 0,0.15912 0.524168,2.18008 0.773515,2.98237 0.757764,2.43807 1.439195,3.70251 2.872277,5.32974 0.315322,0.35806 0.666202,0.76579 0.779727,0.90612 l 0.206417,0.25512 h -5.887635 c -3.238199,0 -5.887026,-0.0182 -5.886291,-0.0403 z"
         style="fill:#ffffff;fill-opacity:1;stroke-width:0.609019"
         id="path1-90-6" /><text
         xml:space="preserve"
         transform="matrix(0.26458333,0,0,0.26458333,-44.544999,6.8040573)"
         id="text17"
         style="font-style:normal;font-weight:normal;font-size:53.3333px;line-height:1.25;font-family:sans-serif;white-space:pre;shape-inside:url(#rect17);display:inline;fill:#000000;fill-opacity:1;stroke:none"><tspan
           x="261.47461"
           y="970.03038"
           id="tspan2"><tspan
             style="font-weight:600;font-family:'New York Extra Large';-inkscape-font-specification:'New York Extra Large Semi-Bold'"
             id="tspan1">A</tspan></tspan></text></g></g></svg>
