<?xml version="1.0" encoding="UTF-8" standalone="no"?>
<!-- Created with Inkscape (http://www.inkscape.org/) -->

<svg
   width="40.424mm"
   height="56.423996mm"
   viewBox="0 0 40.424 56.423996"
   version="1.1"
   id="svg1"
   xml:space="preserve"
   xmlns="http://www.w3.org/2000/svg"
   xmlns:svg="http://www.w3.org/2000/svg"><defs
     id="defs1"><rect
       x="208.77827"
       y="241.85934"
       width="88.951309"
       height="72.043205"
       id="rect2-6-7-6-1-3-1" /><rect
       x="208.77827"
       y="241.85934"
       width="88.951309"
       height="72.043205"
       id="rect2-1-0-5-1-0-3-7" /></defs><g
     id="layer1"
     transform="translate(-144.14235,-109.27468)"><g
       id="g5"
       transform="translate(2.847466e-5)"><path
         style="fill:#ffffff;fill-opacity:1;stroke:#000000;stroke-width:0.423998;stroke-opacity:1"
         id="rect1-8-5-5-8-7-1"
         width="40"
         height="56"
         x="40.845924"
         y="73.133659"
         transform="translate(103.5084,36.353018)"
         d="m 46.845924,73.133659 h 28 a 6,6 45 0 1 6,6 v 44.000001 a 6,6 135 0 1 -6,6 h -28 a 6,6 45 0 1 -6,-6 V 79.133659 a 6,6 135 0 1 6,-6 z" /><text
         xml:space="preserve"
         transform="matrix(0.26458333,0,0,0.26458333,92.793638,47.064806)"
         id="text2-5-5-3-0-1-0"
         style="font-style:normal;font-weight:normal;font-size:40px;line-height:1.25;font-family:sans-serif;white-space:pre;shape-inside:url(#rect2-6-7-6-1-3-1);display:inline;fill:#000000;fill-opacity:1;stroke:none"><tspan
           x="208.77734"
           y="278.77427"
           id="tspan2"><tspan
             style="font-weight:600;font-family:'New York Extra Large';-inkscape-font-specification:'New York Extra Large Semi-Bold'"
             id="tspan1">9</tspan></tspan></text><text
         xml:space="preserve"
         transform="matrix(-0.26458333,0,0,-0.26458333,235.91502,227.90855)"
         id="text2-7-4-1-5-7-5-5"
         style="font-style:normal;font-weight:normal;font-size:40px;line-height:1.25;font-family:sans-serif;white-space:pre;shape-inside:url(#rect2-1-0-5-1-0-3-7);display:inline;fill:#000000;fill-opacity:1;stroke:none"><tspan
           x="208.77734"
           y="278.77427"
           id="tspan4"><tspan
             style="font-weight:600;font-family:'New York Extra Large';-inkscape-font-specification:'New York Extra Large Semi-Bold'"
             id="tspan3">9</tspan></tspan></text><path
         d="m 157.58437,138.0903 c 1.2e-4,-0.005 0.0447,-0.0703 0.099,-0.14683 0.21418,-0.30175 0.30826,-0.46867 0.42136,-0.74761 0.0673,-0.16592 0.20002,-0.55733 0.26595,-0.78417 l 0.0454,-0.15607 -0.14546,0.0756 c -0.39768,0.20686 -0.77327,0.30331 -1.18109,0.30331 -0.536,0 -1.00308,-0.17821 -1.33524,-0.50946 -0.21472,-0.21414 -0.34116,-0.44921 -0.40763,-0.75785 -0.0333,-0.1547 -0.0339,-0.46584 -9.4e-4,-0.63923 0.0668,-0.35365 0.20898,-0.6893 0.44293,-1.0456 0.21766,-0.33148 0.36012,-0.49785 0.81626,-0.9532 0.80898,-0.80759 1.27078,-1.37021 1.90548,-2.32153 0.0862,-0.12914 0.16097,-0.23214 0.16624,-0.2289 0.005,0.004 0.0686,0.10426 0.14086,0.22447 0.53651,0.89307 1.17355,1.66033 1.99133,2.39835 0.43827,0.39553 0.82515,0.96602 0.99019,1.46013 0.17796,0.53278 0.16042,1.01174 -0.0524,1.43243 -0.0789,0.15597 -0.15836,0.26487 -0.28765,0.39428 -0.33014,0.33051 -0.7771,0.50506 -1.29325,0.50506 -0.37013,0 -0.73651,-0.0919 -1.10661,-0.27764 -0.082,-0.0412 -0.1042,-0.0487 -0.1042,-0.0354 0,0.0305 0.10057,0.41827 0.14841,0.5722 0.14539,0.46776 0.27613,0.71037 0.55108,1.02258 0.0605,0.0687 0.12782,0.14692 0.1496,0.17385 l 0.0396,0.0489 h -1.12961 c -0.62129,0 -1.1295,-0.004 -1.12936,-0.008 z"
         style="fill:#000000;stroke-width:0.116847"
         id="path1-90-57-8-6-1-0-5" /><path
         d="m 157.58437,147.96191 c 1.2e-4,-0.005 0.0447,-0.0703 0.099,-0.14684 0.21418,-0.30175 0.30826,-0.46867 0.42136,-0.74761 0.0673,-0.16592 0.20002,-0.55733 0.26595,-0.78417 l 0.0454,-0.15607 -0.14546,0.0757 c -0.39768,0.20686 -0.77327,0.30331 -1.18109,0.30331 -0.536,0 -1.00308,-0.17821 -1.33524,-0.50946 -0.21472,-0.21413 -0.34116,-0.44921 -0.40763,-0.75786 -0.0333,-0.15469 -0.0339,-0.46582 -9.4e-4,-0.63922 0.0668,-0.35365 0.20898,-0.68931 0.44293,-1.04561 0.21766,-0.33149 0.36012,-0.49785 0.81626,-0.9532 0.80898,-0.8076 1.27078,-1.37022 1.90548,-2.32154 0.0862,-0.12914 0.16097,-0.23215 0.16624,-0.2289 0.005,0.004 0.0686,0.10426 0.14086,0.22447 0.53651,0.89307 1.17355,1.66033 1.99133,2.39834 0.43827,0.39554 0.82515,0.96604 0.99019,1.46016 0.17796,0.53277 0.16042,1.01174 -0.0524,1.43243 -0.0789,0.15597 -0.15836,0.26487 -0.28765,0.39429 -0.33014,0.3305 -0.7771,0.50505 -1.29325,0.50505 -0.37013,0 -0.73651,-0.092 -1.10661,-0.27765 -0.082,-0.0411 -0.1042,-0.0487 -0.1042,-0.0354 0,0.0306 0.10057,0.41827 0.14841,0.5722 0.14539,0.46776 0.27613,0.71037 0.55108,1.02257 0.0605,0.0687 0.12782,0.14693 0.1496,0.17385 l 0.0396,0.0489 h -1.12961 c -0.62129,0 -1.1295,-0.004 -1.12936,-0.008 z"
         style="fill:#000000;stroke-width:0.116847"
         id="path1-90-57-2-4-9-3-2" /><path
         d="m 157.64719,157.83356 c 1.2e-4,-0.005 0.0447,-0.0703 0.099,-0.14684 0.21417,-0.30175 0.30825,-0.46867 0.42135,-0.74761 0.0673,-0.16592 0.20003,-0.55733 0.26595,-0.78416 l 0.0454,-0.15608 -0.14546,0.0757 c -0.39768,0.20686 -0.77328,0.30331 -1.1811,0.30331 -0.536,0 -1.00308,-0.17821 -1.33523,-0.50946 -0.21472,-0.21414 -0.34116,-0.44922 -0.40763,-0.75786 -0.0333,-0.1547 -0.0339,-0.46583 -9.4e-4,-0.63924 0.0668,-0.35365 0.20897,-0.68931 0.44293,-1.04561 0.21765,-0.33148 0.36012,-0.49784 0.81626,-0.9532 0.80898,-0.80761 1.27077,-1.37023 1.90548,-2.32155 0.0862,-0.12915 0.16097,-0.23215 0.16623,-0.2289 0.005,0.004 0.0687,0.10426 0.14086,0.22446 0.53651,0.89309 1.17356,1.66034 1.99133,2.39836 0.43827,0.39554 0.82516,0.96605 0.9902,1.46017 0.17795,0.53278 0.16041,1.01174 -0.0525,1.43243 -0.0789,0.15597 -0.15836,0.26488 -0.28764,0.3943 -0.33014,0.3305 -0.7771,0.50505 -1.29325,0.50505 -0.37013,0 -0.73651,-0.092 -1.10662,-0.27765 -0.082,-0.0411 -0.10419,-0.0487 -0.10419,-0.0354 0,0.0306 0.10057,0.41827 0.14841,0.5722 0.14538,0.46775 0.27612,0.71037 0.55108,1.02257 0.0605,0.0687 0.12782,0.14693 0.1496,0.17385 l 0.0396,0.0489 h -1.12962 c -0.62128,0 -1.12949,-0.004 -1.12935,-0.008 z"
         style="fill:#000000;stroke-width:0.116847"
         id="path1-90-57-2-4-9-3-9-3" /><path
         d="m 168.98836,140.05799 c 1.1e-4,0.005 0.0447,0.0703 0.099,0.14684 0.21417,0.30174 0.30825,0.46867 0.42135,0.7476 0.0673,0.16593 0.20002,0.55734 0.26595,0.78418 l 0.0454,0.15607 -0.14546,-0.0756 c -0.39768,-0.20686 -0.77327,-0.30331 -1.18109,-0.30331 -0.536,0 -1.00308,0.17822 -1.33524,0.50946 -0.21472,0.21415 -0.34116,0.44922 -0.40763,0.75786 -0.0333,0.15469 -0.0339,0.46583 -9.4e-4,0.63923 0.0668,0.35365 0.20898,0.6893 0.44293,1.04559 0.21766,0.33149 0.36012,0.49785 0.81626,0.9532 0.80898,0.80759 1.27078,1.3702 1.90548,2.32153 0.0862,0.12914 0.16097,0.23215 0.16624,0.2289 0.005,-0.004 0.0687,-0.10426 0.14086,-0.22447 0.53651,-0.89307 1.17355,-1.66033 1.99133,-2.39834 0.43827,-0.39553 0.82515,-0.96603 0.99019,-1.46014 0.17796,-0.53277 0.16042,-1.01173 -0.0524,-1.43242 -0.0789,-0.15598 -0.15837,-0.26488 -0.28765,-0.39429 -0.33014,-0.33052 -0.7771,-0.50506 -1.29325,-0.50506 -0.37013,0 -0.73651,0.0919 -1.10661,0.27765 -0.082,0.0412 -0.1042,0.0488 -0.1042,0.0354 0,-0.0305 0.10057,-0.41827 0.14841,-0.5722 0.14539,-0.46777 0.27613,-0.71037 0.55108,-1.02258 0.0605,-0.0687 0.12782,-0.14693 0.1496,-0.17385 l 0.0396,-0.0489 h -1.12961 c -0.62129,0 -1.1295,0.004 -1.12936,0.008 z"
         style="fill:#000000;stroke-width:0.116847"
         id="path1-90-57-8-7-7-0-8" /><path
         d="m 169.05117,149.92962 c 1.2e-4,0.005 0.0447,0.0703 0.099,0.14683 0.21418,0.30174 0.30825,0.46867 0.42135,0.74761 0.0673,0.16592 0.20003,0.55733 0.26595,0.78418 l 0.0454,0.15607 -0.14546,-0.0757 c -0.39768,-0.20685 -0.77328,-0.3033 -1.1811,-0.3033 -0.536,0 -1.00308,0.17822 -1.33523,0.50946 -0.21472,0.21414 -0.34116,0.44921 -0.40763,0.75786 -0.0333,0.15469 -0.0339,0.46582 -9.4e-4,0.63923 0.0668,0.35365 0.20897,0.6893 0.44293,1.0456 0.21765,0.33149 0.36012,0.49786 0.81625,0.9532 0.80899,0.80759 1.27078,1.37021 1.90549,2.32154 0.0862,0.12913 0.16097,0.23215 0.16623,0.2289 0.005,-0.004 0.0687,-0.10426 0.14086,-0.22447 0.53651,-0.89307 1.17356,-1.66033 1.99133,-2.39835 0.43827,-0.39554 0.82516,-0.96603 0.9902,-1.46015 0.17795,-0.53276 0.16041,-1.01173 -0.0524,-1.43243 -0.0789,-0.15598 -0.15836,-0.26487 -0.28764,-0.39429 -0.33014,-0.33052 -0.7771,-0.50506 -1.29325,-0.50506 -0.37013,0 -0.73651,0.092 -1.10662,0.27765 -0.082,0.0412 -0.10419,0.0488 -0.10419,0.0354 0,-0.0305 0.10057,-0.41827 0.14841,-0.57221 0.14538,-0.46777 0.27612,-0.71036 0.55108,-1.02258 0.0605,-0.0687 0.12782,-0.14693 0.1496,-0.17384 l 0.0396,-0.0489 h -1.12962 c -0.62128,0 -1.12949,0.004 -1.12935,0.008 z"
         style="fill:#000000;stroke-width:0.116847"
         id="path1-90-57-8-7-7-0-2-7" /><path
         d="m 168.98836,130.18641 c 1.1e-4,0.005 0.0447,0.0703 0.099,0.14683 0.21417,0.30175 0.30825,0.46867 0.42135,0.7476 0.0673,0.16593 0.20002,0.55734 0.26595,0.78418 l 0.0454,0.15606 -0.14546,-0.0756 c -0.39768,-0.20687 -0.77327,-0.30332 -1.18109,-0.30332 -0.536,0 -1.00308,0.17822 -1.33524,0.50946 -0.21472,0.21415 -0.34116,0.44922 -0.40763,0.75786 -0.0333,0.15469 -0.0339,0.46583 -9.4e-4,0.63923 0.0668,0.35365 0.20898,0.6893 0.44293,1.0456 0.21766,0.33148 0.36012,0.49785 0.81626,0.95319 0.80898,0.80759 1.27078,1.37021 1.90548,2.32154 0.0862,0.12914 0.16097,0.23214 0.16624,0.2289 0.005,-0.004 0.0687,-0.10426 0.14086,-0.22448 0.53651,-0.89306 1.17355,-1.66032 1.99133,-2.39834 0.43827,-0.39553 0.82515,-0.96602 0.99019,-1.46014 0.17796,-0.53277 0.16042,-1.01173 -0.0524,-1.43242 -0.0789,-0.15598 -0.15837,-0.26487 -0.28765,-0.39428 -0.33014,-0.33052 -0.7771,-0.50506 -1.29325,-0.50506 -0.37013,0 -0.73651,0.0919 -1.10661,0.27764 -0.082,0.0412 -0.1042,0.0488 -0.1042,0.0354 0,-0.0305 0.10057,-0.41827 0.14841,-0.5722 0.14539,-0.46777 0.27613,-0.71037 0.55108,-1.02258 0.0605,-0.0687 0.12782,-0.14692 0.1496,-0.17385 l 0.0396,-0.0489 h -1.12961 c -0.62129,0 -1.1295,0.004 -1.12936,0.008 z"
         style="fill:#000000;stroke-width:0.116847"
         id="path1-90-57-8-6-1-4-03-8" /><path
         d="m 157.58437,125.04367 c 1.2e-4,-0.005 0.0447,-0.0703 0.099,-0.14683 0.21418,-0.30175 0.30826,-0.46867 0.42136,-0.7476 0.0673,-0.16593 0.20002,-0.55734 0.26595,-0.78418 l 0.0454,-0.15607 -0.14546,0.0756 c -0.39768,0.20685 -0.77327,0.3033 -1.18109,0.3033 -0.536,0 -1.00308,-0.17821 -1.33524,-0.50946 -0.21472,-0.21414 -0.34116,-0.44921 -0.40763,-0.75786 -0.0333,-0.15469 -0.0339,-0.46582 -9.4e-4,-0.63922 0.0668,-0.35365 0.20898,-0.6893 0.44293,-1.0456 0.21766,-0.33148 0.36012,-0.49785 0.81626,-0.9532 0.80898,-0.80758 1.27078,-1.3702 1.90548,-2.32152 0.0862,-0.12915 0.16097,-0.23215 0.16624,-0.22891 0.005,0.004 0.0686,0.10426 0.14086,0.22447 0.53651,0.89307 1.17355,1.66033 1.99133,2.39835 0.43827,0.39553 0.82515,0.96602 0.99019,1.46014 0.17796,0.53276 0.16042,1.01173 -0.0524,1.43242 -0.0789,0.15598 -0.15836,0.26487 -0.28765,0.39429 -0.33014,0.33051 -0.7771,0.50506 -1.29325,0.50506 -0.37013,0 -0.73651,-0.0919 -1.10661,-0.27765 -0.082,-0.0412 -0.1042,-0.0487 -0.1042,-0.0354 0,0.0305 0.10057,0.41827 0.14841,0.5722 0.14539,0.46777 0.27613,0.71037 0.55108,1.02258 0.0605,0.0687 0.12782,0.14693 0.1496,0.17384 l 0.0396,0.0489 h -1.12961 c -0.62129,0 -1.1295,-0.004 -1.12936,-0.008 z"
         style="fill:#000000;stroke-width:0.116847"
         id="path1-90-57-8-7-01-0" /><path
         d="m 168.98836,117.13977 c 1.1e-4,0.005 0.0447,0.0703 0.099,0.14683 0.21417,0.30175 0.30825,0.46867 0.42135,0.74761 0.0673,0.16592 0.20002,0.55733 0.26595,0.78416 l 0.0454,0.15608 -0.14546,-0.0756 c -0.39768,-0.20686 -0.77327,-0.30331 -1.18109,-0.30331 -0.536,0 -1.00308,0.17821 -1.33524,0.50946 -0.21472,0.21413 -0.34116,0.44921 -0.40763,0.75785 -0.0333,0.1547 -0.0339,0.46583 -9.4e-4,0.63923 0.0668,0.35365 0.20898,0.68931 0.44293,1.04561 0.21766,0.33149 0.36012,0.49785 0.81626,0.9532 0.80898,0.8076 1.27078,1.37022 1.90548,2.32154 0.0862,0.12914 0.16097,0.23215 0.16624,0.2289 0.005,-0.004 0.0687,-0.10426 0.14086,-0.22447 0.53651,-0.89307 1.17355,-1.66033 1.99133,-2.39835 0.43827,-0.39553 0.82515,-0.96604 0.99019,-1.46015 0.17796,-0.53278 0.16042,-1.01174 -0.0524,-1.43243 -0.0789,-0.15597 -0.15837,-0.26486 -0.28765,-0.39429 -0.33014,-0.3305 -0.7771,-0.50505 -1.29325,-0.50505 -0.37013,0 -0.73651,0.0919 -1.10661,0.27764 -0.082,0.0412 -0.1042,0.0487 -0.1042,0.0354 0,-0.0306 0.10057,-0.41827 0.14841,-0.57221 0.14539,-0.46775 0.27613,-0.71036 0.55108,-1.02257 0.0605,-0.0687 0.12782,-0.14693 0.1496,-0.17384 l 0.0396,-0.0489 h -1.12961 c -0.62129,0 -1.1295,0.004 -1.12936,0.008 z"
         style="fill:#000000;stroke-width:0.116847"
         id="path1-90-57-2-4-9-1-8-0" /><path
         d="m 163.28636,131.56705 c 1.2e-4,-0.005 0.0447,-0.0703 0.099,-0.14683 0.21418,-0.30175 0.30826,-0.46867 0.42136,-0.7476 0.0673,-0.16593 0.20002,-0.55734 0.26595,-0.78418 l 0.0454,-0.15607 -0.14546,0.0756 c -0.39768,0.20685 -0.77327,0.3033 -1.18109,0.3033 -0.536,0 -1.00308,-0.17821 -1.33524,-0.50946 -0.21472,-0.21414 -0.34116,-0.44921 -0.40763,-0.75786 -0.0333,-0.15469 -0.0339,-0.46582 -9.4e-4,-0.63922 0.0668,-0.35365 0.20898,-0.6893 0.44293,-1.0456 0.21766,-0.33148 0.36012,-0.49785 0.81626,-0.9532 0.80898,-0.80758 1.27078,-1.3702 1.90548,-2.32152 0.0862,-0.12915 0.16097,-0.23215 0.16624,-0.22891 0.005,0.004 0.0686,0.10426 0.14086,0.22447 0.53651,0.89307 1.17355,1.66033 1.99133,2.39835 0.43827,0.39553 0.82515,0.96602 0.99019,1.46014 0.17796,0.53276 0.16042,1.01173 -0.0524,1.43242 -0.0789,0.15598 -0.15836,0.26487 -0.28765,0.39429 -0.33014,0.33051 -0.7771,0.50506 -1.29325,0.50506 -0.37013,0 -0.73651,-0.0919 -1.10661,-0.27765 -0.082,-0.0412 -0.1042,-0.0487 -0.1042,-0.0354 0,0.0305 0.10057,0.41827 0.14841,0.5722 0.14539,0.46777 0.27613,0.71037 0.55108,1.02258 0.0605,0.0687 0.12782,0.14693 0.1496,0.17384 l 0.0396,0.0489 h -1.12961 c -0.62129,0 -1.1295,-0.004 -1.12936,-0.008 z"
         style="fill:#000000;stroke-width:0.116847"
         id="path1-90-57-8-7-01-0-5" /></g></g></svg>
