<?xml version="1.0" encoding="UTF-8" standalone="no"?>
<!-- Created with Inkscape (http://www.inkscape.org/) -->

<svg
   width="106.28894mm"
   height="106.28894mm"
   viewBox="0 0 106.28894 106.28894"
   version="1.1"
   id="svg1"
   inkscape:version="1.3.2 (091e20e, 2023-11-25)"
   sodipodi:docname="blank_profile.svg"
   xmlns:inkscape="http://www.inkscape.org/namespaces/inkscape"
   xmlns:sodipodi="http://sodipodi.sourceforge.net/DTD/sodipodi-0.dtd"
   xmlns:xlink="http://www.w3.org/1999/xlink"
   xmlns="http://www.w3.org/2000/svg"
   xmlns:svg="http://www.w3.org/2000/svg">
  <sodipodi:namedview
     id="namedview1"
     pagecolor="#ffffff"
     bordercolor="#666666"
     borderopacity="1.0"
     inkscape:showpageshadow="2"
     inkscape:pageopacity="0.0"
     inkscape:pagecheckerboard="0"
     inkscape:deskcolor="#d1d1d1"
     inkscape:document-units="mm"
     inkscape:zoom="1.0896443"
     inkscape:cx="106.91562"
     inkscape:cy="243.19862"
     inkscape:window-width="1712"
     inkscape:window-height="1069"
     inkscape:window-x="0"
     inkscape:window-y="38"
     inkscape:window-maximized="0"
     inkscape:current-layer="layer1" />
  <defs
     id="defs1">
    <linearGradient
       id="linearGradient6"
       inkscape:collect="always">
      <stop
         style="stop-color:#ff9c07;stop-opacity:1;"
         offset="0.727422"
         id="stop6" />
      <stop
         style="stop-color:#ff0f0f;stop-opacity:1;"
         offset="1"
         id="stop7" />
    </linearGradient>
    <rect
       x="210.06082"
       y="253.3497"
       width="259.03537"
       height="237.43221"
       id="rect1" />
    <linearGradient
       inkscape:collect="always"
       xlink:href="#linearGradient6"
       id="linearGradient7"
       x1="37.583138"
       y1="76.646095"
       x2="143.87209"
       y2="135.09422"
       gradientUnits="userSpaceOnUse" />
  </defs>
  <g
     inkscape:label="Layer 1"
     inkscape:groupmode="layer"
     id="layer1"
     transform="translate(-37.583135,-49.218802)">
    <circle
       style="fill:#222222;fill-opacity:1;fill-rule:evenodd;stroke:url(#linearGradient7);stroke-width:6.61458;stroke-linejoin:round;stroke-dasharray:none;stroke-opacity:1;paint-order:markers fill stroke"
       id="path1"
       cx="90.727608"
       cy="102.36327"
       r="49.837181"
       inkscape:export-filename="blank_profile.svg"
       inkscape:export-xdpi="96"
       inkscape:export-ydpi="96" />
    <path
       style="font-weight:bold;font-size:40px;line-height:1.25;font-family:'Noto Sans JP';-inkscape-font-specification:'Noto Sans JP Bold';white-space:pre;fill:#ff9c07;stroke-width:1.61234"
       d="m 66.607045,89.636081 c 1.074896,0.558949 2.300273,1.246869 3.676128,2.063792 1.375856,0.816923 2.751728,1.655338 4.127583,2.515246 1.375856,0.816923 2.665726,1.633829 3.869609,2.450752 1.246869,0.773922 2.278765,1.461858 3.095688,2.063792 l -4.708025,7.223267 c -0.94591,-0.64493 -2.042299,-1.37585 -3.289167,-2.19278 -1.203884,-0.81692 -2.493754,-1.65534 -3.86961,-2.51524 -1.33287,-0.85991 -2.665725,-1.676828 -3.998596,-2.450758 -1.289869,-0.816919 -2.472244,-1.504839 -3.547141,-2.063787 z"
       id="path5" />
    <path
       style="font-weight:bold;font-size:40px;line-height:1.25;font-family:'Noto Sans JP';-inkscape-font-specification:'Noto Sans JP Bold';white-space:pre;fill:#ff9c07;stroke-width:1.61234"
       d="m 64.870348,123.21664 c 2.407751,-0.42994 4.858504,-0.9674 7.352257,-1.61233 2.493754,-0.64494 4.965998,-1.41886 7.416751,-2.32177 2.450752,-0.94589 4.837011,-2.06379 7.158777,-3.35366 3.654636,-2.06379 7.051282,-4.38556 10.18997,-6.9653 3.181677,-2.57974 6.040897,-5.30995 8.577637,-8.19067 2.53673,-2.923696 4.64353,-5.933398 6.32036,-9.029085 l 4.966,8.771115 c -2.9667,4.47156 -6.66433,8.70662 -11.09288,12.70521 -4.38556,3.95561 -9.222571,7.45975 -14.511037,10.51244 -2.192778,1.20388 -4.60053,2.36477 -7.22327,3.48265 -2.622741,1.0749 -5.20248,1.9993 -7.739218,2.77322 -2.493754,0.77392 -4.686532,1.33287 -6.578336,1.67683 z"
       id="path4" />
    <path
       style="font-weight:bold;font-size:40px;line-height:1.25;font-family:'Noto Sans JP';-inkscape-font-specification:'Noto Sans JP Bold';white-space:pre;fill:#ff9c07;stroke-width:1.61234"
       d="m 76.539041,74.931567 c 1.074897,0.558949 2.278765,1.246869 3.611635,2.063791 1.332871,0.816923 2.687234,1.676831 4.06309,2.57974 1.375855,0.859908 2.687234,1.698323 3.934102,2.515246 1.246869,0.773922 2.278765,1.461857 3.095688,2.063791 l -4.772518,7.094283 C 85.568129,90.646485 84.493232,89.937056 83.246364,89.120133 82.04248,88.303211 80.75261,87.464795 79.376755,86.604888 78.043884,85.74498 76.711029,84.928057 75.378159,84.154135 74.088289,83.337212 72.927406,82.627784 71.89551,82.02585 Z"
       id="path3" />
    <path
       style="font-weight:bold;font-size:40px;line-height:1.25;font-family:'Noto Sans JP';-inkscape-font-specification:'Noto Sans JP Bold';white-space:pre;fill:#ff0f0f;stroke-width:1.61234;fill-opacity:1"
       d="m 113.42931,73.061256 c 0.68794,0.816923 1.39737,1.805818 2.12829,2.9667 0.73092,1.160883 1.44035,2.321766 2.12828,3.482648 0.68794,1.160883 1.28987,2.214271 1.80582,3.160181 l -5.48194,2.450752 c -0.68794,-1.33287 -1.35437,-2.536738 -1.9993,-3.611635 -0.60194,-1.074896 -1.22538,-2.106792 -1.87031,-3.095687 -0.64494,-0.988895 -1.37586,-2.02079 -2.19278,-3.095687 z"
       id="path2" />
    <path
       style="font-weight:bold;font-size:40px;line-height:1.25;font-family:'Noto Sans JP';-inkscape-font-specification:'Noto Sans JP Bold';white-space:pre;fill:#ff0f0f;stroke-width:1.61234;fill-opacity:1"
       d="m 104.59371,76.156943 c 0.60193,0.902909 1.24687,1.956297 1.9348,3.160181 0.73092,1.160883 1.44035,2.343258 2.12829,3.547142 0.68793,1.160882 1.28987,2.257271 1.80581,3.289167 l -5.61093,2.386259 c -0.64493,-1.375856 -1.24687,-2.601232 -1.80582,-3.676128 -0.55895,-1.117882 -1.16088,-2.192779 -1.80581,-3.224675 -0.60194,-1.074896 -1.289874,-2.149777 -2.063796,-3.224674 z"
       id="text1" />
  </g>
</svg>
