<?xml version="1.0" encoding="UTF-8" standalone="no"?>
<!-- Created with Inkscape (http://www.inkscape.org/) -->

<svg
   width="40.423996mm"
   height="56.423996mm"
   viewBox="0 0 40.423996 56.423996"
   version="1.1"
   id="svg1"
   xml:space="preserve"
   xmlns="http://www.w3.org/2000/svg"
   xmlns:svg="http://www.w3.org/2000/svg"><defs
     id="defs1"><rect
       x="208.77827"
       y="241.85934"
       width="88.951309"
       height="72.043205"
       id="rect2" /><rect
       x="208.77827"
       y="241.85934"
       width="88.951309"
       height="72.043205"
       id="rect2-1" /></defs><g
     id="layer1"
     transform="translate(-9.3187153,-47.330023)"><g
       id="g3"
       transform="translate(0,-12.170833)"
       style="stroke:#000000;stroke-opacity:1"><path
         style="fill:#ffffff;fill-opacity:1;stroke:#ff0f0f;stroke-width:0.423998;stroke-opacity:1"
         id="rect1"
         width="40"
         height="56"
         x="40.845924"
         y="73.133659"
         transform="translate(-31.31521,-13.420804)"
         d="m 46.845924,73.133659 h 28 a 6,6 45 0 1 6,6 v 44.000001 a 6,6 135 0 1 -6,6 h -28 a 6,6 45 0 1 -6,-6 V 79.133659 a 6,6 135 0 1 6,-6 z" /><text
         xml:space="preserve"
         transform="matrix(0.26458333,0,0,0.26458333,-42.029977,-2.7090155)"
         id="text2"
         style="font-style:normal;font-weight:normal;font-size:40px;line-height:1.25;font-family:sans-serif;white-space:pre;shape-inside:url(#rect2);display:inline;fill:#ff0f0f;fill-opacity:1;stroke:#ff0f0f;stroke-opacity:1"><tspan
           x="208.77734"
           y="278.77427"
           id="tspan6"><tspan
             style="font-weight:600;font-family:'New York Extra Large';-inkscape-font-specification:'New York Extra Large Semi-Bold'"
             id="tspan5">2</tspan></tspan></text><text
         xml:space="preserve"
         transform="matrix(-0.26458333,0,0,-0.26458333,101.09141,178.13473)"
         id="text2-7"
         style="font-style:normal;font-weight:normal;font-size:40px;line-height:1.25;font-family:sans-serif;white-space:pre;shape-inside:url(#rect2-1);display:inline;fill:#ff0f0f;fill-opacity:1;stroke:#ff0f0f;stroke-opacity:1"><tspan
           x="208.77734"
           y="278.77427"
           id="tspan8"><tspan
             style="font-weight:600;font-family:'New York Extra Large';-inkscape-font-specification:'New York Extra Large Semi-Bold'"
             id="tspan7">2</tspan></tspan></text><path
         d="m 28.819435,84.482962 c -0.01767,-0.01768 -0.09566,-0.225629 -0.173296,-0.462137 -0.286644,-0.873146 -0.662665,-1.620446 -1.282506,-2.548842 -0.474684,-0.710985 -0.903674,-1.268058 -2.126193,-2.761008 -1.273573,-1.555292 -1.570613,-1.942839 -1.870104,-2.439917 -0.340283,-0.564778 -0.584077,-1.197358 -0.657898,-1.707079 -0.03249,-0.22434 -0.02782,-0.801339 0.0082,-1.000108 0.17509,-0.968744 0.934429,-1.814047 1.926166,-2.144228 0.35329,-0.117621 0.520088,-0.140583 1.016071,-0.139865 0.413244,6e-4 0.453192,0.0035 0.663865,0.04828 0.680606,0.144639 1.229587,0.447446 1.699388,0.937351 0.288999,0.301369 0.488347,0.596017 0.706963,1.044932 l 0.134206,0.275582 0.138103,-0.286975 c 0.157075,-0.326385 0.297988,-0.550437 0.494911,-0.786911 0.562701,-0.6757 1.203387,-1.063671 1.982155,-1.2003 0.208479,-0.03658 0.721976,-0.04982 0.965622,-0.0249 0.358214,0.03663 0.778426,0.160742 1.111865,0.328391 0.575607,0.289411 1.081891,0.83376 1.320839,1.420154 0.370558,0.909378 0.199785,2.036751 -0.498976,3.294017 -0.40327,0.725604 -0.770878,1.218392 -1.947762,2.611024 -1.048804,1.241075 -1.535892,1.863248 -2.014023,2.572583 -0.61964,0.919276 -1.026169,1.710903 -1.343419,2.61602 -0.06506,0.185615 -0.124558,0.343265 -0.132217,0.350333 -0.03573,0.03297 -0.09089,0.0346 -0.121883,0.0036 z"
         style="fill:#ff0f0f;fill-opacity:1;stroke:#ff0f0f;stroke-width:0.195524;stroke-opacity:1"
         id="path1-2-8" /><path
         d="m 28.819435,90.942749 c -0.01767,0.01768 -0.09566,0.225629 -0.173296,0.462137 -0.286644,0.873146 -0.662665,1.620446 -1.282506,2.548842 -0.474684,0.710985 -0.903674,1.268058 -2.126193,2.761008 -1.273573,1.555292 -1.570613,1.942839 -1.870104,2.439917 -0.340283,0.564778 -0.584077,1.197357 -0.657898,1.707077 -0.03249,0.22434 -0.02782,0.80134 0.0082,1.00011 0.17509,0.96874 0.934429,1.81405 1.926166,2.14423 0.35329,0.11762 0.520088,0.14058 1.016071,0.13986 0.413244,-6e-4 0.453192,-0.004 0.663865,-0.0483 0.680606,-0.14464 1.229587,-0.44744 1.699388,-0.93735 0.288999,-0.30137 0.488347,-0.59602 0.706963,-1.04493 l 0.134206,-0.27558 0.138103,0.28697 c 0.157075,0.32639 0.297988,0.55044 0.494911,0.78691 0.562701,0.6757 1.203387,1.06367 1.982155,1.2003 0.208479,0.0366 0.721976,0.0498 0.965622,0.0249 0.358214,-0.0366 0.778426,-0.16074 1.111865,-0.32839 0.575607,-0.28941 1.081891,-0.83376 1.320839,-1.42015 0.370558,-0.90938 0.199785,-2.03675 -0.498976,-3.294018 -0.40327,-0.725604 -0.770878,-1.218392 -1.947762,-2.611024 -1.048804,-1.241075 -1.535892,-1.863248 -2.014023,-2.572583 -0.61964,-0.919276 -1.026169,-1.710903 -1.343419,-2.61602 -0.06506,-0.185615 -0.124558,-0.343265 -0.132217,-0.350333 -0.03573,-0.03297 -0.09089,-0.0346 -0.121883,-0.0036 z"
         style="fill:#ff0f0f;fill-opacity:1;stroke:#ff0f0f;stroke-width:0.195524;stroke-opacity:1"
         id="path1-2-8-4" /></g></g></svg>
