<?xml version="1.0" encoding="UTF-8" standalone="no"?>
<!-- Created with Inkscape (http://www.inkscape.org/) -->

<svg
   width="40.424mm"
   height="56.424mm"
   viewBox="0 0 40.424 56.424"
   version="1.1"
   id="svg1"
   xml:space="preserve"
   xmlns="http://www.w3.org/2000/svg"
   xmlns:svg="http://www.w3.org/2000/svg"><defs
     id="defs1"><rect
       x="208.77827"
       y="241.85934"
       width="88.951309"
       height="72.043205"
       id="rect2-6" /><rect
       x="208.77827"
       y="241.85934"
       width="88.951309"
       height="72.043205"
       id="rect2-1-0" /></defs><g
     id="layer1"
     transform="translate(-97.757983,-47.384604)"><g
       id="g7"><path
         style="fill:#ffffff;fill-opacity:1;stroke:#000000;stroke-width:0.423998;stroke-opacity:1"
         id="rect1-8"
         width="40"
         height="56"
         x="40.845924"
         y="73.133659"
         transform="translate(57.124058,-25.537058)"
         d="m 46.845924,73.133659 h 28 a 6,6 45 0 1 6,6 v 44.000001 a 6,6 135 0 1 -6,6 h -28 a 6,6 45 0 1 -6,-6 V 79.133659 a 6,6 135 0 1 6,-6 z" /><text
         xml:space="preserve"
         transform="matrix(0.26458333,0,0,0.26458333,46.409291,-14.825267)"
         id="text2-5"
         style="font-style:normal;font-weight:normal;font-size:40px;line-height:1.25;font-family:sans-serif;white-space:pre;shape-inside:url(#rect2-6);display:inline;fill:#000000;fill-opacity:1;stroke:none"><tspan
           x="208.77734"
           y="278.77427"
           id="tspan2"><tspan
             style="font-weight:600;font-family:'New York Extra Large';-inkscape-font-specification:'New York Extra Large Semi-Bold'"
             id="tspan1">4</tspan></tspan></text><text
         xml:space="preserve"
         transform="matrix(-0.26458333,0,0,-0.26458333,189.53068,166.01846)"
         id="text2-7-4"
         style="font-style:normal;font-weight:normal;font-size:40px;line-height:1.25;font-family:sans-serif;white-space:pre;shape-inside:url(#rect2-1-0);display:inline;fill:#000000;fill-opacity:1;stroke:none"><tspan
           x="208.77734"
           y="278.77427"
           id="tspan4"><tspan
             style="font-weight:600;font-family:'New York Extra Large';-inkscape-font-specification:'New York Extra Large Semi-Bold'"
             id="tspan3">4</tspan></tspan></text><path
         d="m 110.3364,71.087264 c 1.7e-4,-0.0067 0.0653,-0.102834 0.14475,-0.214698 0.31314,-0.441177 0.45069,-0.685239 0.61606,-1.093062 0.0984,-0.242595 0.29245,-0.814875 0.38884,-1.146523 l 0.0663,-0.228203 -0.21268,0.110625 c -0.58144,0.302436 -1.13059,0.443464 -1.72687,0.443464 -0.78368,0 -1.4666,-0.260568 -1.95224,-0.744881 -0.31394,-0.313085 -0.49881,-0.65679 -0.59599,-1.108054 -0.0487,-0.226184 -0.0495,-0.681086 -0.001,-0.934625 0.0977,-0.517058 0.30554,-1.00781 0.6476,-1.528763 0.31823,-0.484647 0.52653,-0.72789 1.19345,-1.393651 1.18281,-1.180782 1.85799,-2.003382 2.78599,-3.394299 0.12598,-0.18883 0.23535,-0.339429 0.24305,-0.334676 0.008,0.0048 0.10038,0.152437 0.20596,0.32819 0.78442,1.30576 1.71584,2.427558 2.9115,3.50661 0.6408,0.578299 1.20646,1.412423 1.44776,2.134855 0.26019,0.778978 0.23455,1.479256 -0.0767,2.094348 -0.11538,0.228042 -0.23154,0.387261 -0.42056,0.57649 -0.4827,0.483228 -1.13619,0.738433 -1.89085,0.738433 -0.54117,0 -1.07685,-0.134398 -1.61798,-0.405947 -0.11995,-0.06019 -0.15234,-0.07124 -0.15234,-0.05181 0,0.04467 0.14704,0.611558 0.21698,0.836619 0.21257,0.683925 0.40373,1.038631 0.80574,1.495104 0.0884,0.100435 0.18688,0.214822 0.21872,0.254177 l 0.0579,0.07162 h -1.6516 c -0.90838,0 -1.65143,-0.0048 -1.65122,-0.01133 z"
         style="fill:#000000;stroke-width:0.170842"
         id="path1-90-57-8-6-9" /><path
         d="m 110.3364,91.66205 c 1.7e-4,-0.0067 0.0653,-0.102834 0.14475,-0.214698 0.31314,-0.441177 0.45069,-0.685239 0.61606,-1.093062 0.0984,-0.242595 0.29245,-0.814875 0.38884,-1.146523 l 0.0663,-0.228203 -0.21268,0.110625 c -0.58144,0.302436 -1.13059,0.443464 -1.72687,0.443464 -0.78368,0 -1.4666,-0.260568 -1.95224,-0.744881 -0.31394,-0.313085 -0.49881,-0.65679 -0.59599,-1.108054 -0.0487,-0.226184 -0.0495,-0.681087 -0.001,-0.934626 0.0977,-0.51706 0.30554,-1.00782 0.6476,-1.52878 0.31823,-0.48465 0.52653,-0.72789 1.19345,-1.39366 1.18281,-1.18079 1.85799,-2.00339 2.78599,-3.394289 0.12598,-0.18883 0.23535,-0.33943 0.24305,-0.33468 0.008,0.005 0.10038,0.15244 0.20596,0.32819 0.78442,1.305749 1.71584,2.427549 2.9115,3.506599 0.6408,0.57831 1.20646,1.41245 1.44776,2.13488 0.26019,0.778979 0.23455,1.479263 -0.0767,2.094355 -0.11538,0.228042 -0.23154,0.387261 -0.42056,0.57649 -0.4827,0.483228 -1.13619,0.738433 -1.89085,0.738433 -0.54117,0 -1.07685,-0.134398 -1.61798,-0.405947 -0.11995,-0.06019 -0.15234,-0.07124 -0.15234,-0.05181 0,0.04467 0.14704,0.611558 0.21698,0.836619 0.21257,0.683925 0.40373,1.038631 0.80574,1.495104 0.0884,0.100435 0.18688,0.214822 0.21872,0.254177 l 0.0579,0.07162 h -1.6516 c -0.90838,0 -1.65143,-0.0048 -1.65122,-0.01133 z"
         style="fill:#000000;stroke-width:0.170842"
         id="path1-90-57-2-4-5" /><path
         d="m 122.5722,59.531152 c 1.7e-4,0.0067 0.0653,0.102834 0.14475,0.214698 0.31314,0.441177 0.45069,0.685239 0.61606,1.093062 0.0984,0.242595 0.29245,0.814875 0.38884,1.146523 l 0.0663,0.228203 -0.21268,-0.110625 c -0.58144,-0.302436 -1.13059,-0.443464 -1.72687,-0.443464 -0.78368,0 -1.4666,0.260568 -1.95224,0.744881 -0.31394,0.313085 -0.49881,0.65679 -0.59599,1.108054 -0.0487,0.226184 -0.0495,0.681086 -0.001,0.934625 0.0977,0.517058 0.30554,1.00781 0.6476,1.528763 0.31823,0.484647 0.52653,0.72789 1.19345,1.393651 1.18281,1.180782 1.85799,2.003382 2.78599,3.394299 0.12598,0.18883 0.23535,0.339429 0.24305,0.334676 0.008,-0.0048 0.10038,-0.152437 0.20596,-0.32819 0.78442,-1.30576 1.71584,-2.427558 2.9115,-3.50661 0.6408,-0.578299 1.20646,-1.412423 1.44776,-2.134855 0.26019,-0.778978 0.23455,-1.479256 -0.0767,-2.094348 -0.11538,-0.228042 -0.23154,-0.387261 -0.42056,-0.57649 -0.4827,-0.483228 -1.13619,-0.738433 -1.89085,-0.738433 -0.54117,0 -1.07685,0.134398 -1.61798,0.405947 -0.11995,0.06019 -0.15234,0.07124 -0.15234,0.05181 0,-0.04467 0.14704,-0.611558 0.21698,-0.836619 0.21257,-0.683925 0.40373,-1.038631 0.80574,-1.495104 0.0884,-0.100435 0.18688,-0.214822 0.21872,-0.254177 l 0.0579,-0.07162 h -1.6516 c -0.90838,0 -1.65143,0.0048 -1.65122,0.01133 z"
         style="fill:#000000;stroke-width:0.170842"
         id="path1-90-57-8-6-9-4" /><path
         d="m 122.5722,80.105917 c 1.7e-4,0.0067 0.0653,0.102834 0.14475,0.214698 0.31314,0.441177 0.45069,0.685239 0.61606,1.093062 0.0984,0.242595 0.29245,0.814875 0.38884,1.146523 l 0.0663,0.228203 -0.21268,-0.110625 c -0.58144,-0.302436 -1.13059,-0.443464 -1.72687,-0.443464 -0.78368,0 -1.4666,0.260568 -1.95224,0.744881 -0.31394,0.313085 -0.49881,0.65679 -0.59599,1.108054 -0.0487,0.226184 -0.0495,0.681087 -0.001,0.934626 0.0977,0.51706 0.30554,1.00782 0.6476,1.52878 0.31823,0.48465 0.52653,0.72789 1.19345,1.39366 1.18281,1.18079 1.85799,2.00339 2.78599,3.394289 0.12598,0.18883 0.23535,0.33943 0.24305,0.33468 0.008,-0.005 0.10038,-0.15244 0.20596,-0.32819 0.78442,-1.305749 1.71584,-2.427549 2.9115,-3.506599 0.6408,-0.57831 1.20646,-1.41245 1.44776,-2.13488 0.26019,-0.778979 0.23455,-1.479263 -0.0767,-2.094355 -0.11538,-0.228042 -0.23154,-0.387261 -0.42056,-0.57649 -0.4827,-0.483228 -1.13619,-0.738433 -1.89085,-0.738433 -0.54117,0 -1.07685,0.134398 -1.61798,0.405947 -0.11995,0.06019 -0.15234,0.07124 -0.15234,0.05181 0,-0.04467 0.14704,-0.611558 0.21698,-0.836619 0.21257,-0.683925 0.40373,-1.038631 0.80574,-1.495104 0.0884,-0.100435 0.18688,-0.214822 0.21872,-0.254177 l 0.0579,-0.07162 h -1.6516 c -0.90838,0 -1.65143,0.0048 -1.65122,0.01133 z"
         style="fill:#000000;stroke-width:0.170842"
         id="path1-90-57-2-4-5-0" /></g></g></svg>
