<?xml version="1.0" encoding="UTF-8" standalone="no"?>
<!-- Created with Inkscape (http://www.inkscape.org/) -->

<svg
   width="40.423996mm"
   height="56.423981mm"
   viewBox="0 0 40.423996 56.423981"
   version="1.1"
   id="svg1"
   xml:space="preserve"
   xmlns="http://www.w3.org/2000/svg"
   xmlns:svg="http://www.w3.org/2000/svg"><defs
     id="defs1"><rect
       x="261.47491"
       y="920.81134"
       width="129.12341"
       height="76.667023"
       id="rect17" /></defs><g
     id="layer1"
     transform="translate(-9.0791456,-230.27122)"><g
       id="g1"><path
         style="fill:#000000;fill-opacity:1;stroke:#000000;stroke-width:0.423998;stroke-opacity:1"
         id="rect1-7-12"
         width="40"
         height="56"
         x="40.845924"
         y="73.133659"
         transform="translate(-31.55478,157.34955)"
         d="m 46.845924,73.133659 h 28 a 6,6 45 0 1 6,6 v 44.000001 a 6,6 135 0 1 -6,6 h -28 a 6,6 45 0 1 -6,-6 V 79.133659 a 6,6 135 0 1 6,-6 z" /><path
         d="m 21.613187,279.08593 c 0,-0.0487 0.345927,-0.50298 1.032971,-1.35658 1.253753,-1.55766 1.922952,-2.72254 2.593381,-4.51424 0.583744,-1.56004 1.217558,-4.11425 1.544598,-6.2246 l 0.07846,-0.50632 -0.326918,0.37208 c -1.038749,1.18227 -2.301074,2.08996 -3.741252,2.6902 -2.053881,0.85602 -4.074362,1.04711 -5.906215,0.55856 -2.531705,-0.67519 -4.314729,-2.64514 -5.071661,-5.60339 -0.243576,-0.95195 -0.318779,-1.65522 -0.28259,-2.64257 0.03434,-0.93589 0.205554,-1.71078 0.55799,-2.52484 0.953634,-2.20273 3.177075,-3.89149 6.009515,-4.56438 2.003568,-0.47598 4.663963,-0.36566 6.458151,0.26782 0.12922,0.0455 0.257227,0.083 0.284454,0.083 0.02721,0 -0.112941,-0.14421 -0.311485,-0.32046 -2.446482,-2.17169 -4.039075,-6.21469 -3.781471,-9.5997 0.269938,-3.54708 2.129243,-5.95795 5.334861,-6.91744 1.455397,-0.43562 3.415179,-0.55661 5.125952,-0.31646 3.530108,0.49554 5.755582,2.48174 6.45946,5.76495 0.163345,0.7619 0.201469,2.36931 0.07911,3.33516 -0.104951,0.82848 -0.412845,2.09527 -0.699009,2.87607 -0.294291,0.80299 -0.987375,2.17707 -1.436604,2.84817 -0.522439,0.78049 -0.794977,1.11457 -1.448469,1.77558 l -0.540364,0.54658 0.617656,-0.20918 c 1.074256,-0.36383 1.791937,-0.48698 3.028599,-0.51967 0.671057,-0.0177 1.282167,-0.005 1.610201,0.0337 3.344467,0.39443 6.146124,2.17587 7.425411,4.72147 0.896848,1.78461 0.989452,3.82446 0.271522,5.98104 -0.791886,2.37874 -2.302384,3.94191 -4.528004,4.68593 -0.73096,0.24436 -1.36084,0.35192 -2.263223,0.38647 -1.690176,0.0647 -3.370155,-0.3077 -5.001926,-1.10879 -1.243402,-0.61043 -2.393885,-1.46244 -3.086044,-2.28545 -0.187483,-0.22292 -0.347698,-0.38488 -0.356027,-0.35988 -0.02076,0.0624 0.33335,1.77276 0.530307,2.56145 0.972538,3.89432 2.110053,6.1775 4.293463,8.6177 0.630928,0.70513 1.177198,1.3795 1.177198,1.45323 0,0.0309 -3.025422,0.0502 -7.866001,0.0502 -4.326304,0 -7.866007,-0.0159 -7.866007,-0.0353 z"
         style="fill:#ffffff;fill-opacity:1;stroke-width:0.608833"
         id="path1-0-7" /><text
         xml:space="preserve"
         transform="matrix(0.26458333,0,0,0.26458333,-44.544999,6.8040572)"
         id="text17"
         style="font-style:normal;font-weight:normal;font-size:53.3333px;line-height:1.25;font-family:sans-serif;white-space:pre;shape-inside:url(#rect17);display:inline;fill:#000000;fill-opacity:1;stroke:none"><tspan
           x="261.47461"
           y="970.76801"
           id="tspan2"><tspan
             style="font-weight:bold;font-family:'Playfair Display';-inkscape-font-specification:'Playfair Display Bold'"
             id="tspan1">A</tspan></tspan></text></g></g></svg>
