<?xml version="1.0" encoding="UTF-8" standalone="no"?>
<!-- Created with Inkscape (http://www.inkscape.org/) -->

<svg
   width="40.423992mm"
   height="56.424004mm"
   viewBox="0 0 40.423992 56.424004"
   version="1.1"
   id="svg1"
   xml:space="preserve"
   xmlns="http://www.w3.org/2000/svg"
   xmlns:svg="http://www.w3.org/2000/svg"><defs
     id="defs1"><rect
       x="208.77827"
       y="241.85934"
       width="88.951309"
       height="72.043205"
       id="rect2-6-7-6-1" /><rect
       x="208.77827"
       y="241.85934"
       width="88.951309"
       height="72.043205"
       id="rect2-1-0-5-1-0" /></defs><g
     id="layer1"
     transform="translate(-54.350633,-109.73367)"><g
       id="g10"
       transform="translate(-44.423632,49.998657)"><path
         style="fill:#ffffff;fill-opacity:1;stroke:#000000;stroke-width:0.423998;stroke-opacity:1"
         id="rect1-8-5-5-8"
         width="40"
         height="56"
         x="40.845924"
         y="73.133659"
         transform="translate(58.140337,-13.186651)"
         d="m 46.845924,73.133659 h 28 a 6,6 45 0 1 6,6 v 44.000001 a 6,6 135 0 1 -6,6 h -28 a 6,6 45 0 1 -6,-6 V 79.133659 a 6,6 135 0 1 6,-6 z" /><path
         d="m 117.12132,87.392968 c 0,-0.01183 0.084,-0.122174 0.25091,-0.329508 0.30452,-0.378347 0.46707,-0.661287 0.62991,-1.096482 0.14179,-0.378926 0.29574,-0.999326 0.37518,-1.511921 l 0.0191,-0.122983 -0.0794,0.09037 c -0.25231,0.287166 -0.55892,0.50764 -0.90873,0.653436 -0.49888,0.207924 -0.98964,0.254335 -1.43459,0.135671 -0.61493,-0.163998 -1.04802,-0.642491 -1.23187,-1.361032 -0.0592,-0.231226 -0.0774,-0.402044 -0.0686,-0.641866 0.008,-0.227323 0.0499,-0.415538 0.13553,-0.613268 0.23163,-0.535028 0.77169,-0.945221 1.45968,-1.108661 0.48665,-0.115612 1.13284,-0.08881 1.56864,0.06504 0.0314,0.01105 0.0625,0.02016 0.0691,0.02016 0.007,0 -0.0274,-0.03503 -0.0757,-0.07784 -0.59423,-0.527494 -0.98107,-1.509512 -0.9185,-2.331715 0.0656,-0.861566 0.51719,-1.447152 1.29581,-1.680206 0.35351,-0.105813 0.82953,-0.135198 1.24507,-0.07687 0.85744,0.120363 1.398,0.602799 1.56896,1.400273 0.0397,0.185063 0.0489,0.575492 0.0192,0.810093 -0.0255,0.201234 -0.10027,0.508927 -0.16978,0.698581 -0.0715,0.19504 -0.23983,0.528796 -0.34894,0.691804 -0.1269,0.189574 -0.1931,0.270721 -0.35183,0.431275 l -0.13125,0.132764 0.15002,-0.05081 c 0.26094,-0.08838 0.43526,-0.118284 0.73563,-0.126226 0.163,-0.0043 0.31143,-0.0011 0.39111,0.0082 0.81235,0.09581 1.49286,0.528507 1.80359,1.146817 0.21784,0.433471 0.24033,0.928941 0.0659,1.452763 -0.19234,0.57778 -0.55923,0.957466 -1.09982,1.138184 -0.17755,0.05936 -0.33054,0.08548 -0.54973,0.09387 -0.41053,0.01573 -0.81859,-0.07473 -1.21494,-0.269318 -0.30201,-0.14827 -0.58146,-0.355219 -0.74958,-0.555121 -0.0455,-0.05414 -0.0845,-0.09348 -0.0865,-0.08741 -0.005,0.01513 0.081,0.430597 0.12881,0.622164 0.23622,0.945906 0.51252,1.50048 1.04286,2.093192 0.15325,0.171271 0.28593,0.335071 0.28593,0.35298 0,0.0075 -0.73486,0.01219 -1.91061,0.01219 -1.05083,0 -1.9106,-0.0039 -1.9106,-0.0087 z"
         style="fill:#000000;stroke-width:0.147882"
         id="path1-0-4-56-0-4-8-3" /><path
         d="m 111.04915,108.17742 c 0,-0.0119 0.084,-0.12217 0.2509,-0.3295 0.30453,-0.37835 0.46708,-0.66129 0.62992,-1.09649 0.14179,-0.37894 0.29574,-0.99933 0.37518,-1.51193 l 0.0191,-0.12299 -0.0794,0.0904 c -0.25231,0.28716 -0.55892,0.50764 -0.90873,0.65344 -0.49888,0.20792 -0.98964,0.25434 -1.43459,0.13566 -0.61493,-0.16399 -1.04802,-0.6425 -1.23188,-1.36104 -0.0592,-0.23122 -0.0774,-0.40204 -0.0686,-0.64186 0.008,-0.22732 0.0499,-0.41554 0.13554,-0.61327 0.23163,-0.53503 0.77169,-0.94522 1.45967,-1.10866 0.48666,-0.11561 1.13285,-0.0888 1.56865,0.065 0.0314,0.0111 0.0625,0.0202 0.0691,0.0202 0.007,0 -0.0274,-0.035 -0.0757,-0.0778 -0.59423,-0.52748 -0.98107,-1.50949 -0.9185,-2.33169 0.0656,-0.861565 0.51718,-1.447155 1.29581,-1.680205 0.35351,-0.105813 0.82953,-0.1352 1.24507,-0.07691 0.85744,0.120371 1.39799,0.602795 1.56896,1.400278 0.0397,0.18506 0.0489,0.575497 0.0192,0.810097 -0.0255,0.20123 -0.10027,0.50892 -0.16978,0.69857 -0.0715,0.19504 -0.23983,0.52879 -0.34894,0.6918 -0.1269,0.18957 -0.1931,0.2707 -0.35183,0.43126 l -0.13125,0.13277 0.15002,-0.0508 c 0.26093,-0.0884 0.43525,-0.11828 0.73563,-0.12623 0.163,-0.004 0.31143,-8.2e-4 0.39111,0.008 0.81235,0.0958 1.49286,0.52851 1.80359,1.14682 0.21784,0.43347 0.24033,0.92894 0.0659,1.45276 -0.19234,0.57778 -0.55923,0.95747 -1.09982,1.13819 -0.17755,0.0594 -0.33054,0.0855 -0.54973,0.0939 -0.41053,0.0157 -0.81859,-0.0748 -1.21494,-0.26932 -0.30201,-0.14827 -0.58146,-0.35523 -0.74958,-0.55513 -0.0455,-0.0541 -0.0845,-0.0934 -0.0865,-0.0874 -0.005,0.0152 0.081,0.43061 0.12881,0.62215 0.23622,0.94592 0.51252,1.50051 1.04286,2.09321 0.15324,0.17128 0.28593,0.33509 0.28593,0.35298 0,0.008 -0.73486,0.0122 -1.91061,0.0122 -1.05083,0 -1.9106,-0.003 -1.9106,-0.008 z"
         style="fill:#000000;stroke-width:0.147882"
         id="path1-0-4-5-2-4-5-9" /><path
         d="m 111.04915,96.790554 c 0,-0.01183 0.084,-0.122172 0.25091,-0.329506 0.30452,-0.378348 0.46707,-0.661288 0.62991,-1.096483 0.14179,-0.378925 0.29574,-0.999328 0.37518,-1.51192 l 0.0191,-0.122983 -0.0794,0.09037 c -0.25231,0.287166 -0.55892,0.507639 -0.90873,0.653435 -0.49888,0.207924 -0.98964,0.254336 -1.43459,0.135672 -0.61493,-0.163999 -1.04802,-0.642491 -1.23188,-1.361033 -0.0592,-0.231226 -0.0774,-0.402044 -0.0686,-0.641866 0.008,-0.227323 0.0499,-0.415537 0.13554,-0.613267 0.23163,-0.53503 0.77169,-0.945221 1.45967,-1.108662 0.48666,-0.115613 1.13285,-0.08881 1.56865,0.06504 0.0314,0.01105 0.0625,0.02016 0.0691,0.02016 0.007,0 -0.0274,-0.03503 -0.0757,-0.07784 -0.59424,-0.527493 -0.98107,-1.509513 -0.9185,-2.331715 0.0656,-0.861566 0.51718,-1.447152 1.29581,-1.680205 0.35351,-0.105813 0.82953,-0.135199 1.24506,-0.07687 0.85745,0.120364 1.398,0.6028 1.56897,1.400273 0.0397,0.185062 0.0489,0.575493 0.0192,0.810092 -0.0255,0.201234 -0.10027,0.508928 -0.16978,0.698581 -0.0715,0.19504 -0.23983,0.528796 -0.34895,0.691806 -0.12689,0.189574 -0.19309,0.270721 -0.35182,0.431275 l -0.13125,0.132763 0.15002,-0.05081 c 0.26093,-0.08838 0.43525,-0.118283 0.73563,-0.126225 0.163,-0.0043 0.31143,-0.0011 0.39111,0.0082 0.81235,0.09581 1.49286,0.528507 1.80359,1.146816 0.21784,0.433472 0.24033,0.928942 0.0659,1.452762 -0.19234,0.577782 -0.55923,0.957468 -1.09982,1.138185 -0.17755,0.05936 -0.33054,0.08548 -0.54973,0.09387 -0.41053,0.01573 -0.81859,-0.07473 -1.21494,-0.269318 -0.30201,-0.14827 -0.58146,-0.35522 -0.74958,-0.55512 -0.0455,-0.05414 -0.0845,-0.09348 -0.0865,-0.08741 -0.005,0.01513 0.081,0.430597 0.12881,0.622163 0.23622,0.945907 0.51252,1.500481 1.04285,2.093191 0.15325,0.171272 0.28594,0.335071 0.28594,0.352981 0,0.0075 -0.73486,0.01219 -1.91061,0.01219 -1.05083,0 -1.91061,-0.0039 -1.91061,-0.0087 z"
         style="fill:#000000;stroke-width:0.147882"
         id="path1-0-4-56-0-5-4-1" /><path
         d="m 111.04915,77.995382 c 0,-0.01183 0.084,-0.122174 0.2509,-0.329508 0.30453,-0.378347 0.46708,-0.661287 0.62992,-1.096482 0.14179,-0.378926 0.29574,-0.999327 0.37518,-1.511921 l 0.0191,-0.122983 -0.0794,0.09037 c -0.25231,0.287166 -0.55892,0.50764 -0.90873,0.653436 -0.49888,0.207924 -0.98964,0.254335 -1.43459,0.135671 -0.61493,-0.163998 -1.04802,-0.642491 -1.23188,-1.361032 -0.0592,-0.231226 -0.0774,-0.402044 -0.0686,-0.641866 0.008,-0.227324 0.0499,-0.415538 0.13554,-0.613268 0.23163,-0.535029 0.77169,-0.945221 1.45967,-1.108661 0.48666,-0.115613 1.13285,-0.08881 1.56865,0.06504 0.0314,0.01105 0.0625,0.02016 0.0691,0.02016 0.007,0 -0.0274,-0.03503 -0.0757,-0.07784 -0.59423,-0.527493 -0.98107,-1.509512 -0.9185,-2.331715 0.0656,-0.861565 0.51718,-1.447151 1.29581,-1.680205 0.35351,-0.105813 0.82953,-0.135198 1.24507,-0.07687 0.85744,0.120363 1.39799,0.602799 1.56896,1.400273 0.0397,0.185062 0.0489,0.575492 0.0192,0.810093 -0.0255,0.201234 -0.10027,0.508927 -0.16978,0.69858 -0.0715,0.19504 -0.23983,0.528796 -0.34894,0.691805 -0.1269,0.189574 -0.1931,0.270721 -0.35183,0.431275 l -0.13125,0.132764 0.15002,-0.05081 c 0.26093,-0.08838 0.43525,-0.118284 0.73563,-0.126226 0.163,-0.0043 0.31143,-0.0011 0.39111,0.0082 0.81235,0.09581 1.49286,0.528507 1.80359,1.146817 0.21784,0.433471 0.24033,0.928941 0.0659,1.452762 -0.19234,0.577781 -0.55923,0.957467 -1.09982,1.138185 -0.17755,0.05936 -0.33054,0.08548 -0.54973,0.09387 -0.41053,0.01573 -0.81859,-0.07473 -1.21494,-0.269318 -0.30201,-0.14827 -0.58146,-0.355218 -0.74958,-0.55512 -0.0455,-0.05414 -0.0845,-0.09348 -0.0865,-0.08741 -0.005,0.01513 0.081,0.430597 0.12881,0.622164 0.23622,0.945906 0.51252,1.50048 1.04286,2.093191 0.15324,0.171272 0.28593,0.335071 0.28593,0.35298 0,0.0075 -0.73486,0.01219 -1.91061,0.01219 -1.05083,0 -1.9106,-0.0039 -1.9106,-0.0087 z"
         style="fill:#000000;stroke-width:0.147882"
         id="path1-0-4-56-0-4-8" /><path
         d="m 123.19348,67.716715 c 0,0.01183 0.084,0.122172 0.25091,0.329506 0.30453,0.378348 0.46707,0.661288 0.62991,1.096483 0.14179,0.378926 0.29574,0.999328 0.37518,1.51192 l 0.0191,0.122984 -0.0794,-0.09037 c -0.25231,-0.287166 -0.55892,-0.507639 -0.90873,-0.653436 -0.49888,-0.207921 -0.98964,-0.254335 -1.43459,-0.135671 -0.61493,0.163998 -1.04802,0.642491 -1.23187,1.361032 -0.0592,0.231227 -0.0774,0.402045 -0.0686,0.641868 0.008,0.227323 0.0499,0.415537 0.13553,0.613267 0.23163,0.535029 0.77169,0.94522 1.45967,1.108661 0.48666,0.115613 1.13285,0.08881 1.56865,-0.06504 0.0314,-0.01105 0.0625,-0.02015 0.0691,-0.02015 0.007,0 -0.0274,0.03503 -0.0757,0.07784 -0.59423,0.527492 -0.98107,1.509513 -0.91849,2.331714 0.0656,0.861566 0.51718,1.447153 1.2958,1.680206 0.35351,0.105813 0.82953,0.135198 1.24507,0.07687 0.85744,-0.120363 1.398,-0.602801 1.56896,-1.400274 0.0397,-0.185062 0.0489,-0.575493 0.0192,-0.810093 -0.0255,-0.201234 -0.10027,-0.508927 -0.16978,-0.698581 -0.0715,-0.195039 -0.23983,-0.528796 -0.34894,-0.691806 -0.1269,-0.189572 -0.1931,-0.270719 -0.35183,-0.431275 l -0.13125,-0.132763 0.15002,0.05081 c 0.26094,0.08838 0.43526,0.118283 0.73563,0.126224 0.163,0.0043 0.31144,0.0011 0.39111,-0.0082 0.81235,-0.09581 1.49286,-0.528507 1.80359,-1.146817 0.21784,-0.433471 0.24033,-0.928941 0.0659,-1.452761 -0.19234,-0.577782 -0.55923,-0.957468 -1.09982,-1.138184 -0.17755,-0.05936 -0.33054,-0.08548 -0.54973,-0.09387 -0.41053,-0.01573 -0.81859,0.07473 -1.21494,0.269317 -0.30201,0.14827 -0.58146,0.35522 -0.74958,0.55512 -0.0455,0.05414 -0.0845,0.09348 -0.0865,0.08742 -0.005,-0.01513 0.081,-0.430596 0.12881,-0.622164 0.23622,-0.945906 0.51252,-1.500479 1.04286,-2.093191 0.15325,-0.171271 0.28593,-0.33507 0.28593,-0.352979 0,-0.0075 -0.73486,-0.01219 -1.91061,-0.01219 -1.05083,0 -1.9106,0.0039 -1.9106,0.0087 z"
         style="fill:#000000;stroke-width:0.147882"
         id="path1-0-4-56-4-8-9-3" /><path
         d="m 123.19348,86.511876 c 0,0.01183 0.084,0.122173 0.25091,0.329506 0.30453,0.378349 0.46707,0.661289 0.62991,1.096484 0.14179,0.378926 0.29574,0.999327 0.37518,1.51192 l 0.0191,0.122984 -0.0794,-0.09037 c -0.25231,-0.287167 -0.55892,-0.50764 -0.90873,-0.653436 -0.49888,-0.207922 -0.98964,-0.254336 -1.43459,-0.135671 -0.61493,0.163997 -1.04802,0.642491 -1.23187,1.361032 -0.0592,0.231226 -0.0774,0.402045 -0.0686,0.641868 0.008,0.227322 0.0499,0.415536 0.13553,0.613266 0.23163,0.53503 0.77169,0.94522 1.45967,1.108662 0.48666,0.115612 1.13285,0.08881 1.56865,-0.06504 0.0314,-0.01105 0.0625,-0.02015 0.0691,-0.02015 0.007,0 -0.0274,0.03503 -0.0757,0.07784 -0.59423,0.527493 -0.98107,1.509513 -0.91849,2.331715 0.0656,0.861566 0.51718,1.447152 1.2958,1.680205 0.35351,0.105813 0.82953,0.135198 1.24507,0.07687 0.85744,-0.120363 1.398,-0.6028 1.56896,-1.400274 0.0397,-0.185062 0.0489,-0.575492 0.0192,-0.810093 -0.0255,-0.201234 -0.10027,-0.508927 -0.16978,-0.69858 -0.0715,-0.19504 -0.23983,-0.528796 -0.34894,-0.691806 -0.1269,-0.189573 -0.1931,-0.270719 -0.35183,-0.431276 l -0.13125,-0.132763 0.15002,0.05081 c 0.26094,0.08838 0.43526,0.118284 0.73563,0.126225 0.163,0.0043 0.31144,0.0011 0.39111,-0.0082 0.81235,-0.09581 1.49286,-0.528507 1.80359,-1.146818 0.21784,-0.433471 0.24033,-0.92894 0.0659,-1.452761 -0.19234,-0.577781 -0.55923,-0.957468 -1.09982,-1.138184 -0.17755,-0.05936 -0.33054,-0.08548 -0.54973,-0.09387 -0.41053,-0.01573 -0.81859,0.07473 -1.21494,0.269317 -0.30201,0.148271 -0.58146,0.35522 -0.74958,0.55512 -0.0455,0.05414 -0.0845,0.09348 -0.0865,0.08742 -0.005,-0.01513 0.081,-0.430597 0.12881,-0.622164 0.23622,-0.945907 0.51252,-1.50048 1.04286,-2.093191 0.15325,-0.171271 0.28593,-0.335071 0.28593,-0.35298 0,-0.0075 -0.73486,-0.01219 -1.91061,-0.01219 -1.05083,0 -1.9106,0.0039 -1.9106,0.0087 z"
         style="fill:#000000;stroke-width:0.147882"
         id="path1-0-4-56-4-8-9-9-7" /><path
         d="m 123.19348,97.898834 c 0,0.01183 0.084,0.122165 0.25091,0.3295 0.30453,0.378348 0.46707,0.661285 0.62991,1.096479 0.14179,0.37893 0.29574,0.999337 0.37518,1.511927 l 0.0191,0.12298 -0.0794,-0.0904 c -0.25231,-0.28716 -0.55892,-0.50764 -0.90873,-0.65345 -0.49888,-0.20791 -0.98964,-0.25433 -1.43459,-0.13566 -0.61493,0.164 -1.04802,0.64249 -1.23187,1.36103 -0.0592,0.23122 -0.0774,0.40204 -0.0686,0.64185 0.008,0.22733 0.0499,0.41554 0.13553,0.61327 0.23163,0.53503 0.77169,0.94522 1.45967,1.10866 0.48666,0.11561 1.13285,0.0888 1.56865,-0.065 0.0314,-0.011 0.0625,-0.0201 0.0691,-0.0201 0.007,0 -0.0274,0.035 -0.0757,0.0778 -0.59423,0.52749 -0.98107,1.50951 -0.91849,2.33171 0.0656,0.86158 0.51718,1.44715 1.2958,1.68021 0.35351,0.10586 0.82953,0.1352 1.24507,0.0769 0.85744,-0.12036 1.398,-0.60279 1.56896,-1.40027 0.0397,-0.18506 0.0489,-0.57549 0.0192,-0.81009 -0.0255,-0.20123 -0.10027,-0.50893 -0.16978,-0.69858 -0.0715,-0.19504 -0.23983,-0.52879 -0.34894,-0.69181 -0.1269,-0.18957 -0.1931,-0.27071 -0.35183,-0.43126 l -0.13125,-0.13277 0.15002,0.0508 c 0.26094,0.0884 0.43526,0.11828 0.73563,0.12622 0.163,0.004 0.31144,8.3e-4 0.39111,-0.008 0.81235,-0.0958 1.49286,-0.52851 1.80359,-1.14682 0.21784,-0.43347 0.24033,-0.92893 0.0659,-1.45275 -0.19234,-0.57778 -0.55923,-0.95746 -1.09982,-1.13819 -0.17755,-0.0594 -0.33054,-0.0855 -0.54973,-0.0939 -0.41053,-0.0158 -0.81859,0.0748 -1.21494,0.26933 -0.30201,0.14828 -0.58146,0.35522 -0.74958,0.55513 -0.0455,0.0541 -0.0845,0.0935 -0.0865,0.0874 -0.005,-0.0151 0.081,-0.4306 0.12881,-0.62217 0.23622,-0.945907 0.51252,-1.500483 1.04286,-2.093191 0.15325,-0.171274 0.28593,-0.335071 0.28593,-0.35298 0,-0.0075 -0.73486,-0.0122 -1.91061,-0.0122 -1.05083,0 -1.9106,0.0038 -1.9106,0.0084 z"
         style="fill:#000000;stroke-width:0.147882"
         id="path1-0-4-5-2-0-5-7-4" /><text
         xml:space="preserve"
         transform="matrix(0.26458333,0,0,0.26458333,47.42557,-2.4748627)"
         id="text2-5-5-3-0"
         style="font-style:normal;font-weight:normal;font-size:40px;line-height:1.25;font-family:sans-serif;white-space:pre;shape-inside:url(#rect2-6-7-6-1);display:inline;fill:#000000;fill-opacity:1;stroke:none"><tspan
           x="208.77734"
           y="278.77427"
           id="tspan2"><tspan
             style="font-weight:600;font-family:'New York Extra Large';-inkscape-font-specification:'New York Extra Large Semi-Bold'"
             id="tspan1">7</tspan></tspan></text><text
         xml:space="preserve"
         transform="matrix(-0.26458333,0,0,-0.26458333,190.54696,178.36889)"
         id="text2-7-4-1-5-7"
         style="font-style:normal;font-weight:normal;font-size:40px;line-height:1.25;font-family:sans-serif;white-space:pre;shape-inside:url(#rect2-1-0-5-1-0);display:inline;fill:#000000;fill-opacity:1;stroke:none"><tspan
           x="208.77734"
           y="278.77427"
           id="tspan4"><tspan
             style="font-weight:600;font-family:'New York Extra Large';-inkscape-font-specification:'New York Extra Large Semi-Bold'"
             id="tspan3">7</tspan></tspan></text></g></g></svg>
