<?xml version="1.0" encoding="UTF-8" standalone="no"?>
<!-- Created with Inkscape (http://www.inkscape.org/) -->

<svg
   width="40.423985mm"
   height="56.423996mm"
   viewBox="0 0 40.423985 56.423996"
   version="1.1"
   id="svg1"
   xml:space="preserve"
   xmlns="http://www.w3.org/2000/svg"
   xmlns:svg="http://www.w3.org/2000/svg"><defs
     id="defs1"><rect
       x="208.77827"
       y="241.85934"
       width="88.951309"
       height="72.043205"
       id="rect2-6-7-6-1-3-1" /><rect
       x="208.77827"
       y="241.85934"
       width="88.951309"
       height="72.043205"
       id="rect2-1-0-5-1-0-3-7" /></defs><g
     id="layer1"
     transform="translate(-144.14234,-109.27468)"><g
       id="g5"><path
         style="fill:#ffffff;fill-opacity:1;stroke:#000000;stroke-width:0.423998;stroke-opacity:1"
         id="rect1-8-5-5-8-7-1"
         width="40"
         height="56"
         x="40.845924"
         y="73.133659"
         transform="translate(103.5084,36.353017)"
         d="m 46.845924,73.133659 h 28 a 6,6 45 0 1 6,6 v 44.000001 a 6,6 135 0 1 -6,6 h -28 a 6,6 45 0 1 -6,-6 V 79.133659 a 6,6 135 0 1 6,-6 z" /><path
         d="m 155.75832,156.93781 c 0,-0.0105 0.0742,-0.10787 0.22155,-0.29095 0.2689,-0.33408 0.41242,-0.58392 0.55622,-0.9682 0.1252,-0.33461 0.26114,-0.88242 0.33128,-1.33505 l 0.0168,-0.1086 -0.0701,0.0798 c -0.22279,0.25357 -0.49353,0.44825 -0.80242,0.577 -0.44051,0.18359 -0.87385,0.22458 -1.26674,0.11979 -0.54299,-0.14481 -0.92541,-0.56734 -1.08776,-1.20182 -0.0522,-0.20417 -0.0684,-0.355 -0.0606,-0.56677 0.007,-0.20072 0.0441,-0.36692 0.11968,-0.54152 0.20453,-0.47244 0.68141,-0.83464 1.2889,-0.97896 0.42972,-0.10209 1.00031,-0.0784 1.38513,0.0574 0.0277,0.01 0.0552,0.0178 0.061,0.0178 0.006,0 -0.0242,-0.0309 -0.0668,-0.0687 -0.52472,-0.46577 -0.86629,-1.33289 -0.81104,-2.05889 0.0579,-0.76077 0.45667,-1.27785 1.1442,-1.48363 0.31215,-0.0934 0.73248,-0.11938 1.0994,-0.0679 0.75713,0.10629 1.23444,0.53227 1.38541,1.23645 0.035,0.16341 0.0432,0.50817 0.017,0.71532 -0.0225,0.17769 -0.0885,0.44937 -0.14992,0.61683 -0.0631,0.17223 -0.21177,0.46693 -0.30812,0.61087 -0.11205,0.16739 -0.17051,0.23903 -0.31067,0.3808 l -0.11589,0.11724 0.13247,-0.0449 c 0.23041,-0.0781 0.38433,-0.10444 0.64957,-0.11146 0.14392,-0.004 0.27499,-7.2e-4 0.34535,0.007 0.71731,0.0846 1.3182,0.46668 1.59258,1.01265 0.19235,0.38276 0.21221,0.82027 0.0582,1.28281 -0.16984,0.51019 -0.49381,0.84546 -0.97115,1.00503 -0.15678,0.0525 -0.29187,0.0755 -0.48541,0.0829 -0.36251,0.0139 -0.72282,-0.066 -1.0728,-0.23781 -0.26668,-0.13093 -0.51343,-0.31367 -0.66189,-0.49019 -0.0402,-0.0478 -0.0746,-0.0825 -0.0764,-0.0772 -0.005,0.0134 0.0715,0.38023 0.11374,0.54936 0.20859,0.83525 0.45256,1.32496 0.92085,1.84832 0.13532,0.15124 0.25248,0.29588 0.25248,0.31168 0,0.007 -0.64888,0.0108 -1.68707,0.0108 -0.9279,0 -1.68708,-0.003 -1.68708,-0.007 z"
         style="fill:#000000;stroke-width:0.130581"
         id="path1-0-4-5-2-4-5-9-2-8" /><path
         d="m 155.75832,146.99582 c 0,-0.0105 0.0742,-0.10788 0.22155,-0.29095 0.2689,-0.33409 0.41243,-0.58393 0.55622,-0.9682 0.1252,-0.3346 0.26114,-0.88242 0.33128,-1.33504 l 0.0168,-0.10859 -0.0701,0.0798 c -0.22279,0.25357 -0.49353,0.44825 -0.80241,0.57698 -0.44051,0.1836 -0.87386,0.22459 -1.26675,0.1198 -0.54299,-0.14481 -0.92541,-0.56732 -1.08776,-1.2018 -0.0522,-0.20417 -0.0684,-0.355 -0.0606,-0.56677 0.007,-0.20072 0.0441,-0.36692 0.11968,-0.54151 0.20453,-0.47244 0.68141,-0.83464 1.2889,-0.97896 0.42972,-0.10209 1.00031,-0.0784 1.38513,0.0574 0.0277,0.01 0.0552,0.0178 0.061,0.0178 0.006,0 -0.0242,-0.0309 -0.0668,-0.0687 -0.52472,-0.46578 -0.86629,-1.33291 -0.81104,-2.05892 0.0579,-0.76076 0.45667,-1.27784 1.1442,-1.48363 0.31215,-0.0934 0.73248,-0.11938 1.0994,-0.0679 0.75713,0.10629 1.23444,0.53228 1.38541,1.23645 0.035,0.16341 0.0432,0.50817 0.017,0.71532 -0.0225,0.17769 -0.0885,0.44938 -0.14992,0.61685 -0.0631,0.17222 -0.21177,0.46693 -0.30812,0.61087 -0.11205,0.16739 -0.17051,0.23904 -0.31067,0.38081 l -0.11589,0.11724 0.13247,-0.0449 c 0.23041,-0.078 0.38433,-0.10445 0.64957,-0.11146 0.14392,-0.004 0.27499,-9.7e-4 0.34535,0.007 0.71731,0.0846 1.3182,0.46667 1.59258,1.01264 0.19235,0.38276 0.21221,0.82026 0.0582,1.2828 -0.16984,0.51018 -0.49381,0.84545 -0.97116,1.00502 -0.15677,0.0524 -0.29186,0.0755 -0.48541,0.0829 -0.3625,0.0139 -0.72282,-0.066 -1.07279,-0.23781 -0.26668,-0.13092 -0.51344,-0.31366 -0.66189,-0.49017 -0.0402,-0.0478 -0.0746,-0.0825 -0.0764,-0.0772 -0.005,0.0134 0.0715,0.38022 0.11374,0.54937 0.20859,0.83524 0.45256,1.32494 0.92085,1.8483 0.13532,0.15124 0.25248,0.29587 0.25248,0.31169 0,0.007 -0.64888,0.0108 -1.68708,0.0108 -0.92789,0 -1.68707,-0.003 -1.68707,-0.008 z"
         style="fill:#000000;stroke-width:0.130581"
         id="path1-0-4-56-0-5-4-1-7-6" /><path
         d="m 155.75832,127.1119 c 0,-0.0105 0.0742,-0.10788 0.22155,-0.29096 0.2689,-0.33408 0.41242,-0.58392 0.55622,-0.9682 0.1252,-0.33459 0.26114,-0.88241 0.33128,-1.33503 l 0.0168,-0.1086 -0.0701,0.0798 c -0.22279,0.25357 -0.49353,0.44825 -0.80242,0.57699 -0.44051,0.1836 -0.87385,0.22458 -1.26674,0.1198 -0.54299,-0.14481 -0.92541,-0.56733 -1.08776,-1.2018 -0.0522,-0.20418 -0.0684,-0.35501 -0.0606,-0.56677 0.007,-0.20073 0.0441,-0.36693 0.11968,-0.54152 0.20453,-0.47244 0.68141,-0.83464 1.2889,-0.97896 0.42972,-0.10208 1.00031,-0.0784 1.38513,0.0574 0.0277,0.01 0.0552,0.0178 0.061,0.0178 0.006,0 -0.0242,-0.0309 -0.0668,-0.0687 -0.52472,-0.46577 -0.86629,-1.3329 -0.81104,-2.05891 0.0579,-0.76077 0.45667,-1.27784 1.1442,-1.48363 0.31215,-0.0934 0.73248,-0.11938 1.0994,-0.0679 0.75713,0.10628 1.23444,0.53227 1.38541,1.23645 0.035,0.16341 0.0432,0.50816 0.017,0.71531 -0.0225,0.17769 -0.0885,0.44939 -0.14992,0.61685 -0.0631,0.17222 -0.21177,0.46693 -0.30812,0.61087 -0.11205,0.16739 -0.17051,0.23905 -0.31067,0.38082 l -0.11589,0.11723 0.13247,-0.0449 c 0.23041,-0.078 0.38433,-0.10445 0.64957,-0.11146 0.14392,-0.004 0.27499,-9.7e-4 0.34535,0.007 0.71731,0.0846 1.3182,0.46668 1.59258,1.01265 0.19235,0.38275 0.21221,0.82026 0.0582,1.28279 -0.16984,0.51019 -0.49381,0.84545 -0.97115,1.00503 -0.15678,0.0524 -0.29187,0.0755 -0.48541,0.0829 -0.36251,0.0139 -0.72282,-0.066 -1.0728,-0.23781 -0.26668,-0.13093 -0.51343,-0.31366 -0.66189,-0.49018 -0.0402,-0.0478 -0.0746,-0.0825 -0.0764,-0.0772 -0.005,0.0134 0.0715,0.38022 0.11374,0.54938 0.20859,0.83524 0.45256,1.32493 0.92085,1.8483 0.13532,0.15123 0.25248,0.29587 0.25248,0.31168 0,0.007 -0.64888,0.0108 -1.68707,0.0108 -0.9279,0 -1.68708,-0.003 -1.68708,-0.008 z"
         style="fill:#000000;stroke-width:0.130581"
         id="path1-0-4-56-0-4-8-1-1" /><path
         d="m 169.65683,118.03578 c 0,0.0104 0.0742,0.10788 0.22155,0.29095 0.2689,0.33409 0.41243,0.58392 0.55622,0.9682 0.1252,0.3346 0.26114,0.88242 0.33128,1.33504 l 0.0168,0.10859 -0.0701,-0.0798 c -0.22279,-0.25357 -0.49353,-0.44825 -0.80241,-0.57699 -0.44051,-0.18359 -0.87386,-0.22457 -1.26675,-0.11979 -0.54299,0.14481 -0.92541,0.56732 -1.08776,1.2018 -0.0522,0.20417 -0.0684,0.355 -0.0606,0.56677 0.007,0.20073 0.0441,0.36692 0.11967,0.54152 0.20453,0.47243 0.68141,0.83463 1.2889,0.97895 0.42972,0.10209 1.00031,0.0784 1.38513,-0.0574 0.0277,-0.01 0.0552,-0.0178 0.061,-0.0178 0.006,0 -0.0242,0.0309 -0.0668,0.0687 -0.52472,0.46578 -0.86629,1.33291 -0.81104,2.05892 0.0579,0.76076 0.45667,1.27784 1.1442,1.48363 0.31215,0.0934 0.73248,0.11938 1.0994,0.0679 0.75713,-0.10629 1.23444,-0.53228 1.38541,-1.23645 0.035,-0.16341 0.0432,-0.50817 0.017,-0.71532 -0.0225,-0.17769 -0.0885,-0.44939 -0.14992,-0.61685 -0.0631,-0.17222 -0.21177,-0.46693 -0.30812,-0.61087 -0.11205,-0.16739 -0.17051,-0.23905 -0.31066,-0.38082 l -0.1159,-0.11723 0.13247,0.0449 c 0.23041,0.078 0.38433,0.10445 0.64957,0.11146 0.14392,0.004 0.27499,9.7e-4 0.34535,-0.007 0.71731,-0.0846 1.3182,-0.46667 1.59258,-1.01265 0.19235,-0.38275 0.21221,-0.82026 0.0582,-1.28279 -0.16984,-0.51019 -0.49381,-0.84545 -0.97115,-1.00502 -0.15678,-0.0524 -0.29187,-0.0755 -0.48541,-0.0829 -0.36251,-0.0139 -0.72282,0.066 -1.0728,0.2378 -0.26668,0.13093 -0.51343,0.31366 -0.66189,0.49018 -0.0402,0.0478 -0.0746,0.0825 -0.0764,0.0772 -0.005,-0.0134 0.0715,-0.38022 0.11374,-0.54938 0.20859,-0.83524 0.45256,-1.32493 0.92085,-1.8483 0.13532,-0.15123 0.25248,-0.29586 0.25248,-0.31168 0,-0.007 -0.64888,-0.0108 -1.68707,-0.0108 -0.9279,0 -1.68708,0.003 -1.68708,0.008 z"
         style="fill:#000000;stroke-width:0.130581"
         id="path1-0-4-56-4-8-9-3-0-5" /><path
         d="m 155.75832,137.05386 c 0,-0.0104 0.0742,-0.10788 0.22155,-0.29096 0.2689,-0.33408 0.41242,-0.58392 0.55622,-0.9682 0.1252,-0.33459 0.26114,-0.88241 0.33128,-1.33503 l 0.0168,-0.1086 -0.0701,0.0798 c -0.22279,0.25357 -0.49353,0.44825 -0.80242,0.57699 -0.44051,0.1836 -0.87385,0.22458 -1.26674,0.1198 -0.54299,-0.14481 -0.92541,-0.56732 -1.08776,-1.2018 -0.0522,-0.20417 -0.0684,-0.35501 -0.0606,-0.56677 0.007,-0.20073 0.0441,-0.36692 0.11968,-0.54152 0.20453,-0.47243 0.68141,-0.83463 1.2889,-0.97895 0.42972,-0.10209 1.00031,-0.0784 1.38513,0.0574 0.0277,0.01 0.0552,0.0178 0.061,0.0178 0.006,0 -0.0242,-0.0309 -0.0668,-0.0687 -0.52472,-0.46578 -0.86629,-1.33291 -0.81104,-2.05892 0.0579,-0.76077 0.45667,-1.27784 1.1442,-1.48363 0.31215,-0.0934 0.73248,-0.11938 1.0994,-0.0679 0.75713,0.10628 1.23444,0.53227 1.38541,1.23645 0.035,0.16341 0.0432,0.50816 0.017,0.71531 -0.0225,0.1777 -0.0885,0.44939 -0.14992,0.61685 -0.0631,0.17223 -0.21177,0.46694 -0.30812,0.61087 -0.11205,0.1674 -0.17051,0.23905 -0.31067,0.38082 l -0.11589,0.11723 0.13247,-0.0449 c 0.23041,-0.078 0.38433,-0.10444 0.64957,-0.11146 0.14392,-0.004 0.27499,-9.7e-4 0.34535,0.007 0.71731,0.0846 1.3182,0.46668 1.59258,1.01265 0.19235,0.38276 0.21221,0.82026 0.0582,1.2828 -0.16984,0.51018 -0.49381,0.84544 -0.97115,1.00502 -0.15678,0.0524 -0.29187,0.0755 -0.48541,0.0829 -0.36251,0.0139 -0.72282,-0.066 -1.0728,-0.23781 -0.26668,-0.13092 -0.51343,-0.31366 -0.66189,-0.49017 -0.0402,-0.0478 -0.0746,-0.0825 -0.0764,-0.0772 -0.005,0.0134 0.0715,0.38022 0.11374,0.54937 0.20859,0.83524 0.45256,1.32493 0.92085,1.8483 0.13532,0.15123 0.25248,0.29587 0.25248,0.31168 0,0.007 -0.64888,0.0108 -1.68707,0.0108 -0.9279,0 -1.68708,-0.003 -1.68708,-0.008 z"
         style="fill:#000000;stroke-width:0.130581"
         id="path1-0-4-56-0-4-8-1-3-0" /><path
         d="m 162.70758,141.90552 c 0,-0.0104 0.0742,-0.10788 0.22155,-0.29096 0.2689,-0.33408 0.41242,-0.58392 0.55622,-0.9682 0.1252,-0.33459 0.26114,-0.88241 0.33128,-1.33503 l 0.0168,-0.10859 -0.0701,0.0798 c -0.22279,0.25357 -0.49353,0.44825 -0.80242,0.57698 -0.44051,0.1836 -0.87385,0.22458 -1.26674,0.1198 -0.54299,-0.14481 -0.92541,-0.56732 -1.08776,-1.2018 -0.0522,-0.20417 -0.0684,-0.355 -0.0606,-0.56677 0.007,-0.20073 0.0441,-0.36692 0.11968,-0.54152 0.20453,-0.47243 0.68141,-0.83463 1.2889,-0.97895 0.42972,-0.10209 1.00031,-0.0784 1.38513,0.0574 0.0277,0.01 0.0552,0.0178 0.061,0.0178 0.006,0 -0.0242,-0.0309 -0.0668,-0.0687 -0.52472,-0.46578 -0.86629,-1.33291 -0.81104,-2.05892 0.0579,-0.76076 0.45667,-1.27784 1.1442,-1.48363 0.31215,-0.0934 0.73248,-0.11938 1.0994,-0.0679 0.75713,0.10628 1.23444,0.53228 1.38541,1.23645 0.035,0.16341 0.0432,0.50816 0.017,0.71532 -0.0225,0.17769 -0.0885,0.44938 -0.14992,0.61685 -0.0631,0.17222 -0.21177,0.46693 -0.30812,0.61087 -0.11205,0.16739 -0.17051,0.23904 -0.31067,0.38081 l -0.11589,0.11724 0.13247,-0.0449 c 0.23041,-0.078 0.38433,-0.10445 0.64957,-0.11146 0.14392,-0.004 0.27499,-9.8e-4 0.34535,0.007 0.71731,0.0846 1.3182,0.46667 1.59258,1.01264 0.19235,0.38276 0.21221,0.82026 0.0582,1.2828 -0.16984,0.51018 -0.49381,0.84545 -0.97115,1.00502 -0.15678,0.0524 -0.29187,0.0755 -0.48541,0.0829 -0.36251,0.0139 -0.72282,-0.066 -1.0728,-0.23781 -0.26668,-0.13092 -0.51343,-0.31366 -0.66189,-0.49017 -0.0402,-0.0478 -0.0746,-0.0825 -0.0764,-0.0772 -0.005,0.0134 0.0715,0.38022 0.11374,0.54937 0.20859,0.83524 0.45256,1.32494 0.92085,1.8483 0.13532,0.15124 0.25248,0.29587 0.25248,0.31169 0,0.007 -0.64888,0.0108 -1.68707,0.0108 -0.9279,0 -1.68708,-0.003 -1.68708,-0.008 z"
         style="fill:#000000;stroke-width:0.130581"
         id="path1-0-4-56-0-4-8-1-3-0-5" /><path
         d="m 169.65683,127.97783 c 0,0.0105 0.0742,0.10788 0.22155,0.29095 0.2689,0.33409 0.41243,0.58392 0.55622,0.9682 0.1252,0.3346 0.26114,0.88241 0.33128,1.33504 l 0.0168,0.10859 -0.0701,-0.0798 c -0.22279,-0.25357 -0.49353,-0.44825 -0.80241,-0.57699 -0.44051,-0.18359 -0.87386,-0.22458 -1.26675,-0.11979 -0.54299,0.14481 -0.92541,0.56732 -1.08776,1.20179 -0.0522,0.20418 -0.0684,0.35501 -0.0606,0.56678 0.007,0.20072 0.0441,0.36692 0.11967,0.54152 0.20453,0.47243 0.68141,0.83463 1.2889,0.97895 0.42972,0.10209 1.00031,0.0784 1.38513,-0.0574 0.0277,-0.01 0.0552,-0.0178 0.061,-0.0178 0.006,0 -0.0242,0.0309 -0.0668,0.0687 -0.52472,0.46578 -0.86629,1.33291 -0.81104,2.05891 0.0579,0.76077 0.45667,1.27785 1.1442,1.48364 0.31215,0.0934 0.73248,0.11938 1.0994,0.0679 0.75713,-0.10629 1.23444,-0.53228 1.38541,-1.23645 0.035,-0.16342 0.0432,-0.50817 0.017,-0.71532 -0.0225,-0.17769 -0.0885,-0.44939 -0.14992,-0.61685 -0.0631,-0.17222 -0.21177,-0.46693 -0.30812,-0.61087 -0.11205,-0.16739 -0.17051,-0.23905 -0.31066,-0.38082 l -0.1159,-0.11723 0.13247,0.0449 c 0.23041,0.078 0.38433,0.10445 0.64957,0.11146 0.14392,0.004 0.27499,9.7e-4 0.34535,-0.007 0.71731,-0.0846 1.3182,-0.46668 1.59258,-1.01265 0.19235,-0.38275 0.21221,-0.82026 0.0582,-1.28279 -0.16984,-0.51019 -0.49381,-0.84545 -0.97115,-1.00503 -0.15678,-0.0524 -0.29187,-0.0755 -0.48541,-0.0829 -0.36251,-0.0139 -0.72282,0.066 -1.0728,0.23781 -0.26668,0.13093 -0.51343,0.31366 -0.66189,0.49018 -0.0402,0.0478 -0.0746,0.0825 -0.0764,0.0772 -0.005,-0.0134 0.0715,-0.38022 0.11374,-0.54938 0.20859,-0.83524 0.45256,-1.32493 0.92085,-1.8483 0.13532,-0.15123 0.25248,-0.29586 0.25248,-0.31168 0,-0.007 -0.64888,-0.0108 -1.68707,-0.0108 -0.9279,0 -1.68708,0.003 -1.68708,0.008 z"
         style="fill:#000000;stroke-width:0.130581"
         id="path1-0-4-56-4-8-9-3-0-7-6" /><path
         d="m 169.65683,137.91987 c 0,0.0104 0.0742,0.10788 0.22155,0.29096 0.2689,0.33408 0.41243,0.58392 0.55622,0.9682 0.1252,0.33459 0.26114,0.88241 0.33128,1.33503 l 0.0168,0.1086 -0.0701,-0.0798 c -0.22279,-0.25357 -0.49353,-0.44825 -0.80241,-0.57699 -0.44051,-0.1836 -0.87386,-0.22458 -1.26675,-0.1198 -0.54299,0.14481 -0.92541,0.56733 -1.08776,1.2018 -0.0522,0.20417 -0.0684,0.35501 -0.0606,0.56677 0.007,0.20073 0.0441,0.36692 0.11967,0.54152 0.20453,0.47244 0.68141,0.83464 1.2889,0.97896 0.42972,0.10208 1.00031,0.0784 1.38513,-0.0574 0.0277,-0.01 0.0552,-0.0178 0.061,-0.0178 0.006,0 -0.0242,0.0309 -0.0668,0.0687 -0.52472,0.46577 -0.86629,1.3329 -0.81104,2.05891 0.0579,0.76077 0.45667,1.27785 1.1442,1.48363 0.31215,0.0934 0.73248,0.11938 1.0994,0.0679 0.75713,-0.10628 1.23444,-0.53227 1.38541,-1.23645 0.035,-0.16341 0.0432,-0.50816 0.017,-0.71531 -0.0225,-0.17769 -0.0885,-0.44939 -0.14992,-0.61685 -0.0631,-0.17222 -0.21177,-0.46693 -0.30812,-0.61087 -0.11205,-0.1674 -0.17051,-0.23905 -0.31066,-0.38082 l -0.1159,-0.11723 0.13247,0.0449 c 0.23041,0.078 0.38433,0.10445 0.64957,0.11146 0.14392,0.004 0.27499,9.7e-4 0.34535,-0.007 0.71731,-0.0846 1.3182,-0.46668 1.59258,-1.01265 0.19235,-0.38276 0.21221,-0.82026 0.0582,-1.28279 -0.16984,-0.51019 -0.49381,-0.84545 -0.97115,-1.00503 -0.15678,-0.0524 -0.29187,-0.0755 -0.48541,-0.0829 -0.36251,-0.0139 -0.72282,0.066 -1.0728,0.23781 -0.26668,0.13093 -0.51343,0.31366 -0.66189,0.49018 -0.0402,0.0478 -0.0746,0.0825 -0.0764,0.0772 -0.005,-0.0134 0.0715,-0.38022 0.11374,-0.54938 0.20859,-0.83524 0.45256,-1.32493 0.92085,-1.8483 0.13532,-0.15123 0.25248,-0.29587 0.25248,-0.31168 0,-0.007 -0.64888,-0.0108 -1.68707,-0.0108 -0.9279,0 -1.68708,0.003 -1.68708,0.008 z"
         style="fill:#000000;stroke-width:0.130581"
         id="path1-0-4-56-4-8-9-9-7-0-5" /><path
         d="m 169.65683,147.86175 c 0,0.0104 0.0742,0.10787 0.22155,0.29095 0.2689,0.33409 0.41243,0.58392 0.55622,0.9682 0.1252,0.3346 0.26114,0.88242 0.33128,1.33503 l 0.0168,0.10859 -0.0701,-0.0798 c -0.22279,-0.25356 -0.49353,-0.44824 -0.80241,-0.57699 -0.44051,-0.18359 -0.87386,-0.22457 -1.26675,-0.11979 -0.54299,0.14481 -0.92541,0.56732 -1.08776,1.20179 -0.0522,0.20417 -0.0684,0.35501 -0.0606,0.56676 0.007,0.20074 0.0441,0.36693 0.11967,0.54152 0.20453,0.47244 0.68141,0.83464 1.2889,0.97896 0.42972,0.10209 1.00031,0.0784 1.38513,-0.0574 0.0277,-0.01 0.0552,-0.0178 0.061,-0.0178 0.006,0 -0.0242,0.0309 -0.0668,0.0687 -0.52472,0.46578 -0.86629,1.33292 -0.81104,2.05893 0.0579,0.76078 0.45667,1.27784 1.1442,1.48363 0.31215,0.0935 0.73248,0.11938 1.0994,0.0679 0.75713,-0.10628 1.23444,-0.53226 1.38541,-1.23644 0.035,-0.16341 0.0432,-0.50816 0.017,-0.71532 -0.0225,-0.17768 -0.0885,-0.44939 -0.14992,-0.61685 -0.0631,-0.17222 -0.21177,-0.46693 -0.30812,-0.61088 -0.11205,-0.16739 -0.17051,-0.23904 -0.31066,-0.3808 l -0.1159,-0.11724 0.13247,0.0449 c 0.23041,0.0781 0.38433,0.10444 0.64957,0.11145 0.14392,0.003 0.27499,7.4e-4 0.34535,-0.007 0.71731,-0.0846 1.3182,-0.46668 1.59258,-1.01265 0.19235,-0.38276 0.21221,-0.82025 0.0582,-1.28279 -0.16984,-0.51018 -0.49381,-0.84544 -0.97115,-1.00502 -0.15678,-0.0525 -0.29187,-0.0755 -0.48541,-0.0829 -0.36251,-0.014 -0.72282,0.066 -1.0728,0.23781 -0.26668,0.13094 -0.51343,0.31367 -0.66189,0.49018 -0.0402,0.0478 -0.0746,0.0826 -0.0764,0.0772 -0.005,-0.0133 0.0715,-0.38021 0.11374,-0.54937 0.20859,-0.83524 0.45256,-1.32493 0.92085,-1.8483 0.13532,-0.15123 0.25248,-0.29587 0.25248,-0.31168 0,-0.007 -0.64888,-0.0108 -1.68707,-0.0108 -0.9279,0 -1.68708,0.003 -1.68708,0.007 z"
         style="fill:#000000;stroke-width:0.130581"
         id="path1-0-4-5-2-0-5-7-4-9-3" /><text
         xml:space="preserve"
         transform="matrix(0.26458333,0,0,0.26458333,92.793638,47.064806)"
         id="text2-5-5-3-0-1-0"
         style="font-style:normal;font-weight:normal;font-size:40px;line-height:1.25;font-family:sans-serif;white-space:pre;shape-inside:url(#rect2-6-7-6-1-3-1);display:inline;fill:#000000;fill-opacity:1;stroke:none"><tspan
           x="208.77734"
           y="278.77427"
           id="tspan2"><tspan
             style="font-weight:600;font-family:'New York Extra Large';-inkscape-font-specification:'New York Extra Large Semi-Bold'"
             id="tspan1">9</tspan></tspan></text><text
         xml:space="preserve"
         transform="matrix(-0.26458333,0,0,-0.26458333,235.91502,227.90855)"
         id="text2-7-4-1-5-7-5-5"
         style="font-style:normal;font-weight:normal;font-size:40px;line-height:1.25;font-family:sans-serif;white-space:pre;shape-inside:url(#rect2-1-0-5-1-0-3-7);display:inline;fill:#000000;fill-opacity:1;stroke:none"><tspan
           x="208.77734"
           y="278.77427"
           id="tspan4"><tspan
             style="font-weight:600;font-family:'New York Extra Large';-inkscape-font-specification:'New York Extra Large Semi-Bold'"
             id="tspan3">9</tspan></tspan></text></g></g></svg>
