<?xml version="1.0" encoding="UTF-8" standalone="no"?>
<!-- Created with Inkscape (http://www.inkscape.org/) -->

<svg
   width="40.423996mm"
   height="56.423996mm"
   viewBox="0 0 40.423996 56.423996"
   version="1.1"
   id="svg1"
   xml:space="preserve"
   xmlns="http://www.w3.org/2000/svg"
   xmlns:svg="http://www.w3.org/2000/svg"><defs
     id="defs1"><rect
       x="208.77827"
       y="241.85934"
       width="88.951309"
       height="72.043205"
       id="rect2" /><rect
       x="208.77827"
       y="241.85934"
       width="88.951309"
       height="72.043205"
       id="rect2-1" /></defs><g
     id="layer1"
     transform="translate(-9.3187153,-47.330023)"><g
       id="g3"
       transform="translate(0,-12.170833)"><path
         style="fill:#ffffff;fill-opacity:1;stroke:#000000;stroke-width:0.423998;stroke-opacity:1"
         id="rect1"
         width="40"
         height="56"
         x="40.845924"
         y="73.133659"
         transform="translate(-31.31521,-13.420804)"
         d="m 46.845924,73.133659 h 28 a 6,6 45 0 1 6,6 v 44.000001 a 6,6 135 0 1 -6,6 h -28 a 6,6 45 0 1 -6,-6 V 79.133659 a 6,6 135 0 1 6,-6 z" /><text
         xml:space="preserve"
         transform="matrix(0.26458333,0,0,0.26458333,-42.029977,-2.7090155)"
         id="text2"
         style="font-style:normal;font-weight:normal;font-size:40px;line-height:1.25;font-family:sans-serif;white-space:pre;shape-inside:url(#rect2);display:inline;fill:#000000;fill-opacity:1;stroke:none"><tspan
           x="208.77734"
           y="278.77427"
           id="tspan2"><tspan
             style="font-weight:600;font-family:'New York Extra Large';-inkscape-font-specification:'New York Extra Large Semi-Bold'"
             id="tspan1">2</tspan></tspan></text><text
         xml:space="preserve"
         transform="matrix(-0.26458333,0,0,-0.26458333,101.09141,178.13473)"
         id="text2-7"
         style="font-style:normal;font-weight:normal;font-size:40px;line-height:1.25;font-family:sans-serif;white-space:pre;shape-inside:url(#rect2-1);display:inline;fill:#000000;fill-opacity:1;stroke:none"><tspan
           x="208.77734"
           y="278.77427"
           id="tspan4"><tspan
             style="font-weight:600;font-family:'New York Extra Large';-inkscape-font-specification:'New York Extra Large Semi-Bold'"
             id="tspan3">2</tspan></tspan></text><path
         d="m 27.939572,82.105122 c 1.8e-4,-0.007 0.06861,-0.10797 0.151978,-0.22542 0.32878,-0.46321 0.473203,-0.71946 0.646824,-1.14765 0.103271,-0.25471 0.307057,-0.85557 0.408263,-1.20378 l 0.06964,-0.2396 -0.223301,0.11615 c -0.61048,0.31754 -1.187058,0.46561 -1.813111,0.46561 -0.822817,0 -1.539839,-0.27358 -2.049732,-0.78208 -0.32962,-0.32872 -0.523721,-0.68959 -0.62576,-1.16339 -0.05114,-0.23748 -0.05197,-0.7151 -0.0015,-0.9813 0.102523,-0.54288 0.320797,-1.05814 0.679945,-1.60511 0.334123,-0.50885 0.552826,-0.76424 1.253046,-1.46325 1.24188,-1.23975 1.950783,-2.10343 2.925126,-3.56381 0.132275,-0.19826 0.247108,-0.35638 0.25519,-0.35139 0.0081,0.005 0.105392,0.16005 0.216239,0.34458 0.823602,1.37097 1.801535,2.54879 3.056909,3.68173 0.672798,0.60718 1.26671,1.48296 1.520059,2.24147 0.273181,0.81788 0.246257,1.55313 -0.08052,2.19894 -0.121145,0.23943 -0.243104,0.4066 -0.441568,0.60528 -0.506801,0.50736 -1.192932,0.77531 -1.98528,0.77531 -0.568195,0 -1.130625,-0.14111 -1.69878,-0.42622 -0.125941,-0.0632 -0.159949,-0.0748 -0.159949,-0.0544 0,0.0469 0.154383,0.6421 0.227823,0.8784 0.223184,0.71808 0.423885,1.0905 0.84597,1.56977 0.09287,0.10545 0.196217,0.22555 0.229653,0.26687 l 0.0608,0.0752 h -1.734083 c -0.953745,0 -1.733903,-0.005 -1.733686,-0.0119 z"
         style="fill:#000000;stroke-width:0.179374"
         id="path1-90-57" /><path
         d="m 27.939572,91.73309 c 1.8e-4,0.007 0.06861,0.10797 0.151978,0.22542 0.32878,0.46321 0.473203,0.71946 0.646824,1.14765 0.103271,0.25471 0.307057,0.85557 0.408263,1.20378 l 0.06964,0.2396 -0.223301,-0.11615 c -0.61048,-0.31754 -1.187058,-0.46561 -1.813111,-0.46561 -0.822817,0 -1.539839,0.27358 -2.049732,0.78208 -0.32962,0.32872 -0.523721,0.68959 -0.62576,1.16339 -0.05114,0.23748 -0.05197,0.7151 -0.0015,0.981298 0.102523,0.542877 0.320797,1.058144 0.679945,1.605111 0.334123,0.508847 0.552826,0.764237 1.253046,1.463254 1.24188,1.239747 1.950783,2.103427 2.925126,3.563807 0.132275,0.19826 0.247108,0.35638 0.25519,0.35139 0.0081,-0.005 0.105392,-0.16005 0.216239,-0.34458 0.823602,-1.37097 1.801535,-2.54879 3.056909,-3.681727 0.672798,-0.607187 1.26671,-1.482961 1.520059,-2.241478 0.273181,-0.817875 0.246257,-1.553125 -0.08052,-2.198935 -0.121145,-0.23943 -0.243104,-0.4066 -0.441568,-0.60528 -0.506801,-0.50736 -1.192932,-0.77531 -1.98528,-0.77531 -0.568195,0 -1.130625,0.14111 -1.69878,0.42622 -0.125941,0.0632 -0.159949,0.0748 -0.159949,0.0544 0,-0.0469 0.154383,-0.6421 0.227823,-0.8784 0.223184,-0.71808 0.423885,-1.0905 0.84597,-1.56977 0.09287,-0.10545 0.196217,-0.22555 0.229653,-0.26687 l 0.0608,-0.0752 h -1.734083 c -0.953745,0 -1.733903,0.005 -1.733686,0.0119 z"
         style="fill:#000000;stroke-width:0.179374"
         id="path1-90-57-2" /></g></g></svg>
