<?xml version="1.0" encoding="UTF-8" standalone="no"?>
<!-- Created with Inkscape (http://www.inkscape.org/) -->

<svg
   width="40.424mm"
   height="56.424mm"
   viewBox="0 0 40.424 56.424"
   version="1.1"
   id="svg1"
   xml:space="preserve"
   xmlns="http://www.w3.org/2000/svg"
   xmlns:svg="http://www.w3.org/2000/svg"><defs
     id="defs1"><rect
       x="208.77827"
       y="241.85934"
       width="88.951309"
       height="72.043205"
       id="rect2-6" /><rect
       x="208.77827"
       y="241.85934"
       width="88.951309"
       height="72.043205"
       id="rect2-1-0" /></defs><g
     id="layer1"
     transform="translate(-97.757983,-47.384604)"><g
       id="g7"><path
         style="fill:#ffffff;fill-opacity:1;stroke:#000000;stroke-width:0.423998;stroke-opacity:1"
         id="rect1-8"
         width="40"
         height="56"
         x="40.845924"
         y="73.133659"
         transform="translate(57.124058,-25.537058)"
         d="m 46.845924,73.133659 h 28 a 6,6 45 0 1 6,6 v 44.000001 a 6,6 135 0 1 -6,6 h -28 a 6,6 45 0 1 -6,-6 V 79.133659 a 6,6 135 0 1 6,-6 z" /><path
         d="m 109.04784,72.395843 c 0,-0.01434 0.10188,-0.14813 0.30422,-0.399514 0.36922,-0.458732 0.5663,-0.801786 0.76375,-1.329444 0.17191,-0.459433 0.35857,-1.211646 0.45488,-1.833146 l 0.0231,-0.149113 -0.0963,0.109579 c -0.30591,0.348178 -0.67767,0.615493 -1.1018,0.792265 -0.60487,0.252099 -1.1999,0.308372 -1.73938,0.164497 -0.74559,-0.198842 -1.27069,-0.778996 -1.4936,-1.6502 -0.0717,-0.280353 -0.0939,-0.487464 -0.0832,-0.778239 0.0101,-0.27562 0.0605,-0.503823 0.16432,-0.743563 0.28085,-0.648703 0.93565,-1.146043 1.76981,-1.34421 0.59005,-0.140176 1.37353,-0.107687 1.90192,0.07887 0.038,0.01343 0.0757,0.02443 0.0838,0.02443 0.008,0 -0.0333,-0.04247 -0.0917,-0.09437 -0.72049,-0.639565 -1.18951,-1.830227 -1.11364,-2.827115 0.0795,-1.044616 0.62706,-1.754617 1.57112,-2.037185 0.42861,-0.128291 1.00577,-0.163923 1.50959,-0.0932 1.03962,0.145936 1.69502,0.730872 1.90231,1.697778 0.0481,0.224381 0.0593,0.697763 0.0233,0.982207 -0.0309,0.243988 -0.12158,0.617055 -0.20586,0.847002 -0.0867,0.236478 -0.29078,0.641145 -0.42308,0.838788 -0.15385,0.22985 -0.23412,0.328238 -0.42657,0.522905 l -0.15914,0.16097 0.1819,-0.0616 c 0.31637,-0.107149 0.52773,-0.143414 0.89192,-0.153043 0.19763,-0.0052 0.3776,-0.0014 0.47421,0.0099 0.98494,0.11616 1.81003,0.640795 2.18678,1.390471 0.26413,0.525569 0.2914,1.126306 0.08,1.761419 -0.23321,0.700538 -0.67805,1.160893 -1.33349,1.380005 -0.21527,0.07197 -0.40077,0.103641 -0.66652,0.113815 -0.49776,0.01906 -0.99251,-0.09061 -1.47307,-0.326538 -0.36618,-0.179772 -0.705,-0.43069 -0.90884,-0.673062 -0.0552,-0.06565 -0.1024,-0.113348 -0.10485,-0.105989 -0.006,0.01835 0.0982,0.522081 0.15617,0.75435 0.28642,1.146875 0.62141,1.819274 1.26443,2.537914 0.18581,0.20766 0.34668,0.40626 0.34668,0.427975 0,0.0091 -0.89098,0.01478 -2.31653,0.01478 -1.2741,0 -2.31654,-0.0047 -2.31654,-0.01042 z"
         style="fill:#000000;stroke-width:0.179301"
         id="path1-0-4-56" /><path
         d="m 109.04784,90.932286 c 0,-0.0143 0.10188,-0.14813 0.30422,-0.39951 0.36922,-0.45873 0.5663,-0.80179 0.76375,-1.329437 0.17191,-0.459437 0.35857,-1.211644 0.45488,-1.833144 l 0.0231,-0.149113 -0.0963,0.109579 c -0.30591,0.348178 -0.67767,0.615494 -1.1018,0.792264 -0.60487,0.252097 -1.1999,0.308367 -1.73938,0.1645 -0.74559,-0.19884 -1.27069,-0.778998 -1.4936,-1.650202 -0.0717,-0.280353 -0.0939,-0.487464 -0.0832,-0.778239 0.0101,-0.27562 0.0605,-0.503823 0.16432,-0.743563 0.28085,-0.648703 0.93565,-1.146043 1.76981,-1.34421 0.59005,-0.140171 1.37353,-0.107691 1.90192,0.07887 0.038,0.01343 0.0757,0.02443 0.0838,0.02443 0.008,0 -0.0333,-0.04247 -0.0917,-0.09437 -0.72049,-0.639558 -1.18951,-1.830224 -1.11364,-2.82709 0.0795,-1.04462 0.62706,-1.75462 1.57112,-2.03719 0.42861,-0.12829 1.00577,-0.16392 1.50959,-0.0932 1.03962,0.14594 1.69502,0.73087 1.90231,1.69778 0.0481,0.22438 0.0593,0.69776 0.0233,0.98221 -0.0309,0.24398 -0.12158,0.617036 -0.20586,0.846986 -0.0867,0.23648 -0.29078,0.641136 -0.42308,0.838786 -0.15385,0.22985 -0.23412,0.328227 -0.42657,0.522897 l -0.15914,0.160971 0.1819,-0.0616 c 0.31637,-0.107151 0.52773,-0.143411 0.89192,-0.153041 0.19763,-0.005 0.3776,-0.001 0.47421,0.01 0.98494,0.116158 1.81003,0.640793 2.18678,1.390469 0.26413,0.525569 0.2914,1.126306 0.08,1.761419 -0.23321,0.700538 -0.67805,1.160897 -1.33349,1.380007 -0.21527,0.072 -0.40077,0.10364 -0.66652,0.11381 -0.49776,0.0191 -0.99251,-0.0906 -1.47307,-0.32654 -0.36618,-0.179767 -0.705,-0.430685 -0.90884,-0.673057 -0.0552,-0.06565 -0.1024,-0.113348 -0.10485,-0.105989 -0.006,0.01835 0.0982,0.522081 0.15617,0.754346 0.28642,1.146874 0.62141,1.819271 1.26443,2.537911 0.18581,0.20766 0.34668,0.40626 0.34668,0.42797 0,0.009 -0.89098,0.0148 -2.31653,0.0148 -1.2741,0 -2.31654,-0.005 -2.31654,-0.0104 z"
         style="fill:#000000;stroke-width:0.179301"
         id="path1-0-4-5-2" /><path
         d="m 122.36979,60.260782 c 0,0.01434 0.10188,0.14813 0.30421,0.399514 0.36923,0.458732 0.56631,0.801786 0.76375,1.329444 0.17191,0.459433 0.35857,1.211646 0.45489,1.833146 l 0.0231,0.149113 -0.0963,-0.109579 c -0.30592,-0.348178 -0.67767,-0.615493 -1.1018,-0.792265 -0.60487,-0.252099 -1.1999,-0.308372 -1.73938,-0.164497 -0.74559,0.198842 -1.27069,0.778996 -1.49361,1.6502 -0.0717,0.280353 -0.0939,0.487464 -0.0832,0.778239 0.0101,0.27562 0.0605,0.503823 0.16433,0.743563 0.28084,0.648703 0.93565,1.146043 1.7698,1.34421 0.59005,0.140176 1.37354,0.107687 1.90193,-0.07887 0.038,-0.01343 0.0757,-0.02443 0.0838,-0.02443 0.008,0 -0.0333,0.04247 -0.0917,0.09437 -0.72049,0.639565 -1.18951,1.830227 -1.11364,2.827115 0.0795,1.044616 0.62706,1.754617 1.57111,2.037185 0.42862,0.128291 1.00577,0.163923 1.5096,0.0932 1.03961,-0.145936 1.69502,-0.730872 1.90231,-1.697778 0.0481,-0.224381 0.0593,-0.697763 0.0233,-0.982207 -0.0309,-0.243988 -0.12159,-0.617055 -0.20586,-0.847002 -0.0867,-0.236478 -0.29078,-0.641145 -0.42308,-0.838788 -0.15386,-0.22985 -0.23412,-0.328238 -0.42657,-0.522905 l -0.15914,-0.16097 0.1819,0.0616 c 0.31637,0.107149 0.52772,0.143414 0.89192,0.153043 0.19763,0.0052 0.3776,0.0014 0.4742,-0.0099 0.98495,-0.11616 1.81004,-0.640795 2.18679,-1.390471 0.26412,-0.525569 0.29139,-1.126306 0.08,-1.761419 -0.23321,-0.700538 -0.67805,-1.160893 -1.3335,-1.380005 -0.21527,-0.07197 -0.40076,-0.103641 -0.66652,-0.113815 -0.49775,-0.01906 -0.99251,0.09061 -1.47306,0.326538 -0.36619,0.179772 -0.705,0.43069 -0.90884,0.673062 -0.0552,0.06565 -0.1024,0.113348 -0.10485,0.105989 -0.006,-0.01835 0.0982,-0.522081 0.15617,-0.75435 0.28641,-1.146875 0.62141,-1.819274 1.26443,-2.537914 0.1858,-0.20766 0.34668,-0.40626 0.34668,-0.427975 0,-0.0091 -0.89099,-0.01478 -2.31654,-0.01478 -1.27409,0 -2.31654,0.0047 -2.31654,0.01042 z"
         style="fill:#000000;stroke-width:0.179301"
         id="path1-0-4-56-4" /><path
         d="m 122.36979,78.797381 c 0,0.0143 0.10188,0.14813 0.30421,0.39951 0.36923,0.45873 0.56631,0.80179 0.76375,1.32944 0.17191,0.45944 0.35857,1.21166 0.45489,1.833156 l 0.0231,0.14911 -0.0963,-0.10958 c -0.30592,-0.34818 -0.67767,-0.615486 -1.1018,-0.792266 -0.60487,-0.25209 -1.1999,-0.30837 -1.73938,-0.16449 -0.74559,0.19884 -1.27069,0.778986 -1.49361,1.650193 -0.0717,0.280353 -0.0939,0.487464 -0.0832,0.778239 0.0101,0.27562 0.0605,0.503823 0.16433,0.743563 0.28084,0.648703 0.93565,1.146043 1.7698,1.34421 0.59005,0.140171 1.37354,0.107691 1.90193,-0.07887 0.038,-0.01343 0.0757,-0.02443 0.0838,-0.02443 0.008,0 -0.0333,0.04247 -0.0917,0.09437 -0.72049,0.639558 -1.18951,1.830222 -1.11364,2.827096 0.0795,1.044604 0.62706,1.754604 1.57111,2.037174 0.42862,0.12829 1.00577,0.16392 1.5096,0.0932 1.03961,-0.14594 1.69502,-0.73087 1.90231,-1.697777 0.0481,-0.22438 0.0593,-0.697747 0.0233,-0.982194 -0.0309,-0.24398 -0.12159,-0.617047 -0.20586,-0.846997 -0.0867,-0.236477 -0.29078,-0.641134 -0.42308,-0.838784 -0.15386,-0.22985 -0.23412,-0.328227 -0.42657,-0.522897 l -0.15914,-0.160971 0.1819,0.0616 c 0.31637,0.107151 0.52772,0.143411 0.89192,0.153041 0.19763,0.005 0.3776,10e-4 0.4742,-0.01 0.98495,-0.116158 1.81004,-0.640793 2.18679,-1.390469 0.26412,-0.525569 0.29139,-1.126306 0.08,-1.761419 -0.23321,-0.700542 -0.67805,-1.160888 -1.3335,-1.379998 -0.21527,-0.072 -0.40076,-0.10364 -0.66652,-0.11382 -0.49775,-0.0191 -0.99251,0.0906 -1.47306,0.32654 -0.36619,0.179766 -0.705,0.430686 -0.90884,0.673056 -0.0552,0.0656 -0.1024,0.11335 -0.10485,0.10599 -0.006,-0.0183 0.0982,-0.52208 0.15617,-0.754346 0.28641,-1.14688 0.62141,-1.81928 1.26443,-2.53792 0.1858,-0.20766 0.34668,-0.40626 0.34668,-0.42797 0,-0.009 -0.89099,-0.0148 -2.31654,-0.0148 -1.27409,0 -2.31654,0.005 -2.31654,0.0104 z"
         style="fill:#000000;stroke-width:0.179301"
         id="path1-0-4-5-2-0" /><text
         xml:space="preserve"
         transform="matrix(0.26458333,0,0,0.26458333,46.409291,-14.825267)"
         id="text2-5"
         style="font-style:normal;font-weight:normal;font-size:40px;line-height:1.25;font-family:sans-serif;white-space:pre;shape-inside:url(#rect2-6);display:inline;fill:#000000;fill-opacity:1;stroke:none"><tspan
           x="208.77734"
           y="278.77427"
           id="tspan2"><tspan
             style="font-weight:600;font-family:'New York Extra Large';-inkscape-font-specification:'New York Extra Large Semi-Bold'"
             id="tspan1">4</tspan></tspan></text><text
         xml:space="preserve"
         transform="matrix(-0.26458333,0,0,-0.26458333,189.53068,166.01846)"
         id="text2-7-4"
         style="font-style:normal;font-weight:normal;font-size:40px;line-height:1.25;font-family:sans-serif;white-space:pre;shape-inside:url(#rect2-1-0);display:inline;fill:#000000;fill-opacity:1;stroke:none"><tspan
           x="208.77734"
           y="278.77427"
           id="tspan4"><tspan
             style="font-weight:600;font-family:'New York Extra Large';-inkscape-font-specification:'New York Extra Large Semi-Bold'"
             id="tspan3">4</tspan></tspan></text></g></g></svg>
