<?xml version="1.0" encoding="UTF-8" standalone="no"?>
<!-- Created with Inkscape (http://www.inkscape.org/) -->

<svg
   width="40.424mm"
   height="56.424mm"
   viewBox="0 0 40.424 56.424"
   version="1.1"
   id="svg1"
   xml:space="preserve"
   xmlns="http://www.w3.org/2000/svg"
   xmlns:svg="http://www.w3.org/2000/svg"><defs
     id="defs1"><rect
       x="208.77827"
       y="241.85934"
       width="88.951309"
       height="72.043205"
       id="rect2-6" /><rect
       x="208.77827"
       y="241.85934"
       width="88.951309"
       height="72.043205"
       id="rect2-1-0" /></defs><g
     id="layer1"
     transform="translate(-97.757983,-47.384604)"><g
       id="g7"
       style="stroke:#000000;stroke-opacity:1"><path
         style="fill:#ffffff;fill-opacity:1;stroke:#ff0f0f;stroke-width:0.423998;stroke-opacity:1"
         id="rect1-8"
         width="40"
         height="56"
         x="40.845924"
         y="73.133659"
         transform="translate(57.124058,-25.537058)"
         d="m 46.845924,73.133659 h 28 a 6,6 45 0 1 6,6 v 44.000001 a 6,6 135 0 1 -6,6 h -28 a 6,6 45 0 1 -6,-6 V 79.133659 a 6,6 135 0 1 6,-6 z" /><text
         xml:space="preserve"
         transform="matrix(0.26458333,0,0,0.26458333,46.409291,-14.825267)"
         id="text2-5"
         style="font-style:normal;font-weight:normal;font-size:40px;line-height:1.25;font-family:sans-serif;white-space:pre;shape-inside:url(#rect2-6);display:inline;fill:#ff0f0f;fill-opacity:1;stroke:#ff0f0f;stroke-opacity:1"><tspan
           x="208.77734"
           y="278.77427"
           id="tspan2"><tspan
             style="font-weight:600;font-family:'New York Extra Large';-inkscape-font-specification:'New York Extra Large Semi-Bold'"
             id="tspan1">4</tspan></tspan></text><text
         xml:space="preserve"
         transform="matrix(-0.26458333,0,0,-0.26458333,189.53068,166.01846)"
         id="text2-7-4"
         style="font-style:normal;font-weight:normal;font-size:40px;line-height:1.25;font-family:sans-serif;white-space:pre;shape-inside:url(#rect2-1-0);display:inline;fill:#ff0f0f;fill-opacity:1;stroke:#ff0f0f;stroke-opacity:1"><tspan
           x="208.77734"
           y="278.77427"
           id="tspan4"><tspan
             style="font-weight:600;font-family:'New York Extra Large';-inkscape-font-specification:'New York Extra Large Semi-Bold'"
             id="tspan3">4</tspan></tspan></text><path
         d="m 111.38797,71.257995 c -0.0156,-0.01558 -0.0843,-0.198861 -0.15274,-0.40731 -0.25264,-0.76956 -0.58405,-1.428203 -1.13035,-2.246458 -0.41837,-0.626636 -0.79647,-1.11762 -1.87395,-2.433452 -1.12248,-1.370778 -1.38428,-1.712348 -1.64824,-2.150455 -0.29992,-0.497775 -0.51479,-1.055308 -0.57985,-1.504558 -0.0286,-0.197725 -0.0245,-0.706271 0.007,-0.881459 0.15432,-0.853816 0.82357,-1.598835 1.69765,-1.889845 0.31138,-0.103667 0.45839,-0.123905 0.89553,-0.123272 0.36422,5.29e-4 0.39943,0.0031 0.58511,0.04255 0.59986,0.12748 1.08371,0.394363 1.49777,0.826148 0.25472,0.265615 0.43042,0.525308 0.6231,0.920965 l 0.11828,0.242888 0.12172,-0.252929 c 0.13844,-0.287664 0.26264,-0.485136 0.4362,-0.693555 0.49594,-0.595538 1.06062,-0.937481 1.747,-1.057901 0.18374,-0.03224 0.63632,-0.04391 0.85106,-0.02195 0.31572,0.03228 0.68608,0.141672 0.97996,0.289432 0.50732,0.255076 0.95354,0.734846 1.16414,1.251672 0.3266,0.801493 0.17608,1.795119 -0.43978,2.903228 -0.35543,0.639521 -0.67942,1.073846 -1.71669,2.301262 -0.92438,1.093839 -1.35368,1.642199 -1.77508,2.267382 -0.54613,0.810216 -0.90443,1.507928 -1.18405,2.305665 -0.0573,0.163594 -0.10978,0.302541 -0.11653,0.308771 -0.0315,0.02906 -0.0801,0.0305 -0.10742,0.0032 z"
         style="fill:#ff0f0f;fill-opacity:1;stroke:#ff0f0f;stroke-width:0.172328;stroke-opacity:1"
         id="path1-2-8-3-6-6" /><path
         d="m 111.38797,91.028348 c -0.0156,-0.01558 -0.0843,-0.198862 -0.15274,-0.407311 -0.25264,-0.769559 -0.58405,-1.428203 -1.13035,-2.246457 -0.41837,-0.626637 -0.79647,-1.117621 -1.87395,-2.433453 -1.12248,-1.370778 -1.38428,-1.712348 -1.64824,-2.150455 -0.29992,-0.497775 -0.51479,-1.055307 -0.57985,-1.504556 -0.0286,-0.197725 -0.0245,-0.706272 0.007,-0.88146 0.15432,-0.853813 0.82357,-1.598839 1.69765,-1.889847 0.31138,-0.103666 0.45839,-0.123902 0.89553,-0.123268 0.36422,5.29e-4 0.39943,0.0035 0.58511,0.04257 0.59986,0.12748 1.08371,0.394357 1.49777,0.826146 0.25472,0.265617 0.43042,0.525311 0.6231,0.920964 l 0.11828,0.242886 0.12172,-0.252925 c 0.13844,-0.287668 0.26264,-0.485138 0.4362,-0.693554 0.49594,-0.595537 1.06062,-0.93748 1.747,-1.057901 0.18374,-0.03226 0.63632,-0.04389 0.85106,-0.02195 0.31572,0.03226 0.68608,0.141671 0.97996,0.289431 0.50732,0.255076 0.95354,0.734846 1.16414,1.251669 0.3266,0.801495 0.17608,1.795118 -0.43978,2.903229 -0.35543,0.639521 -0.67942,1.073846 -1.71669,2.301262 -0.92438,1.093838 -1.35368,1.642199 -1.77508,2.267381 -0.54613,0.810217 -0.90443,1.507929 -1.18405,2.305666 -0.0573,0.163594 -0.10978,0.302541 -0.11653,0.308771 -0.0315,0.02906 -0.0801,0.03049 -0.10742,0.0032 z"
         style="fill:#ff0f0f;fill-opacity:1;stroke:#ff0f0f;stroke-width:0.172328;stroke-opacity:1"
         id="path1-2-8-4-7-4" /><path
         d="m 124.45075,59.63567 c -0.0156,0.01558 -0.0843,0.198861 -0.15274,0.40731 -0.25264,0.76956 -0.58405,1.428203 -1.13035,2.246458 -0.41837,0.626636 -0.79647,1.11762 -1.87395,2.433452 -1.12248,1.370778 -1.38428,1.712348 -1.64824,2.150455 -0.29992,0.497775 -0.51479,1.055308 -0.57985,1.504558 -0.0286,0.197725 -0.0245,0.706271 0.007,0.881459 0.15432,0.853816 0.82357,1.598835 1.69765,1.889845 0.31138,0.103667 0.45839,0.123905 0.89553,0.123272 0.36422,-5.29e-4 0.39943,-0.0031 0.58511,-0.04255 0.59986,-0.12748 1.08371,-0.394363 1.49777,-0.826148 0.25472,-0.265615 0.43042,-0.525308 0.6231,-0.920965 l 0.11828,-0.242888 0.12172,0.252929 c 0.13844,0.287664 0.26264,0.485136 0.4362,0.693555 0.49594,0.595538 1.06062,0.937481 1.747,1.057901 0.18374,0.03224 0.63632,0.04391 0.85106,0.02195 0.31572,-0.03228 0.68608,-0.141672 0.97996,-0.289432 0.50732,-0.255076 0.95354,-0.734846 1.16414,-1.251672 0.3266,-0.801493 0.17608,-1.795119 -0.43978,-2.903228 -0.35543,-0.639521 -0.67942,-1.073846 -1.71669,-2.301262 -0.92438,-1.093839 -1.35368,-1.642199 -1.77508,-2.267382 -0.54613,-0.810216 -0.90443,-1.507928 -1.18405,-2.305665 -0.0573,-0.163594 -0.10978,-0.302541 -0.11653,-0.308771 -0.0315,-0.02906 -0.0801,-0.0305 -0.10742,-0.0032 z"
         style="fill:#ff0f0f;fill-opacity:1;stroke:#ff0f0f;stroke-width:0.172328;stroke-opacity:1"
         id="path1-2-8-3-6-6-2" /><path
         d="m 124.45075,79.406066 c -0.0156,0.01558 -0.0843,0.198862 -0.15274,0.407311 -0.25264,0.769559 -0.58405,1.428203 -1.13035,2.246457 -0.41837,0.626637 -0.79647,1.117621 -1.87395,2.433453 -1.12248,1.370778 -1.38428,1.712348 -1.64824,2.150455 -0.29992,0.497775 -0.51479,1.055307 -0.57985,1.504556 -0.0286,0.197725 -0.0245,0.706272 0.007,0.88146 0.15432,0.853813 0.82357,1.598839 1.69765,1.889847 0.31138,0.103666 0.45839,0.123902 0.89553,0.123268 0.36422,-5.29e-4 0.39943,-0.0035 0.58511,-0.04257 0.59986,-0.12748 1.08371,-0.394357 1.49777,-0.826146 0.25472,-0.265617 0.43042,-0.525311 0.6231,-0.920964 l 0.11828,-0.242886 0.12172,0.252925 c 0.13844,0.287668 0.26264,0.485138 0.4362,0.693554 0.49594,0.595537 1.06062,0.93748 1.747,1.057901 0.18374,0.03226 0.63632,0.04389 0.85106,0.02195 0.31572,-0.03226 0.68608,-0.141671 0.97996,-0.289431 0.50732,-0.255076 0.95354,-0.734846 1.16414,-1.251669 0.3266,-0.801495 0.17608,-1.795118 -0.43978,-2.903229 -0.35543,-0.639521 -0.67942,-1.073846 -1.71669,-2.301262 -0.92438,-1.093838 -1.35368,-1.642199 -1.77508,-2.267381 -0.54613,-0.810217 -0.90443,-1.507929 -1.18405,-2.305666 -0.0573,-0.163594 -0.10978,-0.302541 -0.11653,-0.308771 -0.0315,-0.02906 -0.0801,-0.03049 -0.10742,-0.0032 z"
         style="fill:#ff0f0f;fill-opacity:1;stroke:#ff0f0f;stroke-width:0.172328;stroke-opacity:1"
         id="path1-2-8-4-7-4-4" /></g></g></svg>
