<?xml version="1.0" encoding="UTF-8" standalone="no"?>
<!-- Created with Inkscape (http://www.inkscape.org/) -->

<svg
   width="40.423992mm"
   height="56.424004mm"
   viewBox="0 0 40.423992 56.424004"
   version="1.1"
   id="svg1"
   xml:space="preserve"
   xmlns="http://www.w3.org/2000/svg"
   xmlns:svg="http://www.w3.org/2000/svg"><defs
     id="defs1"><rect
       x="208.77827"
       y="241.85934"
       width="88.951309"
       height="72.043205"
       id="rect2-6-7-6-1" /><rect
       x="208.77827"
       y="241.85934"
       width="88.951309"
       height="72.043205"
       id="rect2-1-0-5-1-0" /></defs><g
     id="layer1"
     transform="translate(-54.350633,-109.73367)"><g
       id="g10"
       transform="translate(-44.423632,49.998657)"
       style="stroke:#000000;stroke-opacity:1"><path
         style="fill:#ffffff;fill-opacity:1;stroke:#ff0f0f;stroke-width:0.423998;stroke-opacity:1"
         id="rect1-8-5-5-8"
         width="40"
         height="56"
         x="40.845924"
         y="73.133659"
         transform="translate(58.140337,-13.186651)"
         d="m 46.845924,73.133659 h 28 a 6,6 45 0 1 6,6 v 44.000001 a 6,6 135 0 1 -6,6 h -28 a 6,6 45 0 1 -6,-6 V 79.133659 a 6,6 135 0 1 6,-6 z" /><text
         xml:space="preserve"
         transform="matrix(0.26458333,0,0,0.26458333,47.42557,-2.4748627)"
         id="text2-5-5-3-0"
         style="font-style:normal;font-weight:normal;font-size:40px;line-height:1.25;font-family:sans-serif;white-space:pre;shape-inside:url(#rect2-6-7-6-1);display:inline;fill:#ff0f0f;fill-opacity:1;stroke:#ff0f0f;stroke-opacity:1"><tspan
           x="208.77734"
           y="278.77427"
           id="tspan2"><tspan
             style="font-weight:600;font-family:'New York Extra Large';-inkscape-font-specification:'New York Extra Large Semi-Bold'"
             id="tspan1">7</tspan></tspan></text><text
         xml:space="preserve"
         transform="matrix(-0.26458333,0,0,-0.26458333,190.54696,178.36889)"
         id="text2-7-4-1-5-7"
         style="font-style:normal;font-weight:normal;font-size:40px;line-height:1.25;font-family:sans-serif;white-space:pre;shape-inside:url(#rect2-1-0-5-1-0);display:inline;fill:#ff0f0f;fill-opacity:1;stroke:#ff0f0f;stroke-opacity:1"><tspan
           x="208.77734"
           y="278.77427"
           id="tspan4"><tspan
             style="font-weight:600;font-family:'New York Extra Large';-inkscape-font-specification:'New York Extra Large Semi-Bold'"
             id="tspan3">7</tspan></tspan></text><path
         d="m 113.53586,94.691991 c -0.661,-1.169609 -1.52837,-2.484227 -2.5591,-3.878696 -0.2296,-0.310617 -0.74072,-0.98485 -0.90694,-1.196365 l -0.0663,-0.08448 0.18916,-0.255107 c 1.25263,-1.689354 2.40407,-3.376416 3.24532,-4.755014 0.1014,-0.166163 0.18872,-0.297083 0.19405,-0.290935 0.005,0.0062 0.12855,0.210678 0.27384,0.45451 0.9296,1.560138 2.04358,3.187325 3.15301,4.605583 0.1626,0.207858 0.18641,0.244565 0.1708,0.263226 -0.90936,1.087169 -1.79001,2.313409 -2.63732,3.672243 -0.24216,0.388348 -0.60267,0.99045 -0.8005,1.336919 -0.0827,0.144776 -0.15425,0.267889 -0.15909,0.273583 -0.004,0.0057 -0.0484,-0.05977 -0.0968,-0.145467 z"
         style="fill:#ff0f0f;fill-opacity:1;stroke:none;stroke-width:0.157094;stroke-opacity:1"
         id="path1-9-9-7-5-6-60" /><path
         d="m 113.53586,107.11176 c -0.661,-1.1696 -1.52837,-2.48423 -2.5591,-3.8787 -0.2296,-0.31062 -0.74072,-0.98486 -0.90694,-1.19638 l -0.0663,-0.0845 0.18916,-0.2551 c 1.25263,-1.68935 2.40407,-3.376416 3.24532,-4.755014 0.1014,-0.166164 0.18872,-0.297084 0.19405,-0.290936 0.005,0.0062 0.12855,0.210679 0.27384,0.454511 0.9296,1.560138 2.04358,3.187329 3.15301,4.605579 0.1626,0.20786 0.18641,0.24457 0.1708,0.26323 -0.90936,1.08718 -1.79001,2.31343 -2.63732,3.67225 -0.24216,0.38835 -0.60267,0.99046 -0.8005,1.33692 -0.0827,0.14478 -0.15425,0.26789 -0.15909,0.27359 -0.004,0.006 -0.0484,-0.0598 -0.0968,-0.14547 z"
         style="fill:#ff0f0f;fill-opacity:1;stroke:none;stroke-width:0.157094;stroke-opacity:1"
         id="path1-9-9-7-5-9-0-4" /><path
         d="m 118.92328,86.798583 c -0.66101,-1.16961 -1.52837,-2.484227 -2.5591,-3.878696 -0.2296,-0.310618 -0.74072,-0.98485 -0.90694,-1.196365 l -0.0664,-0.08448 0.18916,-0.255107 c 1.25263,-1.689353 2.40405,-3.376415 3.24532,-4.755014 0.1014,-0.166163 0.18872,-0.297083 0.19404,-0.290935 0.005,0.0062 0.12856,0.210678 0.27384,0.454511 0.9296,1.560137 2.04359,3.187324 3.15301,4.605582 0.1626,0.207859 0.18641,0.244565 0.17081,0.263226 -0.90936,1.087169 -1.79002,2.31341 -2.63733,3.672243 -0.24215,0.388348 -0.60267,0.99045 -0.8005,1.33692 -0.0827,0.144775 -0.15425,0.267888 -0.15909,0.273583 -0.004,0.0057 -0.0484,-0.05977 -0.0968,-0.145467 z"
         style="fill:#ff0f0f;fill-opacity:1;stroke:none;stroke-width:0.157094;stroke-opacity:1"
         id="path1-9-9-7-0-8-2-0" /><path
         d="m 113.57526,79.097234 c -0.661,-1.169609 -1.52837,-2.484227 -2.5591,-3.878696 -0.2296,-0.310617 -0.74072,-0.98485 -0.90694,-1.196365 l -0.0663,-0.08448 0.18916,-0.255107 c 1.25263,-1.689353 2.40407,-3.376415 3.24532,-4.755013 0.1014,-0.166164 0.18872,-0.297084 0.19405,-0.290936 0.005,0.0062 0.12855,0.210678 0.27384,0.454511 0.9296,1.560138 2.04358,3.187324 3.15301,4.605582 0.1626,0.207859 0.18641,0.244566 0.1708,0.263226 -0.90936,1.087169 -1.79001,2.31341 -2.63732,3.672243 -0.24216,0.388348 -0.60267,0.99045 -0.8005,1.33692 -0.0827,0.144776 -0.15425,0.267888 -0.15909,0.273583 -0.004,0.0057 -0.0484,-0.05977 -0.0968,-0.145467 z"
         style="fill:#ff0f0f;fill-opacity:1;stroke:none;stroke-width:0.157094;stroke-opacity:1"
         id="path1-9-9-7-0-89" /><path
         d="m 124.2712,79.097236 c -0.66101,-1.16961 -1.52837,-2.484227 -2.5591,-3.878696 -0.2296,-0.310618 -0.74072,-0.98485 -0.90694,-1.196365 l -0.0664,-0.08448 0.18916,-0.255107 c 1.25263,-1.689353 2.40405,-3.376415 3.24532,-4.755014 0.1014,-0.166163 0.18872,-0.297083 0.19404,-0.290935 0.005,0.0062 0.12856,0.210678 0.27384,0.454511 0.9296,1.560137 2.04359,3.187324 3.15301,4.605582 0.1626,0.207859 0.18641,0.244565 0.17081,0.263226 -0.90936,1.087169 -1.79002,2.31341 -2.63733,3.672243 -0.24215,0.388348 -0.60267,0.99045 -0.8005,1.33692 -0.0827,0.144775 -0.15425,0.267888 -0.15909,0.273583 -0.004,0.0057 -0.0484,-0.05977 -0.0968,-0.145467 z"
         style="fill:#ff0f0f;fill-opacity:1;stroke:none;stroke-width:0.157094;stroke-opacity:1"
         id="path1-9-9-7-0-8-2" /><path
         d="m 124.2318,94.691993 c -0.66101,-1.169609 -1.52837,-2.484227 -2.5591,-3.878696 -0.2296,-0.310617 -0.74072,-0.98485 -0.90694,-1.196365 l -0.0664,-0.08448 0.18916,-0.255106 c 1.25263,-1.689354 2.40405,-3.376416 3.24532,-4.755014 0.1014,-0.166164 0.18872,-0.297084 0.19404,-0.290936 0.005,0.0062 0.12856,0.210679 0.27384,0.454511 0.9296,1.560138 2.04359,3.187325 3.15301,4.605582 0.1626,0.207859 0.18641,0.244566 0.17081,0.263226 -0.90936,1.08717 -1.79002,2.31341 -2.63733,3.672244 -0.24215,0.388348 -0.60267,0.99045 -0.8005,1.336919 -0.0827,0.144776 -0.15425,0.267889 -0.15909,0.273583 -0.004,0.0057 -0.0484,-0.05977 -0.0968,-0.145467 z"
         style="fill:#ff0f0f;fill-opacity:1;stroke:none;stroke-width:0.157094;stroke-opacity:1"
         id="path1-9-9-7-5-6-6-3" /><path
         d="m 124.2318,107.11177 c -0.66101,-1.16961 -1.52837,-2.48423 -2.5591,-3.87871 -0.2296,-0.31062 -0.74072,-0.98485 -0.90694,-1.19637 l -0.0664,-0.0845 0.18916,-0.25511 c 1.25263,-1.68935 2.40405,-3.376415 3.24532,-4.755013 0.1014,-0.166164 0.18872,-0.297084 0.19404,-0.290936 0.005,0.0062 0.12856,0.210678 0.27384,0.454511 0.9296,1.560137 2.04359,3.187328 3.15301,4.605588 0.1626,0.20786 0.18641,0.24456 0.17081,0.26322 -0.90936,1.08718 -1.79002,2.31343 -2.63733,3.67226 -0.24215,0.38834 -0.60267,0.99045 -0.8005,1.33692 -0.0827,0.14477 -0.15425,0.26788 -0.15909,0.27358 -0.004,0.006 -0.0484,-0.0598 -0.0968,-0.14546 z"
         style="fill:#ff0f0f;fill-opacity:1;stroke:none;stroke-width:0.157094;stroke-opacity:1"
         id="path1-9-9-7-5-9-0-7-3" /></g></g></svg>
