<?xml version="1.0" encoding="UTF-8" standalone="no"?>
<!-- Created with Inkscape (http://www.inkscape.org/) -->

<svg
   width="40.424mm"
   height="56.424004mm"
   viewBox="0 0 40.424 56.424004"
   version="1.1"
   id="svg1"
   xml:space="preserve"
   xmlns="http://www.w3.org/2000/svg"
   xmlns:svg="http://www.w3.org/2000/svg"><defs
     id="defs1"><rect
       x="208.77827"
       y="241.85934"
       width="88.951309"
       height="72.043205"
       id="rect2-6-7-6-1-3" /><rect
       x="208.77827"
       y="241.85934"
       width="88.951309"
       height="72.043205"
       id="rect2-1-0-5-1-0-3" /></defs><g
     id="layer1"
     transform="translate(-98.98128,-109.21457)"><g
       id="g12"
       transform="translate(44.949502,50.329462)"
       style="stroke:#000000;stroke-opacity:1"><path
         style="fill:#ffffff;fill-opacity:1;stroke:#ff0f0f;stroke-width:0.423998;stroke-opacity:1"
         id="rect1-8-5-5-8-7"
         width="40"
         height="56"
         x="40.845924"
         y="73.133659"
         transform="translate(13.397851,-14.036546)"
         d="m 46.845924,73.133659 h 28 a 6,6 45 0 1 6,6 v 44.000001 a 6,6 135 0 1 -6,6 h -28 a 6,6 45 0 1 -6,-6 V 79.133659 a 6,6 135 0 1 6,-6 z" /><text
         xml:space="preserve"
         transform="matrix(0.26458333,0,0,0.26458333,2.683084,-3.3247578)"
         id="text2-5-5-3-0-1"
         style="font-style:normal;font-weight:normal;font-size:40px;line-height:1.25;font-family:sans-serif;white-space:pre;shape-inside:url(#rect2-6-7-6-1-3);display:inline;fill:#ff0f0f;fill-opacity:1;stroke:#ff0f0f;stroke-opacity:1"><tspan
           x="208.77734"
           y="278.77427"
           id="tspan2"><tspan
             style="font-weight:600;font-family:'New York Extra Large';-inkscape-font-specification:'New York Extra Large Semi-Bold'"
             id="tspan1">8</tspan></tspan></text><path
         d="m 69.2343,74.821507 c -0.60974,-1.078891 -1.40982,-2.291543 -2.36061,-3.577853 -0.21179,-0.286524 -0.68327,-0.908461 -0.8366,-1.10357 l -0.0612,-0.07793 0.1745,-0.23532 c 1.15546,-1.558322 2.21759,-3.114529 2.9936,-4.386199 0.0935,-0.153276 0.17409,-0.274041 0.179,-0.268369 0.005,0.0057 0.11858,0.194336 0.2526,0.419256 0.85749,1.439128 1.88507,2.940106 2.90844,4.248359 0.14999,0.191737 0.17196,0.225597 0.15756,0.24281 -0.83883,1.002844 -1.65118,2.133973 -2.43276,3.387412 -0.22338,0.358226 -0.55593,0.913628 -0.73842,1.233224 -0.0763,0.133546 -0.14229,0.24711 -0.14674,0.252363 -0.005,0.0053 -0.0447,-0.05513 -0.0893,-0.134184 z"
         style="fill:#ff0f0f;fill-opacity:1;stroke:none;stroke-width:0.144909;stroke-opacity:1"
         id="path1-9-9-7-0-3" /><path
         d="m 69.2343,86.176817 c -0.60974,-1.078892 -1.40982,-2.291541 -2.36061,-3.577855 -0.21179,-0.286525 -0.68327,-0.908459 -0.8366,-1.103567 l -0.0612,-0.07791 0.1745,-0.235325 c 1.15546,-1.55832 2.21759,-3.114527 2.9936,-4.386197 0.0935,-0.153275 0.17409,-0.274041 0.179,-0.26837 0.005,0.0057 0.11858,0.194338 0.2526,0.419258 0.85749,1.439128 1.88507,2.940105 2.90844,4.248361 0.14999,0.191736 0.17196,0.225597 0.15756,0.242807 -0.83883,1.002844 -1.65118,2.133974 -2.43276,3.387416 -0.22338,0.35822 -0.55593,0.913623 -0.73842,1.233223 -0.0763,0.133539 -0.14229,0.247104 -0.14674,0.252357 -0.005,0.0057 -0.0447,-0.05513 -0.0893,-0.13418 z"
         style="fill:#ff0f0f;fill-opacity:1;stroke:none;stroke-width:0.144909;stroke-opacity:1"
         id="path1-9-9-7-5-6-1" /><path
         d="m 69.2343,97.532182 c -0.60974,-1.078881 -1.40982,-2.291546 -2.36061,-3.57785 -0.21179,-0.286525 -0.68327,-0.908467 -0.8366,-1.103575 l -0.0612,-0.07791 0.1745,-0.235317 c 1.15546,-1.558321 2.21759,-3.114525 2.9936,-4.386198 0.0935,-0.153278 0.17409,-0.274042 0.179,-0.268367 0.005,0.0057 0.11858,0.194337 0.2526,0.419254 0.85749,1.43913 1.88507,2.940104 2.90844,4.248354 0.14999,0.191736 0.17196,0.225597 0.15756,0.242815 -0.83883,1.002845 -1.65118,2.133979 -2.43276,3.387417 -0.22338,0.358225 -0.55593,0.913632 -0.73842,1.233225 -0.0763,0.133539 -0.14229,0.24711 -0.14674,0.252358 -0.005,0.0056 -0.0447,-0.05508 -0.0893,-0.134181 z"
         style="fill:#ff0f0f;fill-opacity:1;stroke:none;stroke-width:0.144909;stroke-opacity:1"
         id="path1-9-9-7-5-9-0-1" /><path
         d="m 79.10062,74.821508 c -0.60973,-1.07889 -1.40982,-2.291542 -2.3606,-3.577852 -0.21179,-0.286524 -0.68327,-0.908462 -0.8366,-1.103571 l -0.0612,-0.07792 0.17449,-0.23532 c 1.15549,-1.558322 2.2176,-3.11453 2.99361,-4.3862 0.0935,-0.153275 0.17408,-0.274041 0.17899,-0.268369 0.005,0.0057 0.11859,0.194337 0.2526,0.419257 0.8575,1.439128 1.88508,2.940106 2.90844,4.248359 0.14999,0.191736 0.17196,0.225595 0.15757,0.242809 -0.83883,1.002845 -1.65119,2.133974 -2.43276,3.387413 -0.22337,0.358226 -0.55593,0.913627 -0.73843,1.233223 -0.0763,0.133546 -0.14228,0.24711 -0.14673,0.252363 -0.004,0.0053 -0.0447,-0.05513 -0.0893,-0.134184 z"
         style="fill:#ff0f0f;fill-opacity:1;stroke:none;stroke-width:0.144909;stroke-opacity:1"
         id="path1-9-9-7-0-8-5" /><path
         d="m 79.10062,86.176819 c -0.60973,-1.078892 -1.40982,-2.291541 -2.3606,-3.577855 -0.21179,-0.286525 -0.68327,-0.908459 -0.8366,-1.103567 l -0.0612,-0.07791 0.17449,-0.235325 c 1.15549,-1.558318 2.2176,-3.114525 2.99361,-4.386196 0.0935,-0.153274 0.17408,-0.27404 0.17899,-0.268369 0.005,0.0057 0.11859,0.194338 0.2526,0.419257 0.8575,1.439129 1.88508,2.940106 2.90844,4.24836 0.14999,0.191736 0.17196,0.225597 0.15757,0.242807 -0.83883,1.002844 -1.65119,2.133974 -2.43276,3.387416 -0.22337,0.358228 -0.55593,0.913623 -0.73843,1.233223 -0.0763,0.133547 -0.14228,0.247112 -0.14673,0.252365 -0.004,0.0057 -0.0447,-0.05512 -0.0893,-0.134188 z"
         style="fill:#ff0f0f;fill-opacity:1;stroke:none;stroke-width:0.144909;stroke-opacity:1"
         id="path1-9-9-7-5-6-6-0" /><path
         d="m 79.10062,97.532196 c -0.60973,-1.07889 -1.40982,-2.291546 -2.3606,-3.577859 -0.21179,-0.286525 -0.68327,-0.908459 -0.8366,-1.103568 l -0.0612,-0.07791 0.17449,-0.235325 c 1.15549,-1.558321 2.2176,-3.114525 2.99361,-4.386198 0.0935,-0.153271 0.17408,-0.274042 0.17899,-0.268367 0.005,0.0057 0.11859,0.194338 0.2526,0.419254 0.8575,1.43913 1.88508,2.940105 2.90844,4.248362 0.14999,0.191737 0.17196,0.225598 0.15757,0.242807 -0.83883,1.002845 -1.65119,2.13398 -2.43276,3.387427 -0.22337,0.358216 -0.55593,0.913623 -0.73843,1.233216 -0.0763,0.133539 -0.14228,0.24711 -0.14673,0.252358 -0.004,0.0056 -0.0447,-0.05508 -0.0893,-0.134181 z"
         style="fill:#ff0f0f;fill-opacity:1;stroke:none;stroke-width:0.144909;stroke-opacity:1"
         id="path1-9-9-7-5-9-0-7-8" /><path
         d="m 69.2343,108.88753 c -0.60974,-1.07888 -1.40982,-2.29154 -2.36061,-3.57785 -0.21179,-0.28652 -0.68327,-0.90846 -0.8366,-1.10357 l -0.0612,-0.0779 0.1745,-0.23532 c 1.15546,-1.55832 2.21759,-3.11452 2.9936,-4.386204 0.0935,-0.15327 0.17409,-0.27404 0.179,-0.26836 0.005,0.006 0.11858,0.19433 0.2526,0.41925 0.85749,1.439134 1.88507,2.940104 2.90844,4.248354 0.14999,0.19174 0.17196,0.2256 0.15756,0.24282 -0.83883,1.00284 -1.65118,2.13398 -2.43276,3.38742 -0.22338,0.35822 -0.55593,0.91363 -0.73842,1.23322 -0.0763,0.13354 -0.14229,0.24711 -0.14674,0.25236 -0.005,0.006 -0.0447,-0.0551 -0.0893,-0.13418 z"
         style="fill:#ff0f0f;fill-opacity:1;stroke:none;stroke-width:0.144909;stroke-opacity:1"
         id="path1-9-9-7-5-9-0-1-5" /><path
         d="m 79.10062,108.88754 c -0.60973,-1.07889 -1.40982,-2.29154 -2.3606,-3.57786 -0.21179,-0.28652 -0.68327,-0.90846 -0.8366,-1.10356 l -0.0612,-0.0779 0.17449,-0.23533 c 1.15549,-1.55832 2.2176,-3.11452 2.99361,-4.386204 0.0935,-0.15327 0.17408,-0.27404 0.17899,-0.26836 0.005,0.006 0.11859,0.19433 0.2526,0.41925 0.8575,1.439134 1.88508,2.940104 2.90844,4.248364 0.14999,0.19174 0.17196,0.2256 0.15757,0.24281 -0.83883,1.00284 -1.65119,2.13398 -2.43276,3.38743 -0.22337,0.35821 -0.55593,0.91362 -0.73843,1.23321 -0.0763,0.13354 -0.14228,0.24711 -0.14673,0.25236 -0.004,0.006 -0.0447,-0.0551 -0.0893,-0.13418 z"
         style="fill:#ff0f0f;fill-opacity:1;stroke:none;stroke-width:0.144909;stroke-opacity:1"
         id="path1-9-9-7-5-9-0-7-8-2" /><text
         xml:space="preserve"
         transform="matrix(-0.26458333,0,0,-0.26458333,145.80447,177.51899)"
         id="text2-7-4-1-5-7-5"
         style="font-style:normal;font-weight:normal;font-size:40px;line-height:1.25;font-family:sans-serif;white-space:pre;shape-inside:url(#rect2-1-0-5-1-0-3);display:inline;fill:#ff0f0f;fill-opacity:1;stroke:#ff0f0f;stroke-opacity:1"><tspan
           x="208.77734"
           y="278.77427"
           id="tspan4"><tspan
             style="font-weight:600;font-family:'New York Extra Large';-inkscape-font-specification:'New York Extra Large Semi-Bold'"
             id="tspan3">8</tspan></tspan></text></g></g></svg>
