<?xml version="1.0" encoding="UTF-8" standalone="no"?>
<!-- Created with Inkscape (http://www.inkscape.org/) -->

<svg
   width="40.424mm"
   height="56.424004mm"
   viewBox="0 0 40.424 56.424004"
   version="1.1"
   id="svg1"
   xml:space="preserve"
   xmlns="http://www.w3.org/2000/svg"
   xmlns:svg="http://www.w3.org/2000/svg"><defs
     id="defs1"><rect
       x="208.77827"
       y="241.85934"
       width="88.951309"
       height="72.043205"
       id="rect2-6-7-6-1-3" /><rect
       x="208.77827"
       y="241.85934"
       width="88.951309"
       height="72.043205"
       id="rect2-1-0-5-1-0-3" /></defs><g
     id="layer1"
     transform="translate(-98.98128,-109.21457)"><g
       id="g12"
       transform="translate(44.949502,50.329462)"
       style="stroke:#000000;stroke-opacity:1"><path
         style="fill:#ffffff;fill-opacity:1;stroke:#ff0f0f;stroke-width:0.423998;stroke-opacity:1"
         id="rect1-8-5-5-8-7"
         width="40"
         height="56"
         x="40.845924"
         y="73.133659"
         transform="translate(13.397851,-14.036546)"
         d="m 46.845924,73.133659 h 28 a 6,6 45 0 1 6,6 v 44.000001 a 6,6 135 0 1 -6,6 h -28 a 6,6 45 0 1 -6,-6 V 79.133659 a 6,6 135 0 1 6,-6 z" /><text
         xml:space="preserve"
         transform="matrix(0.26458333,0,0,0.26458333,2.683084,-3.3247578)"
         id="text2-5-5-3-0-1"
         style="font-style:normal;font-weight:normal;font-size:40px;line-height:1.25;font-family:sans-serif;white-space:pre;shape-inside:url(#rect2-6-7-6-1-3);display:inline;fill:#ff0f0f;fill-opacity:1;stroke:#ff0f0f;stroke-opacity:1"><tspan
           x="208.77734"
           y="278.77427"
           id="tspan2"><tspan
             style="font-weight:600;font-family:'New York Extra Large';-inkscape-font-specification:'New York Extra Large Semi-Bold'"
             id="tspan1">8</tspan></tspan></text><text
         xml:space="preserve"
         transform="matrix(-0.26458333,0,0,-0.26458333,145.80447,177.51899)"
         id="text2-7-4-1-5-7-5"
         style="font-style:normal;font-weight:normal;font-size:40px;line-height:1.25;font-family:sans-serif;white-space:pre;shape-inside:url(#rect2-1-0-5-1-0-3);display:inline;fill:#ff0f0f;fill-opacity:1;stroke:#ff0f0f;stroke-opacity:1"><tspan
           x="208.77734"
           y="278.77427"
           id="tspan4"><tspan
             style="font-weight:600;font-family:'New York Extra Large';-inkscape-font-specification:'New York Extra Large Semi-Bold'"
             id="tspan3">8</tspan></tspan></text><path
         d="m 114.22139,127.13601 c -0.01,-0.01 -0.0532,-0.12559 -0.0965,-0.25725 -0.15956,-0.48604 -0.36888,-0.90203 -0.71392,-1.41883 -0.26423,-0.39577 -0.50303,-0.70587 -1.18355,-1.53693 -0.70895,-0.86576 -0.87429,-1.08149 -1.04101,-1.35819 -0.18941,-0.31438 -0.32512,-0.6665 -0.36622,-0.95024 -0.0181,-0.12488 -0.0155,-0.44607 0.004,-0.55672 0.0975,-0.53926 0.52015,-1.0098 1.07221,-1.1936 0.19666,-0.0655 0.28951,-0.0782 0.5656,-0.0778 0.23003,3.4e-4 0.25227,0.002 0.36954,0.0269 0.37886,0.0805 0.68446,0.24906 0.94598,0.52178 0.16087,0.16775 0.27183,0.33177 0.39353,0.58166 l 0.0747,0.1534 0.0769,-0.15974 c 0.0874,-0.18168 0.16588,-0.3064 0.2755,-0.43804 0.31322,-0.37613 0.66987,-0.59209 1.10337,-0.66815 0.11605,-0.0203 0.40189,-0.0277 0.53752,-0.0139 0.1994,0.0204 0.43331,0.0895 0.61893,0.1828 0.32041,0.1611 0.60223,0.46411 0.73524,0.79053 0.20628,0.50621 0.11121,1.13377 -0.27775,1.83362 -0.22449,0.40392 -0.42911,0.67822 -1.08423,1.45344 -0.58382,0.69086 -0.85497,1.0372 -1.12112,1.43206 -0.34493,0.51171 -0.57122,0.95237 -0.74782,1.45621 -0.0362,0.10333 -0.0694,0.19108 -0.0736,0.19501 -0.0199,0.0183 -0.0506,0.0193 -0.0678,0.002 z"
         style="fill:#ff0f0f;fill-opacity:1;stroke:#ff0f0f;stroke-width:0.10884;stroke-opacity:1"
         id="path1-2-8-3-0-4"
         transform="translate(-44.949502,-50.329462)" /><path
         d="m 114.22139,136.44713 c -0.01,-0.01 -0.0532,-0.12559 -0.0965,-0.25725 -0.15956,-0.48604 -0.36888,-0.90202 -0.71392,-1.41883 -0.26423,-0.39576 -0.50303,-0.70586 -1.18355,-1.53692 -0.70895,-0.86576 -0.87429,-1.0815 -1.04101,-1.35819 -0.18941,-0.31439 -0.32512,-0.66651 -0.36622,-0.95026 -0.0181,-0.12488 -0.0155,-0.44606 0.004,-0.55671 0.0975,-0.53925 0.52015,-1.0098 1.07221,-1.19359 0.19666,-0.0655 0.28951,-0.0783 0.5656,-0.0778 0.23003,3.4e-4 0.25227,0.002 0.36954,0.0268 0.37886,0.0806 0.68446,0.24907 0.94598,0.52178 0.16087,0.16776 0.27183,0.33177 0.39353,0.58167 l 0.0747,0.1534 0.0769,-0.15975 c 0.0874,-0.18167 0.16588,-0.3064 0.2755,-0.43803 0.31322,-0.37614 0.66987,-0.5921 1.10337,-0.66816 0.11605,-0.0203 0.40189,-0.0277 0.53752,-0.0138 0.1994,0.0204 0.43331,0.0895 0.61893,0.18279 0.32041,0.16111 0.60223,0.46413 0.73524,0.79053 0.20628,0.50622 0.11121,1.13377 -0.27775,1.83364 -0.22449,0.40391 -0.42911,0.67822 -1.08423,1.45343 -0.58382,0.69086 -0.85497,1.03719 -1.12112,1.43205 -0.34493,0.51172 -0.57122,0.95238 -0.74782,1.45622 -0.0362,0.10332 -0.0694,0.19108 -0.0736,0.19501 -0.0199,0.0183 -0.0506,0.0193 -0.0678,0.002 z"
         style="fill:#ff0f0f;fill-opacity:1;stroke:#ff0f0f;stroke-width:0.10884;stroke-opacity:1"
         id="path1-2-8-3-6-9-0"
         transform="translate(-44.949502,-50.329462)" /><path
         d="m 114.22139,145.75233 c -0.01,-0.01 -0.0532,-0.1256 -0.0965,-0.25724 -0.15956,-0.48604 -0.36888,-0.90204 -0.71392,-1.41884 -0.26423,-0.39576 -0.50303,-0.70586 -1.18355,-1.53692 -0.70895,-0.86576 -0.87429,-1.0815 -1.04101,-1.3582 -0.18941,-0.31438 -0.32512,-0.66651 -0.36622,-0.95025 -0.0181,-0.12488 -0.0155,-0.44607 0.004,-0.55671 0.0975,-0.53926 0.52015,-1.00981 1.07221,-1.1936 0.19666,-0.0655 0.28951,-0.0782 0.5656,-0.0778 0.23003,3.4e-4 0.25227,0.002 0.36954,0.0269 0.37886,0.0805 0.68446,0.24907 0.94598,0.52178 0.16087,0.16776 0.27183,0.33178 0.39353,0.58167 l 0.0747,0.1534 0.0769,-0.15975 c 0.0874,-0.18168 0.16588,-0.30639 0.2755,-0.43803 0.31322,-0.37613 0.66987,-0.5921 1.10337,-0.66816 0.11605,-0.0204 0.40189,-0.0277 0.53752,-0.0139 0.1994,0.0204 0.43331,0.0895 0.61893,0.1828 0.32041,0.16111 0.60223,0.46412 0.73524,0.79053 0.20628,0.50622 0.11121,1.13378 -0.27775,1.83363 -0.22449,0.40392 -0.42911,0.67822 -1.08423,1.45344 -0.58382,0.69085 -0.85497,1.03719 -1.12112,1.43205 -0.34493,0.51172 -0.57122,0.95238 -0.74782,1.45622 -0.0362,0.10332 -0.0694,0.19108 -0.0736,0.19501 -0.0199,0.0183 -0.0506,0.0192 -0.0678,0.002 z"
         style="fill:#ff0f0f;fill-opacity:1;stroke:#ff0f0f;stroke-width:0.10884;stroke-opacity:1"
         id="path1-2-8-4-7-3-5"
         transform="translate(-44.949502,-50.329462)" /><path
         d="m 114.46241,155.05747 c -0.01,-0.01 -0.0532,-0.1256 -0.0965,-0.25724 -0.15956,-0.48604 -0.36888,-0.90204 -0.71392,-1.41884 -0.26423,-0.39576 -0.50303,-0.70586 -1.18355,-1.53692 -0.70895,-0.86576 -0.87429,-1.0815 -1.04101,-1.3582 -0.18941,-0.31438 -0.32512,-0.66651 -0.36622,-0.95025 -0.0181,-0.12488 -0.0155,-0.44607 0.004,-0.55671 0.0975,-0.53926 0.52015,-1.00981 1.07221,-1.1936 0.19666,-0.0655 0.28951,-0.0782 0.5656,-0.0778 0.23003,3.4e-4 0.25227,0.002 0.36954,0.0269 0.37886,0.0805 0.68446,0.24907 0.94598,0.52178 0.16087,0.16776 0.27183,0.33178 0.39353,0.58167 l 0.0747,0.1534 0.0769,-0.15975 c 0.0874,-0.18168 0.16588,-0.30639 0.2755,-0.43803 0.31322,-0.37613 0.66987,-0.5921 1.10337,-0.66816 0.11605,-0.0204 0.40189,-0.0277 0.53752,-0.0139 0.1994,0.0204 0.43331,0.0895 0.61893,0.1828 0.32041,0.16111 0.60223,0.46412 0.73524,0.79053 0.20628,0.50622 0.11121,1.13378 -0.27775,1.83363 -0.22449,0.40392 -0.42911,0.67822 -1.08423,1.45344 -0.58382,0.69085 -0.85497,1.03719 -1.12112,1.43205 -0.34493,0.51172 -0.57122,0.95238 -0.74782,1.45622 -0.0362,0.10332 -0.0694,0.19108 -0.0736,0.19501 -0.0199,0.0183 -0.0506,0.0192 -0.0678,0.002 z"
         style="fill:#ff0f0f;fill-opacity:1;stroke:#ff0f0f;stroke-width:0.10884;stroke-opacity:1"
         id="path1-2-8-4-7-3-5-0"
         transform="translate(-44.949502,-50.329462)" /><path
         d="m 123.86072,119.80154 c -0.01,0.01 -0.0532,0.12559 -0.0965,0.25724 -0.15955,0.48605 -0.36888,0.90204 -0.71391,1.41883 -0.26424,0.39578 -0.50303,0.70587 -1.18356,1.53692 -0.70894,0.86577 -0.87428,1.0815 -1.041,1.35819 -0.18941,0.31439 -0.32513,0.66651 -0.36622,0.95026 -0.0181,0.12488 -0.0155,0.44607 0.004,0.55671 0.0975,0.53926 0.52015,1.00981 1.0722,1.1936 0.19667,0.0655 0.28951,0.0783 0.5656,0.0779 0.23004,-3.4e-4 0.25228,-0.002 0.36955,-0.0269 0.37886,-0.0805 0.68445,-0.24907 0.94597,-0.52179 0.16087,-0.16775 0.27184,-0.33177 0.39354,-0.58165 l 0.0747,-0.15341 0.0769,0.15975 c 0.0874,0.18168 0.16588,0.3064 0.27549,0.43803 0.31323,0.37613 0.66988,0.59209 1.10338,0.66815 0.11605,0.0203 0.40189,0.0277 0.53752,0.0139 0.1994,-0.0204 0.43331,-0.0895 0.61892,-0.1828 0.32042,-0.1611 0.60224,-0.46412 0.73525,-0.79054 0.20627,-0.5062 0.11122,-1.13377 -0.27776,-1.83363 -0.22448,-0.40391 -0.42911,-0.67822 -1.08422,-1.45344 -0.58383,-0.69084 -0.85497,-1.03718 -1.12112,-1.43203 -0.34493,-0.51172 -0.57122,-0.95239 -0.74782,-1.45622 -0.0362,-0.10332 -0.0694,-0.19108 -0.0736,-0.19501 -0.0199,-0.0183 -0.0506,-0.0193 -0.0678,-0.002 z"
         style="fill:#ff0f0f;fill-opacity:1;stroke:#ff0f0f;stroke-width:0.10884;stroke-opacity:1"
         id="path1-2-8-3-0-7-7"
         transform="translate(-44.949502,-50.329462)" /><path
         d="m 123.86072,129.10678 c -0.01,0.01 -0.0532,0.1256 -0.0965,0.25725 -0.15955,0.48604 -0.36888,0.90202 -0.71391,1.41883 -0.26424,0.39577 -0.50303,0.70587 -1.18356,1.53693 -0.70894,0.86576 -0.87428,1.08149 -1.041,1.35818 -0.18941,0.31439 -0.32513,0.66652 -0.36622,0.95026 -0.0181,0.12488 -0.0155,0.44606 0.004,0.55671 0.0975,0.53926 0.52015,1.0098 1.0722,1.1936 0.19667,0.0655 0.28951,0.0782 0.5656,0.0778 0.23004,-3.4e-4 0.25228,-0.002 0.36955,-0.0268 0.37886,-0.0806 0.68445,-0.24907 0.94597,-0.52178 0.16087,-0.16776 0.27184,-0.33177 0.39354,-0.58167 l 0.0747,-0.1534 0.0769,0.15975 c 0.0874,0.18168 0.16588,0.3064 0.27549,0.43803 0.31323,0.37614 0.66988,0.5921 1.10338,0.66816 0.11605,0.0203 0.40189,0.0277 0.53752,0.0138 0.1994,-0.0204 0.43331,-0.0895 0.61892,-0.18279 0.32042,-0.16111 0.60224,-0.46412 0.73525,-0.79053 0.20627,-0.50622 0.11122,-1.13377 -0.27776,-1.83364 -0.22448,-0.40391 -0.42911,-0.67822 -1.08422,-1.45343 -0.58383,-0.69085 -0.85497,-1.03719 -1.12112,-1.43205 -0.34493,-0.51172 -0.57122,-0.95238 -0.74782,-1.45622 -0.0362,-0.10332 -0.0694,-0.19108 -0.0736,-0.19501 -0.0199,-0.0183 -0.0506,-0.0193 -0.0678,-0.002 z"
         style="fill:#ff0f0f;fill-opacity:1;stroke:#ff0f0f;stroke-width:0.10884;stroke-opacity:1"
         id="path1-2-8-3-6-9-5-0"
         transform="translate(-44.949502,-50.329462)" /><path
         d="m 123.86072,138.41198 c -0.01,0.01 -0.0532,0.1256 -0.0965,0.25725 -0.15955,0.48605 -0.36888,0.90203 -0.71391,1.41883 -0.26424,0.39577 -0.50303,0.70586 -1.18356,1.53692 -0.70894,0.86576 -0.87428,1.08149 -1.041,1.35819 -0.18941,0.31439 -0.32513,0.66651 -0.36622,0.95025 -0.0181,0.12488 -0.0155,0.44607 0.004,0.55672 0.0975,0.53925 0.52015,1.0098 1.0722,1.1936 0.19667,0.0655 0.28951,0.0782 0.5656,0.0778 0.23004,-3.4e-4 0.25228,-0.002 0.36955,-0.0269 0.37886,-0.0805 0.68445,-0.24906 0.94597,-0.52178 0.16087,-0.16776 0.27184,-0.33177 0.39354,-0.58166 l 0.0747,-0.1534 0.0769,0.15974 c 0.0874,0.18168 0.16588,0.30641 0.27549,0.43803 0.31323,0.37614 0.66988,0.5921 1.10338,0.66816 0.11605,0.0204 0.40189,0.0277 0.53752,0.0139 0.1994,-0.0204 0.43331,-0.0895 0.61892,-0.18281 0.32042,-0.1611 0.60224,-0.46411 0.73525,-0.79053 0.20627,-0.50621 0.11122,-1.13377 -0.27776,-1.83363 -0.22448,-0.40391 -0.42911,-0.67822 -1.08422,-1.45344 -0.58383,-0.69085 -0.85497,-1.03718 -1.12112,-1.43203 -0.34493,-0.51172 -0.57122,-0.95239 -0.74782,-1.45623 -0.0362,-0.10332 -0.0694,-0.19107 -0.0736,-0.19501 -0.0199,-0.0183 -0.0506,-0.0192 -0.0678,-0.002 z"
         style="fill:#ff0f0f;fill-opacity:1;stroke:#ff0f0f;stroke-width:0.10884;stroke-opacity:1"
         id="path1-2-8-4-7-3-0-0"
         transform="translate(-44.949502,-50.329462)" /><path
         d="m 124.10174,147.71712 c -0.01,0.01 -0.0532,0.1256 -0.0965,0.25725 -0.15955,0.48605 -0.36888,0.90203 -0.71391,1.41883 -0.26424,0.39577 -0.50303,0.70586 -1.18356,1.53692 -0.70894,0.86576 -0.87428,1.08149 -1.041,1.35819 -0.18941,0.31439 -0.32513,0.66651 -0.36622,0.95025 -0.0181,0.12488 -0.0155,0.44607 0.004,0.55672 0.0975,0.53925 0.52015,1.0098 1.0722,1.1936 0.19667,0.0655 0.28951,0.0782 0.5656,0.0778 0.23004,-3.4e-4 0.25228,-0.002 0.36955,-0.0269 0.37886,-0.0805 0.68445,-0.24906 0.94597,-0.52178 0.16087,-0.16776 0.27184,-0.33177 0.39354,-0.58166 l 0.0747,-0.1534 0.0769,0.15974 c 0.0874,0.18168 0.16588,0.30641 0.27549,0.43803 0.31323,0.37614 0.66988,0.5921 1.10338,0.66816 0.11605,0.0204 0.40189,0.0277 0.53752,0.0139 0.1994,-0.0204 0.43331,-0.0895 0.61892,-0.18281 0.32042,-0.1611 0.60224,-0.46411 0.73525,-0.79053 0.20627,-0.50621 0.11122,-1.13377 -0.27776,-1.83363 -0.22448,-0.40391 -0.42911,-0.67822 -1.08422,-1.45344 -0.58383,-0.69085 -0.85497,-1.03718 -1.12112,-1.43203 -0.34493,-0.51172 -0.57122,-0.95239 -0.74782,-1.45623 -0.0362,-0.10332 -0.0694,-0.19107 -0.0736,-0.19501 -0.0199,-0.0183 -0.0506,-0.0192 -0.0678,-0.002 z"
         style="fill:#ff0f0f;fill-opacity:1;stroke:#ff0f0f;stroke-width:0.10884;stroke-opacity:1"
         id="path1-2-8-4-7-3-0-0-6"
         transform="translate(-44.949502,-50.329462)" /></g></g></svg>
