<?xml version="1.0" encoding="UTF-8" standalone="no"?>
<!-- Created with Inkscape (http://www.inkscape.org/) -->

<svg
   width="40.424mm"
   height="56.424004mm"
   viewBox="0 0 40.424 56.424004"
   version="1.1"
   id="svg1"
   xml:space="preserve"
   xmlns="http://www.w3.org/2000/svg"
   xmlns:svg="http://www.w3.org/2000/svg"><defs
     id="defs1"><rect
       x="208.77827"
       y="241.85934"
       width="88.951309"
       height="72.043205"
       id="rect2-6-7-6-1-3" /><rect
       x="208.77827"
       y="241.85934"
       width="88.951309"
       height="72.043205"
       id="rect2-1-0-5-1-0-3" /></defs><g
     id="layer1"
     transform="translate(-98.98128,-109.21457)"><g
       id="g12"
       transform="translate(44.949502,50.329462)"><path
         style="fill:#ffffff;fill-opacity:1;stroke:#000000;stroke-width:0.423998;stroke-opacity:1"
         id="rect1-8-5-5-8-7"
         width="40"
         height="56"
         x="40.845924"
         y="73.133659"
         transform="translate(13.397851,-14.036546)"
         d="m 46.845924,73.133659 h 28 a 6,6 45 0 1 6,6 v 44.000001 a 6,6 135 0 1 -6,6 h -28 a 6,6 45 0 1 -6,-6 V 79.133659 a 6,6 135 0 1 6,-6 z" /><text
         xml:space="preserve"
         transform="matrix(0.26458333,0,0,0.26458333,2.683084,-3.3247578)"
         id="text2-5-5-3-0-1"
         style="font-style:normal;font-weight:normal;font-size:40px;line-height:1.25;font-family:sans-serif;white-space:pre;shape-inside:url(#rect2-6-7-6-1-3);display:inline;fill:#000000;fill-opacity:1;stroke:none"><tspan
           x="208.77734"
           y="278.77427"
           id="tspan2"><tspan
             style="font-weight:600;font-family:'New York Extra Large';-inkscape-font-specification:'New York Extra Large Semi-Bold'"
             id="tspan1">8</tspan></tspan></text><text
         xml:space="preserve"
         transform="matrix(-0.26458333,0,0,-0.26458333,145.80447,177.51899)"
         id="text2-7-4-1-5-7-5"
         style="font-style:normal;font-weight:normal;font-size:40px;line-height:1.25;font-family:sans-serif;white-space:pre;shape-inside:url(#rect2-1-0-5-1-0-3);display:inline;fill:#000000;fill-opacity:1;stroke:none"><tspan
           x="208.77734"
           y="278.77427"
           id="tspan4"><tspan
             style="font-weight:600;font-family:'New York Extra Large';-inkscape-font-specification:'New York Extra Large Semi-Bold'"
             id="tspan3">8</tspan></tspan></text><path
         d="m 67.022442,75.517796 c 1.25e-4,-0.0051 0.04768,-0.075 0.105602,-0.156624 0.228455,-0.321863 0.328807,-0.499922 0.449449,-0.797449 0.07176,-0.176996 0.213359,-0.594504 0.283683,-0.836468 l 0.04839,-0.166475 -0.155161,0.08066 c -0.424197,0.220648 -0.824834,0.323528 -1.259849,0.323528 -0.571739,0 -1.069963,-0.190099 -1.424265,-0.543429 -0.229039,-0.228423 -0.36391,-0.479165 -0.434812,-0.808391 -0.03553,-0.165007 -0.03611,-0.496885 -0.001,-0.681852 0.07123,-0.377229 0.222907,-0.735262 0.472463,-1.115314 0.232167,-0.353587 0.384133,-0.531046 0.870684,-1.016758 0.862926,-0.861431 1.35551,-1.461565 2.032537,-2.476324 0.09191,-0.137754 0.171705,-0.247627 0.17732,-0.244169 0.0056,0.0043 0.07323,0.111212 0.150254,0.239441 0.572285,0.952614 1.251805,1.771036 2.124108,2.558265 0.467496,0.421903 0.880178,1.030437 1.056219,1.557502 0.189822,0.568289 0.171114,1.079187 -0.05594,1.527931 -0.08418,0.166381 -0.168921,0.282536 -0.306825,0.420581 -0.352154,0.35255 -0.828915,0.538736 -1.37948,0.538736 -0.394814,0 -0.785622,-0.09805 -1.180407,-0.296163 -0.08751,-0.04394 -0.111141,-0.052 -0.111141,-0.03776 0,0.03252 0.107274,0.446162 0.158304,0.610354 0.15508,0.498961 0.294539,0.757736 0.587826,1.090763 0.06452,0.07328 0.136343,0.156727 0.159576,0.185439 l 0.04225,0.05217 h -1.204935 c -0.662713,0 -1.204809,-0.0043 -1.204659,-0.0086 z"
         style="fill:#000000;stroke-width:0.124638"
         id="path1-90-57-8-7-01" /><path
         d="m 67.022442,86.047632 c 1.25e-4,-0.0051 0.04768,-0.075 0.105602,-0.156616 0.228455,-0.321871 0.328807,-0.499922 0.449449,-0.797458 0.07176,-0.176987 0.213359,-0.594495 0.283683,-0.836459 l 0.04839,-0.166475 -0.155161,0.08066 c -0.424197,0.220657 -0.824834,0.323536 -1.259849,0.323536 -0.571739,0 -1.069963,-0.190099 -1.424265,-0.543429 -0.229039,-0.228422 -0.36391,-0.479165 -0.434812,-0.80839 -0.03553,-0.165008 -0.03611,-0.496894 -0.001,-0.681853 0.07123,-0.377228 0.222907,-0.735261 0.472463,-1.115322 0.232167,-0.353579 0.384133,-0.531046 0.870684,-1.01675 0.862926,-0.861439 1.35551,-1.461573 2.032537,-2.476332 0.09191,-0.137754 0.171705,-0.247619 0.17732,-0.244161 0.0056,0.0043 0.07323,0.111213 0.150254,0.239441 0.572285,0.952615 1.251805,1.771036 2.124108,2.558266 0.467496,0.421902 0.880178,1.030428 1.056219,1.557493 0.189822,0.568298 0.171114,1.079196 -0.05594,1.52794 -0.08418,0.166372 -0.168921,0.282527 -0.306825,0.420572 -0.352154,0.35255 -0.828915,0.538736 -1.37948,0.538736 -0.394814,0 -0.785622,-0.09805 -1.180407,-0.296154 -0.08751,-0.04394 -0.111141,-0.052 -0.111141,-0.03776 0,0.03252 0.107274,0.446161 0.158304,0.610353 0.15508,0.498953 0.294539,0.757736 0.587826,1.090763 0.06452,0.07328 0.136343,0.156719 0.159576,0.18544 l 0.04225,0.05217 h -1.204935 c -0.662713,0 -1.204809,-0.0043 -1.204659,-0.0086 z"
         style="fill:#000000;stroke-width:0.124638"
         id="path1-90-57-8-6-1-0" /><path
         d="m 67.022442,96.577475 c 1.25e-4,-0.005 0.04768,-0.075 0.105602,-0.15663 0.228455,-0.32187 0.328807,-0.49992 0.449449,-0.79746 0.07176,-0.17698 0.213359,-0.594494 0.283683,-0.836454 l 0.04839,-0.16648 -0.155161,0.0807 c -0.424197,0.22066 -0.824834,0.32354 -1.259849,0.32354 -0.571739,0 -1.069963,-0.1901 -1.424265,-0.54343 -0.229039,-0.22841 -0.36391,-0.47917 -0.434812,-0.808391 -0.03553,-0.165008 -0.03611,-0.496885 -0.001,-0.681852 0.07123,-0.377229 0.222907,-0.735271 0.472463,-1.115331 0.232167,-0.353588 0.384133,-0.531038 0.870684,-1.01675 0.862926,-0.861457 1.35551,-1.461589 2.032537,-2.47634 0.09191,-0.137753 0.171705,-0.247627 0.17732,-0.24416 0.0056,0.0043 0.07323,0.111212 0.150254,0.239432 0.572285,0.952623 1.251805,1.771035 2.124108,2.558264 0.467496,0.421911 0.880178,1.030454 1.056219,1.557519 0.189822,0.568298 0.171114,1.079196 -0.05594,1.527939 -0.08418,0.16637 -0.168921,0.28253 -0.306825,0.42058 -0.352154,0.35254 -0.828915,0.53873 -1.37948,0.53873 -0.394814,0 -0.785622,-0.0981 -1.180407,-0.29616 -0.08751,-0.0439 -0.111141,-0.052 -0.111141,-0.0378 0,0.0326 0.107274,0.44616 0.158304,0.61036 0.15508,0.498944 0.294539,0.757734 0.587826,1.090754 0.06452,0.0733 0.136343,0.15673 0.159576,0.18544 l 0.04225,0.0522 h -1.204935 c -0.662713,0 -1.204809,-0.004 -1.204659,-0.009 z"
         style="fill:#000000;stroke-width:0.124638"
         id="path1-90-57-2-4-9-3" /><path
         d="m 67.089446,107.10736 c 1.25e-4,-0.005 0.04768,-0.075 0.105602,-0.15663 0.228455,-0.32187 0.328807,-0.49992 0.449449,-0.79746 0.07176,-0.17698 0.213359,-0.59449 0.283683,-0.83645 l 0.04839,-0.16648 -0.155161,0.0807 c -0.424197,0.22066 -0.824834,0.32354 -1.259849,0.32354 -0.571739,0 -1.069963,-0.1901 -1.424265,-0.54343 -0.229039,-0.22842 -0.36391,-0.47918 -0.434812,-0.8084 -0.03553,-0.16501 -0.03611,-0.49689 -0.001,-0.68186 0.07123,-0.37723 0.222907,-0.73527 0.472463,-1.11533 0.232167,-0.35359 0.384133,-0.53104 0.870684,-1.01676 0.862926,-0.86146 1.35551,-1.461605 2.032537,-2.476355 0.09191,-0.13776 0.171705,-0.24763 0.17732,-0.24416 0.0056,0.004 0.07323,0.11121 0.150254,0.23943 0.572285,0.95263 1.251805,1.771055 2.124108,2.558285 0.467496,0.42191 0.880178,1.03046 1.056219,1.55753 0.189822,0.5683 0.171114,1.0792 -0.05594,1.52794 -0.08418,0.16637 -0.168921,0.28254 -0.306825,0.42059 -0.352154,0.35254 -0.828915,0.53873 -1.37948,0.53873 -0.394814,0 -0.785622,-0.0981 -1.180407,-0.29616 -0.08751,-0.0439 -0.111141,-0.052 -0.111141,-0.0378 0,0.0326 0.107274,0.44616 0.158304,0.61036 0.15508,0.49894 0.294539,0.75773 0.587826,1.09075 0.06452,0.0733 0.136343,0.15673 0.159576,0.18544 l 0.04225,0.0522 h -1.204935 c -0.662713,0 -1.204809,-0.004 -1.204659,-0.009 z"
         style="fill:#000000;stroke-width:0.124638"
         id="path1-90-57-2-4-9-3-9" /><path
         d="m 79.186831,88.146533 c 1.24e-4,0.0051 0.04768,0.075 0.105601,0.156624 0.228455,0.321863 0.328807,0.499922 0.449449,0.797449 0.07176,0.176996 0.21336,0.594505 0.283683,0.836468 l 0.04839,0.166476 -0.155162,-0.08066 c -0.424196,-0.220649 -0.824834,-0.323529 -1.259849,-0.323529 -0.571739,0 -1.069963,0.190099 -1.424265,0.54343 -0.229038,0.228423 -0.36391,0.479165 -0.434812,0.808391 -0.03553,0.165007 -0.03611,0.496885 -10e-4,0.681852 0.07123,0.377229 0.222906,0.735262 0.472462,1.115314 0.232167,0.353587 0.384134,0.531046 0.870684,1.016758 0.862927,0.86143 1.355511,1.461559 2.032538,2.476319 0.09191,0.13775 0.171704,0.24763 0.17732,0.24417 0.0056,-0.004 0.07323,-0.11121 0.150254,-0.23944 0.572284,-0.95262 1.251805,-1.771039 2.124108,-2.558262 0.467496,-0.421903 0.880178,-1.030437 1.056218,-1.557502 0.189822,-0.568289 0.171114,-1.079187 -0.05594,-1.527931 -0.08418,-0.166381 -0.168921,-0.282536 -0.306825,-0.420581 -0.352154,-0.352551 -0.828915,-0.538737 -1.37948,-0.538737 -0.394814,0 -0.785621,0.09805 -1.180406,0.296164 -0.08751,0.04394 -0.111141,0.052 -0.111141,0.03776 0,-0.03252 0.107273,-0.446162 0.158304,-0.610355 0.15508,-0.498961 0.294538,-0.757736 0.587825,-1.090763 0.06452,-0.07328 0.136343,-0.156726 0.159576,-0.185439 l 0.04224,-0.05217 h -1.204934 c -0.662714,0 -1.20481,0.0043 -1.20466,0.0086 z"
         style="fill:#000000;stroke-width:0.124638"
         id="path1-90-57-8-7-7-0" /><path
         d="m 79.253835,98.676385 c 1.24e-4,0.005 0.04768,0.075 0.105601,0.15662 0.228455,0.32187 0.328807,0.49993 0.449449,0.79746 0.07176,0.17699 0.21336,0.594505 0.283683,0.836475 l 0.04839,0.16648 -0.155162,-0.0807 c -0.424196,-0.22065 -0.824834,-0.32353 -1.259849,-0.32353 -0.571739,0 -1.069963,0.1901 -1.424265,0.54343 -0.229038,0.22842 -0.36391,0.47917 -0.434812,0.80839 -0.03553,0.16501 -0.03611,0.49689 -0.001,0.68186 0.07123,0.37723 0.222906,0.73526 0.472462,1.11532 0.232167,0.35359 0.384134,0.53105 0.870684,1.01676 0.862927,0.86144 1.355511,1.46157 2.032538,2.47633 0.09191,0.13775 0.171704,0.24763 0.17732,0.24417 0.0056,-0.004 0.07323,-0.11121 0.150254,-0.23944 0.572284,-0.95262 1.251805,-1.77104 2.124108,-2.55827 0.467496,-0.42191 0.880178,-1.03044 1.056218,-1.55751 0.189822,-0.56829 0.171114,-1.07919 -0.05594,-1.52794 -0.08418,-0.16638 -0.168921,-0.28254 -0.306825,-0.42058 -0.352154,-0.35256 -0.828915,-0.53874 -1.37948,-0.53874 -0.394814,0 -0.785621,0.0981 -1.180406,0.29616 -0.08751,0.0439 -0.111141,0.052 -0.111141,0.0378 0,-0.0325 0.107273,-0.44616 0.158304,-0.610365 0.15508,-0.49896 0.294538,-0.75773 0.587825,-1.09076 0.06452,-0.0733 0.136343,-0.15673 0.159576,-0.18544 l 0.04224,-0.0522 h -1.204934 c -0.662714,0 -1.20481,0.004 -1.20466,0.009 z"
         style="fill:#000000;stroke-width:0.124638"
         id="path1-90-57-8-7-7-0-2" /><path
         d="m 79.186831,77.616722 c 1.24e-4,0.0051 0.04768,0.075 0.105601,0.156615 0.228455,0.321871 0.328807,0.499922 0.449449,0.797458 0.07176,0.176987 0.21336,0.594496 0.283683,0.836459 l 0.04839,0.166475 -0.155162,-0.08066 c -0.424196,-0.220657 -0.824834,-0.323536 -1.259849,-0.323536 -0.571739,0 -1.069963,0.190099 -1.424265,0.543429 -0.229038,0.228422 -0.36391,0.479165 -0.434812,0.80839 -0.03553,0.165008 -0.03611,0.496894 -10e-4,0.681853 0.07123,0.377228 0.222906,0.735261 0.472462,1.115322 0.232167,0.353579 0.384134,0.531046 0.870684,1.01675 0.862927,0.861439 1.355511,1.461573 2.032538,2.476332 0.09191,0.137754 0.171704,0.247619 0.17732,0.244161 0.0056,-0.0043 0.07323,-0.111212 0.150254,-0.239441 0.572284,-0.952614 1.251805,-1.771036 2.124108,-2.558266 0.467496,-0.421902 0.880178,-1.030428 1.056218,-1.557493 0.189822,-0.568297 0.171114,-1.079195 -0.05594,-1.52794 -0.08418,-0.166372 -0.168921,-0.282527 -0.306825,-0.420572 -0.352154,-0.35255 -0.828915,-0.538736 -1.37948,-0.538736 -0.394814,0 -0.785621,0.09805 -1.180406,0.296154 -0.08751,0.04394 -0.111141,0.052 -0.111141,0.03776 0,-0.03252 0.107273,-0.446161 0.158304,-0.610353 0.15508,-0.498953 0.294538,-0.757736 0.587825,-1.090763 0.06452,-0.07328 0.136343,-0.156718 0.159576,-0.18544 l 0.04224,-0.05217 h -1.204934 c -0.662714,0 -1.20481,0.0043 -1.20466,0.0086 z"
         style="fill:#000000;stroke-width:0.124638"
         id="path1-90-57-8-6-1-4-03" /><path
         d="m 79.186831,67.086866 c 1.24e-4,0.0051 0.04768,0.075 0.105601,0.156624 0.228455,0.321872 0.328807,0.499923 0.449449,0.797458 0.07176,0.176987 0.21336,0.594496 0.283683,0.836451 l 0.04839,0.166483 -0.155162,-0.08066 c -0.424196,-0.220656 -0.824834,-0.323536 -1.259849,-0.323536 -0.571739,0 -1.069963,0.190099 -1.424265,0.543429 -0.229038,0.228414 -0.36391,0.479165 -0.434812,0.808391 -0.03553,0.165007 -0.03611,0.496884 -10e-4,0.681852 0.07123,0.377229 0.222906,0.73527 0.472462,1.115331 0.232167,0.353587 0.384134,0.531038 0.870684,1.01675 0.862927,0.861456 1.355511,1.46159 2.032538,2.476341 0.09191,0.137753 0.171704,0.247627 0.17732,0.24416 0.0056,-0.0043 0.07323,-0.111212 0.150254,-0.239432 0.572284,-0.952623 1.251805,-1.771036 2.124108,-2.558266 0.467496,-0.421911 0.880178,-1.030454 1.056218,-1.557519 0.189822,-0.568297 0.171114,-1.079195 -0.05594,-1.52794 -0.08418,-0.166372 -0.168921,-0.282526 -0.306825,-0.420581 -0.352154,-0.35254 -0.828915,-0.538726 -1.37948,-0.538726 -0.394814,0 -0.785621,0.09805 -1.180406,0.296154 -0.08751,0.04394 -0.111141,0.052 -0.111141,0.03776 0,-0.03261 0.107273,-0.446162 0.158304,-0.610363 0.15508,-0.498944 0.294538,-0.757727 0.587825,-1.090754 0.06452,-0.07328 0.136343,-0.156727 0.159576,-0.185439 l 0.04224,-0.05217 h -1.204934 c -0.662714,0 -1.20481,0.0043 -1.20466,0.0086 z"
         style="fill:#000000;stroke-width:0.124638"
         id="path1-90-57-2-4-9-1-8" /></g></g></svg>
