<?xml version="1.0" encoding="UTF-8" standalone="no"?>
<!-- Created with Inkscape (http://www.inkscape.org/) -->

<svg
   width="210mm"
   height="297mm"
   viewBox="0 0 210 297"
   version="1.1"
   id="svg1"
   inkscape:version="1.3.2 (091e20e, 2023-11-25)"
   sodipodi:docname="misc.svg"
   xmlns:inkscape="http://www.inkscape.org/namespaces/inkscape"
   xmlns:sodipodi="http://sodipodi.sourceforge.net/DTD/sodipodi-0.dtd"
   xmlns:xlink="http://www.w3.org/1999/xlink"
   xmlns="http://www.w3.org/2000/svg"
   xmlns:svg="http://www.w3.org/2000/svg">
  <sodipodi:namedview
     id="namedview1"
     pagecolor="#ffffff"
     bordercolor="#666666"
     borderopacity="1.0"
     inkscape:showpageshadow="2"
     inkscape:pageopacity="0.0"
     inkscape:pagecheckerboard="0"
     inkscape:deskcolor="#d1d1d1"
     inkscape:document-units="mm"
     inkscape:zoom="1.1304924"
     inkscape:cx="397.17206"
     inkscape:cy="561.25984"
     inkscape:window-width="2560"
     inkscape:window-height="1440"
     inkscape:window-x="1710"
     inkscape:window-y="0"
     inkscape:window-maximized="0"
     inkscape:current-layer="g3-1-9-64" />
  <defs
     id="defs1">
    <pattern
       inkscape:collect="always"
       xlink:href="#Wave"
       preserveAspectRatio="xMidYMid"
       id="pattern15"
       patternTransform="scale(1)"
       x="0"
       y="0" />
    <pattern
       patternUnits="userSpaceOnUse"
       width="24"
       height="10"
       preserveAspectRatio="xMidYMid"
       id="Wave"
       style="fill:#ff3333"
       x="0"
       y="0"
       inkscape:collect="always"
       inkscape:isstock="true"
       inkscape:label="Wave">
      <g
         id="wave_g"
         style="display:inline">
        <path
           d="M 12,-2 C 9.1666695,-2 7.1679672,-0.56445187 5.4179687,0.68554687 3.6679703,1.9355456 2.1666645,3 0,3 V 5 C 2.8333305,5 4.8320328,3.5644519 6.5820312,2.3144531 8.3320297,1.0644544 9.8333355,0 12,0 14.166665,0 15.667971,1.0644544 17.417969,2.3144531 19.167967,3.5644519 21.166669,5 24,5 V 3 C 21.833335,3 20.332029,1.9355456 18.582031,0.68554687 16.832033,-0.56445189 14.833331,-2 12,-2 Z"
           id="path3" />
        <path
           d="M 12,3 C 9.1666695,3 7.1679672,4.4355481 5.4179687,5.6855469 3.6679703,6.9355456 2.1666645,8 0,8 v 2 C 2.8333305,10 4.8320328,8.5644519 6.5820312,7.3144531 8.3320297,6.0644544 9.8333355,5 12,5 14.166665,5 15.667971,6.0644544 17.417969,7.3144531 19.167967,8.5644519 21.166669,10 24,10 V 8 C 21.833335,8 20.332029,6.9355456 18.582031,5.6855469 16.832033,4.4355481 14.833331,3 12,3 Z"
           id="path4" />
        <path
           d="M 12,8 C 9.1666695,8 7.1679672,9.4355481 5.4179687,10.685547 3.6679703,11.935546 2.1666645,13 0,13 v 2 C 2.8333305,15 4.8320328,13.564452 6.5820312,12.314453 8.3320297,11.064454 9.8333355,10 12,10 c 2.166665,0 3.667971,1.064454 5.417969,2.314453 C 19.167967,13.564452 21.166669,15 24,15 V 13 C 21.833335,13 20.332029,11.935546 18.582031,10.685547 16.832033,9.4355481 14.833331,8 12,8 Z"
           id="path5" />
      </g>
    </pattern>
    <inkscape:path-effect
       effect="fillet_chamfer"
       id="path-effect8"
       is_visible="true"
       lpeversion="1"
       nodesatellites_param="F,0,0,1,0,6,0,1 @ F,0,0,1,0,6,0,1 @ F,0,0,1,0,6,0,1 @ F,0,0,1,0,6,0,1"
       radius="0"
       unit="px"
       method="auto"
       mode="F"
       chamfer_steps="1"
       flexible="false"
       use_knot_distance="true"
       apply_no_radius="true"
       apply_with_radius="true"
       only_selected="false"
       hide_knots="false" />
    <inkscape:path-effect
       effect="fillet_chamfer"
       id="path-effect7"
       is_visible="true"
       lpeversion="1"
       nodesatellites_param="F,0,0,1,0,0,0,1 @ F,0,0,1,0,0,0,1 @ F,0,0,1,0,0,0,1 @ F,0,0,1,0,0,0,1"
       radius="0"
       unit="px"
       method="auto"
       mode="F"
       chamfer_steps="1"
       flexible="false"
       use_knot_distance="true"
       apply_no_radius="true"
       apply_with_radius="true"
       only_selected="false"
       hide_knots="false" />
    <inkscape:path-effect
       effect="fillet_chamfer"
       id="path-effect6"
       is_visible="true"
       lpeversion="1"
       nodesatellites_param="F,0,0,1,0,3,0,1 @ F,0,0,1,0,3,0,1 @ F,0,0,1,0,3,0,1 @ F,0,0,1,0,3,0,1"
       radius="0"
       unit="px"
       method="auto"
       mode="F"
       chamfer_steps="1"
       flexible="false"
       use_knot_distance="true"
       apply_no_radius="true"
       apply_with_radius="true"
       only_selected="false"
       hide_knots="false" />
    <rect
       x="396.02981"
       y="408.64223"
       width="128.64663"
       height="58.017106"
       id="rect5" />
    <inkscape:path-effect
       effect="fillet_chamfer"
       id="path-effect5"
       is_visible="true"
       lpeversion="1"
       nodesatellites_param="F,0,0,1,0,3,0,1 @ F,0,0,1,0,0,0,1 @ F,0,0,1,0,0,0,1 @ F,0,0,1,0,3,0,1"
       radius="0"
       unit="px"
       method="auto"
       mode="F"
       chamfer_steps="1"
       flexible="false"
       use_knot_distance="true"
       apply_no_radius="true"
       apply_with_radius="true"
       only_selected="false"
       hide_knots="false" />
    <inkscape:path-effect
       effect="fillet_chamfer"
       id="path-effect4"
       is_visible="true"
       lpeversion="1"
       nodesatellites_param=""
       radius="0"
       unit="px"
       method="auto"
       mode="F"
       chamfer_steps="1"
       flexible="false"
       use_knot_distance="true"
       apply_no_radius="true"
       apply_with_radius="true"
       only_selected="false"
       hide_knots="false" />
    <inkscape:path-effect
       effect="fillet_chamfer"
       id="path-effect2-5-19"
       is_visible="true"
       lpeversion="1"
       nodesatellites_param="F,0,0,1,0,6,0,1 @ F,0,0,1,0,6,0,1 @ F,0,0,1,0,6,0,1 @ F,0,0,1,0,6,0,1"
       radius="0"
       unit="px"
       method="auto"
       mode="F"
       chamfer_steps="1"
       flexible="false"
       use_knot_distance="true"
       apply_no_radius="true"
       apply_with_radius="true"
       only_selected="false"
       hide_knots="false" />
    <rect
       x="208.77827"
       y="241.85934"
       width="127.75911"
       height="59.015808"
       id="rect2-0-6" />
    <rect
       x="208.77827"
       y="241.85934"
       width="269.80957"
       height="70.853348"
       id="rect2-0-6-8" />
    <inkscape:path-effect
       effect="fillet_chamfer"
       id="path-effect2-5-19-4"
       is_visible="true"
       lpeversion="1"
       nodesatellites_param="F,0,0,1,0,6,0,1 @ F,0,0,1,0,6,0,1 @ F,0,0,1,0,6,0,1 @ F,0,0,1,0,6,0,1"
       radius="0"
       unit="px"
       method="auto"
       mode="F"
       chamfer_steps="1"
       flexible="false"
       use_knot_distance="true"
       apply_no_radius="true"
       apply_with_radius="true"
       only_selected="false"
       hide_knots="false" />
    <rect
       x="208.77827"
       y="241.85934"
       width="269.80957"
       height="70.853348"
       id="rect2-0-6-5" />
    <rect
       x="208.77827"
       y="241.85934"
       width="269.80957"
       height="70.853348"
       id="rect2-0-6-8-1" />
    <inkscape:path-effect
       effect="fillet_chamfer"
       id="path-effect2-5-19-7"
       is_visible="true"
       lpeversion="1"
       nodesatellites_param="F,0,0,1,0,6,0,1 @ F,0,0,1,0,6,0,1 @ F,0,0,1,0,6,0,1 @ F,0,0,1,0,6,0,1"
       radius="0"
       unit="px"
       method="auto"
       mode="F"
       chamfer_steps="1"
       flexible="false"
       use_knot_distance="true"
       apply_no_radius="true"
       apply_with_radius="true"
       only_selected="false"
       hide_knots="false" />
    <rect
       x="208.77827"
       y="241.85934"
       width="141.21235"
       height="148.14354"
       id="rect2-0-6-9" />
    <rect
       x="208.77827"
       y="241.85934"
       width="269.80957"
       height="70.853348"
       id="rect2-0-6-8-6" />
    <rect
       x="208.77827"
       y="241.85934"
       width="141.21236"
       height="148.14354"
       id="rect2-0-6-9-4" />
    <inkscape:path-effect
       effect="fillet_chamfer"
       id="path-effect8-2"
       is_visible="true"
       lpeversion="1"
       nodesatellites_param="F,0,0,1,0,6,0,1 @ F,0,0,1,0,6,0,1 @ F,0,0,1,0,6,0,1 @ F,0,0,1,0,6,0,1"
       radius="0"
       unit="px"
       method="auto"
       mode="F"
       chamfer_steps="1"
       flexible="false"
       use_knot_distance="true"
       apply_no_radius="true"
       apply_with_radius="true"
       only_selected="false"
       hide_knots="false" />
  </defs>
  <g
     inkscape:label="Layer 1"
     inkscape:groupmode="layer"
     id="layer1">
    <g
       id="g3-1-9"
       transform="translate(2.9182424,-40.303349)"
       inkscape:label="Joker"
       inkscape:export-filename="joker_black.svg"
       inkscape:export-xdpi="96"
       inkscape:export-ydpi="96">
      <path
         style="fill:#ffffff;fill-opacity:1;stroke:#000000;stroke-width:0.423998;stroke-opacity:1"
         id="rect1-7-7"
         width="40"
         height="56"
         x="40.845924"
         y="73.133659"
         sodipodi:type="rect"
         transform="translate(-31.31521,-13.420804)"
         d="m 46.845924,73.133659 h 28 a 6,6 45 0 1 6,6 v 44.000001 a 6,6 135 0 1 -6,6 h -28 a 6,6 45 0 1 -6,-6 V 79.133659 a 6,6 135 0 1 6,-6 z"
         inkscape:path-effect="#path-effect2-5-19" />
      <text
         xml:space="preserve"
         transform="matrix(0.26458333,0,0,0.26458333,-42.605612,-3.0978674)"
         id="text2-2-3"
         style="font-style:normal;font-weight:normal;font-size:40px;line-height:1.25;font-family:sans-serif;white-space:pre;shape-inside:url(#rect2-0-6);display:inline;fill:#000000;fill-opacity:1;stroke:none"
         x="51.60323"
         y="0"><tspan
           x="220.58362"
           y="278.35259"
           id="tspan7"><tspan
             style="font-weight:800;font-size:32px;font-family:'Playfair Display';-inkscape-font-specification:'Playfair Display Ultra-Bold';text-align:center;text-anchor:middle"
             id="tspan6">JOKER</tspan></tspan></text>
      <text
         xml:space="preserve"
         transform="matrix(-0.26458333,0,0,-0.26458333,98.543297,178.52358)"
         id="text2-2-3-2"
         style="font-style:normal;font-weight:normal;font-size:40px;line-height:1.25;font-family:sans-serif;white-space:pre;shape-inside:url(#rect2-0-6-8);display:inline;fill:#000000;fill-opacity:1;stroke:none"><tspan
           x="208.77734"
           y="278.35259"
           id="tspan9"><tspan
             style="font-weight:800;font-size:32px;font-family:'Playfair Display';-inkscape-font-specification:'Playfair Display Ultra-Bold'"
             id="tspan8">JOKER</tspan></tspan></text>
      <path
         style="fill:#000000;stroke-width:0.152169"
         d="m 63.899067,272.90381 -0.0805,-0.0455 -0.12078,-0.0996 -0.12079,-0.0996 -0.45698,-0.42743 -0.45698,-0.42743 -0.5012,-0.53788 -0.50119,-0.53789 -0.063,-0.096 -0.0629,-0.0961 0.0282,-0.15066 0.0282,-0.15065 0.30964,-0.30247 0.30963,-0.30246 0.32333,-0.23003 0.32333,-0.23004 0.36867,-0.22119 0.36865,-0.2212 0.37372,-0.17778 0.3737,-0.1778 0.38712,-0.14464 0.38712,-0.14464 0.5389,-0.14043 0.53889,-0.14042 0.44288,-0.0693 0.44288,-0.0693 1.82243,0.009 1.82243,0.009 0.51274,-0.0462 0.51273,-0.0461 0.37654,-0.0953 0.37654,-0.0953 0.30791,-0.1654 0.3079,-0.16539 0.0312,-0.0301 0.0312,-0.0301 -0.33314,-0.0702 -0.33315,-0.0702 -0.42274,-0.12004 -0.42274,-0.12004 -0.44288,-0.16156 -0.44288,-0.16156 -0.42274,-0.18369 -0.42275,-0.18369 -0.34582,-0.17331 -0.34581,-0.17331 -0.12457,-0.10482 -0.12457,-0.10482 -0.0472,-0.14293 -0.0472,-0.14293 0.0283,-0.22817 0.0283,-0.22817 0.37853,-1.52063 0.37853,-1.52063 v -0.0578 -0.0578 l -0.33216,-0.25204 -0.33216,-0.25203 -0.31557,-0.3235 -0.31557,-0.3235 -0.25676,-0.38422 -0.25677,-0.38423 -0.18001,-0.38074 -0.18,-0.38075 -0.10167,-0.31243 -0.10167,-0.31243 -0.0619,-0.29986 -0.0619,-0.29986 v -0.64823 -0.64824 l 0.043,-0.28954 0.0429,-0.28954 0.10023,-0.3354 0.10022,-0.3354 0.14402,-0.32892 0.14402,-0.32891 0.18334,-0.32209 0.18334,-0.32209 0.26766,-0.36236 0.26767,-0.36235 0.39916,-0.40391 0.39916,-0.40391 0.4623,-0.37664 0.4623,-0.37664 0.44359,-0.32996 0.44358,-0.32995 0.72471,-0.51662 0.7247,-0.51663 0.614,-0.45782 0.61398,-0.45782 v -0.0239 -0.0239 l -0.25647,-0.27187 -0.25647,-0.27188 -0.12008,-0.1759 -0.12009,-0.17589 -0.0909,-0.24157 -0.091,-0.24157 -0.0206,-0.34222 -0.0206,-0.34223 0.0659,-0.26169 0.0659,-0.26171 0.12609,-0.25125 0.12609,-0.25126 0.22567,-0.22134 0.22568,-0.22135 0.15447,-0.10495 0.15449,-0.10496 0.20787,-0.095 0.20787,-0.095 0.29077,-0.045 0.29077,-0.045 0.31316,0.047 0.31315,0.047 0.31962,0.16569 0.31963,0.16568 0.22699,0.22307 0.227,0.22306 0.14469,0.2617 0.14469,0.2617 0.0694,0.24152 0.0694,0.24152 -0.003,0.32214 -0.003,0.32214 -0.0822,0.2617 -0.0822,0.2617 -0.11806,0.18607 -0.11806,0.18607 -0.26587,0.28183 -0.26586,0.28183 1.5e-4,0.0555 1.5e-4,0.0555 0.5735,0.42779 0.5735,0.42779 0.88575,0.63493 0.88575,0.63493 0.14092,0.10457 0.14092,0.10458 0.36235,0.28063 0.36235,0.28064 0.40821,0.35271 0.4082,0.3527 0.30582,0.32918 0.30581,0.32919 0.25226,0.35725 0.25225,0.35726 0.19074,0.35136 0.19074,0.35136 0.15877,0.40261 0.15877,0.40262 0.0872,0.42274 0.0872,0.42275 0.001,0.7247 10e-4,0.72471 -0.0837,0.34438 -0.0837,0.34438 -0.0666,0.19915 -0.0666,0.19915 -0.13166,0.30196 -0.13166,0.30197 -0.18394,0.3111 -0.18393,0.3111 -0.24019,0.31295 -0.24019,0.31295 -0.21526,0.20523 -0.21528,0.20522 -0.24157,0.18285 -0.24157,0.18285 -0.0902,0.0973 -0.0902,0.0973 0.34447,1.38681 0.34446,1.38681 0.0578,0.2744 0.0578,0.27439 v 0.18972 0.18972 l -0.0686,0.0995 -0.0686,0.0995 -0.0622,0.0526 -0.0622,0.0526 -0.56366,0.28021 -0.56367,0.28021 -0.60392,0.23685 -0.60392,0.23684 -0.58379,0.16322 -0.58379,0.16323 -0.2315,0.0449 -0.23151,0.0449 v 0.0289 0.029 l 0.27177,0.14589 0.27176,0.14589 0.2617,0.0853 0.2617,0.0853 0.36235,0.0665 0.36236,0.0665 2.13386,0.008 2.13385,0.008 0.44288,0.067 0.44288,0.067 0.5234,0.13436 0.52339,0.13435 0.50327,0.18796 0.50328,0.18797 0.42274,0.22322 0.42274,0.22322 0.34045,0.22184 0.34044,0.22185 0.31002,0.236 0.31003,0.236 0.20174,0.19651 0.20174,0.1965 0.0281,0.18712 0.0281,0.18712 -0.0718,0.11065 -0.0718,0.11065 -0.76818,0.77868 -0.76817,0.77868 -0.33629,0.28604 -0.33629,0.28605 -0.13548,-0.004 -0.13549,-0.004 -0.27306,-0.19351 -0.27307,-0.19351 -0.32209,-0.21951 -0.32209,-0.21951 -0.5234,-0.25185 -0.5234,-0.25185 -0.34222,-0.1014 -0.34223,-0.10141 -0.32209,-0.0613 -0.32209,-0.0613 -0.36235,-0.0407 -0.36236,-0.0407 -0.68444,-0.041 -0.68445,-0.041 -0.84549,-0.0433 -0.84549,-0.0433 -0.57041,-0.0758 -0.57041,-0.0758 -0.41599,-0.10429 -0.416,-0.10429 -0.28183,-0.10551 -0.28183,-0.10552 -0.55058,-0.27446 -0.55058,-0.27447 -0.57176,0.28459 -0.57175,0.28458 -0.34256,0.11869 -0.34256,0.1187 -0.32674,0.0787 -0.32675,0.0787 -0.58701,0.0789 -0.58702,0.0789 -1.22475,0.0625 -1.22475,0.0625 -0.48313,0.0416 -0.48314,0.0416 -0.40974,0.0597 -0.40974,0.0597 -0.29914,0.0784 -0.29915,0.0784 -0.3983,0.16262 -0.39832,0.16261 -0.39406,0.2209 -0.39407,0.2209 -0.36583,0.26851 -0.36583,0.26851 -0.14443,0.0736 -0.14444,0.0736 -0.0418,-0.001 -0.0418,-10e-4 z m 0.516,-1.51728 0.29093,-0.19632 0.40478,-0.20313 0.40479,-0.20313 0.37946,-0.16178 0.37947,-0.16179 0.3597,-0.10393 0.3597,-0.10392 0.44006,-0.0792 0.44005,-0.0792 0.71005,-0.0588 0.71005,-0.0588 0.96628,-0.0434 0.96627,-0.0434 0.48314,-0.0417 0.48314,-0.0417 0.38248,-0.0823 0.38249,-0.0823 0.42274,-0.15089 0.42275,-0.1509 0.2617,-0.13177 0.2617,-0.13177 0.26447,-0.1705 0.26448,-0.1705 0.15034,-0.0496 0.15035,-0.0496 0.10858,0.0269 0.10858,0.0269 0.38583,0.23806 0.38584,0.23806 0.25835,0.11687 0.25835,0.11687 0.3445,0.12134 0.3445,0.12134 0.3802,0.0822 0.38021,0.0822 0.50327,0.0415 0.50327,0.0415 0.92601,0.0414 0.92601,0.0414 0.56366,0.0421 0.56366,0.0421 0.43124,0.0605 0.43124,0.0605 0.41426,0.0999 0.41425,0.0999 0.38248,0.14221 0.38249,0.14221 0.5234,0.26075 0.5234,0.26074 0.31031,0.20347 0.31032,0.20348 0.11243,-0.0821 0.11243,-0.0821 0.45294,-0.46021 0.45294,-0.46021 -9.3e-4,-0.0354 -9.3e-4,-0.0354 -0.43178,-0.28115 -0.43178,-0.28116 -0.48314,-0.24892 -0.48314,-0.24893 -0.42274,-0.14691 -0.42274,-0.14692 -0.40262,-0.0997 -0.40261,-0.0997 -0.82537,-0.0373 -0.82536,-0.0373 -1.59032,-0.002 -1.59034,-0.002 -0.30099,-0.0391 -0.301,-0.0391 -0.53561,-0.16115 -0.53562,-0.16116 -0.31084,-0.15718 -0.31084,-0.1572 -0.28284,-0.1997 -0.28284,-0.1997 -0.22043,-0.2005 -0.22043,-0.20049 -0.0879,-0.0464 -0.0879,-0.0464 h -0.42316 -0.42316 l -0.31262,0.26568 -0.31262,0.26568 -0.24321,0.17288 -0.2432,0.17288 -0.26171,0.13956 -0.26169,0.13956 -0.44288,0.14561 -0.44288,0.14561 -0.2617,0.0655 -0.2617,0.0655 -2.41569,0.0336 -2.41569,0.0336 -0.28182,0.0422 -0.28184,0.0422 -0.45737,0.12107 -0.45738,0.12108 -0.36798,0.14521 -0.36799,0.14522 -0.41373,0.21871 -0.41373,0.2187 -0.41163,0.26522 -0.41163,0.26522 -0.0182,0.0167 -0.0182,0.0167 0.56117,0.56226 0.56118,0.56225 h 0.0326 0.0326 z m 12.15605,-5.45976 0.51308,-0.0602 0.30889,-0.0638 0.30889,-0.0638 0.48653,-0.14103 0.48653,-0.14104 0.40512,-0.15801 0.40511,-0.15802 0.078,-0.0577 0.078,-0.0577 -0.2617,-0.11854 -0.26169,-0.11855 -0.50327,-0.16293 -0.50327,-0.16292 -0.48314,-0.12131 -0.48314,-0.12132 -0.36235,-0.0527 -0.36235,-0.0527 -1.32863,0.003 -1.32863,0.003 -0.46301,0.0849 -0.46301,0.0849 -0.63127,0.18285 -0.63128,0.18285 -0.25448,0.0971 -0.25448,0.0971 -0.19886,0.0866 -0.19887,0.0866 0.13811,0.084 0.13811,0.084 0.34651,0.13383 0.34651,0.13382 0.49935,0.14057 0.49935,0.14056 0.50326,0.10143 0.50327,0.10143 0.3221,0.0394 0.32208,0.0394 0.88576,-0.0177 0.88575,-0.0177 z m -5.79778,-2.1501 0.41306,-0.15649 0.40262,-0.12866 0.40261,-0.12866 0.64419,-0.15457 0.64418,-0.15458 0.40261,-0.0491 0.40262,-0.0491 1.06693,3e-4 1.06693,3.1e-4 0.40261,0.0468 0.40262,0.0468 0.46119,0.10333 0.46119,0.10333 0.3843,0.11135 0.3843,0.11134 0.57435,0.20688 0.57434,0.20687 h 0.0643 0.0643 l -0.0269,-0.15097 -0.0269,-0.15099 -0.20217,-0.82536 -0.20218,-0.82536 -0.0871,-0.15513 -0.0871,-0.15514 -0.14123,-0.072 -0.14124,-0.072 -0.52339,-0.14315 -0.5234,-0.14315 -0.26825,-0.0612 -0.26823,-0.0612 -0.41621,-0.0719 -0.4162,-0.0718 h -1.46955 -1.46954 l -0.46301,0.073 -0.463,0.073 -0.40768,0.0979 -0.40768,0.0979 -0.35729,0.10149 -0.35729,0.1015 -0.14135,0.0615 -0.14136,0.0615 -0.0921,0.13438 -0.0921,0.13439 -0.23894,0.94083 -0.23894,0.94084 -9.3e-4,0.0906 -9.3e-4,0.0906 h 0.0198 0.0198 z m 0.35267,-3.39437 0.50327,-0.15704 0.46301,-0.11682 0.463,-0.11682 0.46301,-0.0811 0.46301,-0.0811 0.42274,-0.0473 0.42275,-0.0473 0.84549,9.3e-4 0.84549,9.3e-4 0.52712,0.0638 0.52712,0.0638 0.5289,0.10312 0.5289,0.10313 0.61483,0.1767 0.61483,0.1767 0.23781,0.0837 0.23781,0.0837 h 0.0709 0.0709 l 0.0134,-0.0326 0.0134,-0.0326 0.19536,-0.13328 0.19536,-0.13327 0.29236,-0.29235 0.29235,-0.29237 0.18699,-0.26202 0.18698,-0.26204 0.19939,-0.41741 0.19939,-0.41741 0.10898,-0.44264 0.10898,-0.44266 -4.6e-4,-0.58379 -4.7e-4,-0.58379 -0.064,-0.28246 -0.064,-0.28245 -0.10823,-0.30134 -0.10822,-0.30133 -0.12064,-0.24157 -0.12066,-0.24157 -0.21177,-0.32209 -0.21178,-0.32209 -0.23632,-0.26242 -0.23633,-0.26241 -0.28515,-0.27018 -0.28515,-0.27019 -0.31872,-0.26691 -0.31872,-0.26691 -0.54499,-0.40834 -0.545,-0.40834 -0.51747,-0.36235 -0.51748,-0.36235 -0.66877,-0.50037 -0.66877,-0.50038 -0.31783,-0.26059 -0.31782,-0.26059 -0.0769,0.048 -0.0769,0.048 -0.37029,0.28986 -0.37029,0.28986 -0.0201,0.0234 -0.0201,0.0234 -0.60392,0.44175 -0.60392,0.44175 -0.42275,0.29734 -0.42274,0.29733 -0.56366,0.42318 -0.56367,0.42318 -0.32209,0.26086 -0.32209,0.26087 -0.45509,0.4461 -0.45508,0.44611 -0.24479,0.3467 -0.24478,0.34669 -0.13859,0.25097 -0.13859,0.25098 -0.13481,0.34906 -0.13481,0.34907 -0.069,0.36176 -0.069,0.36177 v 0.46301 0.463 l 0.0687,0.36012 0.0687,0.36012 0.0834,0.24381 0.0834,0.2438 0.12031,0.24157 0.12031,0.24156 0.18169,0.28184 0.18169,0.28183 0.28433,0.29329 0.28434,0.2933 0.20335,0.15688 0.20335,0.15689 0.12065,0.0626 0.12064,0.0626 0.0805,-0.0255 0.0805,-0.0255 z m 3.67002,-2.71074 -0.12074,-0.1016 -0.0434,-0.20235 -0.0434,-0.20234 v -0.7026 -0.70259 l -0.27176,-0.003 -0.27177,-0.003 -0.59918,-0.0278 -0.59919,-0.0278 -0.13327,-0.15418 -0.13328,-0.15417 -0.0256,-0.11662 -0.0256,-0.11661 0.0443,-0.13441 0.0443,-0.13442 0.12108,-0.116 0.12109,-0.11601 0.49197,-0.0283 0.49197,-0.0282 0.36666,-0.003 0.36665,-0.003 0.0206,-0.82434 0.0206,-0.82434 0.0679,-0.1036 0.0679,-0.10359 0.12867,-0.0784 0.12866,-0.0785 0.16568,-1.5e-4 0.16568,-1.5e-4 0.11615,0.0896 0.11615,0.0897 0.0472,0.0613 0.0472,0.0613 0.0224,0.16105 0.0224,0.16104 0.007,0.6221 0.007,0.62209 0.0177,0.0676 0.0177,0.0676 0.8269,0.0295 0.8269,0.0295 0.15493,0.13996 0.15492,0.13997 0.0257,0.13699 0.0257,0.13699 -0.0251,0.10019 -0.0251,0.10017 -0.12327,0.14041 -0.12328,0.14041 -0.12778,0.0199 -0.12777,0.02 -0.7549,0.0259 -0.7549,0.0259 v 0.72265 0.72264 l -0.0452,0.17944 -0.0452,0.17943 -0.11895,0.10009 -0.11895,0.10009 h -0.23539 -0.23539 z m 0.88991,-9.87655 0.18258,-0.12562 0.12265,-0.16678 0.12264,-0.16677 0.0434,-0.20211 0.0433,-0.20211 -0.0263,-0.14538 -0.0264,-0.14539 -0.0747,-0.14871 -0.0747,-0.14872 -0.14409,-0.13994 -0.1441,-0.13994 -0.14814,-0.0737 -0.14814,-0.0737 -0.2617,0.002 -0.2617,0.002 -0.16285,0.0853 -0.16286,0.0853 -0.16624,0.18035 -0.16625,0.18036 -0.0431,0.15519 -0.0431,0.1552 -1.5e-4,0.20347 -1.5e-4,0.20347 0.10428,0.20927 0.10429,0.20928 0.14585,0.12022 0.14585,0.12022 0.16254,0.0602 0.16255,0.0602 0.26618,-0.0136 0.26619,-0.0136 z"
         id="path18"
         transform="translate(-45.620688,-171.14424)" />
    </g>
    <g
       id="g3-1-9-64"
       transform="translate(99.969461,-39.705643)"
       inkscape:label="Joker"
       inkscape:export-filename="../../../../../OneDrive - National University of Singapore/Orbital/Assets/Clubs/g3-1-9.svg"
       inkscape:export-xdpi="96"
       inkscape:export-ydpi="96">
      <path
         style="fill:#000000;fill-opacity:1;stroke:#ffffff;stroke-width:4;stroke-linecap:round;stroke-linejoin:round;stroke-dasharray:none;stroke-opacity:1"
         id="rect1-7-7-4-6"
         width="40"
         height="56"
         x="40.845924"
         y="73.133659"
         sodipodi:type="rect"
         transform="translate(-31.315211,-13.420804)"
         inkscape:path-effect="#path-effect8-2"
         d="m 46.845924,73.133659 h 28 a 6,6 45 0 1 6,6 v 44.000001 a 6,6 135 0 1 -6,6 h -28 a 6,6 45 0 1 -6,-6 V 79.133659 a 6,6 135 0 1 6,-6 z"
         inkscape:label="rect1-7-7-4-6" />
      <path
         style="fill:url(#pattern15);fill-opacity:1;stroke:#ffffff;stroke-width:4;stroke-linecap:round;stroke-linejoin:round;stroke-dasharray:none;stroke-opacity:1"
         id="rect1-7-7-4"
         width="40"
         height="56"
         x="40.845924"
         y="73.133659"
         sodipodi:type="rect"
         transform="translate(-31.315211,-13.420804)"
         inkscape:path-effect="#path-effect8"
         d="m 46.845924,73.133659 h 28 a 6,6 45 0 1 6,6 v 44.000001 a 6,6 135 0 1 -6,6 h -28 a 6,6 45 0 1 -6,-6 V 79.133659 a 6,6 135 0 1 6,-6 z"
         inkscape:export-filename="back_panel.png"
         inkscape:export-xdpi="96"
         inkscape:export-ydpi="96" />
      <path
         style="fill:#ffffff;fill-opacity:1;stroke-width:0.284493;stroke-opacity:0.980736"
         id="rect4"
         width="36.039974"
         height="20.689613"
         x="11.510726"
         y="77.36805"
         sodipodi:type="rect"
         transform="matrix(0.90451722,0,0,0.93548387,2.8196749,5.6588931)"
         inkscape:path-effect="#path-effect6"
         d="M 14.510726,77.36805 H 44.5507 a 3,3 45 0 1 3,3 v 14.689613 a 3,3 135 0 1 -3,3 H 14.510726 a 3,3 45 0 1 -3,-3 V 80.36805 a 3,3 135 0 1 3,-3 z" />
      <g
         id="g1"
         transform="translate(-1.6225586e-6,-0.38237591)">
        <path
           style="-inkscape-font-specification:'Playfair Display Ultra-Bold';fill:#ff0f0f;stroke-width:0.264583"
           d="m 18.906109,87.241596 q 0.656166,0 1.016,0.137584 0.359833,0.127 0.613833,0.275166 0.127,0.07408 0.201083,0.116417 0.08467,0.03175 0.15875,0.03175 0.105834,0 0.148167,-0.116417 0.05292,-0.116416 0.08467,-0.34925 h 0.243416 q -0.01058,0.211667 -0.03175,0.497417 -0.01058,0.28575 -0.02117,0.762 0,0.465667 0,1.23825 h -0.243417 q -0.04233,-0.5715 -0.264583,-1.100667 -0.22225,-0.529166 -0.613834,-0.878416 -0.381,-0.34925 -0.941916,-0.34925 -0.486834,0 -0.804334,0.275166 -0.3175,0.264584 -0.3175,0.762 0,0.402167 0.201084,0.6985 0.201083,0.28575 0.60325,0.582084 0.41275,0.296333 1.037166,0.73025 0.497417,0.328083 0.889,0.656166 0.391584,0.328084 0.624417,0.740834 0.243417,0.412749 0.243417,0.994833 0,0.6985 -0.381,1.164166 -0.381,0.455084 -1.005417,0.687917 -0.624417,0.22225 -1.36525,0.22225 -0.687917,0 -1.100667,-0.127 -0.402166,-0.127 -0.687916,-0.264583 -0.232834,-0.148167 -0.359834,-0.148167 -0.105833,0 -0.15875,0.116417 -0.04233,0.116416 -0.07408,0.34925 h -0.243417 q 0.02117,-0.264584 0.02117,-0.613834 0.01058,-0.359833 0.01058,-0.92075 0.01058,-0.560916 0.01058,-1.428749 h 0.243416 q 0.04233,0.719666 0.232834,1.344083 0.201083,0.624416 0.60325,1.016 0.41275,0.381 1.090083,0.381 0.381,0 0.66675,-0.127 0.28575,-0.127 0.455083,-0.370417 0.169334,-0.254 0.169334,-0.613833 0,-0.4445 -0.201084,-0.772584 -0.201083,-0.328083 -0.550333,-0.613833 -0.34925,-0.296333 -0.814917,-0.592666 -0.497416,-0.328084 -0.931333,-0.66675 -0.433917,-0.338667 -0.6985,-0.751417 -0.254,-0.423333 -0.254,-1.016 0,-0.677333 0.34925,-1.11125 0.34925,-0.433917 0.92075,-0.635 0.582083,-0.211667 1.227667,-0.211667 z m 7.101414,0.137584 v 0.211666 q -0.359834,0.01058 -0.550334,0.08467 -0.179916,0.0635 -0.243416,0.254 -0.0635,0.179917 -0.0635,0.5715 v 5.418666 q 0,0.306917 0.04233,0.465667 0.05292,0.148167 0.179917,0.201083 0.127,0.04233 0.381,0.04233 h 0.433916 q 0.3175,0 0.635,-0.1905 0.3175,-0.1905 0.592667,-0.529167 0.275167,-0.34925 0.47625,-0.79375 0.201083,-0.455083 0.28575,-0.973667 h 0.243416 q -0.03175,0.370417 -0.03175,0.9525 0,0.264584 0.01058,0.762 0.01058,0.486834 0.0635,1.016 -0.53975,-0.02117 -1.217083,-0.02117 -0.677334,-0.01058 -1.2065,-0.01058 -0.275167,0 -0.6985,0 -0.423334,0 -0.92075,0.01058 -0.497417,0 -1.005417,0.01058 -0.508,0 -0.9525,0.01058 v -0.211666 q 0.328083,-0.02117 0.486833,-0.08467 0.169334,-0.0635 0.22225,-0.254 0.0635,-0.1905 0.0635,-0.5715 v -5.249333 q 0,-0.391583 -0.0635,-0.5715 -0.05292,-0.1905 -0.22225,-0.254 -0.15875,-0.07408 -0.486833,-0.08467 V 87.37918 q 0.28575,0.01058 0.762,0.02117 0.47625,0.01058 1.016,0.01058 0.497417,0 0.973667,-0.01058 0.47625,-0.01058 0.79375,-0.02117 z m 9.099544,0 v 0.211666 q -0.232833,0.105834 -0.508,0.423334 -0.275167,0.306916 -0.497417,0.941916 l -2.148416,5.926667 q -0.105834,-0.01058 -0.232834,-0.01058 -0.116416,-0.01058 -0.232833,-0.01058 -0.116417,0 -0.243416,0.01058 -0.116417,0 -0.22225,0.01058 l -2.7305,-6.614583 q -0.148167,-0.381 -0.328084,-0.518584 -0.169333,-0.148166 -0.3175,-0.15875 V 87.37918 q 0.34925,0.01058 0.814917,0.02117 0.47625,0.01058 0.9525,0.01058 0.518583,0 0.963083,-0.01058 0.455084,-0.01058 0.73025,-0.02117 v 0.211666 q -0.338666,0.01058 -0.529166,0.07408 -0.179917,0.0635 -0.211667,0.254 -0.02117,0.179916 0.127,0.560916 l 1.915583,4.79425 -0.232833,0.296333 1.3335,-3.661833 q 0.306916,-0.85725 0.3175,-1.354666 0.01058,-0.508 -0.22225,-0.73025 Q 33.3714,87.60143 32.948067,87.590846 V 87.37918 q 0.381,0.01058 0.687917,0.02117 0.3175,0.01058 0.66675,0.01058 0.22225,0 0.433916,-0.01058 0.211667,-0.01058 0.370417,-0.02117 z m 0.211669,0 q 0.28575,0.01058 0.762,0.02117 0.47625,0.01058 0.9525,0.01058 0.518584,0 0.994834,-0.01058 0.486833,-0.01058 0.687916,-0.01058 1.037167,0 1.703917,0.211667 0.677333,0.211666 1.016,0.624416 0.338667,0.402167 0.338667,1.005417 0,0.381 -0.15875,0.751417 -0.148167,0.359833 -0.518584,0.66675 -0.359833,0.306916 -1.005416,0.486833 -0.635,0.179917 -1.608667,0.179917 h -1.016 V 91.10452 h 0.910167 q 0.582083,0 0.878416,-0.232833 0.306917,-0.243417 0.41275,-0.635 0.116417,-0.402167 0.116417,-0.889 0,-0.836084 -0.264583,-1.291167 -0.264584,-0.465667 -0.899584,-0.465667 -0.391583,0 -0.508,0.179917 -0.105833,0.179917 -0.105833,0.73025 v 5.249333 q 0,0.381 0.05292,0.5715 0.0635,0.1905 0.22225,0.254 0.169333,0.0635 0.497416,0.08467 v 0.211666 q -0.296333,-0.02117 -0.762,-0.02117 -0.455083,-0.01058 -0.92075,-0.01058 -0.53975,0 -1.016,0.01058 -0.47625,0 -0.762,0.02117 v -0.211666 q 0.328084,-0.02117 0.486834,-0.08467 0.169333,-0.0635 0.22225,-0.254 0.0635,-0.1905 0.0635,-0.5715 V 88.50102 q 0,-0.391583 -0.0635,-0.5715 -0.05292,-0.1905 -0.22225,-0.254 -0.15875,-0.07408 -0.486834,-0.08467 z m 2.106084,3.757083 q 0.41275,0.01058 0.751416,0.04233 0.338667,0.03175 0.60325,0.0635 0.275167,0.02117 0.47625,0.03175 1.04775,0.0635 1.55575,0.402167 0.518584,0.328083 0.656167,0.98425 l 0.22225,1.100666 q 0.09525,0.402167 0.201083,0.5715 0.105834,0.15875 0.296334,0.148167 0.116416,0 0.201083,-0.04233 0.08467,-0.05292 0.169333,-0.148167 l 0.148167,0.137583 q -0.306917,0.328084 -0.66675,0.455084 -0.359833,0.137583 -0.836083,0.137583 -0.624417,0 -1.026584,-0.243417 -0.391583,-0.243416 -0.497416,-0.899583 L 39.499153,92.819013 Q 39.435653,92.385096 39.32982,92.04643 39.23457,91.707763 39.065236,91.517263 38.895903,91.31618 38.588986,91.31618 h -1.143 z"
           id="text2-2-3-4-6"
           aria-label="SLVR" />
        <text
           xml:space="preserve"
           transform="matrix(0.26458333,0,0,0.26458333,-92.267011,-31.110533)"
           id="text5"
           style="font-style:normal;font-weight:normal;font-size:40px;line-height:1.25;font-family:sans-serif;white-space:pre;shape-inside:url(#rect5);fill:#000000;fill-opacity:1;stroke:none"
           x="47.285255"
           y="0"><tspan
             x="409.62645"
             y="445.13579"
             id="tspan11"><tspan
               style="font-weight:600;font-size:29.3333px;font-family:'Playfair Display';-inkscape-font-specification:'Playfair Display Semi-Bold';text-align:center;text-anchor:middle"
               id="tspan10">PRBLM</tspan></tspan></text>
      </g>
    </g>
    <g
       id="g3-1-9-6"
       transform="translate(49.09946,-40.471813)"
       inkscape:label="Joker"
       inkscape:export-filename="joker_red.svg"
       inkscape:export-xdpi="96"
       inkscape:export-ydpi="96">
      <path
         style="fill:#ffffff;fill-opacity:1;stroke:#ff0f0f;stroke-width:0.423998;stroke-opacity:1"
         id="rect1-7-7-1"
         width="40"
         height="56"
         x="40.845924"
         y="73.133659"
         sodipodi:type="rect"
         transform="translate(-31.31521,-13.420804)"
         d="m 46.845924,73.133659 h 28 a 6,6 45 0 1 6,6 v 44.000001 a 6,6 135 0 1 -6,6 h -28 a 6,6 45 0 1 -6,-6 V 79.133659 a 6,6 135 0 1 6,-6 z"
         inkscape:path-effect="#path-effect2-5-19-4" />
      <text
         xml:space="preserve"
         transform="matrix(0.26458333,0,0,0.26458333,-38.271865,-3.0978674)"
         id="text2-2-3-9"
         style="font-style:normal;font-weight:normal;font-size:40px;line-height:1.25;font-family:sans-serif;white-space:pre;shape-inside:url(#rect2-0-6-5);display:inline;fill:#ff0f0f;fill-opacity:1;stroke:none"><tspan
           x="208.77734"
           y="278.35259"
           id="tspan13"><tspan
             style="font-weight:bold;font-size:32px;font-family:'Playfair Display';-inkscape-font-specification:'Playfair Display Bold'"
             id="tspan12">JOKER</tspan></tspan></text>
      <text
         xml:space="preserve"
         transform="matrix(-0.26458333,0,0,-0.26458333,97.333293,178.52358)"
         id="text2-2-3-2-7"
         style="font-style:normal;font-weight:normal;font-size:40px;line-height:1.25;font-family:sans-serif;white-space:pre;shape-inside:url(#rect2-0-6-8-1);display:inline;fill:#ff0f0f;fill-opacity:1;stroke:none"><tspan
           x="208.77734"
           y="278.35259"
           id="tspan15"><tspan
             style="font-weight:bold;font-size:32px;font-family:'Playfair Display';-inkscape-font-specification:'Playfair Display Bold'"
             id="tspan14">JOKER</tspan></tspan></text>
      <path
         style="fill:#ff0f0f;fill-opacity:1;stroke-width:0.152169"
         d="m 63.899067,272.90381 -0.0805,-0.0455 -0.12078,-0.0996 -0.12079,-0.0996 -0.45698,-0.42743 -0.45698,-0.42743 -0.5012,-0.53788 -0.50119,-0.53789 -0.063,-0.096 -0.0629,-0.0961 0.0282,-0.15066 0.0282,-0.15065 0.30964,-0.30247 0.30963,-0.30246 0.32333,-0.23003 0.32333,-0.23004 0.36867,-0.22119 0.36865,-0.2212 0.37372,-0.17778 0.3737,-0.1778 0.38712,-0.14464 0.38712,-0.14464 0.5389,-0.14043 0.53889,-0.14042 0.44288,-0.0693 0.44288,-0.0693 1.82243,0.009 1.82243,0.009 0.51274,-0.0462 0.51273,-0.0461 0.37654,-0.0953 0.37654,-0.0953 0.30791,-0.1654 0.3079,-0.16539 0.0312,-0.0301 0.0312,-0.0301 -0.33314,-0.0702 -0.33315,-0.0702 -0.42274,-0.12004 -0.42274,-0.12004 -0.44288,-0.16156 -0.44288,-0.16156 -0.42274,-0.18369 -0.42275,-0.18369 -0.34582,-0.17331 -0.34581,-0.17331 -0.12457,-0.10482 -0.12457,-0.10482 -0.0472,-0.14293 -0.0472,-0.14293 0.0283,-0.22817 0.0283,-0.22817 0.37853,-1.52063 0.37853,-1.52063 v -0.0578 -0.0578 l -0.33216,-0.25204 -0.33216,-0.25203 -0.31557,-0.3235 -0.31557,-0.3235 -0.25676,-0.38422 -0.25677,-0.38423 -0.18001,-0.38074 -0.18,-0.38075 -0.10167,-0.31243 -0.10167,-0.31243 -0.0619,-0.29986 -0.0619,-0.29986 v -0.64823 -0.64824 l 0.043,-0.28954 0.0429,-0.28954 0.10023,-0.3354 0.10022,-0.3354 0.14402,-0.32892 0.14402,-0.32891 0.18334,-0.32209 0.18334,-0.32209 0.26766,-0.36236 0.26767,-0.36235 0.39916,-0.40391 0.39916,-0.40391 0.4623,-0.37664 0.4623,-0.37664 0.44359,-0.32996 0.44358,-0.32995 0.72471,-0.51662 0.7247,-0.51663 0.614,-0.45782 0.61398,-0.45782 v -0.0239 -0.0239 l -0.25647,-0.27187 -0.25647,-0.27188 -0.12008,-0.1759 -0.12009,-0.17589 -0.0909,-0.24157 -0.091,-0.24157 -0.0206,-0.34222 -0.0206,-0.34223 0.0659,-0.26169 0.0659,-0.26171 0.12609,-0.25125 0.12609,-0.25126 0.22567,-0.22134 0.22568,-0.22135 0.15447,-0.10495 0.15449,-0.10496 0.20787,-0.095 0.20787,-0.095 0.29077,-0.045 0.29077,-0.045 0.31316,0.047 0.31315,0.047 0.31962,0.16569 0.31963,0.16568 0.22699,0.22307 0.227,0.22306 0.14469,0.2617 0.14469,0.2617 0.0694,0.24152 0.0694,0.24152 -0.003,0.32214 -0.003,0.32214 -0.0822,0.2617 -0.0822,0.2617 -0.11806,0.18607 -0.11806,0.18607 -0.26587,0.28183 -0.26586,0.28183 1.5e-4,0.0555 1.5e-4,0.0555 0.5735,0.42779 0.5735,0.42779 0.88575,0.63493 0.88575,0.63493 0.14092,0.10457 0.14092,0.10458 0.36235,0.28063 0.36235,0.28064 0.40821,0.35271 0.4082,0.3527 0.30582,0.32918 0.30581,0.32919 0.25226,0.35725 0.25225,0.35726 0.19074,0.35136 0.19074,0.35136 0.15877,0.40261 0.15877,0.40262 0.0872,0.42274 0.0872,0.42275 0.001,0.7247 10e-4,0.72471 -0.0837,0.34438 -0.0837,0.34438 -0.0666,0.19915 -0.0666,0.19915 -0.13166,0.30196 -0.13166,0.30197 -0.18394,0.3111 -0.18393,0.3111 -0.24019,0.31295 -0.24019,0.31295 -0.21526,0.20523 -0.21528,0.20522 -0.24157,0.18285 -0.24157,0.18285 -0.0902,0.0973 -0.0902,0.0973 0.34447,1.38681 0.34446,1.38681 0.0578,0.2744 0.0578,0.27439 v 0.18972 0.18972 l -0.0686,0.0995 -0.0686,0.0995 -0.0622,0.0526 -0.0622,0.0526 -0.56366,0.28021 -0.56367,0.28021 -0.60392,0.23685 -0.60392,0.23684 -0.58379,0.16322 -0.58379,0.16323 -0.2315,0.0449 -0.23151,0.0449 v 0.0289 0.029 l 0.27177,0.14589 0.27176,0.14589 0.2617,0.0853 0.2617,0.0853 0.36235,0.0665 0.36236,0.0665 2.13386,0.008 2.13385,0.008 0.44288,0.067 0.44288,0.067 0.5234,0.13436 0.52339,0.13435 0.50327,0.18796 0.50328,0.18797 0.42274,0.22322 0.42274,0.22322 0.34045,0.22184 0.34044,0.22185 0.31002,0.236 0.31003,0.236 0.20174,0.19651 0.20174,0.1965 0.0281,0.18712 0.0281,0.18712 -0.0718,0.11065 -0.0718,0.11065 -0.76818,0.77868 -0.76817,0.77868 -0.33629,0.28604 -0.33629,0.28605 -0.13548,-0.004 -0.13549,-0.004 -0.27306,-0.19351 -0.27307,-0.19351 -0.32209,-0.21951 -0.32209,-0.21951 -0.5234,-0.25185 -0.5234,-0.25185 -0.34222,-0.1014 -0.34223,-0.10141 -0.32209,-0.0613 -0.32209,-0.0613 -0.36235,-0.0407 -0.36236,-0.0407 -0.68444,-0.041 -0.68445,-0.041 -0.84549,-0.0433 -0.84549,-0.0433 -0.57041,-0.0758 -0.57041,-0.0758 -0.41599,-0.10429 -0.416,-0.10429 -0.28183,-0.10551 -0.28183,-0.10552 -0.55058,-0.27446 -0.55058,-0.27447 -0.57176,0.28459 -0.57175,0.28458 -0.34256,0.11869 -0.34256,0.1187 -0.32674,0.0787 -0.32675,0.0787 -0.58701,0.0789 -0.58702,0.0789 -1.22475,0.0625 -1.22475,0.0625 -0.48313,0.0416 -0.48314,0.0416 -0.40974,0.0597 -0.40974,0.0597 -0.29914,0.0784 -0.29915,0.0784 -0.3983,0.16262 -0.39832,0.16261 -0.39406,0.2209 -0.39407,0.2209 -0.36583,0.26851 -0.36583,0.26851 -0.14443,0.0736 -0.14444,0.0736 -0.0418,-0.001 -0.0418,-10e-4 z m 0.516,-1.51728 0.29093,-0.19632 0.40478,-0.20313 0.40479,-0.20313 0.37946,-0.16178 0.37947,-0.16179 0.3597,-0.10393 0.3597,-0.10392 0.44006,-0.0792 0.44005,-0.0792 0.71005,-0.0588 0.71005,-0.0588 0.96628,-0.0434 0.96627,-0.0434 0.48314,-0.0417 0.48314,-0.0417 0.38248,-0.0823 0.38249,-0.0823 0.42274,-0.15089 0.42275,-0.1509 0.2617,-0.13177 0.2617,-0.13177 0.26447,-0.1705 0.26448,-0.1705 0.15034,-0.0496 0.15035,-0.0496 0.10858,0.0269 0.10858,0.0269 0.38583,0.23806 0.38584,0.23806 0.25835,0.11687 0.25835,0.11687 0.3445,0.12134 0.3445,0.12134 0.3802,0.0822 0.38021,0.0822 0.50327,0.0415 0.50327,0.0415 0.92601,0.0414 0.92601,0.0414 0.56366,0.0421 0.56366,0.0421 0.43124,0.0605 0.43124,0.0605 0.41426,0.0999 0.41425,0.0999 0.38248,0.14221 0.38249,0.14221 0.5234,0.26075 0.5234,0.26074 0.31031,0.20347 0.31032,0.20348 0.11243,-0.0821 0.11243,-0.0821 0.45294,-0.46021 0.45294,-0.46021 -9.3e-4,-0.0354 -9.3e-4,-0.0354 -0.43178,-0.28115 -0.43178,-0.28116 -0.48314,-0.24892 -0.48314,-0.24893 -0.42274,-0.14691 -0.42274,-0.14692 -0.40262,-0.0997 -0.40261,-0.0997 -0.82537,-0.0373 -0.82536,-0.0373 -1.59032,-0.002 -1.59034,-0.002 -0.30099,-0.0391 -0.301,-0.0391 -0.53561,-0.16115 -0.53562,-0.16116 -0.31084,-0.15718 -0.31084,-0.1572 -0.28284,-0.1997 -0.28284,-0.1997 -0.22043,-0.2005 -0.22043,-0.20049 -0.0879,-0.0464 -0.0879,-0.0464 h -0.42316 -0.42316 l -0.31262,0.26568 -0.31262,0.26568 -0.24321,0.17288 -0.2432,0.17288 -0.26171,0.13956 -0.26169,0.13956 -0.44288,0.14561 -0.44288,0.14561 -0.2617,0.0655 -0.2617,0.0655 -2.41569,0.0336 -2.41569,0.0336 -0.28182,0.0422 -0.28184,0.0422 -0.45737,0.12107 -0.45738,0.12108 -0.36798,0.14521 -0.36799,0.14522 -0.41373,0.21871 -0.41373,0.2187 -0.41163,0.26522 -0.41163,0.26522 -0.0182,0.0167 -0.0182,0.0167 0.56117,0.56226 0.56118,0.56225 h 0.0326 0.0326 z m 12.15605,-5.45976 0.51308,-0.0602 0.30889,-0.0638 0.30889,-0.0638 0.48653,-0.14103 0.48653,-0.14104 0.40512,-0.15801 0.40511,-0.15802 0.078,-0.0577 0.078,-0.0577 -0.2617,-0.11854 -0.26169,-0.11855 -0.50327,-0.16293 -0.50327,-0.16292 -0.48314,-0.12131 -0.48314,-0.12132 -0.36235,-0.0527 -0.36235,-0.0527 -1.32863,0.003 -1.32863,0.003 -0.46301,0.0849 -0.46301,0.0849 -0.63127,0.18285 -0.63128,0.18285 -0.25448,0.0971 -0.25448,0.0971 -0.19886,0.0866 -0.19887,0.0866 0.13811,0.084 0.13811,0.084 0.34651,0.13383 0.34651,0.13382 0.49935,0.14057 0.49935,0.14056 0.50326,0.10143 0.50327,0.10143 0.3221,0.0394 0.32208,0.0394 0.88576,-0.0177 0.88575,-0.0177 z m -5.79778,-2.1501 0.41306,-0.15649 0.40262,-0.12866 0.40261,-0.12866 0.64419,-0.15457 0.64418,-0.15458 0.40261,-0.0491 0.40262,-0.0491 1.06693,3e-4 1.06693,3.1e-4 0.40261,0.0468 0.40262,0.0468 0.46119,0.10333 0.46119,0.10333 0.3843,0.11135 0.3843,0.11134 0.57435,0.20688 0.57434,0.20687 h 0.0643 0.0643 l -0.0269,-0.15097 -0.0269,-0.15099 -0.20217,-0.82536 -0.20218,-0.82536 -0.0871,-0.15513 -0.0871,-0.15514 -0.14123,-0.072 -0.14124,-0.072 -0.52339,-0.14315 -0.5234,-0.14315 -0.26825,-0.0612 -0.26823,-0.0612 -0.41621,-0.0719 -0.4162,-0.0718 h -1.46955 -1.46954 l -0.46301,0.073 -0.463,0.073 -0.40768,0.0979 -0.40768,0.0979 -0.35729,0.10149 -0.35729,0.1015 -0.14135,0.0615 -0.14136,0.0615 -0.0921,0.13438 -0.0921,0.13439 -0.23894,0.94083 -0.23894,0.94084 -9.3e-4,0.0906 -9.3e-4,0.0906 h 0.0198 0.0198 z m 0.35267,-3.39437 0.50327,-0.15704 0.46301,-0.11682 0.463,-0.11682 0.46301,-0.0811 0.46301,-0.0811 0.42274,-0.0473 0.42275,-0.0473 0.84549,9.3e-4 0.84549,9.3e-4 0.52712,0.0638 0.52712,0.0638 0.5289,0.10312 0.5289,0.10313 0.61483,0.1767 0.61483,0.1767 0.23781,0.0837 0.23781,0.0837 h 0.0709 0.0709 l 0.0134,-0.0326 0.0134,-0.0326 0.19536,-0.13328 0.19536,-0.13327 0.29236,-0.29235 0.29235,-0.29237 0.18699,-0.26202 0.18698,-0.26204 0.19939,-0.41741 0.19939,-0.41741 0.10898,-0.44264 0.10898,-0.44266 -4.6e-4,-0.58379 -4.7e-4,-0.58379 -0.064,-0.28246 -0.064,-0.28245 -0.10823,-0.30134 -0.10822,-0.30133 -0.12064,-0.24157 -0.12066,-0.24157 -0.21177,-0.32209 -0.21178,-0.32209 -0.23632,-0.26242 -0.23633,-0.26241 -0.28515,-0.27018 -0.28515,-0.27019 -0.31872,-0.26691 -0.31872,-0.26691 -0.54499,-0.40834 -0.545,-0.40834 -0.51747,-0.36235 -0.51748,-0.36235 -0.66877,-0.50037 -0.66877,-0.50038 -0.31783,-0.26059 -0.31782,-0.26059 -0.0769,0.048 -0.0769,0.048 -0.37029,0.28986 -0.37029,0.28986 -0.0201,0.0234 -0.0201,0.0234 -0.60392,0.44175 -0.60392,0.44175 -0.42275,0.29734 -0.42274,0.29733 -0.56366,0.42318 -0.56367,0.42318 -0.32209,0.26086 -0.32209,0.26087 -0.45509,0.4461 -0.45508,0.44611 -0.24479,0.3467 -0.24478,0.34669 -0.13859,0.25097 -0.13859,0.25098 -0.13481,0.34906 -0.13481,0.34907 -0.069,0.36176 -0.069,0.36177 v 0.46301 0.463 l 0.0687,0.36012 0.0687,0.36012 0.0834,0.24381 0.0834,0.2438 0.12031,0.24157 0.12031,0.24156 0.18169,0.28184 0.18169,0.28183 0.28433,0.29329 0.28434,0.2933 0.20335,0.15688 0.20335,0.15689 0.12065,0.0626 0.12064,0.0626 0.0805,-0.0255 0.0805,-0.0255 z m 3.67002,-2.71074 -0.12074,-0.1016 -0.0434,-0.20235 -0.0434,-0.20234 v -0.7026 -0.70259 l -0.27176,-0.003 -0.27177,-0.003 -0.59918,-0.0278 -0.59919,-0.0278 -0.13327,-0.15418 -0.13328,-0.15417 -0.0256,-0.11662 -0.0256,-0.11661 0.0443,-0.13441 0.0443,-0.13442 0.12108,-0.116 0.12109,-0.11601 0.49197,-0.0283 0.49197,-0.0282 0.36666,-0.003 0.36665,-0.003 0.0206,-0.82434 0.0206,-0.82434 0.0679,-0.1036 0.0679,-0.10359 0.12867,-0.0784 0.12866,-0.0785 0.16568,-1.5e-4 0.16568,-1.5e-4 0.11615,0.0896 0.11615,0.0897 0.0472,0.0613 0.0472,0.0613 0.0224,0.16105 0.0224,0.16104 0.007,0.6221 0.007,0.62209 0.0177,0.0676 0.0177,0.0676 0.8269,0.0295 0.8269,0.0295 0.15493,0.13996 0.15492,0.13997 0.0257,0.13699 0.0257,0.13699 -0.0251,0.10019 -0.0251,0.10017 -0.12327,0.14041 -0.12328,0.14041 -0.12778,0.0199 -0.12777,0.02 -0.7549,0.0259 -0.7549,0.0259 v 0.72265 0.72264 l -0.0452,0.17944 -0.0452,0.17943 -0.11895,0.10009 -0.11895,0.10009 h -0.23539 -0.23539 z m 0.88991,-9.87655 0.18258,-0.12562 0.12265,-0.16678 0.12264,-0.16677 0.0434,-0.20211 0.0433,-0.20211 -0.0263,-0.14538 -0.0264,-0.14539 -0.0747,-0.14871 -0.0747,-0.14872 -0.14409,-0.13994 -0.1441,-0.13994 -0.14814,-0.0737 -0.14814,-0.0737 -0.2617,0.002 -0.2617,0.002 -0.16285,0.0853 -0.16286,0.0853 -0.16624,0.18035 -0.16625,0.18036 -0.0431,0.15519 -0.0431,0.1552 -1.5e-4,0.20347 -1.5e-4,0.20347 0.10428,0.20927 0.10429,0.20928 0.14585,0.12022 0.14585,0.12022 0.16254,0.0602 0.16255,0.0602 0.26618,-0.0136 0.26619,-0.0136 z"
         id="path18-0"
         transform="translate(-45.620688,-171.14424)" />
    </g>
  </g>
</svg>
