<?xml version="1.0" encoding="UTF-8" standalone="no"?>
<!-- Created with Inkscape (http://www.inkscape.org/) -->

<svg
   width="40.424mm"
   height="56.424004mm"
   viewBox="0 0 40.424 56.424004"
   version="1.1"
   id="svg1"
   xml:space="preserve"
   xmlns="http://www.w3.org/2000/svg"
   xmlns:svg="http://www.w3.org/2000/svg"><defs
     id="defs1"><rect
       x="208.77827"
       y="241.85934"
       width="88.951309"
       height="72.043205"
       id="rect2-6-7-6" /><rect
       x="208.77827"
       y="241.85934"
       width="88.951309"
       height="72.043205"
       id="rect2-1-0-5-1" /></defs><g
     id="layer1"
     transform="translate(-9.6081459,-108.88377)"><g
       id="g9"
       transform="translate(-44.423632,49.998657)"><path
         style="fill:#ffffff;fill-opacity:1;stroke:#000000;stroke-width:0.423998;stroke-opacity:1"
         id="rect1-8-5-5"
         width="40"
         height="56"
         x="40.845924"
         y="73.133659"
         transform="translate(13.397852,-14.036546)"
         d="m 46.845924,73.133659 h 28 a 6,6 45 0 1 6,6 v 44.000001 a 6,6 135 0 1 -6,6 h -28 a 6,6 45 0 1 -6,-6 V 79.133659 a 6,6 135 0 1 6,-6 z" /><path
         d="m 66.306666,92.236491 c 0,-0.01183 0.08403,-0.122172 0.250903,-0.329506 0.304529,-0.378348 0.467073,-0.661288 0.629917,-1.096483 0.141788,-0.378925 0.295739,-0.999328 0.375174,-1.51192 l 0.01906,-0.122983 -0.07941,0.09037 c -0.252306,0.287166 -0.558918,0.507639 -0.908729,0.653435 -0.498876,0.207924 -0.989639,0.254336 -1.434586,0.135672 -0.614936,-0.163999 -1.048023,-0.642491 -1.231878,-1.361033 -0.05915,-0.231226 -0.07743,-0.402044 -0.06863,-0.641866 0.0083,-0.227323 0.04993,-0.415537 0.135532,-0.613267 0.231632,-0.53503 0.771693,-0.945221 1.459676,-1.108662 0.486656,-0.115613 1.132851,-0.08881 1.568649,0.06504 0.03139,0.01105 0.06247,0.02016 0.0691,0.02016 0.0066,0 -0.02743,-0.03503 -0.07566,-0.07784 -0.594237,-0.527493 -0.981069,-1.509513 -0.918498,-2.331715 0.06558,-0.861566 0.517181,-1.447152 1.295809,-1.680205 0.353507,-0.105813 0.829526,-0.135199 1.245063,-0.07687 0.857444,0.120364 1.397999,0.6028 1.568967,1.400273 0.03966,0.185062 0.04893,0.575493 0.01921,0.810092 -0.0255,0.201234 -0.100275,0.508928 -0.169786,0.698581 -0.07148,0.19504 -0.239827,0.528796 -0.348942,0.691806 -0.126898,0.189574 -0.193096,0.270721 -0.351825,0.431275 l -0.131251,0.132763 0.150024,-0.05081 c 0.260932,-0.08838 0.435252,-0.118283 0.735631,-0.126225 0.162995,-0.0043 0.31143,-0.0011 0.391107,0.0082 0.812353,0.09581 1.492859,0.528507 1.803592,1.146816 0.217838,0.433472 0.240331,0.928942 0.06594,1.452762 -0.192344,0.577782 -0.559235,0.957468 -1.099826,1.138185 -0.177545,0.05936 -0.33054,0.08548 -0.549725,0.09387 -0.410534,0.01573 -0.818591,-0.07473 -1.214939,-0.269318 -0.302015,-0.14827 -0.58146,-0.35522 -0.749583,-0.55512 -0.04553,-0.05414 -0.08446,-0.09348 -0.08648,-0.08741 -0.0051,0.01513 0.08096,0.430597 0.128808,0.622163 0.236225,0.945907 0.51252,1.500481 1.042858,2.093191 0.153249,0.171272 0.285935,0.335071 0.285935,0.352981 0,0.0075 -0.734858,0.01219 -1.910607,0.01219 -1.050834,0 -1.910608,-0.0039 -1.910608,-0.0087 z"
         style="fill:#000000;stroke-width:0.147882"
         id="path1-0-4-56-0-5-4" /><path
         d="m 66.306666,78.732989 c 0,-0.01183 0.08403,-0.122174 0.250902,-0.329508 0.304529,-0.378347 0.467074,-0.661287 0.629917,-1.096482 0.141788,-0.378926 0.295739,-0.999327 0.375174,-1.511921 l 0.01906,-0.122983 -0.07941,0.09037 c -0.252305,0.287166 -0.558917,0.50764 -0.908728,0.653436 -0.498876,0.207924 -0.989639,0.254335 -1.434586,0.135671 -0.614936,-0.163998 -1.048024,-0.642491 -1.231877,-1.361032 -0.05916,-0.231226 -0.07743,-0.402044 -0.06863,-0.641866 0.0083,-0.227324 0.04993,-0.415538 0.135533,-0.613268 0.231631,-0.535029 0.771693,-0.945221 1.459677,-1.108661 0.486654,-0.115613 1.132849,-0.08881 1.568648,0.06504 0.03138,0.01105 0.06247,0.02016 0.0691,0.02016 0.0066,0 -0.02743,-0.03503 -0.07566,-0.07784 -0.594237,-0.527493 -0.981069,-1.509512 -0.918499,-2.331715 0.06557,-0.861565 0.517181,-1.447151 1.295809,-1.680205 0.353507,-0.105813 0.829527,-0.135198 1.245065,-0.07687 0.857442,0.120363 1.397997,0.602799 1.568965,1.400273 0.03966,0.185062 0.04893,0.575492 0.01921,0.810093 -0.0255,0.201234 -0.100275,0.508927 -0.169785,0.69858 -0.07148,0.19504 -0.239827,0.528796 -0.348942,0.691805 -0.126899,0.189574 -0.193097,0.270721 -0.351826,0.431275 l -0.131251,0.132764 0.150025,-0.05081 c 0.260931,-0.08838 0.435251,-0.118284 0.73563,-0.126226 0.162995,-0.0043 0.31143,-0.0011 0.391107,0.0082 0.812353,0.09581 1.49286,0.528507 1.803592,1.146817 0.217838,0.433471 0.240331,0.928941 0.06594,1.452762 -0.192344,0.577781 -0.559235,0.957467 -1.099826,1.138185 -0.177545,0.05936 -0.33054,0.08548 -0.549723,0.09387 -0.410535,0.01573 -0.818593,-0.07473 -1.214941,-0.269318 -0.302015,-0.14827 -0.58146,-0.355218 -0.749583,-0.55512 -0.04553,-0.05414 -0.08446,-0.09348 -0.08648,-0.08741 -0.0051,0.01513 0.08096,0.430597 0.128808,0.622164 0.236225,0.945906 0.51252,1.50048 1.042858,2.093191 0.153249,0.171272 0.285935,0.335071 0.285935,0.35298 0,0.0075 -0.734858,0.01219 -1.910607,0.01219 -1.050834,0 -1.910608,-0.0039 -1.910608,-0.0087 z"
         style="fill:#000000;stroke-width:0.147882"
         id="path1-0-4-56-0-4" /><path
         d="m 66.306666,105.74002 c 0,-0.0119 0.08403,-0.12217 0.250902,-0.3295 0.304529,-0.37835 0.467074,-0.66129 0.629917,-1.09649 0.141788,-0.37894 0.295739,-0.99933 0.375174,-1.51193 l 0.01906,-0.12299 -0.07941,0.0904 c -0.252305,0.28716 -0.558917,0.50764 -0.908728,0.65344 -0.498876,0.20792 -0.989639,0.25434 -1.434586,0.13566 -0.614936,-0.16399 -1.048024,-0.6425 -1.231877,-1.36104 -0.05916,-0.23122 -0.07743,-0.40204 -0.06863,-0.64186 0.0083,-0.22732 0.04993,-0.41554 0.135533,-0.61327 0.231631,-0.53503 0.771693,-0.945219 1.459677,-1.108659 0.486654,-0.115607 1.132849,-0.0888 1.568648,0.065 0.03138,0.0111 0.06247,0.0202 0.0691,0.0202 0.0066,0 -0.02743,-0.035 -0.07566,-0.0778 -0.594237,-0.527487 -0.981069,-1.509491 -0.918499,-2.331683 0.06557,-0.861568 0.517181,-1.447158 1.295809,-1.680208 0.353507,-0.105813 0.829527,-0.1352 1.245065,-0.07691 0.857442,0.120371 1.397997,0.602795 1.568965,1.400275 0.03966,0.18506 0.04893,0.575498 0.01921,0.810098 -0.0255,0.20123 -0.100275,0.508917 -0.169785,0.698567 -0.07148,0.195037 -0.239827,0.528787 -0.348942,0.691794 -0.126899,0.18958 -0.193097,0.27071 -0.351826,0.43127 l -0.131251,0.132767 0.150025,-0.0508 c 0.260931,-0.0884 0.435251,-0.118277 0.73563,-0.126227 0.162995,-0.004 0.31143,-8.2e-4 0.391107,0.008 0.812353,0.0958 1.49286,0.528506 1.803592,1.146816 0.217838,0.43347 0.240331,0.92894 0.06594,1.45276 -0.192344,0.57778 -0.559235,0.95747 -1.099826,1.13819 -0.177545,0.0594 -0.33054,0.0855 -0.549723,0.0939 -0.410535,0.0157 -0.818593,-0.0748 -1.214941,-0.26932 -0.302015,-0.14827 -0.58146,-0.35523 -0.749583,-0.55513 -0.04553,-0.0541 -0.08446,-0.0934 -0.08648,-0.0874 -0.0051,0.0152 0.08096,0.43061 0.128808,0.62215 0.236225,0.94592 0.51252,1.50051 1.042858,2.09321 0.153249,0.17128 0.285935,0.33509 0.285935,0.35298 0,0.008 -0.734858,0.0122 -1.910607,0.0122 -1.050834,0 -1.910608,-0.003 -1.910608,-0.008 z"
         style="fill:#000000;stroke-width:0.147882"
         id="path1-0-4-5-2-4-5" /><path
         d="m 78.450998,68.454322 c 0,0.01183 0.08403,0.122172 0.250902,0.329506 0.30453,0.378348 0.467074,0.661288 0.629918,1.096483 0.141788,0.378926 0.295739,0.999328 0.375174,1.51192 l 0.01906,0.122984 -0.0794,-0.09037 c -0.252307,-0.287166 -0.558918,-0.507639 -0.908729,-0.653436 -0.498876,-0.207921 -0.98964,-0.254335 -1.434586,-0.135671 -0.614936,0.163998 -1.048023,0.642491 -1.231878,1.361032 -0.05915,0.231227 -0.07743,0.402045 -0.06863,0.641868 0.0083,0.227323 0.04993,0.415537 0.135532,0.613267 0.231632,0.535029 0.771693,0.94522 1.459676,1.108661 0.486656,0.115613 1.132851,0.08881 1.568649,-0.06504 0.03139,-0.01105 0.06248,-0.02015 0.0691,-0.02015 0.0066,0 -0.02743,0.03503 -0.07566,0.07784 -0.594236,0.527492 -0.981068,1.509513 -0.918497,2.331714 0.06558,0.861566 0.517181,1.447153 1.295809,1.680206 0.353506,0.105813 0.829526,0.135198 1.245062,0.07687 0.857445,-0.120363 1.397999,-0.602801 1.568968,-1.400274 0.03966,-0.185062 0.04893,-0.575493 0.01921,-0.810093 -0.0255,-0.201234 -0.100276,-0.508927 -0.169786,-0.698581 -0.07148,-0.195039 -0.239828,-0.528796 -0.348942,-0.691806 -0.126897,-0.189572 -0.193096,-0.270719 -0.351825,-0.431275 l -0.131252,-0.132763 0.150025,0.05081 c 0.260931,0.08838 0.435253,0.118283 0.735629,0.126224 0.162997,0.0043 0.311432,0.0011 0.391109,-0.0082 0.812352,-0.09581 1.492859,-0.528507 1.80359,-1.146817 0.21784,-0.433471 0.240332,-0.928941 0.06594,-1.452761 -0.192344,-0.577782 -0.559235,-0.957468 -1.099826,-1.138184 -0.177547,-0.05936 -0.33054,-0.08548 -0.549725,-0.09387 -0.410534,-0.01573 -0.818591,0.07473 -1.214939,0.269317 -0.302016,0.14827 -0.58146,0.35522 -0.749583,0.55512 -0.04553,0.05414 -0.08445,0.09348 -0.08648,0.08742 -0.0051,-0.01513 0.08096,-0.430596 0.128808,-0.622164 0.236226,-0.945906 0.512521,-1.500479 1.042859,-2.093191 0.153249,-0.171271 0.285934,-0.33507 0.285934,-0.352979 0,-0.0075 -0.734857,-0.01219 -1.910607,-0.01219 -1.050835,0 -1.910607,0.0039 -1.910607,0.0087 z"
         style="fill:#000000;stroke-width:0.147882"
         id="path1-0-4-56-4-8-9" /><path
         d="m 78.450998,81.957813 c 0,0.01183 0.08403,0.122173 0.250902,0.329506 0.30453,0.378349 0.467074,0.661289 0.629918,1.096484 0.141788,0.378926 0.295739,0.999327 0.375174,1.51192 l 0.01906,0.122984 -0.0794,-0.09037 c -0.252307,-0.287167 -0.558918,-0.50764 -0.908729,-0.653436 -0.498876,-0.207922 -0.98964,-0.254336 -1.434586,-0.135671 -0.614936,0.163997 -1.048023,0.642491 -1.231878,1.361032 -0.05915,0.231226 -0.07743,0.402045 -0.06863,0.641868 0.0083,0.227322 0.04993,0.415536 0.135532,0.613266 0.231632,0.53503 0.771693,0.94522 1.459676,1.108662 0.486656,0.115612 1.132851,0.08881 1.568649,-0.06504 0.03139,-0.01105 0.06248,-0.02015 0.0691,-0.02015 0.0066,0 -0.02743,0.03503 -0.07566,0.07784 -0.594236,0.527493 -0.981068,1.509513 -0.918497,2.331715 0.06558,0.861566 0.517181,1.447152 1.295809,1.680205 0.353506,0.105813 0.829526,0.135198 1.245062,0.07687 0.857445,-0.120363 1.397999,-0.6028 1.568968,-1.400274 0.03966,-0.185062 0.04893,-0.575492 0.01921,-0.810093 -0.0255,-0.201234 -0.100276,-0.508927 -0.169786,-0.69858 -0.07148,-0.19504 -0.239828,-0.528796 -0.348942,-0.691806 -0.126897,-0.189573 -0.193096,-0.270719 -0.351825,-0.431276 l -0.131252,-0.132763 0.150025,0.05081 c 0.260931,0.08838 0.435253,0.118284 0.735629,0.126225 0.162997,0.0043 0.311432,0.0011 0.391109,-0.0082 0.812352,-0.09581 1.492859,-0.528507 1.80359,-1.146818 0.21784,-0.433471 0.240332,-0.92894 0.06594,-1.452761 -0.192344,-0.577781 -0.559235,-0.957468 -1.099826,-1.138184 -0.177547,-0.05936 -0.33054,-0.08548 -0.549725,-0.09387 -0.410534,-0.01573 -0.818591,0.07473 -1.214939,0.269317 -0.302016,0.148271 -0.58146,0.35522 -0.749583,0.55512 -0.04553,0.05414 -0.08445,0.09348 -0.08648,0.08742 -0.0051,-0.01513 0.08096,-0.430597 0.128808,-0.622164 0.236226,-0.945907 0.512521,-1.50048 1.042859,-2.093191 0.153249,-0.171271 0.285934,-0.335071 0.285934,-0.35298 0,-0.0075 -0.734857,-0.01219 -1.910607,-0.01219 -1.050835,0 -1.910607,0.0039 -1.910607,0.0087 z"
         style="fill:#000000;stroke-width:0.147882"
         id="path1-0-4-56-4-8-9-9" /><path
         d="m 78.450998,95.461439 c 0,0.01183 0.08403,0.122165 0.250902,0.3295 0.30453,0.378348 0.467074,0.661285 0.629918,1.096479 0.141788,0.378929 0.295739,0.999335 0.375174,1.511922 l 0.01906,0.12298 -0.0794,-0.0904 c -0.252307,-0.287157 -0.558918,-0.507637 -0.908729,-0.653447 -0.498876,-0.207907 -0.98964,-0.25433 -1.434586,-0.135658 -0.614936,0.163998 -1.048023,0.642485 -1.231878,1.361022 -0.05915,0.23122 -0.07743,0.402037 -0.06863,0.641857 0.0083,0.227327 0.04993,0.415536 0.135532,0.613266 0.231632,0.53503 0.771693,0.94522 1.459676,1.10866 0.486656,0.11561 1.132851,0.0888 1.568649,-0.065 0.03139,-0.011 0.06248,-0.0201 0.0691,-0.0201 0.0066,0 -0.02743,0.035 -0.07566,0.0778 -0.594236,0.52749 -0.981068,1.50951 -0.918497,2.33171 0.06558,0.86158 0.517181,1.44715 1.295809,1.68021 0.353506,0.10586 0.829526,0.1352 1.245062,0.0769 0.857445,-0.12036 1.397999,-0.60279 1.568968,-1.40027 0.03966,-0.18506 0.04893,-0.57549 0.01921,-0.81009 -0.0255,-0.20123 -0.100276,-0.50893 -0.169786,-0.69858 -0.07148,-0.19504 -0.239828,-0.52879 -0.348942,-0.69181 -0.126897,-0.18957 -0.193096,-0.27071 -0.351825,-0.43126 l -0.131252,-0.13277 0.150025,0.0508 c 0.260931,0.0884 0.435253,0.11828 0.735629,0.12622 0.162997,0.004 0.311432,8.3e-4 0.391109,-0.008 0.812352,-0.0958 1.492859,-0.52851 1.80359,-1.14682 0.21784,-0.433469 0.240332,-0.928936 0.06594,-1.452753 -0.192344,-0.577777 -0.559235,-0.957454 -1.099826,-1.138177 -0.177547,-0.05936 -0.33054,-0.08546 -0.549725,-0.09392 -0.410534,-0.01578 -0.818591,0.07476 -1.214939,0.269323 -0.302016,0.14828 -0.58146,0.355217 -0.749583,0.555127 -0.04553,0.0541 -0.08445,0.0935 -0.08648,0.0874 -0.0051,-0.0151 0.08096,-0.430597 0.128808,-0.622167 0.236226,-0.945903 0.512521,-1.500481 1.042859,-2.093189 0.153249,-0.171274 0.285934,-0.335071 0.285934,-0.35298 0,-0.0075 -0.734857,-0.0122 -1.910607,-0.0122 -1.050835,0 -1.910607,0.0038 -1.910607,0.0084 z"
         style="fill:#000000;stroke-width:0.147882"
         id="path1-0-4-5-2-0-5-7" /><text
         xml:space="preserve"
         transform="matrix(0.26458333,0,0,0.26458333,2.683084,-3.3247578)"
         id="text2-5-5-3"
         style="font-style:normal;font-weight:normal;font-size:40px;line-height:1.25;font-family:sans-serif;white-space:pre;shape-inside:url(#rect2-6-7-6);display:inline;fill:#000000;fill-opacity:1;stroke:none"><tspan
           x="208.77734"
           y="278.77427"
           id="tspan2"><tspan
             style="font-weight:600;font-family:'New York Extra Large';-inkscape-font-specification:'New York Extra Large Semi-Bold'"
             id="tspan1">6</tspan></tspan></text><text
         xml:space="preserve"
         transform="matrix(-0.26458333,0,0,-0.26458333,145.80447,177.51899)"
         id="text2-7-4-1-5"
         style="font-style:normal;font-weight:normal;font-size:40px;line-height:1.25;font-family:sans-serif;white-space:pre;shape-inside:url(#rect2-1-0-5-1);display:inline;fill:#000000;fill-opacity:1;stroke:none"><tspan
           x="208.77734"
           y="278.77427"
           id="tspan4"><tspan
             style="font-weight:600;font-family:'New York Extra Large';-inkscape-font-specification:'New York Extra Large Semi-Bold'"
             id="tspan3">6</tspan></tspan></text></g></g></svg>
