<?xml version="1.0" encoding="UTF-8" standalone="no"?>
<!-- Created with Inkscape (http://www.inkscape.org/) -->

<svg
   width="40.424mm"
   height="56.423996mm"
   viewBox="0 0 40.424 56.423996"
   version="1.1"
   id="svg1"
   xml:space="preserve"
   xmlns="http://www.w3.org/2000/svg"
   xmlns:svg="http://www.w3.org/2000/svg"><defs
     id="defs1"><rect
       x="208.77827"
       y="241.85934"
       width="88.951309"
       height="72.043205"
       id="rect2-0-7-0" /><rect
       x="208.77827"
       y="241.85934"
       width="88.951309"
       height="72.043205"
       id="rect2-1-4-9-7" /></defs><g
     id="layer1"
     transform="translate(-142.61164,-167.85844)"><g
       id="g2"><path
         style="fill:#ffffff;fill-opacity:1;stroke:#000000;stroke-width:0.423998;stroke-opacity:1"
         id="rect1-7-1-9"
         width="40"
         height="56"
         x="40.845924"
         y="73.133659"
         transform="translate(101.97772,94.936773)"
         d="m 46.845924,73.133659 h 28 a 6,6 45 0 1 6,6 v 44.000001 a 6,6 135 0 1 -6,6 h -28 a 6,6 45 0 1 -6,-6 V 79.133659 a 6,6 135 0 1 6,-6 z" /><text
         xml:space="preserve"
         transform="matrix(0.26458333,0,0,0.26458333,91.262953,106.52237)"
         id="text2-2-1-2"
         style="font-style:normal;font-weight:normal;font-size:40px;line-height:1.25;font-family:sans-serif;white-space:pre;shape-inside:url(#rect2-0-7-0);display:inline;fill:#000000;fill-opacity:1;stroke:none"><tspan
           x="208.77734"
           y="279.32749"
           id="tspan2"><tspan
             style="font-weight:bold;font-family:'Playfair Display';-inkscape-font-specification:'Playfair Display Bold'"
             id="tspan1">K</tspan></tspan></text><text
         xml:space="preserve"
         transform="matrix(-0.26458333,0,0,-0.26458333,234.38434,287.36612)"
         id="text2-7-2-2-8"
         style="font-style:normal;font-weight:normal;font-size:40px;line-height:1.25;font-family:sans-serif;white-space:pre;shape-inside:url(#rect2-1-4-9-7);display:inline;fill:#000000;fill-opacity:1;stroke:none"><tspan
           x="208.77734"
           y="279.32749"
           id="tspan4"><tspan
             style="font-weight:bold;font-family:'Playfair Display';-inkscape-font-specification:'Playfair Display Bold'"
             id="tspan3">K</tspan></tspan></text><path
         d="m 113.39635,104.18066 c 4.9e-4,-0.0177 0.18625,-0.29307 0.41254,-0.6119 0.89247,-1.25736 1.28451,-1.95296 1.7558,-3.11528 0.28033,-0.691403 0.8335,-2.322423 1.10822,-3.267653 l 0.18904,-0.650389 -0.60614,0.315294 c -1.65714,0.861965 -3.22226,1.263885 -4.92167,1.263885 -2.23353,0 -4.17987,-0.74264 -5.56397,-2.122949 -0.89475,-0.8923 -1.42163,-1.871874 -1.69862,-3.15801 -0.13883,-0.644629 -0.14106,-1.941117 -0.004,-2.663729 0.2783,-1.47363 0.8708,-2.872296 1.8457,-4.357023 0.90698,-1.381264 1.50064,-2.074525 3.40138,-3.971991 3.37107,-3.365267 5.29537,-5.709734 7.94022,-9.673915 0.35905,-0.538165 0.67077,-0.96739 0.69271,-0.95383 0.022,0.01359 0.28608,0.434465 0.58697,0.935347 2.23566,3.721495 4.89024,6.918671 8.29794,9.994014 1.8263,1.648183 3.43847,4.025458 4.12618,6.084427 0.74154,2.220129 0.66846,4.215961 -0.21856,5.969009 -0.32885,0.649911 -0.65991,1.103705 -1.19863,1.64302 -1.37571,1.377214 -3.2382,2.10458 -5.38902,2.10458 -1.54235,0 -3.06907,-0.38306 -4.61131,-1.156996 -0.34187,-0.171552 -0.43418,-0.202943 -0.43418,-0.147621 0,0.127215 0.41907,1.742977 0.61842,2.384397 0.60583,1.949233 1.15063,2.960153 2.29637,4.261123 0.2521,0.28626 0.53263,0.61225 0.62339,0.72444 l 0.16503,0.20396 h -4.70714 c -2.58893,0 -4.70666,-0.0146 -4.70607,-0.0322 z"
         style="fill:#000000;stroke-width:0.486909"
         id="path1-90-5-0-1"
         transform="translate(45.108122,108.35757)" /><path
         style="fill:#ffffff;fill-opacity:1;stroke:#ffffff;stroke-width:0.0589485;stroke-opacity:1"
         d="m 162.26003,201.95005 c -1.03883,-0.0679 -1.94515,-0.25043 -2.91938,-0.58799 -0.37848,-0.13113 -0.57221,-0.22071 -0.61514,-0.28441 l -0.0354,-0.0526 -1.8e-4,-1.26493 -1.8e-4,-1.26495 -0.0564,-0.0701 c -0.41547,-0.51745 -0.87715,-1.22845 -1.1444,-1.76244 -0.24627,-0.49205 -0.38182,-0.86076 -0.46154,-1.25553 -0.0387,-0.19199 -0.0441,-0.2513 -0.0432,-0.49131 8.3e-4,-0.24169 0.005,-0.29011 0.0409,-0.42296 0.14698,-0.55169 0.53044,-0.9064 1.18489,-1.09604 0.29441,-0.0853 0.50269,-0.11023 0.92449,-0.11056 0.35055,-2.9e-4 0.40724,0.003 0.56149,0.0363 0.6303,0.13433 1.14657,0.41603 1.63766,0.89359 0.0857,0.0834 0.18756,0.1904 0.22616,0.23776 0.0385,0.0473 0.0747,0.0864 0.0803,0.0868 0.005,4.1e-4 0.004,-0.0256 -0.003,-0.0577 -0.007,-0.0322 -0.0285,-0.17079 -0.0467,-0.30803 -0.0461,-0.34774 -0.0365,-0.80846 0.0218,-1.05279 0.12855,-0.53887 0.43116,-0.86293 0.90365,-0.96768 l 0.0898,-0.02 v -0.37965 -0.37963 h -0.4757 -0.47571 v -0.21057 -0.21054 l 0.37823,-0.001 c 0.20802,-6.7e-4 0.42196,-1.6e-4 0.47542,0.001 l 0.0972,0.002 0.004,-0.38709 0.004,-0.38708 h 0.21056 0.21056 l 0.004,0.3872 0.004,0.38719 0.0583,-0.002 c 0.0321,-0.001 0.24595,-0.002 0.47542,-0.001 l 0.41723,0.001 v 0.21056 0.21055 h -0.47599 -0.47597 l 0.004,0.38366 0.004,0.38367 0.11815,0.0372 c 0.45042,0.14198 0.72511,0.59081 0.79622,1.301 0.0211,0.21081 0.008,0.67694 -0.0239,0.92022 -0.0122,0.0901 -0.0208,0.16515 -0.0192,0.16685 0.001,0.002 0.0379,-0.0403 0.0806,-0.0936 0.12527,-0.15629 0.44036,-0.46169 0.60817,-0.58948 0.49245,-0.37502 1.01435,-0.57929 1.5947,-0.6242 0.42072,-0.0326 0.92571,0.0412 1.3683,0.19952 0.48112,0.17219 0.81672,0.45727 0.97388,0.82722 0.22626,0.53259 0.12603,1.20296 -0.31347,2.09658 -0.25489,0.51829 -0.42228,0.79736 -1.05581,1.76031 l -0.2206,0.33534 -1.3e-4,1.27114 c -1.1e-4,1.23549 -9.3e-4,1.27255 -0.0308,1.32134 -0.0377,0.0618 -0.13743,0.11353 -0.47331,0.24521 -0.82224,0.32235 -1.71884,0.52663 -2.7089,0.61722 -0.24496,0.0224 -1.22155,0.0327 -1.48344,0.0155 z m 1.09352,-0.42142 c 0.83959,-0.0399 1.61114,-0.17238 2.36647,-0.40619 0.39961,-0.12369 0.38895,-0.11125 0.14477,-0.16892 -0.4312,-0.10192 -1.09838,-0.21641 -1.54813,-0.26583 -0.3724,-0.0408 -0.45501,-0.0484 -0.69017,-0.0627 -1.3458,-0.0817 -2.70048,0.0315 -3.8758,0.3236 l -0.17937,0.0446 0.20276,0.0633 c 1.19834,0.37485 2.37132,0.52953 3.57947,0.47203 z m -3.86801,-0.95004 c 1.6038,-0.41627 3.30574,-0.51308 5.08456,-0.28924 0.55398,0.0697 1.2054,0.19427 1.71182,0.32732 0.11371,0.0299 0.21723,0.0544 0.23007,0.0544 0.0201,0 0.0233,-0.0506 0.0233,-0.35781 0,-0.20857 -0.006,-0.36161 -0.0147,-0.36693 -0.008,-0.005 -0.17833,-0.0504 -0.37822,-0.10097 -1.73728,-0.43913 -3.56046,-0.53902 -5.26864,-0.28862 -0.36213,0.0531 -0.57916,0.0931 -0.931,0.17145 -0.2683,0.0597 -0.76295,0.19027 -0.80415,0.2121 -0.0248,0.0131 -0.0272,0.0475 -0.0272,0.37445 v 0.36 l 0.0351,-0.008 c 0.0194,-0.004 0.17195,-0.0441 0.33923,-0.0874 z m -0.11697,-1.14778 c 0.64266,-0.17643 1.35917,-0.30343 2.16015,-0.38292 0.4253,-0.0423 1.52882,-0.0594 2.00571,-0.0315 0.93701,0.0552 1.85572,0.19585 2.71624,0.41592 0.14798,0.0378 0.27265,0.0688 0.27706,0.0688 0.004,0 0.006,-0.2088 0.004,-0.464 l -0.004,-0.464 -0.28073,-0.074 c -2.10758,-0.55659 -4.39648,-0.59683 -6.44148,-0.11325 -0.19901,0.047 -0.61311,0.15985 -0.65897,0.17949 l -0.0351,0.0149 v 0.4615 c 0,0.43232 0.002,0.46096 0.0272,0.45305 0.0149,-0.004 0.11854,-0.0335 0.23005,-0.0639 z m -0.22142,-1.31145 c 0.54404,-0.1538 1.03486,-0.26173 1.54715,-0.34025 0.53836,-0.0824 1.03629,-0.12967 1.52602,-0.14456 0.23445,-0.007 0.32713,-0.0152 0.33243,-0.029 0.009,-0.0263 -0.10748,-0.47967 -0.19888,-0.76666 -0.37316,-1.17165 -0.93442,-2.06101 -1.63944,-2.59786 -0.55036,-0.41907 -1.18683,-0.59638 -1.88621,-0.5254 -0.35415,0.036 -0.68341,0.12928 -0.9175,0.26012 -0.2053,0.11472 -0.39117,0.34989 -0.45947,0.5813 -0.17167,0.58158 0.13124,1.5399 0.8376,2.64996 0.24169,0.37982 0.65908,0.95234 0.69455,0.95271 0.0113,1.3e-4 0.0849,-0.0181 0.16375,-0.0403 z m 7.74287,-0.31429 c 0.72513,-1.10121 1.03412,-1.66411 1.2129,-2.2095 0.10434,-0.31823 0.12411,-0.43235 0.12342,-0.711 -5.9e-4,-0.23207 -0.002,-0.24689 -0.0492,-0.37034 -0.0776,-0.20482 -0.18821,-0.34344 -0.3704,-0.46376 -0.16201,-0.10698 -0.2171,-0.13396 -0.41396,-0.20247 -0.27884,-0.097 -0.57306,-0.14986 -0.89072,-0.15985 -0.28947,-0.008 -0.43044,0.003 -0.66493,0.0593 -1.08209,0.25771 -1.99663,1.3182 -2.52067,2.92293 -0.0764,0.23426 -0.24298,0.88553 -0.24358,0.95285 -1e-5,8e-4 0.12457,0.006 0.27683,0.0119 0.77368,0.0293 1.62163,0.13901 2.43701,0.31564 0.25844,0.056 0.79758,0.19101 0.80974,0.20281 0.033,0.0321 0.079,-0.0225 0.29362,-0.34853 z m -3.95486,-1.54128 c 0.25183,-0.47857 0.46593,-1.15443 0.55797,-1.76134 0.15034,-0.99133 -0.002,-1.71718 -0.39934,-1.89489 -0.22183,-0.0993 -0.54254,-0.0658 -0.75608,0.0793 -0.15492,0.10518 -0.27763,0.33277 -0.32725,0.60687 -0.0269,0.14939 -0.027,0.62829 -3e-5,0.82664 0.0662,0.48495 0.21819,1.03225 0.4335,1.55969 0.10912,0.26728 0.36218,0.76735 0.38455,0.7599 0.009,-0.003 0.0574,-0.0823 0.10666,-0.17613 z"
         id="path16" /></g></g></svg>
