<?xml version="1.0" encoding="UTF-8" standalone="no"?>
<!-- Created with Inkscape (http://www.inkscape.org/) -->

<svg
   width="40.423985mm"
   height="56.424004mm"
   viewBox="0 0 40.423985 56.424004"
   version="1.1"
   id="svg1"
   xml:space="preserve"
   xmlns="http://www.w3.org/2000/svg"
   xmlns:svg="http://www.w3.org/2000/svg"><defs
     id="defs1"><rect
       x="208.77827"
       y="241.85934"
       width="88.951309"
       height="72.043205"
       id="rect2-6-7" /><rect
       x="208.77827"
       y="241.85934"
       width="88.951309"
       height="72.043205"
       id="rect2-1-0-5" /></defs><g
     id="layer1"
     transform="translate(-142.47106,-46.768859)"><g
       id="g15"><path
         style="fill:#ffffff;fill-opacity:1;stroke:#000000;stroke-width:0.423998;stroke-opacity:1"
         id="rect1-8-5"
         width="40"
         height="56"
         x="40.845924"
         y="73.133659"
         transform="translate(101.83712,-26.1528)"
         d="m 46.845924,73.133659 h 28 a 6,6 45 0 1 6,6 v 44.000001 a 6,6 135 0 1 -6,6 h -28 a 6,6 45 0 1 -6,-6 V 79.133659 a 6,6 135 0 1 6,-6 z" /><text
         xml:space="preserve"
         transform="matrix(0.26458333,0,0,0.26458333,91.122352,-15.44101)"
         id="text2-5-5"
         style="font-style:normal;font-weight:normal;font-size:40px;line-height:1.25;font-family:sans-serif;white-space:pre;shape-inside:url(#rect2-6-7);display:inline;fill:#000000;fill-opacity:1;stroke:none"><tspan
           x="208.77734"
           y="278.77427"
           id="tspan2"><tspan
             style="font-weight:600;font-family:'New York Extra Large';-inkscape-font-specification:'New York Extra Large Semi-Bold'"
             id="tspan1">5</tspan></tspan></text><text
         xml:space="preserve"
         transform="matrix(-0.26458333,0,0,-0.26458333,234.24374,165.40272)"
         id="text2-7-4-1"
         style="font-style:normal;font-weight:normal;font-size:40px;line-height:1.25;font-family:sans-serif;white-space:pre;shape-inside:url(#rect2-1-0-5);display:inline;fill:#000000;fill-opacity:1;stroke:none"><tspan
           x="208.77734"
           y="278.77427"
           id="tspan4"><tspan
             style="font-weight:600;font-family:'New York Extra Large';-inkscape-font-specification:'New York Extra Large Semi-Bold'"
             id="tspan3">5</tspan></tspan></text><path
         d="m 206.65483,31.824151 c 1.5e-4,-0.0063 0.061,-0.09604 0.13518,-0.200517 0.29246,-0.412036 0.42093,-0.639977 0.57537,-1.020862 0.0919,-0.226571 0.27314,-0.76105 0.36316,-1.070792 l 0.0619,-0.213129 -0.19863,0.103317 c -0.54304,0.28246 -1.05591,0.414172 -1.61281,0.414172 -0.73191,0 -1.36973,-0.243356 -1.82329,-0.695679 -0.2932,-0.292405 -0.46586,-0.613407 -0.55662,-1.034864 -0.0455,-0.211244 -0.0462,-0.636099 -9.3e-4,-0.872891 0.0912,-0.482905 0.28535,-0.941241 0.60482,-1.427784 0.29721,-0.452634 0.49175,-0.679811 1.11462,-1.301596 1.10468,-1.102788 1.73526,-1.871053 2.60197,-3.170096 0.11766,-0.176357 0.2198,-0.317009 0.22699,-0.31257 0.007,0.0045 0.0937,0.142368 0.19236,0.306512 0.73261,1.219511 1.6025,2.267211 2.71919,3.274989 0.59847,0.540101 1.12677,1.319128 1.35213,1.993842 0.243,0.727524 0.21905,1.381547 -0.0716,1.95601 -0.10776,0.21298 -0.21624,0.361682 -0.39278,0.538412 -0.45081,0.451309 -1.06114,0.689657 -1.76595,0.689657 -0.50543,0 -1.00572,-0.125521 -1.51111,-0.379133 -0.11203,-0.05621 -0.14228,-0.06653 -0.14228,-0.04839 0,0.04172 0.13733,0.571163 0.20265,0.781358 0.19853,0.63875 0.37706,0.970027 0.75252,1.396349 0.0826,0.0938 0.17454,0.200632 0.20427,0.237387 l 0.0541,0.06689 h -1.54251 c -0.84838,0 -1.54235,-0.0045 -1.54215,-0.01058 z"
         style="fill:#000000;stroke-width:0.159557"
         id="path1-90-57-8-6-9-2-0"
         transform="translate(-45.387329,48.553108)" /><path
         d="m 199.35352,20.628766 c 1.5e-4,-0.0063 0.061,-0.09604 0.13518,-0.200517 0.29246,-0.412036 0.42093,-0.639977 0.57537,-1.020862 0.0919,-0.226571 0.27314,-0.76105 0.36316,-1.070792 l 0.0619,-0.213129 -0.19863,0.103317 c -0.54304,0.28246 -1.05591,0.414172 -1.61281,0.414172 -0.73191,0 -1.36973,-0.243356 -1.82329,-0.695679 -0.2932,-0.292405 -0.46586,-0.613407 -0.55662,-1.034864 -0.0455,-0.211244 -0.0462,-0.636099 -9.3e-4,-0.872891 0.0912,-0.482905 0.28535,-0.941241 0.60482,-1.427784 0.29721,-0.452634 0.49175,-0.679811 1.11462,-1.301596 1.10468,-1.102788 1.73526,-1.871053 2.60197,-3.170096 0.11766,-0.1763572 0.2198,-0.3170087 0.22699,-0.3125696 0.007,0.00448 0.0937,0.1423681 0.19236,0.3065126 0.73261,1.21951 1.6025,2.26721 2.71919,3.274988 0.59847,0.540101 1.12677,1.319128 1.35213,1.993842 0.243,0.727524 0.21905,1.381547 -0.0716,1.95601 -0.10776,0.21298 -0.21624,0.361682 -0.39278,0.538412 -0.45081,0.451309 -1.06114,0.689657 -1.76595,0.689657 -0.50543,0 -1.00572,-0.125521 -1.51111,-0.379133 -0.11203,-0.05621 -0.14228,-0.06653 -0.14228,-0.04839 0,0.04172 0.13733,0.571163 0.20265,0.781358 0.19853,0.63875 0.37706,0.970027 0.75252,1.396349 0.0826,0.0938 0.17454,0.200632 0.20427,0.237387 l 0.0541,0.06689 h -1.54251 c -0.84838,0 -1.54235,-0.0045 -1.54215,-0.01058 z"
         style="fill:#000000;stroke-width:0.159557"
         id="path1-90-57-8-6-9-2"
         transform="translate(-45.387329,48.553108)" /><path
         d="m 199.35352,43.019533 c 1.5e-4,-0.0063 0.061,-0.09604 0.13518,-0.200516 0.29246,-0.412036 0.42093,-0.639977 0.57537,-1.020863 0.0919,-0.226571 0.27314,-0.76105 0.36316,-1.070792 l 0.0619,-0.213129 -0.19863,0.103318 c -0.54304,0.282459 -1.05591,0.414172 -1.61281,0.414172 -0.73191,0 -1.36973,-0.243357 -1.82329,-0.69568 -0.2932,-0.292405 -0.46586,-0.613407 -0.55662,-1.034864 -0.0455,-0.211244 -0.0462,-0.636099 -9.3e-4,-0.872891 0.0912,-0.482907 0.28535,-0.941251 0.60482,-1.4278 0.29721,-0.452638 0.49175,-0.679811 1.11462,-1.301605 1.10468,-1.102796 1.73526,-1.871061 2.60197,-3.170087 0.11766,-0.176357 0.2198,-0.31701 0.22699,-0.312574 0.007,0.0047 0.0937,0.142371 0.19236,0.306513 0.73261,1.2195 1.6025,2.267202 2.71919,3.274978 0.59847,0.540111 1.12677,1.319154 1.35213,1.993866 0.243,0.727525 0.21905,1.381553 -0.0716,1.956017 -0.10776,0.212979 -0.21624,0.361681 -0.39278,0.538411 -0.45081,0.451309 -1.06114,0.689657 -1.76595,0.689657 -0.50543,0 -1.00572,-0.12552 -1.51111,-0.379133 -0.11203,-0.05621 -0.14228,-0.06653 -0.14228,-0.04839 0,0.04172 0.13733,0.571163 0.20265,0.781359 0.19853,0.638749 0.37706,0.970026 0.75252,1.396348 0.0826,0.0938 0.17454,0.200632 0.20427,0.237388 l 0.0541,0.06689 h -1.54251 c -0.84838,0 -1.54235,-0.0045 -1.54215,-0.01058 z"
         style="fill:#000000;stroke-width:0.159557"
         id="path1-90-57-2-4-5-4"
         transform="translate(-45.387329,48.553108)" /><path
         d="m 213.95613,9.8359673 c 1.6e-4,0.00626 0.061,0.096042 0.13519,0.2005167 0.29245,0.412036 0.42092,0.639976 0.57536,1.020862 0.0919,0.226571 0.27314,0.76105 0.36316,1.070792 l 0.0619,0.213129 -0.19863,-0.103318 c -0.54304,-0.282459 -1.05591,-0.414172 -1.61281,-0.414172 -0.73191,0 -1.36972,0.243357 -1.82329,0.69568 -0.2932,0.292405 -0.46586,0.613407 -0.55662,1.034864 -0.0455,0.211244 -0.0462,0.636098 -9.3e-4,0.87289 0.0912,0.482905 0.28536,0.941242 0.60482,1.427784 0.29721,0.452635 0.49175,0.679811 1.11462,1.301597 1.10468,1.102788 1.73527,1.871053 2.60197,3.170096 0.11766,0.176358 0.2198,0.317009 0.22699,0.31257 0.007,-0.0045 0.0937,-0.142368 0.19236,-0.306512 0.73261,-1.219511 1.6025,-2.267211 2.71919,-3.274989 0.59847,-0.540101 1.12677,-1.319129 1.35213,-1.993842 0.243,-0.727524 0.21906,-1.381547 -0.0716,-1.956011 -0.10776,-0.212979 -0.21625,-0.361681 -0.39279,-0.538411 -0.45081,-0.451309 -1.06114,-0.689657 -1.76595,-0.689657 -0.50542,0 -1.00572,0.12552 -1.51111,0.379133 -0.11202,0.05621 -0.14228,0.06653 -0.14228,0.04839 0,-0.04172 0.13733,-0.571163 0.20265,-0.781358 0.19853,-0.63875 0.37707,-0.970027 0.75252,-1.396348 0.0826,-0.0938 0.17454,-0.2006326 0.20427,-0.2373881 l 0.0541,-0.066889 h -1.54251 c -0.84838,0 -1.54235,0.00448 -1.54215,0.010582 z"
         style="fill:#000000;stroke-width:0.159557"
         id="path1-90-57-8-6-9-4-5"
         transform="translate(-45.387329,48.553108)" /><path
         d="m 213.95613,32.226714 c 1.6e-4,0.0063 0.061,0.09604 0.13519,0.200517 0.29245,0.412036 0.42092,0.639977 0.57536,1.020862 0.0919,0.226571 0.27314,0.761051 0.36316,1.070792 l 0.0619,0.21313 -0.19863,-0.103318 c -0.54304,-0.282459 -1.05591,-0.414172 -1.61281,-0.414172 -0.73191,0 -1.36972,0.243357 -1.82329,0.69568 -0.2932,0.292404 -0.46586,0.613407 -0.55662,1.034864 -0.0455,0.211243 -0.0462,0.636099 -9.3e-4,0.872891 0.0912,0.482907 0.28536,0.941251 0.60482,1.4278 0.29721,0.452637 0.49175,0.679811 1.11462,1.301605 1.10468,1.102795 1.73527,1.87106 2.60197,3.170087 0.11766,0.176357 0.2198,0.317009 0.22699,0.312573 0.007,-0.0047 0.0937,-0.142371 0.19236,-0.306512 0.73261,-1.219501 1.6025,-2.267203 2.71919,-3.274978 0.59847,-0.540112 1.12677,-1.319154 1.35213,-1.993866 0.243,-0.727525 0.21906,-1.381553 -0.0716,-1.956017 -0.10776,-0.212979 -0.21625,-0.361681 -0.39279,-0.538411 -0.45081,-0.45131 -1.06114,-0.689658 -1.76595,-0.689658 -0.50542,0 -1.00572,0.125521 -1.51111,0.379133 -0.11202,0.05622 -0.14228,0.06654 -0.14228,0.04839 0,-0.04172 0.13733,-0.571163 0.20265,-0.781358 0.19853,-0.63875 0.37707,-0.970026 0.75252,-1.396348 0.0826,-0.0938 0.17454,-0.200633 0.20427,-0.237388 l 0.0541,-0.06689 h -1.54251 c -0.84838,0 -1.54235,0.0045 -1.54215,0.01058 z"
         style="fill:#000000;stroke-width:0.159557"
         id="path1-90-57-2-4-5-0-8"
         transform="translate(-45.387329,48.553108)" /></g></g></svg>
