<?xml version="1.0" encoding="UTF-8" standalone="no"?>
<!-- Created with Inkscape (http://www.inkscape.org/) -->

<svg
   width="40.423996mm"
   height="56.424004mm"
   viewBox="0 0 40.423996 56.424004"
   version="1.1"
   id="svg1"
   xml:space="preserve"
   xmlns="http://www.w3.org/2000/svg"
   xmlns:svg="http://www.w3.org/2000/svg"><defs
     id="defs1"><rect
       x="208.77827"
       y="241.85934"
       width="88.951309"
       height="72.043205"
       id="rect2-6-7-6" /><rect
       x="208.77827"
       y="241.85934"
       width="88.951309"
       height="72.043205"
       id="rect2-1-0-5-1" /></defs><g
     id="layer1"
     transform="translate(-9.608145,-108.88377)"><g
       id="g9"
       transform="translate(-44.423632,49.998657)"><path
         style="fill:#ffffff;fill-opacity:1;stroke:#000000;stroke-width:0.423998;stroke-opacity:1"
         id="rect1-8-5-5"
         width="40"
         height="56"
         x="40.845924"
         y="73.133659"
         transform="translate(13.397851,-14.036546)"
         d="m 46.845924,73.133659 h 28 a 6,6 45 0 1 6,6 v 44.000001 a 6,6 135 0 1 -6,6 h -28 a 6,6 45 0 1 -6,-6 V 79.133659 a 6,6 135 0 1 6,-6 z" /><text
         xml:space="preserve"
         transform="matrix(0.26458333,0,0,0.26458333,2.683084,-3.3247578)"
         id="text2-5-5-3"
         style="font-style:normal;font-weight:normal;font-size:40px;line-height:1.25;font-family:sans-serif;white-space:pre;shape-inside:url(#rect2-6-7-6);display:inline;fill:#000000;fill-opacity:1;stroke:none"><tspan
           x="208.77734"
           y="278.77427"
           id="tspan2"><tspan
             style="font-weight:600;font-family:'New York Extra Large';-inkscape-font-specification:'New York Extra Large Semi-Bold'"
             id="tspan1">6</tspan></tspan></text><text
         xml:space="preserve"
         transform="matrix(-0.26458333,0,0,-0.26458333,145.80447,177.51899)"
         id="text2-7-4-1-5"
         style="font-style:normal;font-weight:normal;font-size:40px;line-height:1.25;font-family:sans-serif;white-space:pre;shape-inside:url(#rect2-1-0-5-1);display:inline;fill:#000000;fill-opacity:1;stroke:none"><tspan
           x="208.77734"
           y="278.77427"
           id="tspan4"><tspan
             style="font-weight:600;font-family:'New York Extra Large';-inkscape-font-specification:'New York Extra Large Semi-Bold'"
             id="tspan3">6</tspan></tspan></text><path
         d="m 23.293872,128.97509 c 1.45e-4,-0.006 0.05556,-0.0874 0.123062,-0.18252 0.266227,-0.37508 0.383172,-0.58258 0.523761,-0.9293 0.08362,-0.20626 0.248636,-0.6928 0.330587,-0.97477 l 0.05639,-0.194 -0.180816,0.094 c -0.494333,0.25713 -0.961212,0.37702 -1.468153,0.37702 -0.66627,0 -1.246871,-0.22153 -1.659753,-0.63328 -0.266908,-0.26619 -0.424079,-0.55839 -0.506704,-0.94205 -0.04141,-0.19229 -0.04208,-0.57904 -0.0012,-0.79459 0.08301,-0.4396 0.259762,-0.85683 0.55058,-1.29972 0.270553,-0.41205 0.447646,-0.61885 1.014643,-1.18487 1.005603,-1.00386 1.579631,-1.70322 2.368598,-2.88576 0.107109,-0.16053 0.200094,-0.28857 0.206638,-0.28454 0.0065,0.005 0.08534,0.1296 0.175097,0.27903 0.666906,1.11012 1.458779,2.06386 2.475309,2.98125 0.544792,0.49166 1.025707,1.20081 1.230854,1.81502 0.221207,0.66225 0.199406,1.25762 -0.06519,1.78056 -0.0981,0.19389 -0.196851,0.32925 -0.357556,0.49012 -0.410379,0.41084 -0.965968,0.62781 -1.607564,0.62781 -0.460092,0 -0.915516,-0.11426 -1.375575,-0.34513 -0.101979,-0.0512 -0.129517,-0.0606 -0.129517,-0.044 0,0.0379 0.12501,0.51993 0.184478,0.71127 0.180721,0.58146 0.343238,0.88302 0.685017,1.27111 0.07519,0.0854 0.158886,0.18264 0.18596,0.2161 l 0.04923,0.0608 h -1.404159 c -0.772287,0 -1.404013,-0.005 -1.403838,-0.01 z"
         style="fill:#000000;stroke-width:0.145246"
         id="path1-90-57-8-7"
         transform="translate(44.423632,-49.998657)" /><path
         d="m 23.293872,142.0082 c 1.45e-4,-0.006 0.05556,-0.0874 0.123062,-0.18251 0.266227,-0.37509 0.383172,-0.58258 0.523761,-0.92931 0.08362,-0.20625 0.248636,-0.69279 0.330587,-0.97476 l 0.05639,-0.194 -0.180816,0.094 c -0.494333,0.25714 -0.961212,0.37703 -1.468153,0.37703 -0.66627,0 -1.246871,-0.22153 -1.659753,-0.63328 -0.266908,-0.26619 -0.424079,-0.55839 -0.506704,-0.94205 -0.04141,-0.19229 -0.04208,-0.57905 -0.0012,-0.79459 0.08301,-0.4396 0.259762,-0.85683 0.55058,-1.29973 0.270553,-0.41204 0.447646,-0.61885 1.014643,-1.18486 1.005603,-1.00387 1.579631,-1.70323 2.368598,-2.88577 0.107109,-0.16053 0.200094,-0.28856 0.206638,-0.28453 0.0065,0.005 0.08534,0.1296 0.175097,0.27903 0.666906,1.11012 1.458779,2.06386 2.475309,2.98125 0.544792,0.49166 1.025707,1.2008 1.230854,1.81501 0.221207,0.66226 0.199406,1.25763 -0.06519,1.78057 -0.0981,0.19388 -0.196851,0.32924 -0.357556,0.49011 -0.410379,0.41084 -0.965968,0.62781 -1.607564,0.62781 -0.460092,0 -0.915516,-0.11426 -1.375575,-0.34512 -0.101979,-0.0512 -0.129517,-0.0606 -0.129517,-0.044 0,0.0379 0.12501,0.51993 0.184478,0.71127 0.180721,0.58145 0.343238,0.88302 0.685017,1.27111 0.07519,0.0854 0.158886,0.18263 0.18596,0.2161 l 0.04923,0.0608 h -1.404159 c -0.772287,0 -1.404013,-0.005 -1.403838,-0.01 z"
         style="fill:#000000;stroke-width:0.145246"
         id="path1-90-57-8-6-1"
         transform="translate(44.423632,-49.998657)" /><path
         d="m 23.293872,155.04136 c 1.45e-4,-0.006 0.05556,-0.0874 0.123062,-0.18252 0.266227,-0.37509 0.383172,-0.58258 0.523761,-0.92931 0.08362,-0.20625 0.248636,-0.69279 0.330587,-0.97475 l 0.05639,-0.19401 -0.180816,0.094 c -0.494333,0.25714 -0.961212,0.37703 -1.468153,0.37703 -0.66627,0 -1.246871,-0.22153 -1.659753,-0.63328 -0.266908,-0.26618 -0.424079,-0.55839 -0.506704,-0.94205 -0.04141,-0.19229 -0.04208,-0.57904 -0.0012,-0.79459 0.08301,-0.4396 0.259762,-0.85684 0.55058,-1.29974 0.270553,-0.41205 0.447646,-0.61884 1.014643,-1.18486 1.005603,-1.00389 1.579631,-1.70325 2.368598,-2.88578 0.107109,-0.16053 0.200094,-0.28857 0.206638,-0.28453 0.0065,0.005 0.08534,0.1296 0.175097,0.27902 0.666906,1.11013 1.458779,2.06386 2.475309,2.98125 0.544792,0.49167 1.025707,1.20083 1.230854,1.81504 0.221207,0.66226 0.199406,1.25763 -0.06519,1.78057 -0.0981,0.19388 -0.196851,0.32924 -0.357556,0.49012 -0.410379,0.41083 -0.965968,0.6278 -1.607564,0.6278 -0.460092,0 -0.915516,-0.11426 -1.375575,-0.34512 -0.101979,-0.0512 -0.129517,-0.0606 -0.129517,-0.044 0,0.038 0.12501,0.51993 0.184478,0.71128 0.180721,0.58144 0.343238,0.88301 0.685017,1.2711 0.07519,0.0854 0.158886,0.18264 0.18596,0.2161 l 0.04923,0.0608 h -1.404159 c -0.772287,0 -1.404013,-0.005 -1.403838,-0.01 z"
         style="fill:#000000;stroke-width:0.145246"
         id="path1-90-57-2-4-9"
         transform="translate(44.423632,-49.998657)" /><path
         d="m 78.193201,95.2178 c 1.45e-4,0.006 0.05556,0.0874 0.123062,0.18252 0.266227,0.37508 0.383172,0.58258 0.523761,0.9293 0.08362,0.20626 0.248636,0.6928 0.330587,0.97477 l 0.05639,0.194 -0.180816,-0.094 c -0.494333,-0.25713 -0.961212,-0.37702 -1.468153,-0.37702 -0.66627,0 -1.246871,0.22153 -1.659753,0.63328 -0.266908,0.26619 -0.424079,0.55839 -0.506704,0.94205 -0.04141,0.19229 -0.04208,0.57904 -0.0012,0.79459 0.08301,0.4396 0.259762,0.85683 0.55058,1.29972 0.270553,0.41205 0.447646,0.61885 1.014643,1.18487 1.005603,1.00386 1.579631,1.70322 2.368598,2.88576 0.107109,0.16053 0.200094,0.28857 0.206638,0.28454 0.0065,-0.005 0.08534,-0.1296 0.175097,-0.27903 0.666906,-1.11012 1.458779,-2.06386 2.475309,-2.98125 0.544792,-0.49166 1.025707,-1.20081 1.230854,-1.81502 0.221207,-0.66225 0.199406,-1.25762 -0.06519,-1.78056 -0.0981,-0.19389 -0.196851,-0.32925 -0.357556,-0.49012 -0.410379,-0.41084 -0.965968,-0.62781 -1.607564,-0.62781 -0.460092,0 -0.915516,0.11426 -1.375575,0.34513 -0.101979,0.0512 -0.129517,0.0606 -0.129517,0.044 0,-0.0379 0.12501,-0.51993 0.184478,-0.71127 0.180721,-0.58146 0.343238,-0.88302 0.685017,-1.27111 0.07519,-0.0854 0.158886,-0.18264 0.18596,-0.2161 l 0.04923,-0.0608 h -1.404159 c -0.772287,0 -1.404013,0.005 -1.403838,0.01 z"
         style="fill:#000000;stroke-width:0.145246"
         id="path1-90-57-8-7-7" /><path
         d="m 78.193201,82.18469 c 1.45e-4,0.006 0.05556,0.0874 0.123062,0.18251 0.266227,0.37509 0.383172,0.58258 0.523761,0.92931 0.08362,0.20625 0.248636,0.69279 0.330587,0.97476 l 0.05639,0.194 -0.180816,-0.094 c -0.494333,-0.25714 -0.961212,-0.37703 -1.468153,-0.37703 -0.66627,0 -1.246871,0.22153 -1.659753,0.63328 -0.266908,0.26619 -0.424079,0.55839 -0.506704,0.94205 -0.04141,0.19229 -0.04208,0.57905 -0.0012,0.79459 0.08301,0.4396 0.259762,0.85683 0.55058,1.29973 0.270553,0.41204 0.447646,0.61885 1.014643,1.18486 1.005603,1.00387 1.579631,1.70323 2.368598,2.88577 0.107109,0.16053 0.200094,0.28856 0.206638,0.28453 0.0065,-0.005 0.08534,-0.1296 0.175097,-0.27903 0.666906,-1.11012 1.458779,-2.06386 2.475309,-2.98125 0.544792,-0.49166 1.025707,-1.2008 1.230854,-1.81501 0.221207,-0.66226 0.199406,-1.25763 -0.06519,-1.78057 -0.0981,-0.19388 -0.196851,-0.32924 -0.357556,-0.49011 -0.410379,-0.41084 -0.965968,-0.62781 -1.607564,-0.62781 -0.460092,0 -0.915516,0.11426 -1.375575,0.34512 -0.101979,0.0512 -0.129517,0.0606 -0.129517,0.044 0,-0.0379 0.12501,-0.51993 0.184478,-0.71127 0.180721,-0.58145 0.343238,-0.88302 0.685017,-1.27111 0.07519,-0.0854 0.158886,-0.18263 0.18596,-0.2161 l 0.04923,-0.0608 h -1.404159 c -0.772287,0 -1.404013,0.005 -1.403838,0.01 z"
         style="fill:#000000;stroke-width:0.145246"
         id="path1-90-57-8-6-1-4" /><path
         d="m 78.193201,69.15153 c 1.45e-4,0.006 0.05556,0.0874 0.123062,0.18252 0.266227,0.37509 0.383172,0.58258 0.523761,0.92931 0.08362,0.20625 0.248636,0.69279 0.330587,0.97475 l 0.05639,0.19401 -0.180816,-0.094 c -0.494333,-0.25714 -0.961212,-0.37703 -1.468153,-0.37703 -0.66627,0 -1.246871,0.22153 -1.659753,0.63328 -0.266908,0.26618 -0.424079,0.55839 -0.506704,0.94205 -0.04141,0.19229 -0.04208,0.57904 -0.0012,0.79459 0.08301,0.4396 0.259762,0.85684 0.55058,1.29974 0.270553,0.41205 0.447646,0.61884 1.014643,1.18486 1.005603,1.00389 1.579631,1.70325 2.368598,2.88578 0.107109,0.16053 0.200094,0.28857 0.206638,0.28453 0.0065,-0.005 0.08534,-0.1296 0.175097,-0.27902 0.666906,-1.11013 1.458779,-2.06386 2.475309,-2.98125 0.544792,-0.49167 1.025707,-1.20083 1.230854,-1.81504 0.221207,-0.66226 0.199406,-1.25763 -0.06519,-1.78057 -0.0981,-0.19388 -0.196851,-0.32924 -0.357556,-0.49012 -0.410379,-0.41083 -0.965968,-0.6278 -1.607564,-0.6278 -0.460092,0 -0.915516,0.11426 -1.375575,0.34512 -0.101979,0.0512 -0.129517,0.0606 -0.129517,0.044 0,-0.038 0.12501,-0.51993 0.184478,-0.71128 0.180721,-0.58144 0.343238,-0.88301 0.685017,-1.2711 0.07519,-0.0854 0.158886,-0.18264 0.18596,-0.2161 l 0.04923,-0.0608 h -1.404159 c -0.772287,0 -1.404013,0.005 -1.403838,0.01 z"
         style="fill:#000000;stroke-width:0.145246"
         id="path1-90-57-2-4-9-1" /></g></g></svg>
