<?xml version="1.0" encoding="UTF-8" standalone="no"?>
<!-- Created with Inkscape (http://www.inkscape.org/) -->

<svg
   width="40.423996mm"
   height="56.424004mm"
   viewBox="0 0 40.423996 56.424004"
   version="1.1"
   id="svg1"
   xml:space="preserve"
   xmlns="http://www.w3.org/2000/svg"
   xmlns:svg="http://www.w3.org/2000/svg"><defs
     id="defs1"><rect
       x="208.77827"
       y="241.85934"
       width="88.951309"
       height="72.043205"
       id="rect2-6-7-6-1" /><rect
       x="208.77827"
       y="241.85934"
       width="88.951309"
       height="72.043205"
       id="rect2-1-0-5-1-0" /></defs><g
     id="layer1"
     transform="translate(-53.386934,-108.28811)"><g
       id="g18"><path
         style="fill:#ffffff;fill-opacity:1;stroke:#000000;stroke-width:0.423998;stroke-opacity:1"
         id="rect1-8-5-5-8"
         width="40"
         height="56"
         x="40.845924"
         y="73.133659"
         transform="translate(12.753008,35.366458)"
         d="m 46.845924,73.133659 h 28 a 6,6 45 0 1 6,6 v 44.000001 a 6,6 135 0 1 -6,6 h -28 a 6,6 45 0 1 -6,-6 V 79.133659 a 6,6 135 0 1 6,-6 z" /><text
         xml:space="preserve"
         transform="matrix(0.26458333,0,0,0.26458333,2.038241,46.078246)"
         id="text2-5-5-3-0"
         style="font-style:normal;font-weight:normal;font-size:40px;line-height:1.25;font-family:sans-serif;white-space:pre;shape-inside:url(#rect2-6-7-6-1);display:inline;fill:#000000;fill-opacity:1;stroke:none"><tspan
           x="208.77734"
           y="278.77427"
           id="tspan2"><tspan
             style="font-weight:600;font-family:'New York Extra Large';-inkscape-font-specification:'New York Extra Large Semi-Bold'"
             id="tspan1">7</tspan></tspan></text><text
         xml:space="preserve"
         transform="matrix(-0.26458333,0,0,-0.26458333,145.15963,226.922)"
         id="text2-7-4-1-5-7"
         style="font-style:normal;font-weight:normal;font-size:40px;line-height:1.25;font-family:sans-serif;white-space:pre;shape-inside:url(#rect2-1-0-5-1-0);display:inline;fill:#000000;fill-opacity:1;stroke:none"><tspan
           x="208.77734"
           y="278.77427"
           id="tspan4"><tspan
             style="font-weight:600;font-family:'New York Extra Large';-inkscape-font-specification:'New York Extra Large Semi-Bold'"
             id="tspan3">7</tspan></tspan></text><path
         d="m 67.293679,127.22183 c 1.34e-4,-0.006 0.05126,-0.0806 0.113538,-0.16839 0.245624,-0.34606 0.353519,-0.5375 0.483228,-0.85739 0.07715,-0.19029 0.229394,-0.63918 0.305002,-0.89933 l 0.05203,-0.17898 -0.166822,0.0867 c -0.456077,0.23723 -0.886824,0.34784 -1.354533,0.34784 -0.614707,0 -1.150376,-0.20438 -1.531305,-0.58427 -0.246252,-0.24559 -0.391259,-0.51517 -0.46749,-0.86914 -0.0382,-0.17741 -0.03882,-0.53423 -0.0011,-0.7331 0.07659,-0.40558 0.239659,-0.79052 0.507971,-1.19913 0.249615,-0.38017 0.413002,-0.57096 0.936119,-1.09318 0.92778,-0.92617 1.457384,-1.5714 2.185293,-2.66243 0.09882,-0.1481 0.184608,-0.26624 0.190646,-0.26252 0.006,0.005 0.07874,0.11957 0.161546,0.25744 0.615294,1.02421 1.345884,1.90414 2.283745,2.75053 0.502631,0.45361 0.946328,1.10788 1.135598,1.67456 0.204088,0.61099 0.183974,1.16029 -0.06014,1.64276 -0.09051,0.17888 -0.181616,0.30377 -0.329884,0.45219 -0.37862,0.37904 -0.891212,0.57922 -1.483155,0.57922 -0.424485,0 -0.844664,-0.10542 -1.269119,-0.31842 -0.09409,-0.0472 -0.119494,-0.0559 -0.119494,-0.0406 0,0.035 0.115336,0.47969 0.170201,0.65622 0.166735,0.53646 0.316675,0.81468 0.632004,1.17274 0.06937,0.0788 0.14659,0.16851 0.171568,0.19938 l 0.04542,0.0561 h -1.295492 c -0.712519,0 -1.295356,-0.005 -1.295195,-0.009 z"
         style="fill:#000000;stroke-width:0.134005"
         id="path1-90-57-8-7-0" /><path
         d="m 67.293679,144.82629 c 1.34e-4,-0.006 0.05126,-0.0806 0.113538,-0.16839 0.245624,-0.34606 0.353519,-0.53749 0.483228,-0.85739 0.07715,-0.19029 0.229394,-0.63917 0.305002,-0.89932 l 0.05203,-0.17899 -0.166822,0.0867 c -0.456077,0.23724 -0.886824,0.34785 -1.354533,0.34785 -0.614707,0 -1.150376,-0.20439 -1.531305,-0.58427 -0.246252,-0.24559 -0.391259,-0.51518 -0.46749,-0.86915 -0.0382,-0.1774 -0.03882,-0.53423 -0.0011,-0.73309 0.07659,-0.40558 0.239659,-0.79052 0.507971,-1.19915 0.249615,-0.38015 0.413002,-0.57095 0.936119,-1.09316 0.92778,-0.92618 1.457384,-1.57142 2.185293,-2.66244 0.09882,-0.14811 0.184608,-0.26623 0.190646,-0.26251 0.006,0.005 0.07874,0.11957 0.161546,0.25744 0.615294,1.0242 1.345884,1.90413 2.283745,2.75053 0.502631,0.45361 0.946328,1.10787 1.135598,1.67454 0.204088,0.61101 0.183974,1.1603 -0.06014,1.64277 -0.09051,0.17888 -0.181616,0.30376 -0.329884,0.45218 -0.37862,0.37905 -0.891212,0.57923 -1.483155,0.57923 -0.424485,0 -0.844664,-0.10542 -1.269119,-0.31841 -0.09409,-0.0472 -0.119494,-0.0559 -0.119494,-0.0406 0,0.035 0.115336,0.4797 0.170201,0.65623 0.166735,0.53645 0.316675,0.81468 0.632004,1.17274 0.06937,0.0788 0.14659,0.16849 0.171568,0.19937 l 0.04542,0.0561 h -1.295492 c -0.712519,0 -1.295356,-0.005 -1.295195,-0.009 z"
         style="fill:#000000;stroke-width:0.134005"
         id="path1-90-57-8-6-1-6" /><path
         d="m 67.293679,156.03336 c 1.34e-4,-0.006 0.05126,-0.0806 0.113538,-0.16839 0.245624,-0.34606 0.353519,-0.5375 0.483228,-0.85739 0.07715,-0.19029 0.229394,-0.63918 0.305002,-0.89932 l 0.05203,-0.17899 -0.166822,0.0867 c -0.456077,0.23724 -0.886824,0.34785 -1.354533,0.34785 -0.614707,0 -1.150376,-0.20438 -1.531305,-0.58427 -0.246252,-0.24558 -0.391259,-0.51517 -0.46749,-0.86914 -0.0382,-0.17741 -0.03882,-0.53423 -0.0011,-0.7331 0.07659,-0.40558 0.239659,-0.79053 0.507971,-1.19915 0.249615,-0.38016 0.413002,-0.57095 0.936119,-1.09316 0.92778,-0.9262 1.457384,-1.57144 2.185293,-2.66245 0.09882,-0.14811 0.184608,-0.26624 0.190646,-0.26251 0.006,0.005 0.07874,0.11957 0.161546,0.25742 0.615294,1.02422 1.345884,1.90414 2.283745,2.75053 0.502631,0.45362 0.946328,1.1079 1.135598,1.67458 0.204088,0.61101 0.183974,1.1603 -0.06014,1.64277 -0.09051,0.17888 -0.181616,0.30376 -0.329884,0.45219 -0.37862,0.37904 -0.891212,0.57921 -1.483155,0.57921 -0.424485,0 -0.844664,-0.10541 -1.269119,-0.31841 -0.09409,-0.0472 -0.119494,-0.0559 -0.119494,-0.0406 0,0.0351 0.115336,0.47969 0.170201,0.65623 0.166735,0.53644 0.316675,0.81468 0.632004,1.17273 0.06937,0.0788 0.14659,0.16851 0.171568,0.19938 l 0.04542,0.0561 h -1.295492 c -0.712519,0 -1.295356,-0.005 -1.295195,-0.009 z"
         style="fill:#000000;stroke-width:0.134005"
         id="path1-90-57-2-4-9-0" /><path
         d="m 72.410212,135.61534 c 1.34e-4,-0.006 0.05126,-0.0806 0.113539,-0.16839 0.245623,-0.34606 0.353518,-0.5375 0.483227,-0.85739 0.07715,-0.19029 0.229394,-0.63918 0.305003,-0.89933 l 0.05203,-0.17898 -0.166823,0.0867 c -0.456077,0.23723 -0.886824,0.34784 -1.354533,0.34784 -0.614707,0 -1.150375,-0.20438 -1.531305,-0.58427 -0.246252,-0.24559 -0.391259,-0.51517 -0.46749,-0.86914 -0.03821,-0.17741 -0.03882,-0.53423 -0.0011,-0.7331 0.07659,-0.40558 0.239659,-0.79052 0.507971,-1.19913 0.249615,-0.38017 0.413002,-0.57096 0.93612,-1.09318 0.927779,-0.92617 1.457383,-1.5714 2.185292,-2.66243 0.09882,-0.1481 0.184609,-0.26624 0.190646,-0.26252 0.006,0.005 0.07874,0.11957 0.161546,0.25744 0.615295,1.02421 1.345885,1.90414 2.283745,2.75053 0.502631,0.45361 0.946328,1.10788 1.135599,1.67456 0.204087,0.61099 0.183974,1.16029 -0.06014,1.64276 -0.09051,0.17888 -0.181617,0.30377 -0.329885,0.45219 -0.37862,0.37904 -0.891212,0.57922 -1.483155,0.57922 -0.424485,0 -0.844664,-0.10542 -1.269119,-0.31842 -0.09409,-0.0472 -0.119494,-0.0559 -0.119494,-0.0406 0,0.035 0.115336,0.47969 0.170201,0.65622 0.166735,0.53646 0.316675,0.81468 0.632004,1.17274 0.06937,0.0788 0.14659,0.16851 0.171569,0.19938 l 0.04542,0.0561 h -1.295492 c -0.712519,0 -1.295356,-0.005 -1.295195,-0.009 z"
         style="fill:#000000;stroke-width:0.134005"
         id="path1-90-57-8-7-7-4-0" /><path
         d="m 76.958662,146.96876 c 1.34e-4,0.006 0.05126,0.0806 0.113539,0.16839 0.245623,0.34606 0.353518,0.5375 0.483227,0.85739 0.07715,0.19029 0.229394,0.63918 0.305003,0.89933 l 0.05203,0.17898 -0.166823,-0.0867 c -0.456077,-0.23723 -0.886824,-0.34784 -1.354533,-0.34784 -0.614707,0 -1.150375,0.20438 -1.531305,0.58427 -0.246252,0.24559 -0.391259,0.51517 -0.46749,0.86914 -0.03821,0.17741 -0.03882,0.53423 -0.0011,0.7331 0.07659,0.40558 0.239659,0.79052 0.507971,1.19913 0.249615,0.38017 0.413002,0.57096 0.93612,1.09318 0.927779,0.92617 1.457383,1.5714 2.185292,2.66243 0.09882,0.1481 0.184609,0.26624 0.190646,0.26252 0.006,-0.005 0.07874,-0.11957 0.161546,-0.25744 0.615295,-1.02421 1.345885,-1.90414 2.283745,-2.75053 0.502631,-0.45361 0.946328,-1.10788 1.135599,-1.67456 0.204087,-0.61099 0.183974,-1.16029 -0.06014,-1.64276 -0.09051,-0.17888 -0.181617,-0.30377 -0.329885,-0.45219 -0.37862,-0.37904 -0.891212,-0.57922 -1.483155,-0.57922 -0.424485,0 -0.844664,0.10542 -1.269119,0.31842 -0.09409,0.0472 -0.119494,0.0559 -0.119494,0.0406 0,-0.035 0.115336,-0.47969 0.170201,-0.65622 0.166735,-0.53646 0.316675,-0.81468 0.632004,-1.17274 0.06937,-0.0788 0.14659,-0.16851 0.171569,-0.19938 l 0.04542,-0.0561 h -1.295492 c -0.712519,0 -1.295356,0.005 -1.295195,0.009 z"
         style="fill:#000000;stroke-width:0.134005"
         id="path1-90-57-8-7-7-4" /><path
         d="m 76.958662,135.7617 c 1.34e-4,0.006 0.05126,0.0806 0.113539,0.16839 0.245623,0.34606 0.353518,0.53749 0.483227,0.85739 0.07715,0.19029 0.229394,0.63917 0.305003,0.89932 l 0.05203,0.17899 -0.166823,-0.0867 c -0.456077,-0.23724 -0.886824,-0.34785 -1.354533,-0.34785 -0.614707,0 -1.150375,0.20439 -1.531305,0.58427 -0.246252,0.24559 -0.391259,0.51518 -0.46749,0.86915 -0.03821,0.1774 -0.03882,0.53423 -0.0011,0.73309 0.07659,0.40558 0.239659,0.79052 0.507971,1.19915 0.249615,0.38015 0.413002,0.57095 0.93612,1.09316 0.927779,0.92618 1.457383,1.57142 2.185292,2.66244 0.09882,0.14811 0.184609,0.26623 0.190646,0.26251 0.006,-0.005 0.07874,-0.11957 0.161546,-0.25744 0.615295,-1.0242 1.345885,-1.90413 2.283745,-2.75053 0.502631,-0.45361 0.946328,-1.10787 1.135599,-1.67454 0.204087,-0.61101 0.183974,-1.1603 -0.06014,-1.64277 -0.09051,-0.17888 -0.181617,-0.30376 -0.329885,-0.45218 -0.37862,-0.37905 -0.891212,-0.57923 -1.483155,-0.57923 -0.424485,0 -0.844664,0.10542 -1.269119,0.31841 -0.09409,0.0472 -0.119494,0.0559 -0.119494,0.0406 0,-0.035 0.115336,-0.4797 0.170201,-0.65623 0.166735,-0.53645 0.316675,-0.81468 0.632004,-1.17274 0.06937,-0.0788 0.14659,-0.16849 0.171569,-0.19937 l 0.04542,-0.0561 h -1.295492 c -0.712519,0 -1.295356,0.005 -1.295195,0.009 z"
         style="fill:#000000;stroke-width:0.134005"
         id="path1-90-57-8-6-1-4-0" /><path
         d="m 76.958662,118.15723 c 1.34e-4,0.006 0.05126,0.0806 0.113539,0.16839 0.245623,0.34606 0.353518,0.5375 0.483227,0.85739 0.07715,0.19029 0.229394,0.63918 0.305003,0.89932 l 0.05203,0.17899 -0.166823,-0.0867 c -0.456077,-0.23724 -0.886824,-0.34785 -1.354533,-0.34785 -0.614707,0 -1.150375,0.20438 -1.531305,0.58427 -0.246252,0.24558 -0.391259,0.51517 -0.46749,0.86914 -0.03821,0.17741 -0.03882,0.53423 -0.0011,0.7331 0.07659,0.40558 0.239659,0.79053 0.507971,1.19915 0.249615,0.38016 0.413002,0.57095 0.93612,1.09316 0.927779,0.9262 1.457383,1.57144 2.185292,2.66245 0.09882,0.14811 0.184609,0.26624 0.190646,0.26251 0.006,-0.005 0.07874,-0.11957 0.161546,-0.25742 0.615295,-1.02422 1.345885,-1.90414 2.283745,-2.75053 0.502631,-0.45362 0.946328,-1.1079 1.135599,-1.67458 0.204087,-0.61101 0.183974,-1.1603 -0.06014,-1.64277 -0.09051,-0.17888 -0.181617,-0.30376 -0.329885,-0.45219 -0.37862,-0.37904 -0.891212,-0.57921 -1.483155,-0.57921 -0.424485,0 -0.844664,0.10541 -1.269119,0.31841 -0.09409,0.0472 -0.119494,0.0559 -0.119494,0.0406 0,-0.0351 0.115336,-0.47969 0.170201,-0.65623 0.166735,-0.53644 0.316675,-0.81468 0.632004,-1.17273 0.06937,-0.0788 0.14659,-0.16851 0.171569,-0.19938 l 0.04542,-0.0561 h -1.295492 c -0.712519,0 -1.295356,0.005 -1.295195,0.009 z"
         style="fill:#000000;stroke-width:0.134005"
         id="path1-90-57-2-4-9-1-5" /></g></g></svg>
