<?xml version="1.0" encoding="UTF-8" standalone="no"?>
<!-- Created with Inkscape (http://www.inkscape.org/) -->

<svg
   width="43.999992mm"
   height="60.000004mm"
   viewBox="0 0 43.999992 60.000004"
   version="1.1"
   id="svg1"
   inkscape:version="1.3.2 (091e20e, 2023-11-25)"
   sodipodi:docname="misc.svg"
   xmlns:inkscape="http://www.inkscape.org/namespaces/inkscape"
   xmlns:sodipodi="http://sodipodi.sourceforge.net/DTD/sodipodi-0.dtd"
   xmlns:xlink="http://www.w3.org/1999/xlink"
   xmlns="http://www.w3.org/2000/svg"
   xmlns:svg="http://www.w3.org/2000/svg">
  <sodipodi:namedview
     id="namedview1"
     pagecolor="#ffffff"
     bordercolor="#666666"
     borderopacity="1.0"
     inkscape:showpageshadow="2"
     inkscape:pageopacity="0.0"
     inkscape:pagecheckerboard="0"
     inkscape:deskcolor="#d1d1d1"
     inkscape:document-units="mm"
     inkscape:zoom="0.5946522"
     inkscape:cx="356.51091"
     inkscape:cy="303.53877"
     inkscape:window-width="2560"
     inkscape:window-height="1440"
     inkscape:window-x="0"
     inkscape:window-y="0"
     inkscape:window-maximized="0"
     inkscape:current-layer="g3-1-9-6" />
  <defs
     id="defs1">
    <pattern
       inkscape:collect="always"
       xlink:href="#Wave"
       preserveAspectRatio="xMidYMid"
       id="pattern15"
       patternTransform="scale(1)"
       x="0"
       y="0" />
    <pattern
       patternUnits="userSpaceOnUse"
       width="24"
       height="10"
       preserveAspectRatio="xMidYMid"
       id="Wave"
       style="fill:#ff3333"
       x="0"
       y="0"
       inkscape:collect="always"
       inkscape:isstock="true"
       inkscape:label="Wave">
      <g
         id="wave_g"
         style="display:inline">
        <path
           d="M 12,-2 C 9.1666695,-2 7.1679672,-0.56445187 5.4179687,0.68554687 3.6679703,1.9355456 2.1666645,3 0,3 V 5 C 2.8333305,5 4.8320328,3.5644519 6.5820312,2.3144531 8.3320297,1.0644544 9.8333355,0 12,0 14.166665,0 15.667971,1.0644544 17.417969,2.3144531 19.167967,3.5644519 21.166669,5 24,5 V 3 C 21.833335,3 20.332029,1.9355456 18.582031,0.68554687 16.832033,-0.56445189 14.833331,-2 12,-2 Z"
           id="path3" />
        <path
           d="M 12,3 C 9.1666695,3 7.1679672,4.4355481 5.4179687,5.6855469 3.6679703,6.9355456 2.1666645,8 0,8 v 2 C 2.8333305,10 4.8320328,8.5644519 6.5820312,7.3144531 8.3320297,6.0644544 9.8333355,5 12,5 14.166665,5 15.667971,6.0644544 17.417969,7.3144531 19.167967,8.5644519 21.166669,10 24,10 V 8 C 21.833335,8 20.332029,6.9355456 18.582031,5.6855469 16.832033,4.4355481 14.833331,3 12,3 Z"
           id="path4" />
        <path
           d="M 12,8 C 9.1666695,8 7.1679672,9.4355481 5.4179687,10.685547 3.6679703,11.935546 2.1666645,13 0,13 v 2 C 2.8333305,15 4.8320328,13.564452 6.5820312,12.314453 8.3320297,11.064454 9.8333355,10 12,10 c 2.166665,0 3.667971,1.064454 5.417969,2.314453 C 19.167967,13.564452 21.166669,15 24,15 V 13 C 21.833335,13 20.332029,11.935546 18.582031,10.685547 16.832033,9.4355481 14.833331,8 12,8 Z"
           id="path5" />
      </g>
    </pattern>
    <inkscape:path-effect
       effect="fillet_chamfer"
       id="path-effect8"
       is_visible="true"
       lpeversion="1"
       nodesatellites_param="F,0,0,1,0,6,0,1 @ F,0,0,1,0,6,0,1 @ F,0,0,1,0,6,0,1 @ F,0,0,1,0,6,0,1"
       radius="0"
       unit="px"
       method="auto"
       mode="F"
       chamfer_steps="1"
       flexible="false"
       use_knot_distance="true"
       apply_no_radius="true"
       apply_with_radius="true"
       only_selected="false"
       hide_knots="false" />
    <inkscape:path-effect
       effect="fillet_chamfer"
       id="path-effect6"
       is_visible="true"
       lpeversion="1"
       nodesatellites_param="F,0,0,1,0,3,0,1 @ F,0,0,1,0,3,0,1 @ F,0,0,1,0,3,0,1 @ F,0,0,1,0,3,0,1"
       radius="0"
       unit="px"
       method="auto"
       mode="F"
       chamfer_steps="1"
       flexible="false"
       use_knot_distance="true"
       apply_no_radius="true"
       apply_with_radius="true"
       only_selected="false"
       hide_knots="false" />
    <rect
       x="396.02982"
       y="408.64224"
       width="128.64664"
       height="58.017105"
       id="rect5" />
    <inkscape:path-effect
       effect="fillet_chamfer"
       id="path-effect8-2"
       is_visible="true"
       lpeversion="1"
       nodesatellites_param="F,0,0,1,0,6,0,1 @ F,0,0,1,0,6,0,1 @ F,0,0,1,0,6,0,1 @ F,0,0,1,0,6,0,1"
       radius="0"
       unit="px"
       method="auto"
       mode="F"
       chamfer_steps="1"
       flexible="false"
       use_knot_distance="true"
       apply_no_radius="true"
       apply_with_radius="true"
       only_selected="false"
       hide_knots="false" />
  </defs>
  <g
     inkscape:label="Layer 1"
     inkscape:groupmode="layer"
     id="layer1"
     transform="translate(-107.50017,-18.007211)">
    <g
       id="g3-1-9-64"
       transform="translate(99.969461,-39.705643)"
       inkscape:label="Joker"
       inkscape:export-filename="../../../../../OneDrive - National University of Singapore/Orbital/Assets/Clubs/g3-1-9.svg"
       inkscape:export-xdpi="96"
       inkscape:export-ydpi="96">
      <path
         style="fill:#000000;fill-opacity:1;stroke:#ffffff;stroke-width:4;stroke-linecap:round;stroke-linejoin:round;stroke-dasharray:none;stroke-opacity:1"
         id="rect1-7-7-4-6"
         width="40"
         height="56"
         x="40.845924"
         y="73.133659"
         sodipodi:type="rect"
         transform="translate(-31.315211,-13.420804)"
         inkscape:path-effect="#path-effect8-2"
         d="m 46.845924,73.133659 h 28 a 6,6 45 0 1 6,6 v 44.000001 a 6,6 135 0 1 -6,6 h -28 a 6,6 45 0 1 -6,-6 V 79.133659 a 6,6 135 0 1 6,-6 z"
         inkscape:label="rect1-7-7-4-6" />
      <path
         style="fill:url(#pattern15);fill-opacity:1;stroke:#ffffff;stroke-width:4;stroke-linecap:round;stroke-linejoin:round;stroke-dasharray:none;stroke-opacity:1"
         id="rect1-7-7-4"
         width="40"
         height="56"
         x="40.845924"
         y="73.133659"
         sodipodi:type="rect"
         transform="translate(-31.315211,-13.420804)"
         inkscape:path-effect="#path-effect8"
         d="m 46.845924,73.133659 h 28 a 6,6 45 0 1 6,6 v 44.000001 a 6,6 135 0 1 -6,6 h -28 a 6,6 45 0 1 -6,-6 V 79.133659 a 6,6 135 0 1 6,-6 z" />
      <path
         style="fill:#ffffff;fill-opacity:1;stroke-width:0.284493;stroke-opacity:0.980736"
         id="rect4"
         width="36.039974"
         height="20.689613"
         x="11.510726"
         y="77.36805"
         sodipodi:type="rect"
         transform="matrix(0.90451722,0,0,0.93548387,2.8196749,5.6588931)"
         inkscape:path-effect="#path-effect6"
         d="M 14.510726,77.36805 H 44.5507 a 3,3 45 0 1 3,3 v 14.689613 a 3,3 135 0 1 -3,3 H 14.510726 a 3,3 45 0 1 -3,-3 V 80.36805 a 3,3 135 0 1 3,-3 z" />
      <g
         id="g1"
         transform="translate(-1.6225586e-6,-0.38237591)">
        <path
           style="-inkscape-font-specification:'Playfair Display Ultra-Bold';fill:#ff0f0f;stroke-width:0.264583"
           d="m 18.906109,87.241596 q 0.656166,0 1.016,0.137584 0.359833,0.127 0.613833,0.275166 0.127,0.07408 0.201083,0.116417 0.08467,0.03175 0.15875,0.03175 0.105834,0 0.148167,-0.116417 0.05292,-0.116416 0.08467,-0.34925 h 0.243416 q -0.01058,0.211667 -0.03175,0.497417 -0.01058,0.28575 -0.02117,0.762 0,0.465667 0,1.23825 h -0.243417 q -0.04233,-0.5715 -0.264583,-1.100667 -0.22225,-0.529166 -0.613834,-0.878416 -0.381,-0.34925 -0.941916,-0.34925 -0.486834,0 -0.804334,0.275166 -0.3175,0.264584 -0.3175,0.762 0,0.402167 0.201084,0.6985 0.201083,0.28575 0.60325,0.582084 0.41275,0.296333 1.037166,0.73025 0.497417,0.328083 0.889,0.656166 0.391584,0.328084 0.624417,0.740834 0.243417,0.412749 0.243417,0.994833 0,0.6985 -0.381,1.164166 -0.381,0.455084 -1.005417,0.687917 -0.624417,0.22225 -1.36525,0.22225 -0.687917,0 -1.100667,-0.127 -0.402166,-0.127 -0.687916,-0.264583 -0.232834,-0.148167 -0.359834,-0.148167 -0.105833,0 -0.15875,0.116417 -0.04233,0.116416 -0.07408,0.34925 h -0.243417 q 0.02117,-0.264584 0.02117,-0.613834 0.01058,-0.359833 0.01058,-0.92075 0.01058,-0.560916 0.01058,-1.428749 h 0.243416 q 0.04233,0.719666 0.232834,1.344083 0.201083,0.624416 0.60325,1.016 0.41275,0.381 1.090083,0.381 0.381,0 0.66675,-0.127 0.28575,-0.127 0.455083,-0.370417 0.169334,-0.254 0.169334,-0.613833 0,-0.4445 -0.201084,-0.772584 -0.201083,-0.328083 -0.550333,-0.613833 -0.34925,-0.296333 -0.814917,-0.592666 -0.497416,-0.328084 -0.931333,-0.66675 -0.433917,-0.338667 -0.6985,-0.751417 -0.254,-0.423333 -0.254,-1.016 0,-0.677333 0.34925,-1.11125 0.34925,-0.433917 0.92075,-0.635 0.582083,-0.211667 1.227667,-0.211667 z m 7.101414,0.137584 v 0.211666 q -0.359834,0.01058 -0.550334,0.08467 -0.179916,0.0635 -0.243416,0.254 -0.0635,0.179917 -0.0635,0.5715 v 5.418666 q 0,0.306917 0.04233,0.465667 0.05292,0.148167 0.179917,0.201083 0.127,0.04233 0.381,0.04233 h 0.433916 q 0.3175,0 0.635,-0.1905 0.3175,-0.1905 0.592667,-0.529167 0.275167,-0.34925 0.47625,-0.79375 0.201083,-0.455083 0.28575,-0.973667 h 0.243416 q -0.03175,0.370417 -0.03175,0.9525 0,0.264584 0.01058,0.762 0.01058,0.486834 0.0635,1.016 -0.53975,-0.02117 -1.217083,-0.02117 -0.677334,-0.01058 -1.2065,-0.01058 -0.275167,0 -0.6985,0 -0.423334,0 -0.92075,0.01058 -0.497417,0 -1.005417,0.01058 -0.508,0 -0.9525,0.01058 v -0.211666 q 0.328083,-0.02117 0.486833,-0.08467 0.169334,-0.0635 0.22225,-0.254 0.0635,-0.1905 0.0635,-0.5715 v -5.249333 q 0,-0.391583 -0.0635,-0.5715 -0.05292,-0.1905 -0.22225,-0.254 -0.15875,-0.07408 -0.486833,-0.08467 V 87.37918 q 0.28575,0.01058 0.762,0.02117 0.47625,0.01058 1.016,0.01058 0.497417,0 0.973667,-0.01058 0.47625,-0.01058 0.79375,-0.02117 z m 9.099544,0 v 0.211666 q -0.232833,0.105834 -0.508,0.423334 -0.275167,0.306916 -0.497417,0.941916 l -2.148416,5.926667 q -0.105834,-0.01058 -0.232834,-0.01058 -0.116416,-0.01058 -0.232833,-0.01058 -0.116417,0 -0.243416,0.01058 -0.116417,0 -0.22225,0.01058 l -2.7305,-6.614583 q -0.148167,-0.381 -0.328084,-0.518584 -0.169333,-0.148166 -0.3175,-0.15875 V 87.37918 q 0.34925,0.01058 0.814917,0.02117 0.47625,0.01058 0.9525,0.01058 0.518583,0 0.963083,-0.01058 0.455084,-0.01058 0.73025,-0.02117 v 0.211666 q -0.338666,0.01058 -0.529166,0.07408 -0.179917,0.0635 -0.211667,0.254 -0.02117,0.179916 0.127,0.560916 l 1.915583,4.79425 -0.232833,0.296333 1.3335,-3.661833 q 0.306916,-0.85725 0.3175,-1.354666 0.01058,-0.508 -0.22225,-0.73025 Q 33.3714,87.60143 32.948067,87.590846 V 87.37918 q 0.381,0.01058 0.687917,0.02117 0.3175,0.01058 0.66675,0.01058 0.22225,0 0.433916,-0.01058 0.211667,-0.01058 0.370417,-0.02117 z m 0.211669,0 q 0.28575,0.01058 0.762,0.02117 0.47625,0.01058 0.9525,0.01058 0.518584,0 0.994834,-0.01058 0.486833,-0.01058 0.687916,-0.01058 1.037167,0 1.703917,0.211667 0.677333,0.211666 1.016,0.624416 0.338667,0.402167 0.338667,1.005417 0,0.381 -0.15875,0.751417 -0.148167,0.359833 -0.518584,0.66675 -0.359833,0.306916 -1.005416,0.486833 -0.635,0.179917 -1.608667,0.179917 h -1.016 V 91.10452 h 0.910167 q 0.582083,0 0.878416,-0.232833 0.306917,-0.243417 0.41275,-0.635 0.116417,-0.402167 0.116417,-0.889 0,-0.836084 -0.264583,-1.291167 -0.264584,-0.465667 -0.899584,-0.465667 -0.391583,0 -0.508,0.179917 -0.105833,0.179917 -0.105833,0.73025 v 5.249333 q 0,0.381 0.05292,0.5715 0.0635,0.1905 0.22225,0.254 0.169333,0.0635 0.497416,0.08467 v 0.211666 q -0.296333,-0.02117 -0.762,-0.02117 -0.455083,-0.01058 -0.92075,-0.01058 -0.53975,0 -1.016,0.01058 -0.47625,0 -0.762,0.02117 v -0.211666 q 0.328084,-0.02117 0.486834,-0.08467 0.169333,-0.0635 0.22225,-0.254 0.0635,-0.1905 0.0635,-0.5715 V 88.50102 q 0,-0.391583 -0.0635,-0.5715 -0.05292,-0.1905 -0.22225,-0.254 -0.15875,-0.07408 -0.486834,-0.08467 z m 2.106084,3.757083 q 0.41275,0.01058 0.751416,0.04233 0.338667,0.03175 0.60325,0.0635 0.275167,0.02117 0.47625,0.03175 1.04775,0.0635 1.55575,0.402167 0.518584,0.328083 0.656167,0.98425 l 0.22225,1.100666 q 0.09525,0.402167 0.201083,0.5715 0.105834,0.15875 0.296334,0.148167 0.116416,0 0.201083,-0.04233 0.08467,-0.05292 0.169333,-0.148167 l 0.148167,0.137583 q -0.306917,0.328084 -0.66675,0.455084 -0.359833,0.137583 -0.836083,0.137583 -0.624417,0 -1.026584,-0.243417 -0.391583,-0.243416 -0.497416,-0.899583 L 39.499153,92.819013 Q 39.435653,92.385096 39.32982,92.04643 39.23457,91.707763 39.065236,91.517263 38.895903,91.31618 38.588986,91.31618 h -1.143 z"
           id="text2-2-3-4-6"
           aria-label="SLVR" />
        <text
           xml:space="preserve"
           transform="matrix(0.26458333,0,0,0.26458333,-92.267011,-31.110533)"
           id="text5"
           style="font-style:normal;font-weight:normal;font-size:40px;line-height:1.25;font-family:sans-serif;white-space:pre;shape-inside:url(#rect5);fill:#000000;fill-opacity:1;stroke:none"
           x="47.285255"
           y="0"><tspan
             x="409.62645"
             y="445.13579"
             id="tspan2"><tspan
               style="font-weight:600;font-size:29.3333px;font-family:'Playfair Display';-inkscape-font-specification:'Playfair Display Semi-Bold';text-align:center;text-anchor:middle"
               id="tspan1">PRBLM</tspan></tspan></text>
      </g>
    </g>
  </g>
</svg>
