<?xml version="1.0" encoding="UTF-8" standalone="no"?>
<!-- Created with Inkscape (http://www.inkscape.org/) -->

<svg
   width="40.423985mm"
   height="56.423996mm"
   viewBox="0 0 40.423985 56.423996"
   version="1.1"
   id="svg1"
   xml:space="preserve"
   xmlns="http://www.w3.org/2000/svg"
   xmlns:svg="http://www.w3.org/2000/svg"><defs
     id="defs1"><rect
       x="208.77827"
       y="241.85934"
       width="88.951309"
       height="72.043205"
       id="rect2-6-7-6-1-3-1" /><rect
       x="208.77827"
       y="241.85934"
       width="88.951309"
       height="72.043205"
       id="rect2-1-0-5-1-0-3-7" /></defs><g
     id="layer1"
     transform="translate(-144.14234,-109.27468)"><g
       id="g5"
       style="stroke:#000000;stroke-opacity:1"><path
         style="fill:#ffffff;fill-opacity:1;stroke:#ff0f0f;stroke-width:0.423998;stroke-opacity:1"
         id="rect1-8-5-5-8-7-1"
         width="40"
         height="56"
         x="40.845924"
         y="73.133659"
         transform="translate(103.5084,36.353018)"
         d="m 46.845924,73.133659 h 28 a 6,6 45 0 1 6,6 v 44.000001 a 6,6 135 0 1 -6,6 h -28 a 6,6 45 0 1 -6,-6 V 79.133659 a 6,6 135 0 1 6,-6 z" /><text
         xml:space="preserve"
         transform="matrix(0.26458333,0,0,0.26458333,92.793638,47.064806)"
         id="text2-5-5-3-0-1-0"
         style="font-style:normal;font-weight:normal;font-size:40px;line-height:1.25;font-family:sans-serif;white-space:pre;shape-inside:url(#rect2-6-7-6-1-3-1);display:inline;fill:#ff0f0f;fill-opacity:1;stroke:#ff0f0f;stroke-opacity:1"><tspan
           x="208.77734"
           y="278.77427"
           id="tspan2"><tspan
             style="font-weight:600;font-family:'New York Extra Large';-inkscape-font-specification:'New York Extra Large Semi-Bold'"
             id="tspan1">9</tspan></tspan></text><text
         xml:space="preserve"
         transform="matrix(-0.26458333,0,0,-0.26458333,235.91502,227.90855)"
         id="text2-7-4-1-5-7-5-5"
         style="font-style:normal;font-weight:normal;font-size:40px;line-height:1.25;font-family:sans-serif;white-space:pre;shape-inside:url(#rect2-1-0-5-1-0-3-7);display:inline;fill:#ff0f0f;fill-opacity:1;stroke:#ff0f0f;stroke-opacity:1"><tspan
           x="208.77734"
           y="278.77427"
           id="tspan4"><tspan
             style="font-weight:600;font-family:'New York Extra Large';-inkscape-font-specification:'New York Extra Large Semi-Bold'"
             id="tspan3">9</tspan></tspan></text><path
         d="m 159.34485,123.62356 c -0.60974,-1.07889 -1.40982,-2.29155 -2.36061,-3.57786 -0.21179,-0.28652 -0.68327,-0.90846 -0.8366,-1.10357 l -0.0612,-0.0779 0.1745,-0.23532 c 1.15546,-1.55832 2.21759,-3.11453 2.9936,-4.3862 0.0935,-0.15327 0.17409,-0.27404 0.179,-0.26836 0.005,0.006 0.11858,0.19433 0.2526,0.41925 0.85749,1.43913 1.88507,2.94011 2.90844,4.24836 0.14999,0.19174 0.17196,0.2256 0.15756,0.24281 -0.83883,1.00284 -1.65118,2.13397 -2.43276,3.38741 -0.22338,0.35823 -0.55593,0.91363 -0.73842,1.23323 -0.0763,0.13354 -0.14229,0.24711 -0.14674,0.25236 -0.005,0.005 -0.0447,-0.0551 -0.0893,-0.13418 z"
         style="fill:#ff0f0f;fill-opacity:1;stroke:none;stroke-width:0.144909;stroke-opacity:1"
         id="path1-9-9-7-0-3-4" /><path
         d="m 164.19615,130.92725 c -0.60974,-1.07889 -1.40982,-2.29155 -2.36061,-3.57786 -0.21179,-0.28652 -0.68327,-0.90846 -0.8366,-1.10357 l -0.0612,-0.0779 0.1745,-0.23532 c 1.15546,-1.55832 2.21759,-3.11453 2.9936,-4.3862 0.0935,-0.15327 0.17409,-0.27404 0.179,-0.26836 0.005,0.006 0.11858,0.19433 0.2526,0.41925 0.85749,1.43913 1.88507,2.94011 2.90844,4.24836 0.14999,0.19174 0.17196,0.2256 0.15756,0.24281 -0.83883,1.00284 -1.65118,2.13397 -2.43276,3.38741 -0.22338,0.35823 -0.55593,0.91363 -0.73842,1.23323 -0.0763,0.13354 -0.14229,0.24711 -0.14674,0.25236 -0.005,0.005 -0.0447,-0.0551 -0.0893,-0.13418 z"
         style="fill:#ff0f0f;fill-opacity:1;stroke:none;stroke-width:0.144909;stroke-opacity:1"
         id="path1-9-9-7-0-3-4-1" /><path
         d="m 159.34485,138.15387 c -0.60974,-1.07889 -1.40982,-2.29154 -2.36061,-3.57786 -0.21179,-0.28652 -0.68327,-0.90845 -0.8366,-1.10356 l -0.0612,-0.0779 0.1745,-0.23533 c 1.15546,-1.55832 2.21759,-3.11452 2.9936,-4.38619 0.0935,-0.15328 0.17409,-0.27405 0.179,-0.26838 0.005,0.006 0.11858,0.19434 0.2526,0.41926 0.85749,1.43913 1.88507,2.94011 2.90844,4.24836 0.14999,0.19174 0.17196,0.2256 0.15756,0.24281 -0.83883,1.00284 -1.65118,2.13397 -2.43276,3.38742 -0.22338,0.35822 -0.55593,0.91362 -0.73842,1.23322 -0.0763,0.13354 -0.14229,0.2471 -0.14674,0.25236 -0.005,0.006 -0.0447,-0.0551 -0.0893,-0.13418 z"
         style="fill:#ff0f0f;fill-opacity:1;stroke:none;stroke-width:0.144909;stroke-opacity:1"
         id="path1-9-9-7-5-6-1-5" /><path
         d="m 159.34485,149.50924 c -0.60974,-1.07889 -1.40982,-2.29156 -2.36061,-3.57786 -0.21179,-0.28652 -0.68327,-0.90846 -0.8366,-1.10357 l -0.0612,-0.0779 0.1745,-0.23532 c 1.15546,-1.55832 2.21759,-3.11452 2.9936,-4.3862 0.0935,-0.15327 0.17409,-0.27404 0.179,-0.26836 0.005,0.006 0.11858,0.19433 0.2526,0.41925 0.85749,1.43913 1.88507,2.9401 2.90844,4.24835 0.14999,0.19174 0.17196,0.2256 0.15756,0.24282 -0.83883,1.00284 -1.65118,2.13398 -2.43276,3.38741 -0.22338,0.35823 -0.55593,0.91363 -0.73842,1.23324 -0.0763,0.13354 -0.14229,0.24711 -0.14674,0.25235 -0.005,0.006 -0.0447,-0.0551 -0.0893,-0.13418 z"
         style="fill:#ff0f0f;fill-opacity:1;stroke:none;stroke-width:0.144909;stroke-opacity:1"
         id="path1-9-9-7-5-9-0-1-9" /><path
         d="m 169.21117,123.62356 c -0.60973,-1.07889 -1.40982,-2.29154 -2.3606,-3.57785 -0.21179,-0.28653 -0.68327,-0.90847 -0.8366,-1.10357 l -0.0612,-0.0779 0.17449,-0.23532 c 1.15549,-1.55833 2.2176,-3.11454 2.99361,-4.38621 0.0935,-0.15327 0.17408,-0.27404 0.17899,-0.26836 0.005,0.006 0.11859,0.19433 0.2526,0.41925 0.8575,1.43913 1.88508,2.94011 2.90844,4.24836 0.14999,0.19174 0.17196,0.2256 0.15757,0.24281 -0.83883,1.00285 -1.65119,2.13397 -2.43276,3.38741 -0.22337,0.35823 -0.55593,0.91363 -0.73843,1.23323 -0.0763,0.13354 -0.14228,0.24711 -0.14673,0.25236 -0.004,0.005 -0.0447,-0.0551 -0.0893,-0.13418 z"
         style="fill:#ff0f0f;fill-opacity:1;stroke:none;stroke-width:0.144909;stroke-opacity:1"
         id="path1-9-9-7-0-8-5-3" /><path
         d="m 169.21117,138.15387 c -0.60973,-1.07889 -1.40982,-2.29154 -2.3606,-3.57785 -0.21179,-0.28653 -0.68327,-0.90846 -0.8366,-1.10357 l -0.0612,-0.0779 0.17449,-0.23533 c 1.15549,-1.55831 2.2176,-3.11452 2.99361,-4.38619 0.0935,-0.15328 0.17408,-0.27404 0.17899,-0.26837 0.005,0.006 0.11859,0.19434 0.2526,0.41926 0.8575,1.43912 1.88508,2.9401 2.90844,4.24836 0.14999,0.19173 0.17196,0.22559 0.15757,0.2428 -0.83883,1.00285 -1.65119,2.13398 -2.43276,3.38742 -0.22337,0.35823 -0.55593,0.91362 -0.73843,1.23322 -0.0763,0.13355 -0.14228,0.24711 -0.14673,0.25237 -0.004,0.006 -0.0447,-0.0551 -0.0893,-0.13419 z"
         style="fill:#ff0f0f;fill-opacity:1;stroke:none;stroke-width:0.144909;stroke-opacity:1"
         id="path1-9-9-7-5-6-6-0-9" /><path
         d="m 169.21117,149.50925 c -0.60973,-1.0789 -1.40982,-2.29155 -2.3606,-3.57786 -0.21179,-0.28653 -0.68327,-0.90846 -0.8366,-1.10357 l -0.0612,-0.0779 0.17449,-0.23532 c 1.15549,-1.55833 2.2176,-3.11453 2.99361,-4.3862 0.0935,-0.15327 0.17408,-0.27404 0.17899,-0.26837 0.005,0.006 0.11859,0.19434 0.2526,0.41925 0.8575,1.43914 1.88508,2.94011 2.90844,4.24837 0.14999,0.19173 0.17196,0.2256 0.15757,0.2428 -0.83883,1.00285 -1.65119,2.13398 -2.43276,3.38744 -0.22337,0.3582 -0.55593,0.91361 -0.73843,1.23321 -0.0763,0.13354 -0.14228,0.24711 -0.14673,0.25236 -0.004,0.006 -0.0447,-0.0551 -0.0893,-0.13418 z"
         style="fill:#ff0f0f;fill-opacity:1;stroke:none;stroke-width:0.144909;stroke-opacity:1"
         id="path1-9-9-7-5-9-0-7-8-6" /><path
         d="m 159.34485,160.8646 c -0.60974,-1.07888 -1.40982,-2.29154 -2.36061,-3.57785 -0.21179,-0.28652 -0.68327,-0.90846 -0.8366,-1.10357 l -0.0612,-0.0779 0.1745,-0.23532 c 1.15546,-1.55832 2.21759,-3.11452 2.9936,-4.38621 0.0935,-0.15327 0.17409,-0.27404 0.179,-0.26836 0.005,0.006 0.11858,0.19433 0.2526,0.41925 0.85749,1.43914 1.88507,2.94011 2.90844,4.24836 0.14999,0.19174 0.17196,0.2256 0.15756,0.24282 -0.83883,1.00284 -1.65118,2.13398 -2.43276,3.38742 -0.22338,0.35822 -0.55593,0.91363 -0.73842,1.23322 -0.0763,0.13354 -0.14229,0.24711 -0.14674,0.25236 -0.005,0.006 -0.0447,-0.0551 -0.0893,-0.13418 z"
         style="fill:#ff0f0f;fill-opacity:1;stroke:none;stroke-width:0.144909;stroke-opacity:1"
         id="path1-9-9-7-5-9-0-1-5-6" /><path
         d="m 169.21117,160.86461 c -0.60973,-1.07889 -1.40982,-2.29154 -2.3606,-3.57786 -0.21179,-0.28652 -0.68327,-0.90846 -0.8366,-1.10356 l -0.0612,-0.0779 0.17449,-0.23533 c 1.15549,-1.55832 2.2176,-3.11452 2.99361,-4.38621 0.0935,-0.15327 0.17408,-0.27404 0.17899,-0.26836 0.005,0.006 0.11859,0.19433 0.2526,0.41925 0.8575,1.43914 1.88508,2.94011 2.90844,4.24837 0.14999,0.19174 0.17196,0.2256 0.15757,0.24281 -0.83883,1.00284 -1.65119,2.13398 -2.43276,3.38743 -0.22337,0.35821 -0.55593,0.91362 -0.73843,1.23321 -0.0763,0.13354 -0.14228,0.24711 -0.14673,0.25236 -0.004,0.006 -0.0447,-0.0551 -0.0893,-0.13418 z"
         style="fill:#ff0f0f;fill-opacity:1;stroke:none;stroke-width:0.144909;stroke-opacity:1"
         id="path1-9-9-7-5-9-0-7-8-2-4" /></g></g></svg>
