<?xml version="1.0" encoding="UTF-8" standalone="no"?>
<!-- Created with Inkscape (http://www.inkscape.org/) -->

<svg
   width="40.424mm"
   height="56.424011mm"
   viewBox="0 0 40.424 56.424011"
   version="1.1"
   id="svg1"
   xml:space="preserve"
   xmlns="http://www.w3.org/2000/svg"
   xmlns:svg="http://www.w3.org/2000/svg"><defs
     id="defs1"><rect
       x="208.77827"
       y="241.85934"
       width="88.951309"
       height="72.043205"
       id="rect2-6-7-6-1-3-1-1" /><rect
       x="208.77827"
       y="241.85934"
       width="88.951309"
       height="72.043205"
       id="rect2-1-0-5-1-0-3-7-2" /></defs><g
     id="layer1"
     transform="translate(-8.7861302,-170.08317)"><g
       id="g4"><path
         style="fill:#ffffff;fill-opacity:1;stroke:#000000;stroke-width:0.423998;stroke-opacity:1"
         id="rect1-8-5-5-8-7-1-7"
         width="40"
         height="56"
         x="40.845924"
         y="73.133659"
         transform="translate(-31.847795,97.161519)"
         d="m 46.845924,73.133659 h 28 a 6,6 45 0 1 6,6 v 44.000001 a 6,6 135 0 1 -6,6 h -28 a 6,6 45 0 1 -6,-6 V 79.133659 a 6,6 135 0 1 6,-6 z" /><path
         d="m 20.336579,206.12071 c 0,-0.009 0.06106,-0.0888 0.182322,-0.23945 0.221291,-0.27493 0.339406,-0.48053 0.45774,-0.79678 0.103032,-0.27534 0.214903,-0.72617 0.272625,-1.09865 l 0.01385,-0.0894 -0.05771,0.0657 c -0.183342,0.20868 -0.406146,0.36888 -0.660342,0.47483 -0.362516,0.15109 -0.719136,0.18482 -1.042464,0.0986 -0.446853,-0.11917 -0.761563,-0.46688 -0.895164,-0.98902 -0.04298,-0.16802 -0.05626,-0.29215 -0.04987,-0.46642 0.006,-0.16519 0.03628,-0.30196 0.09849,-0.44564 0.168319,-0.38879 0.560763,-0.68686 1.060696,-0.80563 0.353637,-0.084 0.823204,-0.0645 1.139883,0.0472 0.02281,0.008 0.04539,0.0146 0.05022,0.0146 0.0048,0 -0.01993,-0.0254 -0.05498,-0.0565 -0.431812,-0.38331 -0.712909,-1.09691 -0.667441,-1.69438 0.04766,-0.62607 0.375818,-1.05159 0.94162,-1.22094 0.256882,-0.0769 0.602788,-0.0983 0.904745,-0.0559 0.623074,0.0875 1.015877,0.43804 1.140114,1.01753 0.02882,0.13448 0.03556,0.41819 0.01396,0.58867 -0.01853,0.14623 -0.07286,0.36982 -0.123378,0.50763 -0.05194,0.14173 -0.174274,0.38426 -0.253564,0.50271 -0.09221,0.13776 -0.140316,0.19672 -0.255659,0.31339 l -0.09538,0.0965 0.109017,-0.037 c 0.189611,-0.0642 0.316283,-0.0859 0.534558,-0.0917 0.118443,-0.003 0.226306,-8e-4 0.284204,0.006 0.590309,0.0696 1.084809,0.38404 1.310608,0.83335 0.158296,0.31499 0.174641,0.67503 0.04792,1.05567 -0.139769,0.41985 -0.406377,0.69576 -0.799206,0.82708 -0.129016,0.0431 -0.240191,0.0621 -0.399466,0.0682 -0.29832,0.0114 -0.594842,-0.0543 -0.882854,-0.1957 -0.219464,-0.10774 -0.422527,-0.25813 -0.544696,-0.40339 -0.03308,-0.0393 -0.06138,-0.0679 -0.06284,-0.0635 -0.0037,0.011 0.05883,0.3129 0.0936,0.4521 0.171656,0.68736 0.372431,1.09035 0.757809,1.52106 0.111361,0.12445 0.207779,0.24348 0.207779,0.25649 0,0.006 -0.533997,0.009 -1.388372,0.009 -0.763605,0 -1.388374,-0.002 -1.388374,-0.007 z"
         style="fill:#000000;stroke-width:0.107461"
         id="path1-0-4-56-0-5-4-1-7-6-5" /><path
         d="m 20.336577,197.93901 c 0,-0.009 0.06106,-0.0888 0.182322,-0.23944 0.22129,-0.27493 0.339406,-0.48054 0.457739,-0.79678 0.103032,-0.27535 0.214904,-0.72618 0.272626,-1.09866 l 0.01385,-0.0894 -0.0577,0.0657 c -0.183342,0.20868 -0.406146,0.36889 -0.660342,0.47483 -0.362516,0.1511 -0.719136,0.18482 -1.042464,0.0986 -0.446853,-0.11917 -0.761563,-0.46688 -0.895163,-0.98901 -0.04299,-0.16803 -0.05626,-0.29216 -0.04987,-0.46643 0.006,-0.16519 0.03628,-0.30195 0.09849,-0.44564 0.168318,-0.38878 0.560762,-0.68686 1.060696,-0.80562 0.353636,-0.084 0.823203,-0.0645 1.139883,0.0472 0.0228,0.008 0.04539,0.0146 0.05022,0.0146 0.0048,0 -0.01993,-0.0254 -0.05498,-0.0565 -0.431812,-0.38331 -0.71291,-1.09691 -0.667442,-1.69438 0.04765,-0.62607 0.375818,-1.05159 0.94162,-1.22095 0.256882,-0.0769 0.602789,-0.0982 0.904746,-0.0559 0.623073,0.0875 1.015876,0.43803 1.140113,1.01754 0.02882,0.13447 0.03556,0.41818 0.01396,0.58866 -0.01853,0.14623 -0.07286,0.36982 -0.123377,0.50763 -0.05194,0.14173 -0.174273,0.38426 -0.253563,0.50271 -0.09221,0.13777 -0.140318,0.19673 -0.255661,0.3134 l -0.09538,0.0965 0.109018,-0.0369 c 0.189609,-0.0642 0.316282,-0.0859 0.534557,-0.0917 0.118443,-0.003 0.226306,-8e-4 0.284204,0.006 0.590309,0.0696 1.08481,0.38405 1.310608,0.83335 0.158295,0.31499 0.174641,0.67503 0.04792,1.05567 -0.13977,0.41986 -0.406377,0.69576 -0.799206,0.82709 -0.129016,0.0431 -0.240192,0.0621 -0.399465,0.0682 -0.298322,0.0114 -0.594843,-0.0543 -0.882855,-0.19571 -0.219464,-0.10774 -0.422528,-0.25812 -0.544696,-0.40339 -0.03308,-0.0393 -0.06138,-0.0679 -0.06284,-0.0635 -0.0037,0.011 0.05883,0.3129 0.0936,0.45211 0.171657,0.68736 0.37243,1.09035 0.757809,1.52105 0.111361,0.12445 0.207779,0.24349 0.207779,0.2565 0,0.006 -0.533996,0.009 -1.388372,0.009 -0.763605,0 -1.388373,-0.002 -1.388373,-0.007 z"
         style="fill:#000000;stroke-width:0.107461"
         id="path1-0-4-56-0-4-8-1-3-0-52" /><path
         d="m 27.64294,193.65177 c 0,-0.009 0.06106,-0.0888 0.182322,-0.23944 0.22129,-0.27493 0.339406,-0.48054 0.457739,-0.79678 0.103032,-0.27535 0.214903,-0.72617 0.272626,-1.09865 l 0.01385,-0.0894 -0.0577,0.0657 c -0.183342,0.20867 -0.406146,0.36888 -0.660342,0.47483 -0.362516,0.15109 -0.719136,0.18481 -1.042464,0.0986 -0.446853,-0.11918 -0.761563,-0.46688 -0.895163,-0.98902 -0.04299,-0.16802 -0.05626,-0.29215 -0.04987,-0.46642 0.006,-0.16519 0.03628,-0.30196 0.09849,-0.44564 0.168318,-0.38879 0.560763,-0.68686 1.060697,-0.80563 0.353635,-0.084 0.823203,-0.0645 1.139883,0.0472 0.0228,0.008 0.04539,0.0146 0.05022,0.0146 0.0048,0 -0.01993,-0.0254 -0.05498,-0.0565 -0.431812,-0.38331 -0.71291,-1.09691 -0.667442,-1.69438 0.04765,-0.62606 0.375818,-1.05159 0.94162,-1.22094 0.256881,-0.0769 0.602789,-0.0983 0.904745,-0.0559 0.623074,0.0875 1.015877,0.43804 1.140114,1.01753 0.02882,0.13448 0.03556,0.41819 0.01396,0.58867 -0.01853,0.14623 -0.07286,0.36981 -0.123377,0.50763 -0.05194,0.14173 -0.174274,0.38426 -0.253564,0.50271 -0.09221,0.13776 -0.140317,0.19672 -0.25566,0.31339 l -0.09538,0.0965 0.109018,-0.0369 c 0.189609,-0.0642 0.316282,-0.0859 0.534557,-0.0917 0.118443,-0.003 0.226306,-8e-4 0.284204,0.006 0.590309,0.0696 1.08481,0.38405 1.310608,0.83336 0.158295,0.31499 0.174641,0.67503 0.04792,1.05567 -0.13977,0.41985 -0.406377,0.69576 -0.799206,0.82708 -0.129016,0.0431 -0.240192,0.0621 -0.399465,0.0682 -0.298322,0.0114 -0.594843,-0.0543 -0.882855,-0.1957 -0.219464,-0.10774 -0.422528,-0.25813 -0.544697,-0.40339 -0.03308,-0.0393 -0.06138,-0.0679 -0.06284,-0.0635 -0.0037,0.011 0.05883,0.3129 0.0936,0.4521 0.171657,0.68736 0.37243,1.09035 0.757809,1.52105 0.11136,0.12446 0.207779,0.24349 0.207779,0.2565 0,0.006 -0.533996,0.009 -1.388372,0.009 -0.763605,0 -1.388373,-0.002 -1.388373,-0.007 z"
         style="fill:#000000;stroke-width:0.107461"
         id="path1-0-4-56-0-4-8-1-3-0-5-0" /><path
         d="m 27.64294,202.74248 c 0,0.009 0.06106,0.0888 0.182322,0.23944 0.22129,0.27493 0.339406,0.48054 0.457739,0.79678 0.103032,0.27535 0.214903,0.72617 0.272626,1.09865 l 0.01385,0.0894 -0.0577,-0.0657 c -0.183342,-0.20867 -0.406146,-0.36888 -0.660342,-0.47483 -0.362516,-0.15109 -0.719136,-0.18481 -1.042464,-0.0986 -0.446853,0.11918 -0.761563,0.46688 -0.895163,0.98902 -0.04299,0.16802 -0.05626,0.29215 -0.04987,0.46642 0.006,0.16519 0.03628,0.30196 0.09849,0.44564 0.168318,0.38879 0.560763,0.68686 1.060697,0.80563 0.353635,0.084 0.823203,0.0645 1.139883,-0.0472 0.0228,-0.008 0.04539,-0.0146 0.05022,-0.0146 0.0048,0 -0.01993,0.0254 -0.05498,0.0565 -0.431812,0.38331 -0.71291,1.09691 -0.667442,1.69438 0.04765,0.62606 0.375818,1.05159 0.94162,1.22094 0.256881,0.0769 0.602789,0.0983 0.904745,0.0559 0.623074,-0.0875 1.015877,-0.43804 1.140114,-1.01753 0.02882,-0.13448 0.03556,-0.41819 0.01396,-0.58867 -0.01853,-0.14623 -0.07286,-0.36981 -0.123377,-0.50763 -0.05194,-0.14173 -0.174274,-0.38426 -0.253564,-0.50271 -0.09221,-0.13776 -0.140317,-0.19672 -0.25566,-0.31339 l -0.09538,-0.0965 0.109018,0.0369 c 0.189609,0.0642 0.316282,0.0859 0.534557,0.0917 0.118443,0.003 0.226306,8e-4 0.284204,-0.006 0.590309,-0.0696 1.08481,-0.38405 1.310608,-0.83336 0.158295,-0.31499 0.174641,-0.67503 0.04792,-1.05567 -0.13977,-0.41985 -0.406377,-0.69576 -0.799206,-0.82708 -0.129016,-0.0431 -0.240192,-0.0621 -0.399465,-0.0682 -0.298322,-0.0114 -0.594843,0.0543 -0.882855,0.1957 -0.219464,0.10774 -0.422528,0.25813 -0.544697,0.40339 -0.03308,0.0393 -0.06138,0.0679 -0.06284,0.0635 -0.0037,-0.011 0.05883,-0.3129 0.0936,-0.4521 0.171657,-0.68736 0.37243,-1.09035 0.757809,-1.52105 0.11136,-0.12446 0.207779,-0.24349 0.207779,-0.2565 0,-0.006 -0.533996,-0.009 -1.388372,-0.009 -0.763605,0 -1.388373,0.002 -1.388373,0.007 z"
         style="fill:#000000;stroke-width:0.107461"
         id="path1-0-4-56-0-4-8-1-3-0-5-0-3" /><path
         d="m 20.336577,189.75731 c 0,-0.009 0.06106,-0.0888 0.182322,-0.23944 0.22129,-0.27494 0.339406,-0.48053 0.457739,-0.79678 0.103032,-0.27535 0.214904,-0.72617 0.272626,-1.09866 l 0.01385,-0.0894 -0.0577,0.0657 c -0.183342,0.20867 -0.406146,0.36888 -0.660342,0.47483 -0.362516,0.15108 -0.719136,0.18481 -1.042464,0.0986 -0.446853,-0.11917 -0.761563,-0.46687 -0.895163,-0.98901 -0.04299,-0.16803 -0.05626,-0.29215 -0.04987,-0.46643 0.006,-0.16518 0.03628,-0.30195 0.09849,-0.44563 0.168318,-0.38879 0.560762,-0.68687 1.060696,-0.80563 0.353636,-0.084 0.823203,-0.0645 1.139883,0.0472 0.0228,0.008 0.04539,0.0146 0.05022,0.0146 0.0048,0 -0.01993,-0.0254 -0.05498,-0.0565 -0.431812,-0.38332 -0.71291,-1.09692 -0.667442,-1.69438 0.04765,-0.62607 0.375818,-1.0516 0.94162,-1.22094 0.256882,-0.0769 0.602789,-0.0983 0.904746,-0.0559 0.623073,0.0875 1.015876,0.43804 1.140113,1.01753 0.02882,0.13448 0.03556,0.4182 0.01396,0.58867 -0.01853,0.14623 -0.07286,0.36982 -0.123377,0.50763 -0.05194,0.14173 -0.174273,0.38426 -0.253563,0.50272 -0.09221,0.13775 -0.140318,0.19672 -0.255661,0.31339 l -0.09538,0.0965 0.109018,-0.0369 c 0.189609,-0.0642 0.316282,-0.086 0.534557,-0.0917 0.118443,-0.003 0.226306,-8e-4 0.284204,0.006 0.590309,0.0696 1.08481,0.38404 1.310608,0.83335 0.158295,0.31499 0.174641,0.67504 0.04792,1.05567 -0.13977,0.41985 -0.406377,0.69576 -0.799206,0.82708 -0.129016,0.0431 -0.240192,0.0621 -0.399465,0.0682 -0.298322,0.0114 -0.594843,-0.0543 -0.882855,-0.1957 -0.219464,-0.10775 -0.422528,-0.25813 -0.544696,-0.40339 -0.03308,-0.0393 -0.06138,-0.0679 -0.06284,-0.0635 -0.0037,0.011 0.05883,0.31291 0.0936,0.45211 0.171657,0.68736 0.37243,1.09035 0.757809,1.52105 0.111361,0.12446 0.207779,0.24348 0.207779,0.2565 0,0.006 -0.533996,0.009 -1.388372,0.009 -0.763605,0 -1.388373,-0.002 -1.388373,-0.007 z"
         style="fill:#000000;stroke-width:0.107461"
         id="path1-0-4-56-0-4-8-1-1-5" /><path
         d="m 34.949302,182.28816 c 0,0.009 0.06106,0.0888 0.182322,0.23944 0.221291,0.27493 0.339407,0.48053 0.45774,0.79677 0.103032,0.27536 0.214903,0.72618 0.272626,1.09866 l 0.01385,0.0894 -0.0577,-0.0657 c -0.183343,-0.20867 -0.406147,-0.36888 -0.660343,-0.47483 -0.362515,-0.15109 -0.719137,-0.18482 -1.042464,-0.0986 -0.446853,0.11918 -0.761562,0.46688 -0.895163,0.98902 -0.04298,0.16803 -0.05626,0.29215 -0.04987,0.46643 0.006,0.16518 0.03628,0.30195 0.09849,0.44563 0.168319,0.38879 0.560763,0.68686 1.060697,0.80563 0.353636,0.084 0.823203,0.0645 1.139883,-0.0472 0.02281,-0.008 0.0454,-0.0147 0.05022,-0.0147 0.0048,0 -0.01993,0.0254 -0.05498,0.0565 -0.431811,0.38331 -0.712908,1.09691 -0.66744,1.69437 0.04766,0.62608 0.375818,1.0516 0.941619,1.22095 0.256881,0.0769 0.602788,0.0982 0.904744,0.0559 0.623076,-0.0875 1.015878,-0.43803 1.140115,-1.01753 0.02882,-0.13448 0.03556,-0.41819 0.01396,-0.58867 -0.01853,-0.14622 -0.07286,-0.36982 -0.123377,-0.50763 -0.05194,-0.14173 -0.174276,-0.38426 -0.253565,-0.50271 -0.09221,-0.13776 -0.140316,-0.19673 -0.255659,-0.3134 l -0.09538,-0.0965 0.109019,0.037 c 0.18961,0.0642 0.316283,0.086 0.534556,0.0917 0.118444,0.003 0.226307,7.9e-4 0.284206,-0.006 0.590308,-0.0696 1.084808,-0.38405 1.310607,-0.83335 0.158296,-0.31499 0.17464,-0.67503 0.04792,-1.05567 -0.13977,-0.41986 -0.406377,-0.69576 -0.799206,-0.82708 -0.129017,-0.0431 -0.240192,-0.0621 -0.399466,-0.0682 -0.298321,-0.0114 -0.594842,0.0543 -0.882855,0.19571 -0.219464,0.10774 -0.422526,0.25812 -0.544696,0.40339 -0.03308,0.0393 -0.06137,0.0679 -0.06284,0.0635 -0.0037,-0.011 0.05883,-0.3129 0.0936,-0.45211 0.171658,-0.68736 0.372432,-1.09034 0.75781,-1.52105 0.111361,-0.12445 0.207778,-0.24348 0.207778,-0.25649 0,-0.006 -0.533995,-0.009 -1.388372,-0.009 -0.763606,0 -1.388372,0.002 -1.388372,0.007 z"
         style="fill:#000000;stroke-width:0.107461"
         id="path1-0-4-56-4-8-9-3-0-5-0" /><path
         d="m 34.949302,190.46992 c 0,0.009 0.06106,0.0888 0.182322,0.23945 0.221291,0.27492 0.339407,0.48053 0.45774,0.79677 0.103032,0.27535 0.214903,0.72618 0.272626,1.09866 l 0.01385,0.0894 -0.0577,-0.0657 c -0.183343,-0.20867 -0.406147,-0.36889 -0.660343,-0.47483 -0.362515,-0.15109 -0.719137,-0.18482 -1.042464,-0.0986 -0.446853,0.11917 -0.761562,0.46688 -0.895163,0.98902 -0.04298,0.16802 -0.05626,0.29215 -0.04987,0.46642 0.006,0.16519 0.03628,0.30196 0.09849,0.44564 0.168319,0.38879 0.560763,0.68686 1.060697,0.80563 0.353636,0.084 0.823203,0.0645 1.139883,-0.0472 0.02281,-0.008 0.0454,-0.0147 0.05022,-0.0147 0.0048,0 -0.01993,0.0254 -0.05498,0.0565 -0.431811,0.3833 -0.712908,1.0969 -0.66744,1.69437 0.04766,0.62607 0.375818,1.0516 0.941619,1.22095 0.256881,0.0769 0.602788,0.0982 0.904744,0.0559 0.623076,-0.0875 1.015878,-0.43803 1.140115,-1.01753 0.02882,-0.13448 0.03556,-0.41819 0.01396,-0.58867 -0.01853,-0.14623 -0.07286,-0.36982 -0.123377,-0.50763 -0.05194,-0.14173 -0.174276,-0.38426 -0.253565,-0.50271 -0.09221,-0.13776 -0.140316,-0.19673 -0.255659,-0.3134 l -0.09538,-0.0965 0.109019,0.037 c 0.18961,0.0642 0.316283,0.0859 0.534556,0.0917 0.118444,0.003 0.226307,8e-4 0.284206,-0.006 0.590308,-0.0696 1.084808,-0.38405 1.310607,-0.83335 0.158296,-0.31499 0.17464,-0.67503 0.04792,-1.05567 -0.13977,-0.41986 -0.406377,-0.69576 -0.799206,-0.82708 -0.129017,-0.0431 -0.240192,-0.0621 -0.399466,-0.0682 -0.298321,-0.0114 -0.594842,0.0543 -0.882855,0.19571 -0.219464,0.10774 -0.422526,0.25812 -0.544696,0.40338 -0.03308,0.0393 -0.06137,0.0679 -0.06284,0.0635 -0.0037,-0.011 0.05883,-0.31289 0.0936,-0.4521 0.171658,-0.68736 0.372432,-1.09034 0.75781,-1.52105 0.111361,-0.12445 0.207778,-0.24348 0.207778,-0.2565 0,-0.006 -0.533995,-0.009 -1.388372,-0.009 -0.763606,0 -1.388372,0.002 -1.388372,0.007 z"
         style="fill:#000000;stroke-width:0.107461"
         id="path1-0-4-56-4-8-9-3-0-7-6-7" /><path
         d="m 34.949302,198.65169 c 0,0.009 0.06106,0.0888 0.182322,0.23944 0.221291,0.27493 0.339407,0.48054 0.45774,0.79678 0.103032,0.27535 0.214903,0.72618 0.272626,1.09866 l 0.01385,0.0894 -0.0577,-0.0657 c -0.183343,-0.20868 -0.406147,-0.36889 -0.660343,-0.47483 -0.362515,-0.1511 -0.719137,-0.18482 -1.042464,-0.0986 -0.446853,0.11917 -0.761562,0.46687 -0.895163,0.98901 -0.04298,0.16803 -0.05626,0.29216 -0.04987,0.46643 0.006,0.16519 0.03628,0.30195 0.09849,0.44564 0.168319,0.38878 0.560763,0.68685 1.060697,0.80562 0.353636,0.084 0.823203,0.0645 1.139883,-0.0472 0.02281,-0.008 0.0454,-0.0147 0.05022,-0.0147 0.0048,0 -0.01993,0.0254 -0.05498,0.0565 -0.431811,0.38331 -0.712908,1.09691 -0.66744,1.69438 0.04766,0.62607 0.375818,1.05159 0.941619,1.22095 0.256881,0.0769 0.602788,0.0982 0.904744,0.0559 0.623076,-0.0875 1.015878,-0.43803 1.140115,-1.01754 0.02882,-0.13447 0.03556,-0.41818 0.01396,-0.58867 -0.01853,-0.14622 -0.07286,-0.36981 -0.123377,-0.50762 -0.05194,-0.14174 -0.174276,-0.38426 -0.253565,-0.50271 -0.09221,-0.13777 -0.140316,-0.19673 -0.255659,-0.3134 l -0.09538,-0.0965 0.109019,0.037 c 0.18961,0.0642 0.316283,0.0859 0.534556,0.0917 0.118444,0.003 0.226307,8e-4 0.284206,-0.006 0.590308,-0.0696 1.084808,-0.38405 1.310607,-0.83335 0.158296,-0.31499 0.17464,-0.67503 0.04792,-1.05568 -0.13977,-0.41985 -0.406377,-0.69576 -0.799206,-0.82708 -0.129017,-0.0431 -0.240192,-0.0621 -0.399466,-0.0682 -0.298321,-0.0114 -0.594842,0.0543 -0.882855,0.19571 -0.219464,0.10774 -0.422526,0.25812 -0.544696,0.40338 -0.03308,0.0393 -0.06137,0.0679 -0.06284,0.0635 -0.0037,-0.011 0.05883,-0.3129 0.0936,-0.4521 0.171658,-0.68736 0.372432,-1.09035 0.75781,-1.52105 0.111361,-0.12445 0.207778,-0.24349 0.207778,-0.2565 0,-0.006 -0.533995,-0.009 -1.388372,-0.009 -0.763606,0 -1.388372,0.002 -1.388372,0.007 z"
         style="fill:#000000;stroke-width:0.107461"
         id="path1-0-4-56-4-8-9-9-7-0-5-7" /><path
         d="m 20.336577,214.30242 c 0,-0.009 0.06106,-0.0888 0.182322,-0.23943 0.22129,-0.27493 0.339406,-0.48054 0.457739,-0.79678 0.103032,-0.27536 0.214904,-0.72618 0.272626,-1.09867 l 0.01385,-0.0894 -0.0577,0.0657 c -0.183342,0.20867 -0.406146,0.36888 -0.660342,0.47484 -0.362516,0.15108 -0.719136,0.18481 -1.042464,0.0986 -0.446853,-0.11917 -0.761563,-0.46689 -0.895163,-0.98903 -0.04299,-0.16803 -0.05626,-0.29215 -0.04987,-0.46643 0.006,-0.16518 0.03628,-0.30195 0.09849,-0.44564 0.168318,-0.38879 0.560762,-0.68686 1.060696,-0.80563 0.353636,-0.084 0.823203,-0.0645 1.139883,0.0472 0.0228,0.008 0.04539,0.0147 0.05022,0.0147 0.0048,0 -0.01993,-0.0254 -0.05498,-0.0565 -0.431812,-0.3833 -0.71291,-1.0969 -0.667442,-1.69435 0.04765,-0.62608 0.375818,-1.05161 0.94162,-1.22095 0.256882,-0.0769 0.602789,-0.0982 0.904746,-0.0559 0.623073,0.0875 1.015876,0.43803 1.140113,1.01753 0.02882,0.13448 0.03556,0.4182 0.01396,0.58867 -0.01853,0.14622 -0.07286,0.36981 -0.123377,0.50762 -0.05194,0.14174 -0.174273,0.38426 -0.253563,0.50271 -0.09221,0.13776 -0.140318,0.19671 -0.255661,0.31338 l -0.09538,0.0965 0.109018,-0.037 c 0.189609,-0.0643 0.316282,-0.0859 0.534557,-0.0917 0.118443,-0.003 0.226306,-6e-4 0.284204,0.006 0.590309,0.0696 1.08481,0.38405 1.310608,0.83335 0.158295,0.31499 0.174641,0.67504 0.04792,1.05569 -0.13977,0.41985 -0.406377,0.69576 -0.799206,0.82708 -0.129016,0.0432 -0.240192,0.0621 -0.399465,0.0682 -0.298322,0.0114 -0.594843,-0.0543 -0.882855,-0.1957 -0.219464,-0.10775 -0.422528,-0.25813 -0.544696,-0.4034 -0.03308,-0.0393 -0.06138,-0.0679 -0.06284,-0.0635 -0.0037,0.011 0.05883,0.31291 0.0936,0.45209 0.171657,0.68737 0.37243,1.09037 0.757809,1.52107 0.111361,0.12446 0.207779,0.24349 0.207779,0.25649 0,0.006 -0.533996,0.009 -1.388372,0.009 -0.763605,0 -1.388373,-0.002 -1.388373,-0.006 z"
         style="fill:#000000;stroke-width:0.107461"
         id="path1-0-4-5-2-4-5-9-2-8-7" /><path
         d="m 34.949302,206.83332 c 0,0.009 0.06106,0.0888 0.182322,0.23943 0.221291,0.27493 0.339407,0.48054 0.45774,0.79678 0.103032,0.27535 0.214903,0.72618 0.272626,1.09866 l 0.01385,0.0894 -0.0577,-0.0657 c -0.183343,-0.20867 -0.406147,-0.36888 -0.660343,-0.47483 -0.362515,-0.15109 -0.719137,-0.18482 -1.042464,-0.0986 -0.446853,0.11917 -0.761562,0.46687 -0.895163,0.98901 -0.04298,0.16802 -0.05626,0.29215 -0.04987,0.46641 0.006,0.1652 0.03628,0.30196 0.09849,0.44564 0.168319,0.38879 0.560763,0.68686 1.060697,0.80563 0.353636,0.084 0.823203,0.0645 1.139883,-0.0472 0.02281,-0.008 0.0454,-0.0146 0.05022,-0.0146 0.0048,0 -0.01993,0.0254 -0.05498,0.0565 -0.431811,0.38331 -0.712908,1.09692 -0.66744,1.69439 0.04766,0.62608 0.375818,1.05159 0.941619,1.22095 0.256881,0.0769 0.602788,0.0982 0.904744,0.0559 0.623076,-0.0875 1.015878,-0.43802 1.140115,-1.01753 0.02882,-0.13447 0.03556,-0.41819 0.01396,-0.58867 -0.01853,-0.14622 -0.07286,-0.36982 -0.123377,-0.50763 -0.05194,-0.14173 -0.174276,-0.38426 -0.253565,-0.50272 -0.09221,-0.13775 -0.140316,-0.19672 -0.255659,-0.31338 l -0.09538,-0.0965 0.109019,0.0369 c 0.18961,0.0643 0.316283,0.0859 0.534556,0.0917 0.118444,0.002 0.226307,6e-4 0.284206,-0.006 0.590308,-0.0696 1.084808,-0.38406 1.310607,-0.83336 0.158296,-0.31499 0.17464,-0.67502 0.04792,-1.05567 -0.13977,-0.41985 -0.406377,-0.69575 -0.799206,-0.82707 -0.129017,-0.0431 -0.240192,-0.0621 -0.399466,-0.0682 -0.298321,-0.0114 -0.594842,0.0543 -0.882855,0.19571 -0.219464,0.10775 -0.422526,0.25812 -0.544696,0.40339 -0.03308,0.0393 -0.06137,0.068 -0.06284,0.0635 -0.0037,-0.0109 0.05883,-0.3129 0.0936,-0.4521 0.171658,-0.68736 0.372432,-1.09035 0.75781,-1.52105 0.111361,-0.12446 0.207778,-0.24349 0.207778,-0.2565 0,-0.006 -0.533995,-0.009 -1.388372,-0.009 -0.763606,0 -1.388372,0.002 -1.388372,0.006 z"
         style="fill:#000000;stroke-width:0.107461"
         id="path1-0-4-5-2-0-5-7-4-9-3-9" /><text
         xml:space="preserve"
         transform="matrix(0.26458333,0,0,0.26458333,-42.562556,107.87331)"
         id="text2-5-5-3-0-1-0-5"
         style="font-style:normal;font-weight:normal;font-size:40px;line-height:1.25;font-family:sans-serif;white-space:pre;shape-inside:url(#rect2-6-7-6-1-3-1-1);display:inline;fill:#000000;fill-opacity:1;stroke:none"><tspan
           x="208.77734"
           y="278.77427"
           id="tspan2"><tspan
             style="font-weight:600;font-family:'New York Extra Large';-inkscape-font-specification:'New York Extra Large Semi-Bold'"
             id="tspan1">10</tspan></tspan></text><text
         xml:space="preserve"
         transform="matrix(-0.26458333,0,0,-0.26458333,100.55883,288.71705)"
         id="text2-7-4-1-5-7-5-5-4"
         style="font-style:normal;font-weight:normal;font-size:40px;line-height:1.25;font-family:sans-serif;white-space:pre;shape-inside:url(#rect2-1-0-5-1-0-3-7-2);display:inline;fill:#000000;fill-opacity:1;stroke:none"><tspan
           x="208.77734"
           y="278.77427"
           id="tspan4"><tspan
             style="font-weight:600;font-family:'New York Extra Large';-inkscape-font-specification:'New York Extra Large Semi-Bold'"
             id="tspan3">10</tspan></tspan></text></g></g></svg>
