<?xml version="1.0" encoding="UTF-8" standalone="no"?>
<!-- Created with Inkscape (http://www.inkscape.org/) -->

<svg
   width="40.424mm"
   height="56.423996mm"
   viewBox="0 0 40.424 56.423996"
   version="1.1"
   id="svg1"
   xml:space="preserve"
   xmlns="http://www.w3.org/2000/svg"
   xmlns:svg="http://www.w3.org/2000/svg"><defs
     id="defs1"><rect
       x="208.77827"
       y="241.85934"
       width="88.951309"
       height="72.043205"
       id="rect2-0-7-0-5" /><rect
       x="208.77827"
       y="241.85934"
       width="88.951309"
       height="72.043205"
       id="rect2-1-4-9-7-8" /></defs><g
     id="layer1"
     transform="translate(-144.93096,-169.7872)"><g
       id="g2"
       transform="translate(2.3193176,1.9287592)"><path
         style="fill:#ffffff;fill-opacity:1;stroke:#000000;stroke-width:0.423998;stroke-opacity:1"
         id="rect1-7-1-9"
         width="40"
         height="56"
         x="40.845924"
         y="73.133659"
         transform="translate(101.97772,94.936773)"
         d="m 46.845924,73.133659 h 28 a 6,6 45 0 1 6,6 v 44.000001 a 6,6 135 0 1 -6,6 h -28 a 6,6 45 0 1 -6,-6 V 79.133659 a 6,6 135 0 1 6,-6 z" /><text
         xml:space="preserve"
         transform="matrix(0.26458333,0,0,0.26458333,91.262953,106.52237)"
         id="text2-2-1-2"
         style="font-style:normal;font-weight:normal;font-size:40px;line-height:1.25;font-family:sans-serif;white-space:pre;shape-inside:url(#rect2-0-7-0-5);display:inline;fill:#000000;fill-opacity:1;stroke:none"><tspan
           x="208.77734"
           y="278.77427"
           id="tspan2"><tspan
             style="font-weight:600;font-family:'New York Extra Large';-inkscape-font-specification:'New York Extra Large Semi-Bold'"
             id="tspan1">K</tspan></tspan></text><text
         xml:space="preserve"
         transform="matrix(-0.26458333,0,0,-0.26458333,234.38434,287.36612)"
         id="text2-7-2-2-8"
         style="font-style:normal;font-weight:normal;font-size:40px;line-height:1.25;font-family:sans-serif;white-space:pre;shape-inside:url(#rect2-1-4-9-7-8);display:inline;fill:#000000;fill-opacity:1;stroke:none"><tspan
           x="208.77734"
           y="278.77427"
           id="tspan4"><tspan
             style="font-weight:600;font-family:'New York Extra Large';-inkscape-font-specification:'New York Extra Large Semi-Bold'"
             id="tspan3">K</tspan></tspan></text><path
         d="m 155.38309,216.03622 c 0,-0.0472 0.33522,-0.48744 1.00103,-1.31465 1.21499,-1.5095 1.8635,-2.63836 2.51319,-4.37467 0.5657,-1.5118 1.17992,-3.98704 1.49685,-6.03214 l 0.076,-0.49067 -0.3168,0.36058 c -1.00664,1.14571 -2.22994,2.02534 -3.62558,2.60703 -1.99038,0.82955 -3.9484,1.01473 -5.72362,0.54129 -2.45343,-0.65432 -4.18133,-2.56337 -4.91486,-5.43015 -0.23605,-0.92252 -0.30893,-1.60404 -0.27385,-2.56087 0.0332,-0.90696 0.1992,-1.65788 0.54074,-2.44677 0.92414,-2.13464 3.07884,-3.77117 5.82372,-4.42326 1.94162,-0.46127 4.51977,-0.35436 6.25848,0.25952 0.12522,0.0441 0.24926,0.0804 0.27565,0.0804 0.0265,0 -0.10933,-0.13975 -0.30185,-0.31055 -2.37084,-2.10454 -3.9142,-6.02254 -3.66456,-9.3029 0.2616,-3.43742 2.06342,-5.77374 5.16993,-6.70357 1.4104,-0.42214 3.30958,-0.53939 4.96747,-0.30668 3.42096,0.48022 5.57763,2.40501 6.25974,5.58671 0.1583,0.73835 0.19524,2.29606 0.0767,3.23205 -0.10166,0.80287 -0.40008,2.03049 -0.6774,2.78715 -0.28519,0.77816 -0.95684,2.10976 -1.39218,2.76011 -0.50627,0.75636 -0.7704,1.08012 -1.40367,1.72068 l -0.52367,0.52968 0.59855,-0.2027 c 1.04106,-0.35259 1.73655,-0.47192 2.93496,-0.50362 0.65033,-0.0171 1.24255,-0.004 1.56043,0.0327 3.24106,0.38225 5.9561,2.10861 7.19584,4.57549 0.86912,1.72943 0.95885,3.70622 0.26313,5.79613 -0.76741,2.3052 -2.23121,3.82003 -4.38801,4.54106 -0.70837,0.23681 -1.31877,0.34102 -2.19325,0.37451 -1.63792,0.0628 -3.26597,-0.29819 -4.84728,-1.07451 -1.20495,-0.59155 -2.31987,-1.41723 -2.99064,-2.21478 -0.18168,-0.21605 -0.33693,-0.37298 -0.34501,-0.34877 -0.0201,0.0604 0.32303,1.71796 0.5139,2.48226 0.94249,3.77391 2.04482,5.9865 4.16074,8.35126 0.61141,0.68335 1.14079,1.33686 1.14079,1.4083 0,0.0299 -2.93188,0.0486 -7.6228,0.0486 -4.19255,0 -7.62282,-0.0154 -7.62282,-0.0343 z"
         style="fill:#000000;stroke-width:0.59001"
         id="path1-0-3" /><path
         style="fill:#ffffff;fill-opacity:1;stroke:#ffffff;stroke-width:0.0589485;stroke-opacity:1"
         d="m 162.26003,201.95005 c -1.03883,-0.0679 -1.94515,-0.25043 -2.91938,-0.58799 -0.37848,-0.13113 -0.57221,-0.22071 -0.61514,-0.28441 l -0.0354,-0.0526 -1.8e-4,-1.26493 -1.8e-4,-1.26495 -0.0564,-0.0701 c -0.41547,-0.51745 -0.87715,-1.22845 -1.1444,-1.76244 -0.24627,-0.49205 -0.38182,-0.86076 -0.46154,-1.25553 -0.0387,-0.19199 -0.0441,-0.2513 -0.0432,-0.49131 8.3e-4,-0.24169 0.005,-0.29011 0.0409,-0.42296 0.14698,-0.55169 0.53044,-0.9064 1.18489,-1.09604 0.29441,-0.0853 0.50269,-0.11023 0.92449,-0.11056 0.35055,-2.9e-4 0.40724,0.003 0.56149,0.0363 0.6303,0.13433 1.14657,0.41603 1.63766,0.89359 0.0857,0.0834 0.18756,0.1904 0.22616,0.23776 0.0385,0.0473 0.0747,0.0864 0.0803,0.0868 0.005,4.1e-4 0.004,-0.0256 -0.003,-0.0577 -0.007,-0.0322 -0.0285,-0.17079 -0.0467,-0.30803 -0.0461,-0.34774 -0.0365,-0.80846 0.0218,-1.05279 0.12855,-0.53887 0.43116,-0.86293 0.90365,-0.96768 l 0.0898,-0.02 v -0.37965 -0.37963 h -0.4757 -0.47571 v -0.21057 -0.21054 l 0.37823,-0.001 c 0.20802,-6.7e-4 0.42196,-1.6e-4 0.47542,0.001 l 0.0972,0.002 0.004,-0.38709 0.004,-0.38708 h 0.21056 0.21056 l 0.004,0.3872 0.004,0.38719 0.0583,-0.002 c 0.0321,-0.001 0.24595,-0.002 0.47542,-0.001 l 0.41723,0.001 v 0.21056 0.21055 h -0.47599 -0.47597 l 0.004,0.38366 0.004,0.38367 0.11815,0.0372 c 0.45042,0.14198 0.72511,0.59081 0.79622,1.301 0.0211,0.21081 0.008,0.67694 -0.0239,0.92022 -0.0122,0.0901 -0.0208,0.16515 -0.0192,0.16685 0.001,0.002 0.0379,-0.0403 0.0806,-0.0936 0.12527,-0.15629 0.44036,-0.46169 0.60817,-0.58948 0.49245,-0.37502 1.01435,-0.57929 1.5947,-0.6242 0.42072,-0.0326 0.92571,0.0412 1.3683,0.19952 0.48112,0.17219 0.81672,0.45727 0.97388,0.82722 0.22626,0.53259 0.12603,1.20296 -0.31347,2.09658 -0.25489,0.51829 -0.42228,0.79736 -1.05581,1.76031 l -0.2206,0.33534 -1.3e-4,1.27114 c -1.1e-4,1.23549 -9.3e-4,1.27255 -0.0308,1.32134 -0.0377,0.0618 -0.13743,0.11353 -0.47331,0.24521 -0.82224,0.32235 -1.71884,0.52663 -2.7089,0.61722 -0.24496,0.0224 -1.22155,0.0327 -1.48344,0.0155 z m 1.09352,-0.42142 c 0.83959,-0.0399 1.61114,-0.17238 2.36647,-0.40619 0.39961,-0.12369 0.38895,-0.11125 0.14477,-0.16892 -0.4312,-0.10192 -1.09838,-0.21641 -1.54813,-0.26583 -0.3724,-0.0408 -0.45501,-0.0484 -0.69017,-0.0627 -1.3458,-0.0817 -2.70048,0.0315 -3.8758,0.3236 l -0.17937,0.0446 0.20276,0.0633 c 1.19834,0.37485 2.37132,0.52953 3.57947,0.47203 z m -3.86801,-0.95004 c 1.6038,-0.41627 3.30574,-0.51308 5.08456,-0.28924 0.55398,0.0697 1.2054,0.19427 1.71182,0.32732 0.11371,0.0299 0.21723,0.0544 0.23007,0.0544 0.0201,0 0.0233,-0.0506 0.0233,-0.35781 0,-0.20857 -0.006,-0.36161 -0.0147,-0.36693 -0.008,-0.005 -0.17833,-0.0504 -0.37822,-0.10097 -1.73728,-0.43913 -3.56046,-0.53902 -5.26864,-0.28862 -0.36213,0.0531 -0.57916,0.0931 -0.931,0.17145 -0.2683,0.0597 -0.76295,0.19027 -0.80415,0.2121 -0.0248,0.0131 -0.0272,0.0475 -0.0272,0.37445 v 0.36 l 0.0351,-0.008 c 0.0194,-0.004 0.17195,-0.0441 0.33923,-0.0874 z m -0.11697,-1.14778 c 0.64266,-0.17643 1.35917,-0.30343 2.16015,-0.38292 0.4253,-0.0423 1.52882,-0.0594 2.00571,-0.0315 0.93701,0.0552 1.85572,0.19585 2.71624,0.41592 0.14798,0.0378 0.27265,0.0688 0.27706,0.0688 0.004,0 0.006,-0.2088 0.004,-0.464 l -0.004,-0.464 -0.28073,-0.074 c -2.10758,-0.55659 -4.39648,-0.59683 -6.44148,-0.11325 -0.19901,0.047 -0.61311,0.15985 -0.65897,0.17949 l -0.0351,0.0149 v 0.4615 c 0,0.43232 0.002,0.46096 0.0272,0.45305 0.0149,-0.004 0.11854,-0.0335 0.23005,-0.0639 z m -0.22142,-1.31145 c 0.54404,-0.1538 1.03486,-0.26173 1.54715,-0.34025 0.53836,-0.0824 1.03629,-0.12967 1.52602,-0.14456 0.23445,-0.007 0.32713,-0.0152 0.33243,-0.029 0.009,-0.0263 -0.10748,-0.47967 -0.19888,-0.76666 -0.37316,-1.17165 -0.93442,-2.06101 -1.63944,-2.59786 -0.55036,-0.41907 -1.18683,-0.59638 -1.88621,-0.5254 -0.35415,0.036 -0.68341,0.12928 -0.9175,0.26012 -0.2053,0.11472 -0.39117,0.34989 -0.45947,0.5813 -0.17167,0.58158 0.13124,1.5399 0.8376,2.64996 0.24169,0.37982 0.65908,0.95234 0.69455,0.95271 0.0113,1.3e-4 0.0849,-0.0181 0.16375,-0.0403 z m 7.74287,-0.31429 c 0.72513,-1.10121 1.03412,-1.66411 1.2129,-2.2095 0.10434,-0.31823 0.12411,-0.43235 0.12342,-0.711 -5.9e-4,-0.23207 -0.002,-0.24689 -0.0492,-0.37034 -0.0776,-0.20482 -0.18821,-0.34344 -0.3704,-0.46376 -0.16201,-0.10698 -0.2171,-0.13396 -0.41396,-0.20247 -0.27884,-0.097 -0.57306,-0.14986 -0.89072,-0.15985 -0.28947,-0.008 -0.43044,0.003 -0.66493,0.0593 -1.08209,0.25771 -1.99663,1.3182 -2.52067,2.92293 -0.0764,0.23426 -0.24298,0.88553 -0.24358,0.95285 -1e-5,8e-4 0.12457,0.006 0.27683,0.0119 0.77368,0.0293 1.62163,0.13901 2.43701,0.31564 0.25844,0.056 0.79758,0.19101 0.80974,0.20281 0.033,0.0321 0.079,-0.0225 0.29362,-0.34853 z m -3.95486,-1.54128 c 0.25183,-0.47857 0.46593,-1.15443 0.55797,-1.76134 0.15034,-0.99133 -0.002,-1.71718 -0.39934,-1.89489 -0.22183,-0.0993 -0.54254,-0.0658 -0.75608,0.0793 -0.15492,0.10518 -0.27763,0.33277 -0.32725,0.60687 -0.0269,0.14939 -0.027,0.62829 -3e-5,0.82664 0.0662,0.48495 0.21819,1.03225 0.4335,1.55969 0.10912,0.26728 0.36218,0.76735 0.38455,0.7599 0.009,-0.003 0.0574,-0.0823 0.10666,-0.17613 z"
         id="path16" /></g></g></svg>
