<?xml version="1.0" encoding="UTF-8" standalone="no"?>
<!-- Created with Inkscape (http://www.inkscape.org/) -->

<svg
   width="40.423996mm"
   height="56.423996mm"
   viewBox="0 0 40.423996 56.423996"
   version="1.1"
   id="svg1"
   xml:space="preserve"
   xmlns="http://www.w3.org/2000/svg"
   xmlns:svg="http://www.w3.org/2000/svg"><defs
     id="defs1"><rect
       x="208.77827"
       y="241.85934"
       width="88.951309"
       height="72.043205"
       id="rect2" /><rect
       x="208.77827"
       y="241.85934"
       width="88.951309"
       height="72.043205"
       id="rect2-1" /></defs><g
     id="layer1"
     transform="translate(-9.3187153,-47.330023)"><g
       id="g3"
       transform="translate(0,-12.170833)"><path
         style="fill:#ffffff;fill-opacity:1;stroke:#000000;stroke-width:0.423998;stroke-opacity:1"
         id="rect1"
         width="40"
         height="56"
         x="40.845924"
         y="73.133659"
         transform="translate(-31.31521,-13.420804)"
         d="m 46.845924,73.133659 h 28 a 6,6 45 0 1 6,6 v 44.000001 a 6,6 135 0 1 -6,6 h -28 a 6,6 45 0 1 -6,-6 V 79.133659 a 6,6 135 0 1 6,-6 z" /><text
         xml:space="preserve"
         transform="matrix(0.26458333,0,0,0.26458333,-42.029977,-2.7090155)"
         id="text2"
         style="font-style:normal;font-weight:normal;font-size:40px;line-height:1.25;font-family:sans-serif;white-space:pre;shape-inside:url(#rect2);display:inline;fill:#000000;fill-opacity:1;stroke:none"><tspan
           x="208.77734"
           y="278.77427"
           id="tspan6"><tspan
             style="font-weight:600;font-family:'New York Extra Large';-inkscape-font-specification:'New York Extra Large Semi-Bold'"
             id="tspan5">2</tspan></tspan></text><text
         xml:space="preserve"
         transform="matrix(-0.26458333,0,0,-0.26458333,101.09141,178.13473)"
         id="text2-7"
         style="font-style:normal;font-weight:normal;font-size:40px;line-height:1.25;font-family:sans-serif;white-space:pre;shape-inside:url(#rect2-1);display:inline;fill:#000000;fill-opacity:1;stroke:none"><tspan
           x="208.77734"
           y="278.77427"
           id="tspan8"><tspan
             style="font-weight:600;font-family:'New York Extra Large';-inkscape-font-specification:'New York Extra Large Semi-Bold'"
             id="tspan7">2</tspan></tspan></text><path
         d="m 26.884905,82.924587 c 0,-0.01434 0.101875,-0.14813 0.30421,-0.399514 0.36923,-0.458732 0.566309,-0.801786 0.763751,-1.329444 0.171912,-0.459433 0.358571,-1.211646 0.454884,-1.833146 l 0.02311,-0.149113 -0.09628,0.109579 c -0.305912,0.348178 -0.677666,0.615493 -1.101799,0.792265 -0.604868,0.252099 -1.1999,0.308372 -1.739381,0.164497 -0.745587,-0.198842 -1.270688,-0.778996 -1.493604,-1.6502 -0.07173,-0.280353 -0.09388,-0.487464 -0.08322,-0.778239 0.01011,-0.27562 0.06054,-0.503823 0.164328,-0.743563 0.280845,-0.648703 0.935649,-1.146043 1.769803,-1.34421 0.590051,-0.140176 1.373537,-0.107687 1.901926,0.07887 0.03805,0.01343 0.07575,0.02443 0.08377,0.02443 0.008,0 -0.03326,-0.04247 -0.09173,-0.09437 -0.720489,-0.639565 -1.189508,-1.830227 -1.113644,-2.827115 0.0795,-1.044616 0.627063,-1.754617 1.571118,-2.037185 0.428614,-0.128291 1.00577,-0.163923 1.509593,-0.0932 1.039617,0.145936 1.695019,0.730872 1.902312,1.697778 0.0481,0.224381 0.05933,0.697763 0.0233,0.982207 -0.03091,0.243988 -0.121583,0.617055 -0.205858,0.847002 -0.08667,0.236478 -0.290782,0.641145 -0.42308,0.838788 -0.153858,0.22985 -0.234121,0.328238 -0.426574,0.522905 l -0.159137,0.16097 0.181899,-0.0616 c 0.316369,-0.107149 0.527726,-0.143414 0.891923,-0.153043 0.197626,-0.0052 0.377598,-0.0014 0.474204,0.0099 0.984946,0.11616 1.810034,0.640795 2.186785,1.390471 0.264121,0.525569 0.291393,1.126306 0.07996,1.761419 -0.233211,0.700538 -0.678052,1.160893 -1.333498,1.380005 -0.215267,0.07197 -0.400767,0.103641 -0.666519,0.113815 -0.497757,0.01906 -0.992511,-0.09061 -1.473068,-0.326538 -0.366182,-0.179772 -0.704999,-0.43069 -0.90884,-0.673062 -0.05521,-0.06565 -0.102397,-0.113348 -0.10485,-0.105989 -0.0061,0.01835 0.09817,0.522081 0.156175,0.75435 0.286413,1.146875 0.621411,1.819274 1.264426,2.537914 0.185808,0.20766 0.346684,0.40626 0.346684,0.427975 0,0.0091 -0.890987,0.01478 -2.316538,0.01478 -1.274097,0 -2.316539,-0.0047 -2.316539,-0.01042 z"
         style="fill:#000000;stroke-width:0.179301"
         id="path1-0-4" /><path
         d="m 26.884905,92.501127 c 0,0.0143 0.101875,0.14813 0.30421,0.39951 0.36923,0.45873 0.566309,0.80179 0.763751,1.32944 0.171912,0.459438 0.358571,1.211651 0.454884,1.833151 l 0.02311,0.149113 -0.09628,-0.109579 C 28.028668,95.754584 27.656914,95.487269 27.232781,95.310497 26.627913,95.058398 26.032881,95.002125 25.4934,95.146 c -0.745587,0.198842 -1.270688,0.778996 -1.493604,1.6502 -0.07173,0.280353 -0.09388,0.487464 -0.08322,0.778239 0.01011,0.27562 0.06054,0.503823 0.164328,0.743563 0.280845,0.648703 0.935649,1.146043 1.769803,1.34421 0.590051,0.140171 1.373537,0.107691 1.901926,-0.07887 0.03805,-0.01343 0.07575,-0.02443 0.08377,-0.02443 0.008,0 -0.03326,0.04247 -0.09173,0.09437 -0.720489,0.639558 -1.189508,1.830228 -1.113644,2.827108 0.0795,1.04462 0.627063,1.75462 1.571118,2.03719 0.428614,0.12829 1.00577,0.16392 1.509593,0.0932 1.039617,-0.14594 1.695019,-0.73087 1.902312,-1.69778 0.0481,-0.22438 0.05933,-0.69776 0.0233,-0.98221 -0.03091,-0.24398 -0.121583,-0.61705 -0.205858,-0.847 -0.08667,-0.23648 -0.290782,-0.64114 -0.42308,-0.83879 -0.153858,-0.22985 -0.234121,-0.328227 -0.426574,-0.522897 l -0.159137,-0.160971 0.181899,0.0616 c 0.316369,0.107151 0.527726,0.143411 0.891923,0.153041 0.197626,0.005 0.377598,0.001 0.474204,-0.01 0.984946,-0.116158 1.810034,-0.640793 2.186785,-1.390469 0.264121,-0.525569 0.291393,-1.126306 0.07996,-1.761419 -0.233211,-0.700538 -0.678052,-1.160893 -1.333498,-1.380005 -0.215267,-0.07197 -0.400767,-0.103641 -0.666519,-0.113815 -0.497757,-0.01906 -0.992511,0.09061 -1.473068,0.326538 -0.366182,0.179772 -0.704999,0.43069 -0.90884,0.673062 -0.05521,0.06565 -0.102397,0.113348 -0.10485,0.105989 -0.0061,-0.01835 0.09817,-0.522081 0.156175,-0.75435 0.286413,-1.146877 0.621411,-1.819277 1.264426,-2.537917 0.185808,-0.20766 0.346684,-0.40626 0.346684,-0.42797 0,-0.009 -0.890987,-0.0148 -2.316538,-0.0148 -1.274097,0 -2.316539,0.005 -2.316539,0.0104 z"
         style="fill:#000000;stroke-width:0.179301"
         id="path1-0-4-5" /></g></g></svg>
