<?xml version="1.0" encoding="UTF-8" standalone="no"?>
<!-- Created with Inkscape (http://www.inkscape.org/) -->

<svg
   width="40.423985mm"
   height="56.424004mm"
   viewBox="0 0 40.423985 56.424004"
   version="1.1"
   id="svg1"
   xml:space="preserve"
   xmlns="http://www.w3.org/2000/svg"
   xmlns:svg="http://www.w3.org/2000/svg"><defs
     id="defs1"><rect
       x="208.77827"
       y="241.85934"
       width="88.951309"
       height="72.043205"
       id="rect2-6-7" /><rect
       x="208.77827"
       y="241.85934"
       width="88.951309"
       height="72.043205"
       id="rect2-1-0-5" /></defs><g
     id="layer1"
     transform="translate(-142.47106,-46.768859)"><g
       id="g6"><path
         style="fill:#ffffff;fill-opacity:1;stroke:#000000;stroke-width:0.423998;stroke-opacity:1"
         id="rect1-8-5"
         width="40"
         height="56"
         x="40.845924"
         y="73.133659"
         transform="translate(101.83712,-26.1528)"
         d="m 46.845924,73.133659 h 28 a 6,6 45 0 1 6,6 v 44.000001 a 6,6 135 0 1 -6,6 h -28 a 6,6 45 0 1 -6,-6 V 79.133659 a 6,6 135 0 1 6,-6 z" /><path
         d="m 160.69727,80.309405 c 0,-0.01259 0.0895,-0.130089 0.26716,-0.350856 0.32426,-0.402861 0.49733,-0.704133 0.67073,-1.167525 0.15097,-0.403476 0.3149,-1.064074 0.39948,-1.609879 l 0.0203,-0.130951 -0.0845,0.09623 c -0.26865,0.305772 -0.59513,0.54053 -0.96761,0.695772 -0.5312,0.221395 -1.05376,0.270814 -1.52753,0.144462 -0.65478,-0.174624 -1.11593,-0.684119 -1.31169,-1.449215 -0.063,-0.246207 -0.0824,-0.428093 -0.0731,-0.683453 0.009,-0.242051 0.0532,-0.44246 0.14431,-0.653001 0.24664,-0.569695 0.82169,-1.006462 1.55425,-1.180493 0.51819,-0.123103 1.20625,-0.09457 1.67028,0.06926 0.0334,0.01179 0.0665,0.02146 0.0736,0.02146 0.007,0 -0.0292,-0.0373 -0.0806,-0.08288 -0.63274,-0.561669 -1.04463,-1.607315 -0.97801,-2.482788 0.0698,-0.917387 0.55069,-1.540914 1.37977,-1.789067 0.37641,-0.112665 0.88327,-0.143958 1.32573,-0.08185 0.913,0.128162 1.48858,0.641856 1.67062,1.490998 0.0422,0.197052 0.0521,0.612779 0.0205,0.862579 -0.0272,0.214272 -0.10677,0.541901 -0.18078,0.743842 -0.0761,0.207676 -0.25537,0.563057 -0.37156,0.736628 -0.13511,0.201856 -0.2056,0.288261 -0.37461,0.459218 l -0.13976,0.141365 0.15975,-0.0541 c 0.27783,-0.0941 0.46345,-0.125947 0.78329,-0.134404 0.17355,-0.0046 0.33161,-0.0012 0.41644,0.0087 0.86499,0.102012 1.58959,0.562749 1.92045,1.221119 0.23195,0.461557 0.25591,0.989128 0.0702,1.546888 -0.2048,0.615216 -0.59547,1.019502 -1.17108,1.211928 -0.18905,0.0632 -0.35196,0.09102 -0.58534,0.09995 -0.43714,0.01674 -0.87163,-0.07957 -1.29366,-0.286767 -0.32158,-0.157877 -0.61913,-0.378234 -0.79815,-0.591087 -0.0485,-0.05765 -0.0899,-0.09954 -0.0921,-0.09308 -0.005,0.01611 0.0862,0.458495 0.13715,0.662474 0.25153,1.007192 0.54573,1.597697 1.11043,2.22881 0.16318,0.182369 0.30446,0.35678 0.30446,0.37585 0,0.008 -0.78247,0.01298 -2.0344,0.01298 -1.11891,0 -2.03439,-0.0041 -2.03439,-0.0092 z"
         style="fill:#000000;stroke-width:0.157463"
         id="path1-0-4-56-0-5" /><path
         d="m 152.30554,69.927013 c 0,-0.01259 0.0895,-0.130089 0.26716,-0.350856 0.32425,-0.402861 0.49733,-0.704133 0.67073,-1.167525 0.15097,-0.403476 0.3149,-1.064074 0.39948,-1.609879 l 0.0203,-0.130951 -0.0845,0.09623 c -0.26866,0.305772 -0.59513,0.54053 -0.96761,0.695772 -0.5312,0.221395 -1.05376,0.270814 -1.52753,0.144462 -0.65478,-0.174624 -1.11593,-0.684119 -1.31169,-1.449215 -0.063,-0.246207 -0.0824,-0.428093 -0.0731,-0.683453 0.009,-0.242051 0.0532,-0.44246 0.14431,-0.653001 0.24664,-0.569695 0.82169,-1.006462 1.55425,-1.180493 0.51819,-0.123103 1.20625,-0.09457 1.67028,0.06926 0.0334,0.01179 0.0665,0.02146 0.0736,0.02146 0.007,0 -0.0292,-0.0373 -0.0806,-0.08288 -0.63274,-0.561669 -1.04463,-1.607315 -0.97801,-2.482788 0.0698,-0.917387 0.55069,-1.540914 1.37977,-1.789067 0.37641,-0.112665 0.88327,-0.143958 1.32573,-0.08185 0.913,0.128162 1.48858,0.641856 1.67062,1.490998 0.0422,0.197052 0.0521,0.612779 0.0205,0.862579 -0.0272,0.214272 -0.10677,0.541901 -0.18078,0.743842 -0.0761,0.207676 -0.25537,0.563057 -0.37156,0.736628 -0.13512,0.201856 -0.2056,0.288261 -0.37462,0.459218 l -0.13975,0.141365 0.15974,-0.0541 c 0.27784,-0.0941 0.46346,-0.125947 0.7833,-0.134404 0.17355,-0.0046 0.3316,-0.0012 0.41644,0.0087 0.86499,0.102012 1.58959,0.562749 1.92045,1.221119 0.23195,0.461557 0.2559,0.989128 0.0702,1.546888 -0.20481,0.615216 -0.59547,1.019502 -1.17108,1.211928 -0.18905,0.0632 -0.35196,0.09102 -0.58534,0.09995 -0.43714,0.01674 -0.87163,-0.07957 -1.29366,-0.286767 -0.32158,-0.157877 -0.61913,-0.378234 -0.79815,-0.591087 -0.0485,-0.05765 -0.0899,-0.09954 -0.0921,-0.09308 -0.005,0.01611 0.0862,0.458495 0.13715,0.662474 0.25153,1.007192 0.54573,1.597697 1.11043,2.22881 0.16318,0.182369 0.30446,0.35678 0.30446,0.37585 0,0.008 -0.78247,0.01298 -2.0344,0.01298 -1.11892,0 -2.03439,-0.0041 -2.03439,-0.0092 z"
         style="fill:#000000;stroke-width:0.157463"
         id="path1-0-4-56-0" /><path
         d="m 152.30554,90.979256 c 0,-0.0126 0.0895,-0.13009 0.26716,-0.35085 0.32425,-0.40286 0.49733,-0.70414 0.67073,-1.16753 0.15097,-0.403477 0.3149,-1.064064 0.39948,-1.609871 l 0.0203,-0.130949 -0.0845,0.09623 c -0.26866,0.305769 -0.59513,0.540529 -0.96761,0.695766 -0.5312,0.2214 -1.05376,0.27082 -1.52753,0.14446 -0.65478,-0.17462 -1.11593,-0.684117 -1.31169,-1.449207 -0.063,-0.246207 -0.0824,-0.428093 -0.0731,-0.683454 0.009,-0.242051 0.0532,-0.44246 0.14431,-0.653001 0.24664,-0.569694 0.82169,-1.006461 1.55425,-1.180492 0.51819,-0.123099 1.20625,-0.09458 1.67028,0.06926 0.0334,0.01179 0.0665,0.02145 0.0736,0.02145 0.007,0 -0.0292,-0.0373 -0.0806,-0.08288 -0.63274,-0.561663 -1.04463,-1.607307 -0.97801,-2.482767 0.0698,-0.91739 0.55069,-1.54092 1.37977,-1.78907 0.37641,-0.11267 0.88327,-0.14396 1.32573,-0.0819 0.913,0.12817 1.48858,0.64185 1.67062,1.491 0.0422,0.19705 0.0521,0.61278 0.0205,0.86258 -0.0272,0.21427 -0.10677,0.54189 -0.18078,0.743828 -0.0761,0.20768 -0.25537,0.563051 -0.37156,0.736628 -0.13512,0.201856 -0.2056,0.288251 -0.37462,0.459211 l -0.13975,0.141366 0.15974,-0.0541 c 0.27784,-0.0941 0.46346,-0.125944 0.7833,-0.134401 0.17355,-0.0044 0.3316,-8.78e-4 0.41644,0.0088 0.86499,0.102011 1.58959,0.562748 1.92045,1.221117 0.23195,0.461558 0.2559,0.989128 0.0702,1.546888 -0.20481,0.615217 -0.59547,1.019494 -1.17108,1.211924 -0.18905,0.0632 -0.35196,0.091 -0.58534,0.1 -0.43714,0.0167 -0.87163,-0.0796 -1.29366,-0.28677 -0.32158,-0.157867 -0.61913,-0.378227 -0.79815,-0.59108 -0.0485,-0.05765 -0.0899,-0.09954 -0.0921,-0.09308 -0.005,0.01611 0.0862,0.458493 0.13715,0.66247 0.25153,1.007187 0.54573,1.597694 1.11043,2.228804 0.16318,0.18237 0.30446,0.35678 0.30446,0.37585 0,0.008 -0.78247,0.013 -2.0344,0.013 -1.11892,0 -2.03439,-0.004 -2.03439,-0.009 z"
         style="fill:#000000;stroke-width:0.157463"
         id="path1-0-4-5-2-4" /><path
         d="m 169.089,58.982385 c 0,0.01259 0.0895,0.130088 0.26715,0.350855 0.32426,0.402861 0.49734,0.704133 0.67074,1.167525 0.15097,0.403477 0.3149,1.064074 0.39948,1.609879 l 0.0203,0.130952 -0.0846,-0.09623 c -0.26866,-0.305772 -0.59513,-0.540529 -0.96761,-0.695772 -0.5312,-0.221394 -1.05376,-0.270814 -1.52753,-0.144462 -0.65478,0.174624 -1.11593,0.684119 -1.31169,1.449215 -0.063,0.246207 -0.0825,0.428093 -0.0731,0.683454 0.009,0.242051 0.0532,0.44246 0.14431,0.653001 0.24664,0.569694 0.82169,1.006461 1.55425,1.180492 0.51819,0.123104 1.20625,0.09457 1.67028,-0.06926 0.0334,-0.01179 0.0665,-0.02145 0.0736,-0.02145 0.007,0 -0.0292,0.0373 -0.0806,0.08288 -0.63274,0.561669 -1.04463,1.607315 -0.97801,2.482788 0.0698,0.917387 0.55069,1.540914 1.37977,1.789067 0.37641,0.112666 0.88327,0.143958 1.32573,0.08185 0.913,-0.128162 1.48858,-0.641856 1.67062,-1.490998 0.0422,-0.197053 0.0521,-0.61278 0.0205,-0.86258 -0.0272,-0.214272 -0.10677,-0.541901 -0.18078,-0.743842 -0.0761,-0.207676 -0.25537,-0.563057 -0.37155,-0.736628 -0.13512,-0.201855 -0.20561,-0.28826 -0.37462,-0.459218 l -0.13976,-0.141365 0.15975,0.0541 c 0.27783,0.0941 0.46345,0.125947 0.78329,0.134403 0.17355,0.0046 0.33161,0.0012 0.41645,-0.0087 0.86498,-0.102013 1.58958,-0.56275 1.92044,-1.22112 0.23195,-0.461557 0.25591,-0.989128 0.0702,-1.546887 -0.2048,-0.615217 -0.59547,-1.019503 -1.17108,-1.211928 -0.18905,-0.0632 -0.35196,-0.09102 -0.58534,-0.09995 -0.43714,-0.01674 -0.87163,0.07957 -1.29366,0.286767 -0.32158,0.157877 -0.61913,0.378235 -0.79815,0.591087 -0.0485,0.05765 -0.0899,0.09954 -0.0921,0.09308 -0.005,-0.01611 0.0862,-0.458494 0.13716,-0.662474 0.25153,-1.007192 0.54572,-1.597697 1.11042,-2.22881 0.16318,-0.182368 0.30446,-0.35678 0.30446,-0.37585 0,-0.008 -0.78247,-0.01298 -2.0344,-0.01298 -1.11891,0 -2.03439,0.0041 -2.03439,0.0092 z"
         style="fill:#000000;stroke-width:0.157463"
         id="path1-0-4-56-4-8" /><path
         d="m 169.089,80.034733 c 0,0.0126 0.0895,0.13008 0.26715,0.35085 0.32426,0.40286 0.49734,0.70413 0.67074,1.16752 0.15097,0.40348 0.3149,1.06408 0.39948,1.609888 l 0.0203,0.130948 -0.0846,-0.09623 c -0.26866,-0.30577 -0.59513,-0.540536 -0.96761,-0.695786 -0.5312,-0.22138 -1.05376,-0.27081 -1.52753,-0.14445 -0.65478,0.17462 -1.11593,0.684116 -1.31169,1.449209 -0.063,0.246207 -0.0825,0.428093 -0.0731,0.683453 0.009,0.242051 0.0532,0.44246 0.14431,0.653001 0.24664,0.569695 0.82169,1.006462 1.55425,1.180493 0.51819,0.123099 1.20625,0.09458 1.67028,-0.06926 0.0334,-0.01179 0.0665,-0.02145 0.0736,-0.02145 0.007,0 -0.0292,0.0373 -0.0806,0.08288 -0.63274,0.561663 -1.04463,1.607306 -0.97801,2.482763 0.0698,0.917384 0.55069,1.540904 1.37977,1.789064 0.37641,0.11266 0.88327,0.14395 1.32573,0.0819 0.913,-0.12817 1.48858,-0.64185 1.67062,-1.490997 0.0422,-0.19705 0.0521,-0.612767 0.0205,-0.862564 -0.0272,-0.21427 -0.10677,-0.541897 -0.18078,-0.743841 -0.0761,-0.207675 -0.25537,-0.563047 -0.37155,-0.736624 -0.13512,-0.201856 -0.20561,-0.288251 -0.37462,-0.459211 l -0.13976,-0.141366 0.15975,0.0541 c 0.27783,0.0941 0.46345,0.125945 0.78329,0.134402 0.17355,0.0044 0.33161,8.78e-4 0.41645,-0.0088 0.86498,-0.102011 1.58958,-0.562748 1.92044,-1.221118 0.23195,-0.461557 0.25591,-0.989128 0.0702,-1.546887 -0.2048,-0.615211 -0.59547,-1.019497 -1.17108,-1.211927 -0.18905,-0.0632 -0.35196,-0.091 -0.58534,-0.1 -0.43714,-0.0168 -0.87163,0.0796 -1.29366,0.28677 -0.32158,0.15789 -0.61913,0.378236 -0.79815,0.591096 -0.0485,0.0576 -0.0899,0.09955 -0.0921,0.09307 -0.005,-0.01607 0.0862,-0.458498 0.13716,-0.662476 0.25153,-1.00719 0.54572,-1.5977 1.11042,-2.22881 0.16318,-0.18237 0.30446,-0.35678 0.30446,-0.37585 0,-0.008 -0.78247,-0.013 -2.0344,-0.013 -1.11891,0 -2.03439,0.004 -2.03439,0.009 z"
         style="fill:#000000;stroke-width:0.157463"
         id="path1-0-4-5-2-0-5" /><text
         xml:space="preserve"
         transform="matrix(0.26458333,0,0,0.26458333,91.122352,-15.44101)"
         id="text2-5-5"
         style="font-style:normal;font-weight:normal;font-size:40px;line-height:1.25;font-family:sans-serif;white-space:pre;shape-inside:url(#rect2-6-7);display:inline;fill:#000000;fill-opacity:1;stroke:none"><tspan
           x="208.77734"
           y="278.77427"
           id="tspan2"><tspan
             style="font-weight:600;font-family:'New York Extra Large';-inkscape-font-specification:'New York Extra Large Semi-Bold'"
             id="tspan1">5</tspan></tspan></text><text
         xml:space="preserve"
         transform="matrix(-0.26458333,0,0,-0.26458333,234.24374,165.40272)"
         id="text2-7-4-1"
         style="font-style:normal;font-weight:normal;font-size:40px;line-height:1.25;font-family:sans-serif;white-space:pre;shape-inside:url(#rect2-1-0-5);display:inline;fill:#000000;fill-opacity:1;stroke:none"><tspan
           x="208.77734"
           y="278.77427"
           id="tspan4"><tspan
             style="font-weight:600;font-family:'New York Extra Large';-inkscape-font-specification:'New York Extra Large Semi-Bold'"
             id="tspan3">5</tspan></tspan></text></g></g></svg>
