<?xml version="1.0" encoding="UTF-8" standalone="no"?>
<!-- Created with Inkscape (http://www.inkscape.org/) -->

<svg
   width="40.423996mm"
   height="56.423981mm"
   viewBox="0 0 40.423996 56.423981"
   version="1.1"
   id="svg1"
   xml:space="preserve"
   xmlns="http://www.w3.org/2000/svg"
   xmlns:svg="http://www.w3.org/2000/svg"><defs
     id="defs1"><rect
       x="261.47491"
       y="920.81134"
       width="129.12341"
       height="76.667023"
       id="rect17" /></defs><g
     id="layer1"
     transform="translate(-9.0791456,-230.27122)"><g
       id="g1"><path
         style="fill:#ff0f0f;fill-opacity:1;stroke:#ff0f0f;stroke-width:0.423998;stroke-opacity:1"
         id="rect1-7-12"
         width="40"
         height="56"
         x="40.845924"
         y="73.133659"
         transform="translate(-31.55478,157.34955)"
         d="m 46.845924,73.133659 h 28 a 6,6 45 0 1 6,6 v 44.000001 a 6,6 135 0 1 -6,6 h -28 a 6,6 45 0 1 -6,-6 V 79.133659 a 6,6 135 0 1 6,-6 z" /><path
         d="m 28.990547,277.23215 c -2.402936,-4.25185 -5.556033,-9.03086 -9.303035,-14.10014 -0.834653,-1.12918 -2.692719,-3.5802 -3.296991,-4.34912 l -0.241344,-0.30711 0.687642,-0.92738 c 4.553681,-6.14128 8.73945,-12.27421 11.797665,-17.2858 0.368613,-0.60405 0.686043,-1.07999 0.7054,-1.05763 0.01938,0.0223 0.467324,0.76587 0.995487,1.65227 3.379358,5.67153 7.428997,11.5868 11.462057,16.74257 0.591091,0.75563 0.677672,0.88906 0.62092,0.95691 -3.30577,3.95215 -6.507213,8.40987 -9.587389,13.34961 -0.880302,1.41176 -2.190884,3.60057 -2.910072,4.86008 -0.300501,0.5263 -0.560735,0.97385 -0.578294,0.99455 -0.01751,0.0207 -0.175977,-0.21726 -0.352046,-0.52881 z"
         style="fill:#ffffff;fill-opacity:1;stroke-width:0.571081"
         id="path1-9-7" /><text
         xml:space="preserve"
         transform="matrix(0.26458333,0,0,0.26458333,-44.545,6.8040572)"
         id="text17"
         style="font-style:normal;font-weight:normal;font-size:53.3333px;line-height:1.25;font-family:sans-serif;white-space:pre;shape-inside:url(#rect17);display:inline;fill:#ff0f0f;fill-opacity:1;stroke:none"><tspan
           x="261.47461"
           y="970.03038"
           id="tspan2"><tspan
             style="font-weight:600;font-family:'New York Extra Large';-inkscape-font-specification:'New York Extra Large Semi-Bold'"
             id="tspan1">A</tspan></tspan></text></g></g></svg>
