<?xml version="1.0" encoding="UTF-8" standalone="no"?>
<!-- Created with Inkscape (http://www.inkscape.org/) -->

<svg
   width="40.423985mm"
   height="56.424004mm"
   viewBox="0 0 40.423985 56.424004"
   version="1.1"
   id="svg1"
   xml:space="preserve"
   xmlns="http://www.w3.org/2000/svg"
   xmlns:svg="http://www.w3.org/2000/svg"><defs
     id="defs1"><rect
       x="208.77827"
       y="241.85934"
       width="88.951309"
       height="72.043205"
       id="rect2-6-7" /><rect
       x="208.77827"
       y="241.85934"
       width="88.951309"
       height="72.043205"
       id="rect2-1-0-5" /></defs><g
     id="layer1"
     transform="translate(-142.47106,-46.768859)"><g
       id="g6"
       style="stroke:#000000;stroke-opacity:1"><path
         style="fill:#ffffff;fill-opacity:1;stroke:#ff0f0f;stroke-width:0.423998;stroke-opacity:1"
         id="rect1-8-5"
         width="40"
         height="56"
         x="40.845924"
         y="73.133659"
         transform="translate(101.83712,-26.1528)"
         d="m 46.845924,73.133659 h 28 a 6,6 45 0 1 6,6 v 44.000001 a 6,6 135 0 1 -6,6 h -28 a 6,6 45 0 1 -6,-6 V 79.133659 a 6,6 135 0 1 6,-6 z" /><text
         xml:space="preserve"
         transform="matrix(0.26458333,0,0,0.26458333,91.122352,-15.44101)"
         id="text2-5-5"
         style="font-style:normal;font-weight:normal;font-size:40px;line-height:1.25;font-family:sans-serif;white-space:pre;shape-inside:url(#rect2-6-7);display:inline;fill:#ff0f0f;fill-opacity:1;stroke:#ff0f0f;stroke-opacity:1"><tspan
           x="208.77734"
           y="278.77427"
           id="tspan2"><tspan
             style="font-weight:600;font-family:'New York Extra Large';-inkscape-font-specification:'New York Extra Large Semi-Bold'"
             id="tspan1">5</tspan></tspan></text><text
         xml:space="preserve"
         transform="matrix(-0.26458333,0,0,-0.26458333,234.24374,165.40272)"
         id="text2-7-4-1"
         style="font-style:normal;font-weight:normal;font-size:40px;line-height:1.25;font-family:sans-serif;white-space:pre;shape-inside:url(#rect2-1-0-5);display:inline;fill:#ff0f0f;fill-opacity:1;stroke:#ff0f0f;stroke-opacity:1"><tspan
           x="208.77734"
           y="278.77427"
           id="tspan4"><tspan
             style="font-weight:600;font-family:'New York Extra Large';-inkscape-font-specification:'New York Extra Large Semi-Bold'"
             id="tspan3">5</tspan></tspan></text><path
         d="m 162.58409,81.158222 c -0.79172,-1.400892 -1.83059,-2.975468 -3.06515,-4.645686 -0.275,-0.37204 -0.88719,-1.179599 -1.08629,-1.43294 l -0.0796,-0.101185 0.22657,-0.305553 c 1.50033,-2.023414 2.87946,-4.044083 3.88707,-5.695291 0.12145,-0.199021 0.22604,-0.355831 0.23241,-0.348466 0.007,0.0074 0.15398,0.252339 0.32799,0.544387 1.11342,1.868647 2.44769,3.8176 3.7765,5.51631 0.19475,0.248962 0.22328,0.292927 0.20458,0.315278 -1.08918,1.302151 -2.14398,2.770873 -3.15884,4.398408 -0.29004,0.465141 -0.72184,1.186306 -0.9588,1.601288 -0.099,0.173404 -0.18475,0.320862 -0.19054,0.327683 -0.006,0.0068 -0.058,-0.07158 -0.11599,-0.174233 z"
         style="fill:#ff0f0f;fill-opacity:1;stroke:none;stroke-width:0.188158;stroke-opacity:1"
         id="path1-9-9-6-5-4" /><path
         d="m 155.85145,70.258655 c -0.79172,-1.400892 -1.83059,-2.975468 -3.06515,-4.645686 -0.275,-0.37204 -0.88719,-1.179599 -1.08628,-1.43294 l -0.0796,-0.101185 0.22657,-0.305553 c 1.50033,-2.023415 2.87946,-4.044084 3.88707,-5.695292 0.12145,-0.199021 0.22604,-0.355831 0.2324,-0.348466 0.007,0.0074 0.15398,0.252339 0.32799,0.544387 1.11342,1.868648 2.44769,3.8176 3.7765,5.516311 0.19475,0.248962 0.22328,0.292927 0.20458,0.315278 -1.08918,1.302151 -2.14398,2.770873 -3.15884,4.398408 -0.29004,0.465141 -0.72183,1.186306 -0.9588,1.601288 -0.099,0.173404 -0.18475,0.320862 -0.19054,0.327683 -0.006,0.0068 -0.058,-0.07158 -0.11599,-0.174233 z"
         style="fill:#ff0f0f;fill-opacity:1;stroke:none;stroke-width:0.188158;stroke-opacity:1"
         id="path1-9-9-6-5" /><path
         d="m 155.85145,92.05779 c -0.79172,-1.400892 -1.83059,-2.975468 -3.06515,-4.645685 -0.275,-0.372041 -0.88719,-1.1796 -1.08628,-1.43294 l -0.0796,-0.101186 0.22657,-0.305553 c 1.50033,-2.023414 2.87946,-4.044083 3.88707,-5.695291 0.12145,-0.199021 0.22604,-0.35583 0.2324,-0.348466 0.007,0.0074 0.15398,0.252339 0.32799,0.544388 1.11342,1.868646 2.44769,3.8176 3.7765,5.51631 0.19475,0.248961 0.22328,0.292926 0.20458,0.315278 -1.08918,1.30215 -2.14398,2.770872 -3.15884,4.398407 -0.29004,0.465142 -0.72183,1.186307 -0.9588,1.601289 -0.099,0.173403 -0.18475,0.320861 -0.19054,0.327682 -0.006,0.0068 -0.058,-0.07158 -0.11599,-0.174233 z"
         style="fill:#ff0f0f;fill-opacity:1;stroke:none;stroke-width:0.188158;stroke-opacity:1"
         id="path1-9-9-5-4-6" /><path
         d="m 169.31672,70.258682 c -0.79172,-1.400891 -1.83059,-2.975468 -3.06515,-4.645685 -0.275,-0.37204 -0.88719,-1.179599 -1.08629,-1.43294 l -0.0796,-0.101185 0.22657,-0.305553 c 1.50033,-2.023415 2.87946,-4.044084 3.88707,-5.695291 0.12146,-0.199022 0.22605,-0.355832 0.23241,-0.348467 0.007,0.0074 0.15398,0.252338 0.328,0.544387 1.11342,1.868646 2.44768,3.8176 3.77649,5.516311 0.19475,0.248961 0.22328,0.292926 0.20458,0.315278 -1.08918,1.302151 -2.14398,2.770873 -3.15884,4.398408 -0.29003,0.465141 -0.72184,1.186306 -0.9588,1.601288 -0.099,0.173404 -0.18475,0.320862 -0.19054,0.327682 -0.006,0.0068 -0.058,-0.07158 -0.11599,-0.174233 z"
         style="fill:#ff0f0f;fill-opacity:1;stroke:none;stroke-width:0.188158;stroke-opacity:1"
         id="path1-9-9-6-0-3" /><path
         d="m 169.31672,92.057793 c -0.79172,-1.400886 -1.83059,-2.975452 -3.06515,-4.645657 -0.275,-0.372045 -0.88719,-1.179603 -1.08629,-1.432943 l -0.0796,-0.101186 0.22657,-0.305553 c 1.50033,-2.023414 2.87946,-4.044083 3.88707,-5.695291 0.12146,-0.199021 0.22605,-0.35583 0.23241,-0.348466 0.007,0.0074 0.15398,0.252339 0.328,0.544388 1.11342,1.868646 2.44768,3.817599 3.77649,5.51631 0.19475,0.248961 0.22328,0.292926 0.20458,0.315277 -1.08918,1.302149 -2.14398,2.770867 -3.15884,4.398387 -0.29003,0.465143 -0.72184,1.186306 -0.9588,1.601281 -0.099,0.173405 -0.18475,0.320857 -0.19054,0.327678 -0.006,0.0066 -0.058,-0.07161 -0.11599,-0.174225 z"
         style="fill:#ff0f0f;fill-opacity:1;stroke:none;stroke-width:0.188158;stroke-opacity:1"
         id="path1-9-9-5-4-9-2" /></g></g></svg>
