<?xml version="1.0" encoding="UTF-8" standalone="no"?>
<!-- Created with Inkscape (http://www.inkscape.org/) -->

<svg
   width="40.424mm"
   height="56.424004mm"
   viewBox="0 0 40.424 56.424004"
   version="1.1"
   id="svg1"
   xml:space="preserve"
   xmlns="http://www.w3.org/2000/svg"
   xmlns:svg="http://www.w3.org/2000/svg"><defs
     id="defs1"><rect
       x="208.77827"
       y="241.85934"
       width="88.951309"
       height="72.043205"
       id="rect2-6-7-6-1-3" /><rect
       x="208.77827"
       y="241.85934"
       width="88.951309"
       height="72.043205"
       id="rect2-1-0-5-1-0-3" /></defs><g
     id="layer1"
     transform="translate(-98.98128,-109.21457)"><g
       id="g12"
       transform="translate(44.949502,50.329462)"><path
         style="fill:#ffffff;fill-opacity:1;stroke:#000000;stroke-width:0.423998;stroke-opacity:1"
         id="rect1-8-5-5-8-7"
         width="40"
         height="56"
         x="40.845924"
         y="73.133659"
         transform="translate(13.397851,-14.036545)"
         d="m 46.845924,73.133659 h 28 a 6,6 45 0 1 6,6 v 44.000001 a 6,6 135 0 1 -6,6 h -28 a 6,6 45 0 1 -6,-6 V 79.133659 a 6,6 135 0 1 6,-6 z" /><path
         d="m 67.235266,106.54825 c 0,-0.0105 0.0742,-0.10787 0.221548,-0.29095 0.2689,-0.33408 0.412428,-0.58392 0.55622,-0.9682 0.125199,-0.33461 0.261139,-0.88242 0.33128,-1.33505 l 0.01683,-0.1086 -0.07012,0.0798 c -0.222787,0.25357 -0.493527,0.44825 -0.802412,0.577 -0.44051,0.18359 -0.873856,0.22458 -1.266747,0.11979 -0.542992,-0.14481 -0.925411,-0.56734 -1.087754,-1.20182 -0.05224,-0.20417 -0.06837,-0.355 -0.0606,-0.56677 0.0073,-0.20072 0.04409,-0.36692 0.119677,-0.54152 0.204531,-0.47244 0.681409,-0.83464 1.288902,-0.97896 0.429719,-0.10209 1.000312,-0.0784 1.385125,0.0574 0.02771,0.01 0.05516,0.0178 0.06102,0.0178 0.0058,0 -0.02422,-0.0309 -0.06681,-0.0687 -0.524715,-0.46577 -0.86629,-1.33289 -0.81104,-2.058896 0.0579,-0.760766 0.456674,-1.277845 1.144206,-1.48363 0.312149,-0.09343 0.732477,-0.119382 1.099399,-0.06791 0.757126,0.106289 1.234439,0.532272 1.385405,1.236453 0.03502,0.163409 0.04321,0.508167 0.01696,0.715318 -0.02252,0.177687 -0.08854,0.449375 -0.149921,0.616835 -0.06312,0.17223 -0.211768,0.46693 -0.308117,0.61087 -0.112053,0.16739 -0.170506,0.23903 -0.310665,0.3808 l -0.115895,0.11724 0.132473,-0.0449 c 0.230403,-0.0781 0.384329,-0.10444 0.649565,-0.11146 0.143926,-0.004 0.274995,-7.2e-4 0.34535,0.007 0.717312,0.0846 1.318203,0.46668 1.592581,1.01265 0.192352,0.38276 0.212214,0.82027 0.05823,1.28281 -0.169841,0.51019 -0.493808,0.84546 -0.971153,1.00503 -0.156773,0.0525 -0.291868,0.0755 -0.485408,0.0829 -0.362505,0.0139 -0.722822,-0.066 -1.072799,-0.23781 -0.266681,-0.13093 -0.513433,-0.31367 -0.661886,-0.49019 -0.0402,-0.0478 -0.07458,-0.0825 -0.07636,-0.0772 -0.0045,0.0134 0.07149,0.38023 0.113739,0.54936 0.208588,0.83525 0.452557,1.32496 0.920849,1.84832 0.135319,0.15124 0.252482,0.29588 0.252482,0.31168 0,0.007 -0.648884,0.0108 -1.687076,0.0108 -0.927892,0 -1.687077,-0.003 -1.687077,-0.007 z"
         style="fill:#000000;stroke-width:0.130581"
         id="path1-0-4-5-2-4-5-9-2" /><path
         d="m 67.235268,96.606258 c 0,-0.01045 0.0742,-0.107879 0.221548,-0.290956 0.268901,-0.334083 0.412428,-0.583921 0.556221,-0.9682 0.125199,-0.334593 0.261139,-0.882412 0.33128,-1.335034 l 0.01683,-0.108594 -0.07012,0.0798 c -0.222788,0.253569 -0.493528,0.448248 -0.802413,0.576986 -0.44051,0.183598 -0.873856,0.224581 -1.266747,0.1198 -0.542992,-0.144812 -0.92541,-0.567323 -1.087755,-1.2018 -0.05223,-0.204174 -0.06837,-0.355007 -0.0606,-0.566771 0.0073,-0.200727 0.04409,-0.366921 0.119675,-0.541518 0.204532,-0.472434 0.681409,-0.834635 1.288902,-0.978955 0.42972,-0.102086 1.000313,-0.07842 1.385125,0.05743 0.02772,0.0098 0.05516,0.0178 0.06102,0.0178 0.0058,0 -0.02422,-0.03093 -0.06681,-0.06873 -0.524715,-0.465779 -0.866289,-1.332908 -0.811039,-2.058916 0.05791,-0.760768 0.456674,-1.277843 1.144206,-1.48363 0.312149,-0.09343 0.732476,-0.119382 1.099398,-0.06788 0.757127,0.106282 1.23444,0.532276 1.385406,1.236448 0.03502,0.163411 0.04321,0.508164 0.01696,0.715316 -0.02252,0.177691 -0.08854,0.449386 -0.149922,0.616851 -0.06312,0.172221 -0.211769,0.46693 -0.308118,0.610868 -0.112052,0.167395 -0.170505,0.239048 -0.310663,0.380818 l -0.115896,0.117231 0.132472,-0.04487 c 0.230405,-0.07804 0.38433,-0.104444 0.649566,-0.111457 0.143926,-0.0038 0.274995,-9.71e-4 0.34535,0.0072 0.717312,0.0846 1.318202,0.466674 1.592581,1.012644 0.192352,0.382758 0.212214,0.820261 0.05823,1.282797 -0.169841,0.510184 -0.493808,0.845449 -0.971153,1.005023 -0.156773,0.05242 -0.291868,0.07548 -0.48541,0.08289 -0.362503,0.01389 -0.72282,-0.06599 -1.072797,-0.237809 -0.266681,-0.130923 -0.513433,-0.313661 -0.661886,-0.490174 -0.0402,-0.04781 -0.07458,-0.08254 -0.07636,-0.07718 -0.0045,0.01336 0.07149,0.38022 0.113738,0.549374 0.208588,0.835241 0.452558,1.324932 0.920849,1.848299 0.13532,0.151234 0.252482,0.295869 0.252482,0.311684 0,0.0066 -0.648884,0.01076 -1.687076,0.01076 -0.927892,0 -1.687077,-0.0034 -1.687077,-0.0077 z"
         style="fill:#000000;stroke-width:0.130581"
         id="path1-0-4-56-0-5-4-1-7" /><path
         d="m 67.235266,76.722332 c 0,-0.01045 0.0742,-0.10788 0.221548,-0.290957 0.2689,-0.334083 0.412428,-0.58392 0.55622,-0.9682 0.125199,-0.334593 0.261139,-0.882411 0.33128,-1.335034 l 0.01683,-0.108595 -0.07012,0.0798 c -0.222787,0.25357 -0.493527,0.448249 -0.802412,0.576988 -0.44051,0.183598 -0.873856,0.224579 -1.266747,0.119798 -0.542992,-0.144811 -0.925411,-0.567323 -1.087754,-1.201798 -0.05224,-0.204174 -0.06837,-0.355007 -0.0606,-0.566772 0.0073,-0.200728 0.04409,-0.366922 0.119677,-0.541518 0.204531,-0.472434 0.681409,-0.834636 1.288902,-0.978954 0.429719,-0.102087 1.000312,-0.07842 1.385125,0.05743 0.02771,0.0098 0.05516,0.0178 0.06102,0.0178 0.0058,0 -0.02422,-0.03093 -0.06681,-0.06873 -0.524715,-0.465779 -0.86629,-1.332907 -0.81104,-2.058917 0.0579,-0.760766 0.456674,-1.277842 1.144206,-1.48363 0.312149,-0.09343 0.732477,-0.119381 1.099399,-0.06788 0.757126,0.106282 1.234439,0.532275 1.385405,1.236449 0.03502,0.163411 0.04321,0.508162 0.01696,0.715316 -0.02252,0.177691 -0.08854,0.449386 -0.149921,0.61685 -0.06312,0.172222 -0.211768,0.46693 -0.308117,0.610868 -0.112053,0.167395 -0.170506,0.239048 -0.310665,0.380818 l -0.115895,0.117231 0.132473,-0.04487 c 0.230403,-0.07804 0.384329,-0.104446 0.649565,-0.111458 0.143926,-0.0038 0.274995,-9.72e-4 0.34535,0.0072 0.717312,0.0846 1.318203,0.466675 1.592581,1.012646 0.192352,0.382757 0.212214,0.82026 0.05823,1.282796 -0.169841,0.510184 -0.493808,0.845449 -0.971153,1.005024 -0.156773,0.05242 -0.291868,0.07548 -0.485408,0.08289 -0.362505,0.01389 -0.722822,-0.06599 -1.072799,-0.23781 -0.266681,-0.130923 -0.513433,-0.313659 -0.661886,-0.490174 -0.0402,-0.04781 -0.07458,-0.08254 -0.07636,-0.07718 -0.0045,0.01336 0.07149,0.380219 0.113739,0.549374 0.208588,0.83524 0.452557,1.324932 0.920849,1.848299 0.135319,0.151234 0.252482,0.295869 0.252482,0.311683 0,0.0066 -0.648884,0.01076 -1.687076,0.01076 -0.927892,0 -1.687077,-0.0034 -1.687077,-0.0077 z"
         style="fill:#000000;stroke-width:0.130581"
         id="path1-0-4-56-0-4-8-1" /><path
         d="m 77.958776,67.646214 c 0,0.01045 0.0742,0.107879 0.221548,0.290956 0.268901,0.334083 0.412429,0.58392 0.556221,0.9682 0.125199,0.334594 0.261139,0.882412 0.33128,1.335033 l 0.01683,0.108596 -0.07011,-0.0798 c -0.222789,-0.253569 -0.493528,-0.448248 -0.802413,-0.576988 -0.44051,-0.183595 -0.873857,-0.224579 -1.266747,-0.119798 -0.542992,0.144811 -0.92541,0.567323 -1.087755,1.201799 -0.05223,0.204174 -0.06837,0.355007 -0.0606,0.566772 0.0073,0.200728 0.04409,0.366922 0.119675,0.541519 0.204532,0.472433 0.681409,0.834634 1.288902,0.978953 0.42972,0.102087 1.000313,0.07842 1.385125,-0.05743 0.02772,-0.0098 0.05517,-0.01779 0.06102,-0.01779 0.0058,0 -0.02422,0.03093 -0.06681,0.06873 -0.524714,0.465778 -0.866288,1.332908 -0.811038,2.058916 0.05791,0.760767 0.456674,1.277844 1.144206,1.483631 0.312148,0.09343 0.732476,0.11938 1.099397,0.06788 0.757128,-0.106282 1.23444,-0.532277 1.385407,-1.23645 0.03502,-0.163411 0.04321,-0.508163 0.01696,-0.715316 -0.02252,-0.177691 -0.08854,-0.449386 -0.149921,-0.616851 -0.06312,-0.172221 -0.21177,-0.46693 -0.308118,-0.610869 -0.112051,-0.167393 -0.170505,-0.239046 -0.310663,-0.380818 l -0.115897,-0.11723 0.132473,0.04487 c 0.230404,0.07804 0.384331,0.104445 0.649565,0.111457 0.143927,0.0038 0.274996,9.71e-4 0.345351,-0.0072 0.717311,-0.0846 1.318202,-0.466674 1.59258,-1.012645 0.192353,-0.382758 0.212214,-0.82026 0.05823,-1.282796 -0.169841,-0.510185 -0.493808,-0.84545 -0.971152,-1.005023 -0.156775,-0.05241 -0.291869,-0.07548 -0.48541,-0.08289 -0.362504,-0.01389 -0.722821,0.06599 -1.072798,0.237808 -0.266682,0.130923 -0.513432,0.313661 -0.661886,0.490174 -0.0402,0.04781 -0.07457,0.08254 -0.07636,0.07719 -0.0045,-0.01336 0.07149,-0.380218 0.113738,-0.549374 0.208589,-0.83524 0.452559,-1.324931 0.92085,-1.848299 0.13532,-0.151233 0.252481,-0.295868 0.252481,-0.311682 0,-0.0066 -0.648882,-0.01076 -1.687076,-0.01076 -0.927893,0 -1.687076,0.0034 -1.687076,0.0077 z"
         style="fill:#000000;stroke-width:0.130581"
         id="path1-0-4-56-4-8-9-3-0" /><path
         d="m 67.235266,86.664295 c 0,-0.01045 0.0742,-0.10788 0.221548,-0.290957 0.2689,-0.334083 0.412428,-0.58392 0.55622,-0.9682 0.125199,-0.334593 0.261139,-0.882411 0.33128,-1.335034 l 0.01683,-0.108595 -0.07012,0.0798 c -0.222787,0.25357 -0.493527,0.448249 -0.802412,0.576988 -0.44051,0.183598 -0.873856,0.224579 -1.266747,0.119798 -0.542992,-0.144811 -0.925411,-0.567323 -1.087754,-1.201798 -0.05224,-0.204174 -0.06837,-0.355007 -0.0606,-0.566772 0.0073,-0.200728 0.04409,-0.366922 0.119677,-0.541518 0.204531,-0.472434 0.681409,-0.834636 1.288902,-0.978954 0.429719,-0.102087 1.000312,-0.07842 1.385125,0.05743 0.02771,0.0098 0.05516,0.0178 0.06102,0.0178 0.0058,0 -0.02422,-0.03093 -0.06681,-0.06873 -0.524715,-0.465779 -0.86629,-1.332907 -0.81104,-2.058917 0.0579,-0.760766 0.456674,-1.277842 1.144206,-1.48363 0.312149,-0.09343 0.732477,-0.119381 1.099399,-0.06788 0.757126,0.106282 1.234439,0.532275 1.385405,1.236449 0.03502,0.163411 0.04321,0.508162 0.01696,0.715316 -0.02252,0.177691 -0.08854,0.449386 -0.149921,0.61685 -0.06312,0.172222 -0.211768,0.46693 -0.308117,0.610868 -0.112053,0.167395 -0.170506,0.239048 -0.310665,0.380818 l -0.115895,0.117231 0.132473,-0.04487 c 0.230403,-0.07804 0.384329,-0.104446 0.649565,-0.111458 0.143926,-0.0038 0.274995,-9.72e-4 0.34535,0.0072 0.717312,0.0846 1.318203,0.466675 1.592581,1.012646 0.192352,0.382757 0.212214,0.82026 0.05823,1.282796 -0.169841,0.510184 -0.493808,0.845449 -0.971153,1.005024 -0.156773,0.05242 -0.291868,0.07548 -0.485408,0.08289 -0.362505,0.01389 -0.722822,-0.06599 -1.072799,-0.23781 -0.266681,-0.130923 -0.513433,-0.313659 -0.661886,-0.490174 -0.0402,-0.04781 -0.07458,-0.08254 -0.07636,-0.07718 -0.0045,0.01336 0.07149,0.380219 0.113739,0.549374 0.208588,0.83524 0.452557,1.324932 0.920849,1.848299 0.135319,0.151234 0.252482,0.295869 0.252482,0.311683 0,0.0066 -0.648884,0.01076 -1.687076,0.01076 -0.927892,0 -1.687077,-0.0034 -1.687077,-0.0077 z"
         style="fill:#000000;stroke-width:0.130581"
         id="path1-0-4-56-0-4-8-1-3" /><path
         d="m 77.958776,77.588263 c 0,0.01045 0.0742,0.107879 0.221548,0.290956 0.268901,0.334083 0.412429,0.58392 0.556221,0.9682 0.125199,0.334594 0.261139,0.882412 0.33128,1.335033 l 0.01683,0.108596 -0.07011,-0.0798 C 78.791756,79.957679 78.521017,79.763 78.212132,79.63426 c -0.44051,-0.183595 -0.873857,-0.224579 -1.266747,-0.119798 -0.542992,0.144811 -0.92541,0.567323 -1.087755,1.201799 -0.05223,0.204174 -0.06837,0.355007 -0.0606,0.566772 0.0073,0.200728 0.04409,0.366922 0.119675,0.541519 0.204532,0.472433 0.681409,0.834634 1.288902,0.978953 0.42972,0.102087 1.000313,0.07842 1.385125,-0.05743 0.02772,-0.0098 0.05517,-0.01779 0.06102,-0.01779 0.0058,0 -0.02422,0.03093 -0.06681,0.06873 -0.524714,0.465778 -0.866288,1.332908 -0.811038,2.058916 0.05791,0.760767 0.456674,1.277844 1.144206,1.483631 0.312148,0.09343 0.732476,0.11938 1.099397,0.06788 0.757128,-0.106282 1.23444,-0.532277 1.385407,-1.23645 0.03502,-0.163411 0.04321,-0.508163 0.01696,-0.715316 -0.02252,-0.177691 -0.08854,-0.449386 -0.149921,-0.616851 -0.06312,-0.172221 -0.21177,-0.46693 -0.308118,-0.610869 -0.112051,-0.167393 -0.170505,-0.239046 -0.310663,-0.380818 l -0.115897,-0.11723 0.132473,0.04487 c 0.230404,0.07804 0.384331,0.104445 0.649565,0.111457 0.143927,0.0038 0.274996,9.71e-4 0.345351,-0.0072 0.717311,-0.0846 1.318202,-0.466674 1.59258,-1.012645 0.192353,-0.382758 0.212214,-0.82026 0.05823,-1.282796 -0.169841,-0.510185 -0.493808,-0.84545 -0.971152,-1.005023 -0.156775,-0.05241 -0.291869,-0.07548 -0.48541,-0.08289 -0.362504,-0.01389 -0.722821,0.06599 -1.072798,0.237808 -0.266682,0.130923 -0.513432,0.313661 -0.661886,0.490174 -0.0402,0.04781 -0.07457,0.08254 -0.07636,0.07719 -0.0045,-0.01336 0.07149,-0.380218 0.113738,-0.549374 0.208589,-0.83524 0.452559,-1.324931 0.92085,-1.848299 0.13532,-0.151233 0.252481,-0.295868 0.252481,-0.311682 0,-0.0066 -0.648882,-0.01076 -1.687076,-0.01076 -0.927893,0 -1.687076,0.0034 -1.687076,0.0077 z"
         style="fill:#000000;stroke-width:0.130581"
         id="path1-0-4-56-4-8-9-3-0-7" /><path
         d="m 77.958776,87.530309 c 0,0.01045 0.0742,0.107879 0.221548,0.290955 0.268901,0.334085 0.412429,0.583922 0.556221,0.968202 0.125199,0.334593 0.261139,0.882411 0.33128,1.335033 l 0.01683,0.108596 -0.07011,-0.0798 c -0.222789,-0.25357 -0.493528,-0.448249 -0.802413,-0.576988 -0.44051,-0.183596 -0.873857,-0.22458 -1.266747,-0.119798 -0.542992,0.14481 -0.92541,0.567323 -1.087755,1.201798 -0.05223,0.204174 -0.06837,0.355008 -0.0606,0.566773 0.0073,0.200727 0.04409,0.366921 0.119675,0.541517 0.204532,0.472435 0.681409,0.834635 1.288902,0.978955 0.42972,0.102086 1.000313,0.07842 1.385125,-0.05743 0.02772,-0.0098 0.05517,-0.01779 0.06102,-0.01779 0.0058,0 -0.02422,0.03093 -0.06681,0.06873 -0.524714,0.465779 -0.866288,1.332908 -0.811038,2.058917 0.05791,0.760767 0.456674,1.277843 1.144206,1.48363 0.312148,0.09343 0.732476,0.11938 1.099397,0.06788 0.757128,-0.106281 1.23444,-0.532275 1.385407,-1.236449 0.03502,-0.163411 0.04321,-0.508163 0.01696,-0.715317 -0.02252,-0.17769 -0.08854,-0.449385 -0.149921,-0.616849 -0.06312,-0.172222 -0.21177,-0.46693 -0.308118,-0.610869 -0.112051,-0.167394 -0.170505,-0.239046 -0.310663,-0.380819 l -0.115897,-0.11723 0.132473,0.04487 c 0.230404,0.07804 0.384331,0.104446 0.649565,0.111458 0.143927,0.0038 0.274996,9.71e-4 0.345351,-0.0072 0.717311,-0.0846 1.318202,-0.466675 1.59258,-1.012647 0.192353,-0.382757 0.212214,-0.820259 0.05823,-1.282795 -0.169841,-0.510184 -0.493808,-0.84545 -0.971152,-1.005023 -0.156775,-0.05241 -0.291869,-0.07548 -0.48541,-0.08289 -0.362504,-0.01389 -0.722821,0.06599 -1.072798,0.237809 -0.266682,0.130924 -0.513432,0.313661 -0.661886,0.490174 -0.0402,0.04781 -0.07457,0.08254 -0.07636,0.07719 -0.0045,-0.01336 0.07149,-0.380219 0.113738,-0.549374 0.208589,-0.835241 0.452559,-1.324932 0.92085,-1.848299 0.13532,-0.151233 0.252481,-0.29587 0.252481,-0.311683 0,-0.0066 -0.648882,-0.01076 -1.687076,-0.01076 -0.927893,0 -1.687076,0.0034 -1.687076,0.0077 z"
         style="fill:#000000;stroke-width:0.130581"
         id="path1-0-4-56-4-8-9-9-7-0" /><path
         d="m 77.958776,97.472189 c 0,0.01045 0.0742,0.107872 0.221548,0.29095 0.268901,0.334083 0.412429,0.583918 0.556221,0.968197 0.125199,0.334597 0.261139,0.882417 0.33128,1.335034 l 0.01683,0.10859 -0.07011,-0.0798 c -0.222789,-0.25356 -0.493528,-0.448245 -0.802413,-0.576993 -0.44051,-0.183586 -0.873857,-0.224575 -1.266747,-0.119788 -0.542992,0.144812 -0.92541,0.567319 -1.087755,1.201791 -0.05223,0.20417 -0.06837,0.35501 -0.0606,0.56676 0.0073,0.20074 0.04409,0.36693 0.119675,0.54152 0.204532,0.47244 0.681409,0.83464 1.288902,0.97896 0.42972,0.10209 1.000313,0.0784 1.385125,-0.0574 0.02772,-0.01 0.05517,-0.0178 0.06102,-0.0178 0.0058,0 -0.02422,0.0309 -0.06681,0.0687 -0.524714,0.46578 -0.866288,1.33292 -0.811038,2.05893 0.05791,0.76078 0.456674,1.27784 1.144206,1.48363 0.312148,0.0935 0.732476,0.11938 1.099397,0.0679 0.757128,-0.10628 1.23444,-0.53226 1.385407,-1.23644 0.03502,-0.16341 0.04321,-0.50816 0.01696,-0.71532 -0.02252,-0.17768 -0.08854,-0.44939 -0.149921,-0.61685 -0.06312,-0.17222 -0.21177,-0.46693 -0.308118,-0.61088 -0.112051,-0.16739 -0.170505,-0.23904 -0.310663,-0.3808 l -0.115897,-0.11724 0.132473,0.0449 c 0.230404,0.0781 0.384331,0.10444 0.649565,0.11145 0.143927,0.003 0.274996,7.4e-4 0.345351,-0.007 0.717311,-0.0846 1.318202,-0.46668 1.59258,-1.01265 0.192353,-0.38276 0.212214,-0.82025 0.05823,-1.28279 -0.169841,-0.510184 -0.493808,-0.845444 -0.971152,-1.005027 -0.156775,-0.05245 -0.291869,-0.0755 -0.48541,-0.08291 -0.362504,-0.01395 -0.722821,0.06605 -1.072798,0.237817 -0.266682,0.130932 -0.513432,0.313661 -0.661886,0.49018 -0.0402,0.0478 -0.07457,0.0826 -0.07636,0.0772 -0.0045,-0.0133 0.07149,-0.380219 0.113738,-0.549377 0.208589,-0.835238 0.452559,-1.324932 0.92085,-1.848296 0.13532,-0.151236 0.252481,-0.29587 0.252481,-0.311683 0,-0.0066 -0.648882,-0.01077 -1.687076,-0.01077 -0.927893,0 -1.687076,0.0034 -1.687076,0.0074 z"
         style="fill:#000000;stroke-width:0.130581"
         id="path1-0-4-5-2-0-5-7-4-9" /><text
         xml:space="preserve"
         transform="matrix(0.26458333,0,0,0.26458333,2.683084,-3.3247578)"
         id="text2-5-5-3-0-1"
         style="font-style:normal;font-weight:normal;font-size:40px;line-height:1.25;font-family:sans-serif;white-space:pre;shape-inside:url(#rect2-6-7-6-1-3);display:inline;fill:#000000;fill-opacity:1;stroke:none"><tspan
           x="208.77734"
           y="278.77427"
           id="tspan2"><tspan
             style="font-weight:600;font-family:'New York Extra Large';-inkscape-font-specification:'New York Extra Large Semi-Bold'"
             id="tspan1">8</tspan></tspan></text><text
         xml:space="preserve"
         transform="matrix(-0.26458333,0,0,-0.26458333,145.80447,177.51899)"
         id="text2-7-4-1-5-7-5"
         style="font-style:normal;font-weight:normal;font-size:40px;line-height:1.25;font-family:sans-serif;white-space:pre;shape-inside:url(#rect2-1-0-5-1-0-3);display:inline;fill:#000000;fill-opacity:1;stroke:none"><tspan
           x="208.77734"
           y="278.77427"
           id="tspan4"><tspan
             style="font-weight:600;font-family:'New York Extra Large';-inkscape-font-specification:'New York Extra Large Semi-Bold'"
             id="tspan3">8</tspan></tspan></text></g></g></svg>
